<svg xmlns="http://www.w3.org/2000/svg" width="1000" height="800" viewBox="0 0 1000 800">
<rect width="100%" height="100%" fill="white"/>
<text x="70" y="35" font-family="monospace" font-size="20">raspi_backendfix_imu_csv_shift0455_full, tracked=1975</text>
<polyline points="96.35,319.27 305.50,162.83 439.82,215.31 629.82,145.12 99.88,317.65 930.00,70.00 227.03,446.20 285.64,517.80 101.50,319.76 132.96,462.76 139.50,502.08 160.45,612.83 102.36,323.14 109.46,360.54 131.64,401.35 158.25,419.26 160.37,378.17 208.94,401.54 255.44,410.06 302.81,432.06 193.97,385.64 256.35,389.32 242.86,391.82 265.71,399.68 111.20,327.24 121.00,339.91 122.05,334.20 126.57,338.12 104.30,323.81 104.90,326.35 105.66,328.21 106.91,332.90 107.42,334.01 106.33,334.65 107.15,335.11 107.45,335.18 104.59,324.46 109.96,326.51 113.60,328.33 119.89,333.01 105.49,325.03 116.07,327.93 130.34,332.17 144.17,338.62 166.25,353.23 175.77,355.44 182.44,364.48 187.88,372.24 195.89,382.18 200.76,389.90 201.41,407.05 201.40,423.07 178.34,396.63 173.36,406.92 167.84,416.46 186.55,465.23 182.95,442.65 180.30,445.15 176.32,451.18 178.20,462.58 162.48,432.77 162.39,437.67 167.67,447.82 174.59,454.67 176.10,455.18 181.98,463.04 187.16,472.06 195.05,479.94 109.43,332.18 116.58,335.58 123.84,342.26 130.98,346.30 108.83,335.25 112.16,339.76 114.18,340.52 115.37,340.36 220.74,489.31 219.91,487.33 219.73,489.69 218.35,487.18 111.58,333.05 111.35,331.38 108.47,324.22 108.29,322.79 130.73,334.89 134.15,338.86 134.11,344.96 135.64,352.81 123.68,347.77 128.64,357.57 132.00,372.27 125.46,387.05 116.40,346.70 120.05,355.80 126.04,368.75 147.87,430.65 121.28,354.46 123.21,354.99 127.95,360.43 129.49,366.10 112.48,337.90 112.24,337.86 112.19,337.94 111.72,339.61 111.78,338.83 111.40,338.80 105.51,337.51 98.72,340.32 102.91,381.46 99.19,377.82 97.10,377.36 95.37,378.93 110.84,338.43 109.78,331.26 109.70,332.73 108.68,339.40 110.59,338.32 108.88,333.94 109.15,335.01 107.65,337.91 110.47,338.39 110.71,338.66 110.05,339.57 109.16,346.39 110.40,339.06 109.81,338.80 109.02,354.49 108.00,366.99 110.25,364.21 107.18,368.14 112.19,390.23 112.47,411.15 110.84,387.81 112.50,401.02 113.60,418.82 116.99,421.97 112.61,371.48 113.70,374.64 112.55,388.68 112.75,394.55 111.04,349.19 108.42,353.96 105.82,356.78 102.77,362.97 108.66,377.51 106.50,375.92 106.75,376.32 105.92,375.05 104.77,393.32 103.72,393.74 101.43,396.77 101.31,400.60 108.94,353.18 108.70,353.52 107.84,360.49 107.61,370.89 108.41,361.26 108.90,368.15 109.74,379.00 109.79,377.50 108.93,372.82 109.24,372.50 109.80,375.49 109.94,375.71 109.19,362.82 108.79,364.92 108.50,366.56 108.00,368.95 108.83,362.34 108.62,362.30 107.04,362.38 105.61,362.39 107.66,363.21 106.85,364.03 105.97,364.62 104.22,366.78 106.81,364.17 106.36,364.76 105.75,365.64 105.24,367.51 106.31,365.79 105.81,368.57 105.56,372.05 105.31,374.17 105.63,373.04 105.52,376.57 104.80,380.30 104.41,383.48 102.96,384.80 102.60,386.85 102.48,387.73 101.65,388.91 102.09,385.50 102.01,385.49 102.04,385.42 101.47,385.10 100.67,385.91 100.53,386.72 100.43,387.11 100.63,386.03 99.57,387.27 99.53,387.42 99.54,387.38 99.27,388.27 98.28,391.11 98.20,391.91 98.37,393.07 97.49,397.45 98.04,397.66 98.07,400.33 97.72,403.29 97.56,405.98 102.89,382.43 102.81,383.76 102.59,384.83 102.30,386.10 96.02,410.13 95.75,410.17 95.34,410.25 95.17,410.32 101.61,384.93 101.55,384.77 101.45,384.86 100.16,385.08 100.68,384.43 100.52,384.13 100.17,383.76 99.81,383.72 99.87,384.74 99.44,384.91 98.69,385.68 97.99,386.88 96.83,387.95 96.38,389.79 95.71,391.34 95.03,393.08 94.53,393.93 94.09,394.90 93.63,395.77 93.39,396.08 97.66,389.42 96.96,391.73 97.15,390.83 96.85,390.65 97.30,388.41 97.24,387.70 97.08,387.36 97.20,386.69 91.44,392.62 90.94,392.90 90.92,392.57 90.77,392.18 91.30,391.21 91.26,390.95 91.32,390.87 91.25,390.77 91.35,390.80 91.37,390.78 91.44,390.90 91.32,390.71 91.36,390.62 91.71,390.86 91.47,390.59 91.64,390.75 96.91,387.08 96.92,386.91 96.66,386.62 96.44,386.42 96.65,386.74 96.32,385.96 95.68,385.86 95.72,385.51 95.08,387.08 94.85,386.36 94.66,387.14 91.66,389.34 88.52,389.64 89.11,378.88 87.79,379.68 86.83,379.84 86.12,390.24 85.75,389.79 85.76,389.24 85.71,388.95 85.78,387.68 85.44,388.32 85.24,387.92 85.56,386.28 85.37,385.93 85.10,385.19 84.74,384.94 84.64,385.03 83.03,383.98 81.09,385.25 80.46,385.11 79.22,385.48 79.05,384.42 77.86,384.43 76.58,385.26 75.35,385.32 74.64,384.48 74.02,384.26 73.30,384.09 72.71,384.22 72.60,383.45 72.88,381.70 72.71,381.37 72.82,380.89 86.06,384.28 86.06,383.86 85.98,383.47 86.22,383.06 86.13,383.40 86.26,383.45 86.20,383.31 86.18,383.37 86.05,383.23 85.87,383.04 85.61,382.77 85.25,382.64 84.56,382.41 84.12,381.60 83.17,381.16 82.20,381.03 80.73,381.35 79.72,381.20 78.23,381.36 77.15,381.65 75.70,381.17 72.01,383.51 70.87,383.35 70.42,383.28 72.47,380.76 72.27,380.38 72.13,379.79 72.18,379.09 79.98,381.46 81.54,379.75 81.77,379.44 82.00,378.98 80.72,379.86 80.84,379.71 80.99,379.21 81.26,379.04 81.17,378.98 81.96,378.96 82.00,378.59 81.72,378.38 81.43,377.74 81.71,377.54 81.74,377.39 82.25,376.63 81.16,378.89 79.94,378.40 79.89,378.45 79.67,378.49 81.14,378.86 81.04,378.96 80.80,378.94 80.45,378.24 80.91,378.73 81.70,376.91 81.09,376.14 80.46,375.18 78.05,373.67 77.27,372.64 76.53,371.87 75.69,370.52 75.40,366.56 74.71,365.67 74.22,364.74 73.78,363.89 73.98,362.71 73.98,362.34 74.26,361.59 74.66,360.02 75.09,359.73 75.26,358.48 75.91,357.96 76.39,355.63 76.85,355.06 77.05,354.51 77.41,353.25 77.63,352.08 79.67,367.33 79.91,365.96 80.09,364.54 80.37,363.27 80.07,362.01 80.03,361.92 79.76,359.47 79.74,356.68 79.88,361.71 80.58,360.98 80.71,358.76 80.47,357.51 79.56,355.16 79.36,354.47 79.76,353.09 80.02,352.27 80.18,356.89 80.20,354.86 80.67,354.08 81.44,353.26 82.33,353.98 82.92,353.85 83.43,353.12 83.89,352.91 82.61,354.16 84.80,351.76 85.08,351.65 85.83,350.11 83.58,352.50 84.12,351.15 84.79,349.84 85.18,348.39 85.25,347.53 85.21,348.20 85.36,347.09 85.38,346.23 86.00,343.34 86.12,342.62 86.40,342.26 86.58,341.69 86.91,340.20 86.62,339.15 87.78,339.25 87.62,338.74 85.88,346.24 85.96,346.36 86.93,345.62 87.25,344.75 87.84,343.71 89.90,340.80 90.35,340.11 90.81,339.28 87.44,343.96 87.65,342.99 88.02,341.53 87.97,339.76 87.80,341.32 88.19,338.20 88.08,336.16 87.92,333.99 87.88,332.47 87.90,331.02 88.02,329.03 88.09,327.22 88.01,333.89 89.51,331.27 90.18,329.35 90.40,328.80 88.44,332.45 88.61,332.23 89.33,331.52 89.71,331.12 89.95,330.65 89.72,331.97 90.45,331.32 91.09,330.28 91.96,327.93 92.23,327.58 92.58,326.57 92.97,325.75 93.31,324.25 94.98,322.96 95.17,321.59 95.74,319.83 94.58,317.78 94.81,315.81 94.88,314.06 95.10,312.64 95.08,311.57 96.33,310.53 96.40,309.87 96.87,309.69 95.99,309.85 97.44,309.70 97.60,309.92 98.09,310.41 97.00,310.44 97.15,310.84 97.24,311.02 97.48,311.00 97.85,311.03 98.34,311.14 98.54,310.93 98.65,310.37 98.79,309.55 99.24,309.09 99.13,307.88 99.47,306.62 99.77,305.12 100.17,303.68 100.37,302.04 100.69,300.86 94.21,316.92 94.43,315.89 94.48,315.04 94.41,314.80 92.75,311.47 92.80,311.50 92.72,311.93 92.46,312.06 92.02,312.28 91.97,312.12 91.82,312.22 91.60,312.15 91.70,312.77 92.02,313.81 92.04,314.16 92.08,314.23 91.80,313.77 91.71,313.86 91.61,313.87 91.58,314.14 91.54,314.37 91.31,314.23 91.21,314.27 91.14,314.35 91.15,314.46 91.15,314.42 91.10,314.42 91.01,314.36 90.88,314.42 90.70,314.40 90.59,314.38 90.64,314.42 93.09,317.24 93.07,317.12 93.07,317.10 93.03,316.88 93.09,317.28 93.21,317.29 93.34,317.26 93.34,317.07 93.23,317.24 93.58,317.28 94.00,317.48 94.47,317.71 95.04,317.84 95.80,317.76 96.59,317.80 97.39,317.69 98.39,317.55 99.39,317.27 100.50,316.94 101.68,316.41 97.72,316.43 98.62,315.84 99.56,315.92 100.37,316.55 99.29,316.83 99.79,317.70 100.16,318.81 100.52,319.91 100.48,318.88 101.01,320.10 101.65,321.45 102.03,322.52 101.52,321.29 102.07,322.30 102.80,323.07 103.39,324.00 102.97,323.27 96.61,320.44 97.20,321.00 97.79,321.44 105.20,325.32 105.86,325.63 106.55,325.94 107.12,326.15 107.60,326.40 108.09,326.68 108.34,327.22 108.54,327.63 107.45,327.45 107.50,327.90 107.49,328.54 107.38,329.06 107.47,329.57 107.54,329.96 107.52,330.28 107.40,330.43 107.38,330.46 107.35,330.52 107.50,330.99 107.64,331.41 107.91,331.76 108.22,331.96 108.47,333.05 108.67,333.72 108.97,334.47 109.14,335.08 109.40,335.74 109.29,335.82 108.95,335.42 108.86,335.20 108.79,335.15 108.71,334.99 108.66,334.96 108.66,334.93 108.70,334.84 108.53,334.39 108.59,334.40 108.33,333.78 108.36,333.72 108.39,333.56 108.70,333.53 108.75,333.51 108.73,333.28 108.76,333.10 108.74,333.26 108.90,333.31 108.94,333.37 109.07,333.51 109.01,333.21 109.04,333.26 109.11,333.38 109.18,333.39 109.84,334.30 110.15,334.95 110.92,336.32 111.37,336.96 111.45,336.92 111.80,337.57 112.20,338.11 112.36,338.51 112.77,339.16 113.25,339.87 113.43,340.50 113.46,340.95 112.68,340.93 112.57,341.25 112.45,341.76 112.17,342.12 111.86,342.30 111.51,342.83 111.18,343.45 110.98,344.12 110.73,344.68 110.60,345.27 110.54,345.76 110.38,346.17 110.57,347.16 110.75,347.55 110.87,348.30 111.05,348.93 110.76,350.44 110.86,351.69 111.12,352.72 111.47,354.14 111.57,355.63 111.62,356.89 111.51,357.66 111.65,358.35 111.53,358.57 111.58,358.66 111.36,358.84 111.38,358.80 110.74,358.75 110.21,360.05 109.87,360.70 109.54,361.11 109.71,360.67 109.40,361.25 109.28,361.85 109.16,362.22 108.92,361.70 108.86,362.78 108.76,363.33 108.78,363.86 108.47,365.18 108.34,366.17 108.34,367.47 108.22,368.69 108.33,369.86 108.38,370.94 108.39,371.60 108.39,372.53 108.19,372.52 108.00,372.95 107.80,373.14 107.54,373.33 107.38,373.00 106.96,373.32 106.51,373.60 106.23,373.73 106.26,373.80 106.09,373.74 105.88,374.22 105.70,374.43 105.66,374.55 105.30,375.08 105.16,375.36 105.03,375.87 105.05,376.10 104.94,376.43 104.71,377.50 104.60,378.41 104.38,379.71 104.30,380.60 104.37,381.46 104.12,382.65 103.89,382.99 103.80,383.72 103.74,384.34 103.66,385.02 103.50,385.18 103.22,385.46 102.97,385.26 102.63,385.34 102.45,385.44 102.20,385.30 101.83,385.22 101.55,385.27 101.12,385.33 100.88,385.80 100.70,385.97 100.45,386.07 100.42,385.72 100.33,385.89 100.19,386.06 100.17,386.37 100.05,386.82 100.09,387.18 99.99,387.57 99.89,388.08 99.74,388.52 99.68,388.77 99.68,389.18 99.65,389.59 99.46,389.72 99.10,385.26 99.15,385.17 99.06,385.02 99.39,389.22 99.23,389.08 98.99,388.50 98.73,388.20 98.52,387.86 98.17,387.91 97.94,387.53 97.65,387.29 97.61,387.14 97.53,387.10 97.35,387.12 97.04,386.98 96.52,387.17 96.18,387.47 95.70,387.83 95.30,388.20 94.58,388.44 93.92,388.90 93.45,389.19 93.00,389.58 92.55,389.76 92.09,390.01 91.87,390.07 91.76,390.26 91.52,389.51 91.48,389.39 91.39,389.31 91.30,389.29 91.38,388.25 91.10,387.05 91.07,386.64 90.96,386.23 90.72,386.52 90.52,386.18 90.45,385.92 90.27,385.62 89.92,385.49 89.52,385.67 89.15,385.27 88.69,385.22 88.38,384.72 87.93,384.73 87.25,384.62 86.62,384.46 86.15,384.51 85.56,384.67 85.17,384.59 84.88,384.46 84.69,384.18 84.54,384.09 84.33,383.77 84.30,383.48 84.19,383.10 84.07,382.33 83.90,382.10 83.70,381.55 83.40,381.52 83.32,381.05 83.28,380.59 83.10,380.27 83.10,379.95 82.92,380.07 82.90,379.78 82.74,379.54 82.68,379.24 82.71,379.06 82.41,379.14 82.11,379.13 81.97,379.15 81.81,379.24 81.63,379.34 81.44,379.35 81.20,379.49 81.13,379.53 80.92,379.56 80.80,379.75 80.65,379.55 80.49,379.21 80.46,378.81 80.57,378.35 80.85,377.87 80.94,377.82 80.99,377.76 81.20,376.27 81.36,375.40 81.25,374.91 81.22,374.46 81.35,374.10 81.68,373.63 81.84,373.41 81.95,372.86 81.95,372.33 81.71,372.12 81.44,371.25 81.18,370.61 80.92,369.86 81.10,368.95 80.77,368.14 80.44,367.33 80.04,366.51 79.62,365.67 79.31,364.93 79.18,364.06 78.97,363.45 79.03,362.70 79.13,362.21 79.42,361.58 79.68,360.97 79.83,360.50 80.14,359.82 80.45,359.21 80.77,358.63 81.25,358.10 81.20,357.79 81.26,357.63 81.59,356.77 81.80,356.35 81.99,356.24 82.03,355.95 82.22,355.56 82.29,354.98 82.46,354.47 82.52,353.71 82.52,353.11 82.75,352.17 82.82,350.65 83.01,349.47 83.01,348.47 82.77,347.84 82.61,346.91 82.74,346.01 82.88,345.33 83.13,345.06 83.46,344.71 83.77,344.47 84.21,344.12 84.36,343.84 84.65,343.55 84.91,343.10 85.20,342.61 85.40,342.20 85.54,341.53 85.79,341.06 86.01,340.64 86.29,340.36 86.50,339.77 86.66,339.09 86.76,338.24 86.86,337.38 87.15,336.64 87.19,335.47 87.18,334.46 86.85,333.28 86.73,332.28 86.69,331.35 86.70,330.55 86.72,330.05 86.75,329.42 86.89,329.00 87.06,328.37 87.42,327.99 87.55,327.75 88.00,327.46 88.29,327.28 88.72,326.91 89.28,326.79 89.69,326.68 90.07,326.45 90.24,326.67 90.56,326.49 90.78,326.41 90.97,326.24 91.17,326.08 91.31,325.53 91.56,324.98 91.80,324.30 92.16,323.63 92.44,322.50 92.70,321.33 93.12,319.99 93.45,318.74 93.66,317.39 93.74,316.41 93.83,315.70 93.83,314.99 93.81,314.56 93.81,314.19 93.79,314.03 93.90,313.96 93.94,313.92 93.90,313.87 93.89,314.06 93.80,314.00 93.74,314.07 93.76,314.26 93.69,314.55 93.67,314.65 93.60,314.96 93.47,315.21 93.40,315.49 93.35,315.45 93.37,315.48 93.32,315.67 93.38,315.85 93.38,315.88 93.43,315.71 93.53,315.57 93.62,315.47 93.71,315.35 93.73,315.05 93.80,314.66 93.91,314.29 94.06,314.09 94.13,313.76 94.11,313.60 94.06,313.52 93.88,313.61 93.75,313.56 93.63,313.88 93.48,314.33 93.45,314.40 93.36,314.81 93.24,315.11 93.10,315.49 93.02,316.04 93.01,316.40 92.92,316.65 92.77,316.90 92.75,316.92 92.78,317.25 92.81,317.26 92.78,317.51 92.68,317.19 92.70,317.30 92.69,317.45 92.72,317.49 92.78,317.68 92.82,317.71 92.87,317.73 92.89,317.75 92.92,317.90 92.93,317.92 92.95,317.93 92.92,317.96 92.94,317.92 93.01,318.02 92.96,317.97 92.94,318.06 92.88,318.00 92.88,317.98 92.85,317.96 92.87,317.99" fill="none" stroke="#222" stroke-width="1.5" opacity="0.45"/>
<circle cx="96.35" cy="319.27" r="2.2" fill="rgb(0,0,255)"/>
<circle cx="383.74" cy="196.87" r="2.2" fill="rgb(0,0,254)"/>
<circle cx="629.82" cy="145.12" r="2.2" fill="rgb(0,1,254)"/>
<circle cx="740.26" cy="185.43" r="2.2" fill="rgb(1,1,253)"/>
<circle cx="227.03" cy="446.20" r="2.2" fill="rgb(1,2,253)"/>
<circle cx="313.84" cy="618.17" r="2.2" fill="rgb(1,2,253)"/>
<circle cx="132.96" cy="462.76" r="2.2" fill="rgb(2,3,252)"/>
<circle cx="146.42" cy="546.11" r="2.2" fill="rgb(2,3,252)"/>
<circle cx="102.36" cy="323.14" r="2.2" fill="rgb(3,4,251)"/>
<circle cx="118.99" cy="376.89" r="2.2" fill="rgb(3,4,251)"/>
<circle cx="158.25" cy="419.26" r="2.2" fill="rgb(3,5,251)"/>
<circle cx="179.30" cy="379.21" r="2.2" fill="rgb(4,6,250)"/>
<circle cx="255.44" cy="410.06" r="2.2" fill="rgb(4,6,250)"/>
<circle cx="338.26" cy="440.37" r="2.2" fill="rgb(5,7,249)"/>
<circle cx="256.35" cy="389.32" r="2.2" fill="rgb(5,7,249)"/>
<circle cx="254.55" cy="393.95" r="2.2" fill="rgb(5,8,249)"/>
<circle cx="111.20" cy="327.24" r="2.2" fill="rgb(6,8,248)"/>
<circle cx="118.81" cy="332.43" r="2.2" fill="rgb(6,9,248)"/>
<circle cx="126.57" cy="338.12" r="2.2" fill="rgb(6,9,248)"/>
<circle cx="107.33" cy="325.45" r="2.2" fill="rgb(7,10,247)"/>
<circle cx="105.66" cy="328.21" r="2.2" fill="rgb(7,10,247)"/>
<circle cx="106.48" cy="332.49" r="2.2" fill="rgb(8,11,246)"/>
<circle cx="106.33" cy="334.65" r="2.2" fill="rgb(8,12,246)"/>
<circle cx="106.47" cy="334.77" r="2.2" fill="rgb(8,12,246)"/>
<circle cx="104.59" cy="324.46" r="2.2" fill="rgb(9,13,245)"/>
<circle cx="109.63" cy="325.78" r="2.2" fill="rgb(9,13,245)"/>
<circle cx="119.89" cy="333.01" r="2.2" fill="rgb(10,14,244)"/>
<circle cx="110.71" cy="328.42" r="2.2" fill="rgb(10,14,244)"/>
<circle cx="130.34" cy="332.17" r="2.2" fill="rgb(10,15,244)"/>
<circle cx="148.95" cy="339.91" r="2.2" fill="rgb(11,15,243)"/>
<circle cx="175.77" cy="355.44" r="2.2" fill="rgb(11,16,243)"/>
<circle cx="186.63" cy="368.02" r="2.2" fill="rgb(12,16,242)"/>
<circle cx="195.89" cy="382.18" r="2.2" fill="rgb(12,17,242)"/>
<circle cx="201.41" cy="396.51" r="2.2" fill="rgb(12,18,242)"/>
<circle cx="201.40" cy="423.07" r="2.2" fill="rgb(13,18,241)"/>
<circle cx="174.82" cy="402.01" r="2.2" fill="rgb(13,19,241)"/>
<circle cx="167.84" cy="416.46" r="2.2" fill="rgb(13,19,241)"/>
<circle cx="184.11" cy="466.28" r="2.2" fill="rgb(14,20,240)"/>
<circle cx="180.30" cy="445.15" r="2.2" fill="rgb(14,20,240)"/>
<circle cx="178.13" cy="454.97" r="2.2" fill="rgb(15,21,239)"/>
<circle cx="162.48" cy="432.77" r="2.2" fill="rgb(15,21,239)"/>
<circle cx="162.97" cy="440.99" r="2.2" fill="rgb(15,22,239)"/>
<circle cx="174.59" cy="454.67" r="2.2" fill="rgb(16,22,238)"/>
<circle cx="178.58" cy="457.59" r="2.2" fill="rgb(16,23,238)"/>
<circle cx="187.16" cy="472.06" r="2.2" fill="rgb(17,24,237)"/>
<circle cx="215.91" cy="515.06" r="2.2" fill="rgb(17,24,237)"/>
<circle cx="116.58" cy="335.58" r="2.2" fill="rgb(17,25,237)"/>
<circle cx="127.34" cy="345.05" r="2.2" fill="rgb(18,25,236)"/>
<circle cx="108.83" cy="335.25" r="2.2" fill="rgb(18,26,236)"/>
<circle cx="112.96" cy="340.84" r="2.2" fill="rgb(18,26,236)"/>
<circle cx="115.37" cy="340.36" r="2.2" fill="rgb(19,27,235)"/>
<circle cx="220.25" cy="488.38" r="2.2" fill="rgb(19,27,235)"/>
<circle cx="219.73" cy="489.69" r="2.2" fill="rgb(20,28,234)"/>
<circle cx="215.10" cy="484.24" r="2.2" fill="rgb(20,28,234)"/>
<circle cx="111.35" cy="331.38" r="2.2" fill="rgb(20,29,234)"/>
<circle cx="108.29" cy="322.33" r="2.2" fill="rgb(21,30,233)"/>
<circle cx="130.73" cy="334.89" r="2.2" fill="rgb(21,30,233)"/>
<circle cx="133.54" cy="341.26" r="2.2" fill="rgb(22,31,232)"/>
<circle cx="135.64" cy="352.81" r="2.2" fill="rgb(22,31,232)"/>
<circle cx="125.22" cy="352.48" r="2.2" fill="rgb(22,32,232)"/>
<circle cx="132.00" cy="372.27" r="2.2" fill="rgb(23,32,231)"/>
<circle cx="153.77" cy="400.42" r="2.2" fill="rgb(23,33,231)"/>
<circle cx="120.05" cy="355.80" r="2.2" fill="rgb(24,33,230)"/>
<circle cx="126.92" cy="370.97" r="2.2" fill="rgb(24,34,230)"/>
<circle cx="121.28" cy="354.46" r="2.2" fill="rgb(24,35,230)"/>
<circle cx="126.92" cy="356.90" r="2.2" fill="rgb(25,35,229)"/>
<circle cx="129.49" cy="366.10" r="2.2" fill="rgb(25,36,229)"/>
<circle cx="113.36" cy="340.45" r="2.2" fill="rgb(25,36,229)"/>
<circle cx="112.19" cy="337.94" r="2.2" fill="rgb(26,37,228)"/>
<circle cx="110.86" cy="342.03" r="2.2" fill="rgb(26,37,228)"/>
<circle cx="111.40" cy="338.80" r="2.2" fill="rgb(27,38,227)"/>
<circle cx="102.32" cy="336.35" r="2.2" fill="rgb(27,38,227)"/>
<circle cx="102.91" cy="381.46" r="2.2" fill="rgb(27,39,227)"/>
<circle cx="96.39" cy="377.31" r="2.2" fill="rgb(28,39,226)"/>
<circle cx="95.37" cy="378.93" r="2.2" fill="rgb(28,40,226)"/>
<circle cx="110.25" cy="332.90" r="2.2" fill="rgb(29,41,225)"/>
<circle cx="109.70" cy="332.73" r="2.2" fill="rgb(29,41,225)"/>
<circle cx="108.61" cy="339.25" r="2.2" fill="rgb(29,42,225)"/>
<circle cx="108.88" cy="333.94" r="2.2" fill="rgb(30,42,224)"/>
<circle cx="109.16" cy="337.35" r="2.2" fill="rgb(30,43,224)"/>
<circle cx="110.47" cy="338.39" r="2.2" fill="rgb(31,43,223)"/>
<circle cx="110.39" cy="339.12" r="2.2" fill="rgb(31,44,223)"/>
<circle cx="109.16" cy="346.39" r="2.2" fill="rgb(31,44,223)"/>
<circle cx="109.54" cy="338.17" r="2.2" fill="rgb(32,45,222)"/>
<circle cx="109.02" cy="354.49" r="2.2" fill="rgb(32,45,222)"/>
<circle cx="108.45" cy="373.68" r="2.2" fill="rgb(32,46,222)"/>
<circle cx="107.18" cy="368.14" r="2.2" fill="rgb(33,47,221)"/>
<circle cx="112.27" cy="399.60" r="2.2" fill="rgb(33,47,221)"/>
<circle cx="110.84" cy="387.81" r="2.2" fill="rgb(34,48,220)"/>
<circle cx="114.07" cy="410.33" r="2.2" fill="rgb(34,48,220)"/>
<circle cx="116.99" cy="421.97" r="2.2" fill="rgb(34,49,220)"/>
<circle cx="111.93" cy="373.95" r="2.2" fill="rgb(35,49,219)"/>
<circle cx="112.55" cy="388.68" r="2.2" fill="rgb(35,50,219)"/>
<circle cx="111.63" cy="398.74" r="2.2" fill="rgb(36,50,218)"/>
<circle cx="108.42" cy="353.96" r="2.2" fill="rgb(36,51,218)"/>
<circle cx="104.05" cy="359.99" r="2.2" fill="rgb(36,51,218)"/>
<circle cx="108.66" cy="377.51" r="2.2" fill="rgb(37,52,217)"/>
<circle cx="106.61" cy="375.70" r="2.2" fill="rgb(37,53,217)"/>
<circle cx="105.92" cy="375.05" r="2.2" fill="rgb(37,53,217)"/>
<circle cx="103.64" cy="394.89" r="2.2" fill="rgb(38,54,216)"/>
<circle cx="101.43" cy="396.77" r="2.2" fill="rgb(38,54,216)"/>
<circle cx="100.58" cy="401.14" r="2.2" fill="rgb(39,55,215)"/>
<circle cx="108.70" cy="353.52" r="2.2" fill="rgb(39,55,215)"/>
<circle cx="107.90" cy="367.66" r="2.2" fill="rgb(39,56,215)"/>
<circle cx="108.41" cy="361.26" r="2.2" fill="rgb(40,56,214)"/>
<circle cx="109.36" cy="373.20" r="2.2" fill="rgb(40,57,214)"/>
<circle cx="109.79" cy="377.50" r="2.2" fill="rgb(41,57,213)"/>
<circle cx="109.20" cy="372.51" r="2.2" fill="rgb(41,58,213)"/>
<circle cx="109.80" cy="375.49" r="2.2" fill="rgb(41,59,213)"/>
<circle cx="110.29" cy="376.16" r="2.2" fill="rgb(42,59,212)"/>
<circle cx="108.79" cy="364.92" r="2.2" fill="rgb(42,60,212)"/>
<circle cx="108.25" cy="366.30" r="2.2" fill="rgb(43,60,211)"/>
<circle cx="108.83" cy="362.34" r="2.2" fill="rgb(43,61,211)"/>
<circle cx="107.31" cy="362.36" r="2.2" fill="rgb(43,61,211)"/>
<circle cx="105.61" cy="362.39" r="2.2" fill="rgb(44,62,210)"/>
<circle cx="107.36" cy="363.89" r="2.2" fill="rgb(44,62,210)"/>
<circle cx="105.97" cy="364.62" r="2.2" fill="rgb(44,63,210)"/>
<circle cx="103.71" cy="366.04" r="2.2" fill="rgb(45,64,209)"/>
<circle cx="106.36" cy="364.76" r="2.2" fill="rgb(45,64,209)"/>
<circle cx="105.48" cy="366.31" r="2.2" fill="rgb(46,65,208)"/>
<circle cx="106.31" cy="365.79" r="2.2" fill="rgb(46,65,208)"/>
<circle cx="105.76" cy="370.42" r="2.2" fill="rgb(46,66,208)"/>
<circle cx="105.31" cy="374.17" r="2.2" fill="rgb(47,66,207)"/>
<circle cx="105.68" cy="374.73" r="2.2" fill="rgb(47,67,207)"/>
<circle cx="104.80" cy="380.30" r="2.2" fill="rgb(48,67,206)"/>
<circle cx="104.09" cy="384.99" r="2.2" fill="rgb(48,68,206)"/>
<circle cx="102.60" cy="386.85" r="2.2" fill="rgb(48,68,206)"/>
<circle cx="102.07" cy="388.21" r="2.2" fill="rgb(49,69,205)"/>
<circle cx="102.09" cy="385.50" r="2.2" fill="rgb(49,70,205)"/>
<circle cx="102.02" cy="385.48" r="2.2" fill="rgb(49,70,205)"/>
<circle cx="101.47" cy="385.10" r="2.2" fill="rgb(50,71,204)"/>
<circle cx="100.56" cy="386.37" r="2.2" fill="rgb(50,71,204)"/>
<circle cx="100.43" cy="387.11" r="2.2" fill="rgb(51,72,203)"/>
<circle cx="100.47" cy="386.97" r="2.2" fill="rgb(51,72,203)"/>
<circle cx="99.53" cy="387.42" r="2.2" fill="rgb(51,73,203)"/>
<circle cx="99.49" cy="387.37" r="2.2" fill="rgb(52,73,202)"/>
<circle cx="98.28" cy="391.11" r="2.2" fill="rgb(52,74,202)"/>
<circle cx="98.40" cy="392.48" r="2.2" fill="rgb(53,74,201)"/>
<circle cx="97.49" cy="397.45" r="2.2" fill="rgb(53,75,201)"/>
<circle cx="98.23" cy="398.58" r="2.2" fill="rgb(53,76,201)"/>
<circle cx="97.72" cy="403.29" r="2.2" fill="rgb(54,76,200)"/>
<circle cx="96.94" cy="405.38" r="2.2" fill="rgb(54,77,200)"/>
<circle cx="102.81" cy="383.76" r="2.2" fill="rgb(55,77,199)"/>
<circle cx="102.44" cy="385.65" r="2.2" fill="rgb(55,78,199)"/>
<circle cx="96.02" cy="410.13" r="2.2" fill="rgb(55,78,199)"/>
<circle cx="95.55" cy="410.03" r="2.2" fill="rgb(56,79,198)"/>
<circle cx="95.17" cy="410.32" r="2.2" fill="rgb(56,79,198)"/>
<circle cx="101.59" cy="384.88" r="2.2" fill="rgb(56,80,198)"/>
<circle cx="101.45" cy="384.86" r="2.2" fill="rgb(57,80,197)"/>
<circle cx="99.52" cy="384.97" r="2.2" fill="rgb(57,81,197)"/>
<circle cx="100.52" cy="384.13" r="2.2" fill="rgb(58,82,196)"/>
<circle cx="99.94" cy="383.91" r="2.2" fill="rgb(58,82,196)"/>
<circle cx="99.87" cy="384.74" r="2.2" fill="rgb(58,83,196)"/>
<circle cx="99.01" cy="385.19" r="2.2" fill="rgb(59,83,195)"/>
<circle cx="97.99" cy="386.88" r="2.2" fill="rgb(59,84,195)"/>
<circle cx="96.61" cy="388.80" r="2.2" fill="rgb(60,84,194)"/>
<circle cx="95.71" cy="391.34" r="2.2" fill="rgb(60,85,194)"/>
<circle cx="94.74" cy="393.97" r="2.2" fill="rgb(60,85,194)"/>
<circle cx="94.09" cy="394.90" r="2.2" fill="rgb(61,86,193)"/>
<circle cx="93.52" cy="395.78" r="2.2" fill="rgb(61,86,193)"/>
<circle cx="97.66" cy="389.42" r="2.2" fill="rgb(62,87,192)"/>
<circle cx="97.16" cy="391.19" r="2.2" fill="rgb(62,88,192)"/>
<circle cx="96.85" cy="390.65" r="2.2" fill="rgb(62,88,192)"/>
<circle cx="97.28" cy="388.12" r="2.2" fill="rgb(63,89,191)"/>
<circle cx="97.08" cy="387.36" r="2.2" fill="rgb(63,89,191)"/>
<circle cx="97.02" cy="386.39" r="2.2" fill="rgb(63,90,191)"/>
<circle cx="90.94" cy="392.90" r="2.2" fill="rgb(64,90,190)"/>
<circle cx="90.82" cy="392.54" r="2.2" fill="rgb(64,91,190)"/>
<circle cx="91.30" cy="391.21" r="2.2" fill="rgb(65,91,189)"/>
<circle cx="91.29" cy="391.08" r="2.2" fill="rgb(65,92,189)"/>
<circle cx="91.25" cy="390.77" r="2.2" fill="rgb(65,93,189)"/>
<circle cx="91.34" cy="390.78" r="2.2" fill="rgb(66,93,188)"/>
<circle cx="91.44" cy="390.90" r="2.2" fill="rgb(66,94,188)"/>
<circle cx="91.30" cy="390.69" r="2.2" fill="rgb(67,94,187)"/>
<circle cx="91.71" cy="390.86" r="2.2" fill="rgb(67,95,187)"/>
<circle cx="91.52" cy="390.62" r="2.2" fill="rgb(67,95,187)"/>
<circle cx="96.91" cy="387.08" r="2.2" fill="rgb(68,96,186)"/>
<circle cx="96.79" cy="386.74" r="2.2" fill="rgb(68,96,186)"/>
<circle cx="96.44" cy="386.42" r="2.2" fill="rgb(68,97,186)"/>
<circle cx="96.67" cy="386.33" r="2.2" fill="rgb(69,97,185)"/>
<circle cx="95.68" cy="385.86" r="2.2" fill="rgb(69,98,185)"/>
<circle cx="95.55" cy="385.23" r="2.2" fill="rgb(70,99,184)"/>
<circle cx="94.85" cy="386.36" r="2.2" fill="rgb(70,99,184)"/>
<circle cx="94.40" cy="386.22" r="2.2" fill="rgb(70,100,184)"/>
<circle cx="88.52" cy="389.64" r="2.2" fill="rgb(71,100,183)"/>
<circle cx="88.06" cy="379.69" r="2.2" fill="rgb(71,101,183)"/>
<circle cx="86.83" cy="379.84" r="2.2" fill="rgb(72,101,182)"/>
<circle cx="85.96" cy="389.91" r="2.2" fill="rgb(72,102,182)"/>
<circle cx="85.76" cy="389.24" r="2.2" fill="rgb(72,102,182)"/>
<circle cx="85.64" cy="388.78" r="2.2" fill="rgb(73,103,181)"/>
<circle cx="85.44" cy="388.32" r="2.2" fill="rgb(73,103,181)"/>
<circle cx="85.34" cy="387.38" r="2.2" fill="rgb(74,104,180)"/>
<circle cx="85.37" cy="385.93" r="2.2" fill="rgb(74,105,180)"/>
<circle cx="84.97" cy="385.03" r="2.2" fill="rgb(74,105,180)"/>
<circle cx="84.64" cy="385.03" r="2.2" fill="rgb(75,106,179)"/>
<circle cx="81.49" cy="385.20" r="2.2" fill="rgb(75,106,179)"/>
<circle cx="80.46" cy="385.11" r="2.2" fill="rgb(75,107,179)"/>
<circle cx="80.37" cy="384.49" r="2.2" fill="rgb(76,107,178)"/>
<circle cx="77.86" cy="384.43" r="2.2" fill="rgb(76,108,178)"/>
<circle cx="75.90" cy="385.33" r="2.2" fill="rgb(77,108,177)"/>
<circle cx="74.64" cy="384.48" r="2.2" fill="rgb(77,109,177)"/>
<circle cx="73.70" cy="384.30" r="2.2" fill="rgb(77,109,177)"/>
<circle cx="72.71" cy="384.22" r="2.2" fill="rgb(78,110,176)"/>
<circle cx="72.74" cy="383.93" r="2.2" fill="rgb(78,111,176)"/>
<circle cx="72.71" cy="381.37" r="2.2" fill="rgb(79,111,175)"/>
<circle cx="72.94" cy="381.11" r="2.2" fill="rgb(79,112,175)"/>
<circle cx="86.06" cy="383.86" r="2.2" fill="rgb(79,112,175)"/>
<circle cx="86.26" cy="383.43" r="2.2" fill="rgb(80,113,174)"/>
<circle cx="86.13" cy="383.40" r="2.2" fill="rgb(80,113,174)"/>
<circle cx="86.16" cy="383.31" r="2.2" fill="rgb(80,114,174)"/>
<circle cx="86.18" cy="383.37" r="2.2" fill="rgb(81,114,173)"/>
<circle cx="85.97" cy="383.11" r="2.2" fill="rgb(81,115,173)"/>
<circle cx="85.61" cy="382.77" r="2.2" fill="rgb(82,115,172)"/>
<circle cx="84.94" cy="382.55" r="2.2" fill="rgb(82,116,172)"/>
<circle cx="84.12" cy="381.60" r="2.2" fill="rgb(82,117,172)"/>
<circle cx="82.66" cy="381.08" r="2.2" fill="rgb(83,117,171)"/>
<circle cx="80.73" cy="381.35" r="2.2" fill="rgb(83,118,171)"/>
<circle cx="78.91" cy="381.28" r="2.2" fill="rgb(84,118,170)"/>
<circle cx="77.15" cy="381.65" r="2.2" fill="rgb(84,119,170)"/>
<circle cx="72.65" cy="383.35" r="2.2" fill="rgb(84,119,170)"/>
<circle cx="70.87" cy="383.35" r="2.2" fill="rgb(85,120,169)"/>
<circle cx="70.00" cy="383.13" r="2.2" fill="rgb(85,120,169)"/>
<circle cx="72.27" cy="380.38" r="2.2" fill="rgb(86,121,168)"/>
<circle cx="72.09" cy="379.54" r="2.2" fill="rgb(86,122,168)"/>
<circle cx="79.98" cy="381.46" r="2.2" fill="rgb(86,122,168)"/>
<circle cx="81.65" cy="379.72" r="2.2" fill="rgb(87,123,167)"/>
<circle cx="82.00" cy="378.98" r="2.2" fill="rgb(87,123,167)"/>
<circle cx="80.74" cy="379.91" r="2.2" fill="rgb(87,124,167)"/>
<circle cx="80.99" cy="379.21" r="2.2" fill="rgb(88,124,166)"/>
<circle cx="81.24" cy="378.83" r="2.2" fill="rgb(88,125,166)"/>
<circle cx="81.96" cy="378.96" r="2.2" fill="rgb(89,125,165)"/>
<circle cx="81.80" cy="378.55" r="2.2" fill="rgb(89,126,165)"/>
<circle cx="81.43" cy="377.74" r="2.2" fill="rgb(89,126,165)"/>
<circle cx="81.62" cy="377.50" r="2.2" fill="rgb(90,127,164)"/>
<circle cx="82.25" cy="376.63" r="2.2" fill="rgb(90,128,164)"/>
<circle cx="79.96" cy="378.53" r="2.2" fill="rgb(91,128,163)"/>
<circle cx="79.89" cy="378.45" r="2.2" fill="rgb(91,129,163)"/>
<circle cx="79.75" cy="378.47" r="2.2" fill="rgb(91,129,163)"/>
<circle cx="81.04" cy="378.96" r="2.2" fill="rgb(92,130,162)"/>
<circle cx="80.62" cy="378.51" r="2.2" fill="rgb(92,130,162)"/>
<circle cx="80.91" cy="378.73" r="2.2" fill="rgb(93,131,161)"/>
<circle cx="81.36" cy="376.61" r="2.2" fill="rgb(93,131,161)"/>
<circle cx="80.46" cy="375.18" r="2.2" fill="rgb(93,132,161)"/>
<circle cx="77.78" cy="373.17" r="2.2" fill="rgb(94,132,160)"/>
<circle cx="76.53" cy="371.87" r="2.2" fill="rgb(94,133,160)"/>
<circle cx="75.34" cy="370.10" r="2.2" fill="rgb(94,134,160)"/>
<circle cx="74.71" cy="365.67" r="2.2" fill="rgb(95,134,159)"/>
<circle cx="73.97" cy="364.18" r="2.2" fill="rgb(95,135,159)"/>
<circle cx="73.98" cy="362.71" r="2.2" fill="rgb(96,135,158)"/>
<circle cx="74.06" cy="362.01" r="2.2" fill="rgb(96,136,158)"/>
<circle cx="74.66" cy="360.02" r="2.2" fill="rgb(96,136,158)"/>
<circle cx="75.01" cy="358.80" r="2.2" fill="rgb(97,137,157)"/>
<circle cx="75.91" cy="357.96" r="2.2" fill="rgb(97,137,157)"/>
<circle cx="76.07" cy="356.40" r="2.2" fill="rgb(98,138,156)"/>
<circle cx="77.05" cy="354.51" r="2.2" fill="rgb(98,138,156)"/>
<circle cx="77.46" cy="352.75" r="2.2" fill="rgb(98,139,156)"/>
<circle cx="79.67" cy="367.33" r="2.2" fill="rgb(99,140,155)"/>
<circle cx="79.95" cy="365.31" r="2.2" fill="rgb(99,140,155)"/>
<circle cx="80.37" cy="363.27" r="2.2" fill="rgb(99,141,155)"/>
<circle cx="80.15" cy="362.04" r="2.2" fill="rgb(100,141,154)"/>
<circle cx="79.76" cy="359.47" r="2.2" fill="rgb(100,142,154)"/>
<circle cx="79.59" cy="355.61" r="2.2" fill="rgb(101,142,153)"/>
<circle cx="80.58" cy="360.98" r="2.2" fill="rgb(101,143,153)"/>
<circle cx="80.96" cy="358.11" r="2.2" fill="rgb(101,143,153)"/>
<circle cx="79.56" cy="355.16" r="2.2" fill="rgb(102,144,152)"/>
<circle cx="79.49" cy="353.87" r="2.2" fill="rgb(102,144,152)"/>
<circle cx="80.02" cy="352.27" r="2.2" fill="rgb(103,145,151)"/>
<circle cx="79.81" cy="355.34" r="2.2" fill="rgb(103,146,151)"/>
<circle cx="80.67" cy="354.08" r="2.2" fill="rgb(103,146,151)"/>
<circle cx="81.46" cy="353.24" r="2.2" fill="rgb(104,147,150)"/>
<circle cx="82.92" cy="353.85" r="2.2" fill="rgb(104,147,150)"/>
<circle cx="83.77" cy="353.14" r="2.2" fill="rgb(105,148,149)"/>
<circle cx="82.61" cy="354.16" r="2.2" fill="rgb(105,148,149)"/>
<circle cx="85.03" cy="351.74" r="2.2" fill="rgb(105,149,149)"/>
<circle cx="85.83" cy="350.11" r="2.2" fill="rgb(106,149,148)"/>
<circle cx="83.66" cy="352.06" r="2.2" fill="rgb(106,150,148)"/>
<circle cx="84.79" cy="349.84" r="2.2" fill="rgb(106,151,148)"/>
<circle cx="85.38" cy="347.76" r="2.2" fill="rgb(107,151,147)"/>
<circle cx="85.21" cy="348.20" r="2.2" fill="rgb(107,152,147)"/>
<circle cx="85.34" cy="346.50" r="2.2" fill="rgb(108,152,146)"/>
<circle cx="86.00" cy="343.34" r="2.2" fill="rgb(108,153,146)"/>
<circle cx="86.28" cy="342.33" r="2.2" fill="rgb(108,153,146)"/>
<circle cx="86.58" cy="341.69" r="2.2" fill="rgb(109,154,145)"/>
<circle cx="86.57" cy="339.32" r="2.2" fill="rgb(109,154,145)"/>
<circle cx="87.78" cy="339.25" r="2.2" fill="rgb(110,155,144)"/>
<circle cx="88.04" cy="338.40" r="2.2" fill="rgb(110,155,144)"/>
<circle cx="85.96" cy="346.36" r="2.2" fill="rgb(110,156,144)"/>
<circle cx="87.07" cy="345.25" r="2.2" fill="rgb(111,157,143)"/>
<circle cx="87.84" cy="343.71" r="2.2" fill="rgb(111,157,143)"/>
<circle cx="90.08" cy="340.30" r="2.2" fill="rgb(111,158,143)"/>
<circle cx="90.81" cy="339.28" r="2.2" fill="rgb(112,158,142)"/>
<circle cx="87.60" cy="343.42" r="2.2" fill="rgb(112,159,142)"/>
<circle cx="88.02" cy="341.53" r="2.2" fill="rgb(113,159,141)"/>
<circle cx="88.04" cy="339.29" r="2.2" fill="rgb(113,160,141)"/>
<circle cx="88.19" cy="338.20" r="2.2" fill="rgb(113,160,141)"/>
<circle cx="87.97" cy="335.49" r="2.2" fill="rgb(114,161,140)"/>
<circle cx="87.88" cy="332.47" r="2.2" fill="rgb(114,161,140)"/>
<circle cx="88.04" cy="329.94" r="2.2" fill="rgb(115,162,139)"/>
<circle cx="88.09" cy="327.22" r="2.2" fill="rgb(115,163,139)"/>
<circle cx="89.29" cy="332.10" r="2.2" fill="rgb(115,163,139)"/>
<circle cx="90.18" cy="329.35" r="2.2" fill="rgb(116,164,138)"/>
<circle cx="90.61" cy="328.53" r="2.2" fill="rgb(116,164,138)"/>
<circle cx="88.61" cy="332.23" r="2.2" fill="rgb(117,165,137)"/>
<circle cx="89.52" cy="331.56" r="2.2" fill="rgb(117,165,137)"/>
<circle cx="89.95" cy="330.65" r="2.2" fill="rgb(117,166,137)"/>
<circle cx="90.37" cy="331.50" r="2.2" fill="rgb(118,166,136)"/>
<circle cx="91.09" cy="330.28" r="2.2" fill="rgb(118,167,136)"/>
<circle cx="92.06" cy="327.80" r="2.2" fill="rgb(118,167,136)"/>
<circle cx="92.58" cy="326.57" r="2.2" fill="rgb(119,168,135)"/>
<circle cx="92.98" cy="325.10" r="2.2" fill="rgb(119,169,135)"/>
<circle cx="94.98" cy="322.96" r="2.2" fill="rgb(120,169,134)"/>
<circle cx="95.39" cy="320.56" r="2.2" fill="rgb(120,170,134)"/>
<circle cx="94.58" cy="317.78" r="2.2" fill="rgb(120,170,134)"/>
<circle cx="94.89" cy="315.01" r="2.2" fill="rgb(121,171,133)"/>
<circle cx="95.10" cy="312.64" r="2.2" fill="rgb(121,171,133)"/>
<circle cx="95.46" cy="310.48" r="2.2" fill="rgb(122,172,132)"/>
<circle cx="96.40" cy="309.87" r="2.2" fill="rgb(122,172,132)"/>
<circle cx="97.05" cy="309.73" r="2.2" fill="rgb(122,173,132)"/>
<circle cx="97.44" cy="309.70" r="2.2" fill="rgb(123,173,131)"/>
<circle cx="97.73" cy="310.04" r="2.2" fill="rgb(123,174,131)"/>
<circle cx="97.00" cy="310.44" r="2.2" fill="rgb(124,175,130)"/>
<circle cx="97.22" cy="311.00" r="2.2" fill="rgb(124,175,130)"/>
<circle cx="97.48" cy="311.00" r="2.2" fill="rgb(124,176,130)"/>
<circle cx="97.85" cy="310.95" r="2.2" fill="rgb(125,176,129)"/>
<circle cx="98.54" cy="310.93" r="2.2" fill="rgb(125,177,129)"/>
<circle cx="98.79" cy="310.09" r="2.2" fill="rgb(125,177,129)"/>
<circle cx="99.24" cy="309.09" r="2.2" fill="rgb(126,178,128)"/>
<circle cx="99.26" cy="307.22" r="2.2" fill="rgb(126,178,128)"/>
<circle cx="99.77" cy="305.12" r="2.2" fill="rgb(127,179,127)"/>
<circle cx="100.23" cy="303.06" r="2.2" fill="rgb(127,180,127)"/>
<circle cx="100.69" cy="300.86" r="2.2" fill="rgb(127,179,127)"/>
<circle cx="94.37" cy="316.25" r="2.2" fill="rgb(128,178,126)"/>
<circle cx="94.48" cy="315.04" r="2.2" fill="rgb(128,178,126)"/>
<circle cx="94.36" cy="314.78" r="2.2" fill="rgb(129,177,125)"/>
<circle cx="92.80" cy="311.50" r="2.2" fill="rgb(129,177,125)"/>
<circle cx="92.54" cy="312.13" r="2.2" fill="rgb(129,176,125)"/>
<circle cx="92.02" cy="312.28" r="2.2" fill="rgb(130,176,124)"/>
<circle cx="91.94" cy="312.20" r="2.2" fill="rgb(130,175,124)"/>
<circle cx="91.60" cy="312.15" r="2.2" fill="rgb(130,175,124)"/>
<circle cx="91.88" cy="313.26" r="2.2" fill="rgb(131,174,123)"/>
<circle cx="92.04" cy="314.16" r="2.2" fill="rgb(131,173,123)"/>
<circle cx="92.09" cy="314.43" r="2.2" fill="rgb(132,173,122)"/>
<circle cx="91.71" cy="313.86" r="2.2" fill="rgb(132,172,122)"/>
<circle cx="91.60" cy="314.10" r="2.2" fill="rgb(132,172,122)"/>
<circle cx="91.54" cy="314.37" r="2.2" fill="rgb(133,171,121)"/>
<circle cx="91.27" cy="314.25" r="2.2" fill="rgb(133,171,121)"/>
<circle cx="91.14" cy="314.35" r="2.2" fill="rgb(134,170,120)"/>
<circle cx="91.14" cy="314.33" r="2.2" fill="rgb(134,170,120)"/>
<circle cx="91.10" cy="314.42" r="2.2" fill="rgb(134,169,120)"/>
<circle cx="90.92" cy="314.35" r="2.2" fill="rgb(135,169,119)"/>
<circle cx="90.70" cy="314.40" r="2.2" fill="rgb(135,168,119)"/>
<circle cx="90.63" cy="314.52" r="2.2" fill="rgb(136,167,118)"/>
<circle cx="93.09" cy="317.24" r="2.2" fill="rgb(136,167,118)"/>
<circle cx="93.05" cy="317.04" r="2.2" fill="rgb(136,166,118)"/>
<circle cx="93.03" cy="316.88" r="2.2" fill="rgb(137,166,117)"/>
<circle cx="93.19" cy="317.25" r="2.2" fill="rgb(137,165,117)"/>
<circle cx="93.34" cy="317.26" r="2.2" fill="rgb(137,165,117)"/>
<circle cx="93.40" cy="316.98" r="2.2" fill="rgb(138,164,116)"/>
<circle cx="93.58" cy="317.28" r="2.2" fill="rgb(138,164,116)"/>
<circle cx="94.12" cy="317.35" r="2.2" fill="rgb(139,163,115)"/>
<circle cx="95.04" cy="317.84" r="2.2" fill="rgb(139,163,115)"/>
<circle cx="96.17" cy="317.69" r="2.2" fill="rgb(139,162,115)"/>
<circle cx="97.39" cy="317.69" r="2.2" fill="rgb(140,161,114)"/>
<circle cx="98.80" cy="317.29" r="2.2" fill="rgb(140,161,114)"/>
<circle cx="100.50" cy="316.94" r="2.2" fill="rgb(141,160,113)"/>
<circle cx="102.22" cy="316.24" r="2.2" fill="rgb(141,160,113)"/>
<circle cx="98.62" cy="315.84" r="2.2" fill="rgb(141,159,113)"/>
<circle cx="99.99" cy="316.21" r="2.2" fill="rgb(142,159,112)"/>
<circle cx="99.29" cy="316.83" r="2.2" fill="rgb(142,158,112)"/>
<circle cx="99.92" cy="318.06" r="2.2" fill="rgb(143,158,111)"/>
<circle cx="100.52" cy="319.91" r="2.2" fill="rgb(143,157,111)"/>
<circle cx="100.77" cy="319.55" r="2.2" fill="rgb(143,157,111)"/>
<circle cx="101.65" cy="321.45" r="2.2" fill="rgb(144,156,110)"/>
<circle cx="102.24" cy="322.91" r="2.2" fill="rgb(144,155,110)"/>
<circle cx="102.07" cy="322.30" r="2.2" fill="rgb(144,155,110)"/>
<circle cx="103.19" cy="323.58" r="2.2" fill="rgb(145,154,109)"/>
<circle cx="102.97" cy="323.27" r="2.2" fill="rgb(145,154,109)"/>
<circle cx="96.91" cy="320.78" r="2.2" fill="rgb(146,153,108)"/>
<circle cx="97.79" cy="321.44" r="2.2" fill="rgb(146,153,108)"/>
<circle cx="105.51" cy="325.47" r="2.2" fill="rgb(146,152,108)"/>
<circle cx="106.55" cy="325.94" r="2.2" fill="rgb(147,152,107)"/>
<circle cx="107.25" cy="326.37" r="2.2" fill="rgb(147,151,107)"/>
<circle cx="108.09" cy="326.68" r="2.2" fill="rgb(148,151,106)"/>
<circle cx="108.43" cy="327.35" r="2.2" fill="rgb(148,150,106)"/>
<circle cx="107.45" cy="327.45" r="2.2" fill="rgb(148,149,106)"/>
<circle cx="107.49" cy="328.26" r="2.2" fill="rgb(149,149,105)"/>
<circle cx="107.38" cy="329.06" r="2.2" fill="rgb(149,148,105)"/>
<circle cx="107.57" cy="329.77" r="2.2" fill="rgb(149,148,105)"/>
<circle cx="107.52" cy="330.28" r="2.2" fill="rgb(150,147,104)"/>
<circle cx="107.36" cy="330.48" r="2.2" fill="rgb(150,147,104)"/>
<circle cx="107.35" cy="330.52" r="2.2" fill="rgb(151,146,103)"/>
<circle cx="107.54" cy="331.20" r="2.2" fill="rgb(151,146,103)"/>
<circle cx="107.91" cy="331.76" r="2.2" fill="rgb(151,145,103)"/>
<circle cx="108.33" cy="332.64" r="2.2" fill="rgb(152,144,102)"/>
<circle cx="108.67" cy="333.72" r="2.2" fill="rgb(152,144,102)"/>
<circle cx="109.06" cy="334.87" r="2.2" fill="rgb(153,143,101)"/>
<circle cx="109.40" cy="335.74" r="2.2" fill="rgb(153,143,101)"/>
<circle cx="109.29" cy="335.90" r="2.2" fill="rgb(153,142,101)"/>
<circle cx="108.86" cy="335.20" r="2.2" fill="rgb(154,142,100)"/>
<circle cx="108.91" cy="334.85" r="2.2" fill="rgb(154,141,100)"/>
<circle cx="108.66" cy="334.96" r="2.2" fill="rgb(155,141,99)"/>
<circle cx="108.67" cy="334.90" r="2.2" fill="rgb(155,140,99)"/>
<circle cx="108.53" cy="334.39" r="2.2" fill="rgb(155,140,99)"/>
<circle cx="108.51" cy="334.21" r="2.2" fill="rgb(156,139,98)"/>
<circle cx="108.36" cy="333.72" r="2.2" fill="rgb(156,138,98)"/>
<circle cx="108.36" cy="333.38" r="2.2" fill="rgb(156,138,98)"/>
<circle cx="108.75" cy="333.51" r="2.2" fill="rgb(157,137,97)"/>
<circle cx="108.73" cy="333.24" r="2.2" fill="rgb(157,137,97)"/>
<circle cx="108.74" cy="333.26" r="2.2" fill="rgb(158,136,96)"/>
<circle cx="108.95" cy="333.31" r="2.2" fill="rgb(158,136,96)"/>
<circle cx="109.07" cy="333.51" r="2.2" fill="rgb(158,135,96)"/>
<circle cx="108.99" cy="333.19" r="2.2" fill="rgb(159,135,95)"/>
<circle cx="109.11" cy="333.38" r="2.2" fill="rgb(159,134,95)"/>
<circle cx="109.23" cy="333.44" r="2.2" fill="rgb(160,134,94)"/>
<circle cx="110.15" cy="334.95" r="2.2" fill="rgb(160,133,94)"/>
<circle cx="111.21" cy="336.66" r="2.2" fill="rgb(160,132,94)"/>
<circle cx="111.45" cy="336.92" r="2.2" fill="rgb(161,132,93)"/>
<circle cx="112.03" cy="337.74" r="2.2" fill="rgb(161,131,93)"/>
<circle cx="112.36" cy="338.51" r="2.2" fill="rgb(161,131,93)"/>
<circle cx="113.15" cy="339.62" r="2.2" fill="rgb(162,130,92)"/>
<circle cx="113.43" cy="340.50" r="2.2" fill="rgb(162,130,92)"/>
<circle cx="113.40" cy="341.18" r="2.2" fill="rgb(163,129,91)"/>
<circle cx="112.57" cy="341.25" r="2.2" fill="rgb(163,129,91)"/>
<circle cx="112.40" cy="342.09" r="2.2" fill="rgb(163,128,91)"/>
<circle cx="111.86" cy="342.30" r="2.2" fill="rgb(164,128,90)"/>
<circle cx="111.32" cy="343.11" r="2.2" fill="rgb(164,127,90)"/>
<circle cx="110.98" cy="344.12" r="2.2" fill="rgb(165,126,89)"/>
<circle cx="110.68" cy="344.98" r="2.2" fill="rgb(165,126,89)"/>
<circle cx="110.54" cy="345.76" r="2.2" fill="rgb(165,125,89)"/>
<circle cx="110.39" cy="346.67" r="2.2" fill="rgb(166,125,88)"/>
<circle cx="110.75" cy="347.55" r="2.2" fill="rgb(166,124,88)"/>
<circle cx="110.94" cy="348.74" r="2.2" fill="rgb(167,124,87)"/>
<circle cx="110.76" cy="350.44" r="2.2" fill="rgb(167,123,87)"/>
<circle cx="111.00" cy="352.10" r="2.2" fill="rgb(167,123,87)"/>
<circle cx="111.47" cy="354.14" r="2.2" fill="rgb(168,122,86)"/>
<circle cx="111.60" cy="356.39" r="2.2" fill="rgb(168,122,86)"/>
<circle cx="111.51" cy="357.66" r="2.2" fill="rgb(168,121,86)"/>
<circle cx="111.57" cy="358.56" r="2.2" fill="rgb(169,120,85)"/>
<circle cx="111.58" cy="358.66" r="2.2" fill="rgb(169,120,85)"/>
<circle cx="111.13" cy="359.63" r="2.2" fill="rgb(170,119,84)"/>
<circle cx="110.74" cy="358.75" r="2.2" fill="rgb(170,119,84)"/>
<circle cx="109.96" cy="360.50" r="2.2" fill="rgb(170,118,84)"/>
<circle cx="109.54" cy="361.11" r="2.2" fill="rgb(171,118,83)"/>
<circle cx="109.52" cy="360.94" r="2.2" fill="rgb(171,117,83)"/>
<circle cx="109.28" cy="361.85" r="2.2" fill="rgb(172,117,82)"/>
<circle cx="109.04" cy="362.00" r="2.2" fill="rgb(172,116,82)"/>
<circle cx="108.86" cy="362.78" r="2.2" fill="rgb(172,115,82)"/>
<circle cx="108.79" cy="363.71" r="2.2" fill="rgb(173,115,81)"/>
<circle cx="108.47" cy="365.18" r="2.2" fill="rgb(173,114,81)"/>
<circle cx="108.38" cy="366.50" r="2.2" fill="rgb(174,114,80)"/>
<circle cx="108.22" cy="368.69" r="2.2" fill="rgb(174,113,80)"/>
<circle cx="108.39" cy="370.53" r="2.2" fill="rgb(174,113,80)"/>
<circle cx="108.39" cy="371.60" r="2.2" fill="rgb(175,112,79)"/>
<circle cx="108.34" cy="372.74" r="2.2" fill="rgb(175,112,79)"/>
<circle cx="108.00" cy="372.95" r="2.2" fill="rgb(175,111,79)"/>
<circle cx="107.70" cy="373.26" r="2.2" fill="rgb(176,111,78)"/>
<circle cx="107.38" cy="373.00" r="2.2" fill="rgb(176,110,78)"/>
<circle cx="106.66" cy="373.42" r="2.2" fill="rgb(177,109,77)"/>
<circle cx="106.23" cy="373.73" r="2.2" fill="rgb(177,109,77)"/>
<circle cx="106.24" cy="373.68" r="2.2" fill="rgb(177,108,77)"/>
<circle cx="105.88" cy="374.22" r="2.2" fill="rgb(178,108,76)"/>
<circle cx="105.60" cy="374.49" r="2.2" fill="rgb(178,107,76)"/>
<circle cx="105.30" cy="375.08" r="2.2" fill="rgb(179,107,75)"/>
<circle cx="105.06" cy="375.45" r="2.2" fill="rgb(179,106,75)"/>
<circle cx="105.05" cy="376.10" r="2.2" fill="rgb(179,106,75)"/>
<circle cx="104.82" cy="377.16" r="2.2" fill="rgb(180,105,74)"/>
<circle cx="104.60" cy="378.41" r="2.2" fill="rgb(180,105,74)"/>
<circle cx="104.38" cy="380.21" r="2.2" fill="rgb(180,104,74)"/>
<circle cx="104.37" cy="381.46" r="2.2" fill="rgb(181,103,73)"/>
<circle cx="103.96" cy="383.29" r="2.2" fill="rgb(181,103,73)"/>
<circle cx="103.80" cy="383.72" r="2.2" fill="rgb(182,102,72)"/>
<circle cx="103.74" cy="384.66" r="2.2" fill="rgb(182,102,72)"/>
<circle cx="103.50" cy="385.18" r="2.2" fill="rgb(182,101,72)"/>
<circle cx="103.06" cy="385.48" r="2.2" fill="rgb(183,101,71)"/>
<circle cx="102.63" cy="385.34" r="2.2" fill="rgb(183,100,71)"/>
<circle cx="102.35" cy="385.24" r="2.2" fill="rgb(184,100,70)"/>
<circle cx="101.83" cy="385.22" r="2.2" fill="rgb(184,99,70)"/>
<circle cx="101.38" cy="385.24" r="2.2" fill="rgb(184,99,70)"/>
<circle cx="100.88" cy="385.80" r="2.2" fill="rgb(185,98,69)"/>
<circle cx="100.50" cy="385.99" r="2.2" fill="rgb(185,97,69)"/>
<circle cx="100.42" cy="385.72" r="2.2" fill="rgb(186,97,68)"/>
<circle cx="100.33" cy="386.12" r="2.2" fill="rgb(186,96,68)"/>
<circle cx="100.17" cy="386.37" r="2.2" fill="rgb(186,96,68)"/>
<circle cx="100.06" cy="386.84" r="2.2" fill="rgb(187,95,67)"/>
<circle cx="99.99" cy="387.57" r="2.2" fill="rgb(187,95,67)"/>
<circle cx="99.84" cy="388.38" r="2.2" fill="rgb(187,94,67)"/>
<circle cx="99.68" cy="388.77" r="2.2" fill="rgb(188,94,66)"/>
<circle cx="99.64" cy="389.45" r="2.2" fill="rgb(188,93,66)"/>
<circle cx="99.46" cy="389.72" r="2.2" fill="rgb(189,93,65)"/>
<circle cx="99.12" cy="385.17" r="2.2" fill="rgb(189,92,65)"/>
<circle cx="99.06" cy="385.02" r="2.2" fill="rgb(189,91,65)"/>
<circle cx="99.30" cy="389.14" r="2.2" fill="rgb(190,91,64)"/>
<circle cx="98.99" cy="388.50" r="2.2" fill="rgb(190,90,64)"/>
<circle cx="98.60" cy="387.97" r="2.2" fill="rgb(191,90,63)"/>
<circle cx="98.17" cy="387.91" r="2.2" fill="rgb(191,89,63)"/>
<circle cx="97.74" cy="387.48" r="2.2" fill="rgb(191,89,63)"/>
<circle cx="97.61" cy="387.14" r="2.2" fill="rgb(192,88,62)"/>
<circle cx="97.44" cy="387.10" r="2.2" fill="rgb(192,88,62)"/>
<circle cx="97.04" cy="386.98" r="2.2" fill="rgb(192,87,62)"/>
<circle cx="96.47" cy="387.39" r="2.2" fill="rgb(193,86,61)"/>
<circle cx="95.70" cy="387.83" r="2.2" fill="rgb(193,86,61)"/>
<circle cx="94.89" cy="388.44" r="2.2" fill="rgb(194,85,60)"/>
<circle cx="93.92" cy="388.90" r="2.2" fill="rgb(194,85,60)"/>
<circle cx="93.17" cy="389.51" r="2.2" fill="rgb(194,84,60)"/>
<circle cx="92.55" cy="389.76" r="2.2" fill="rgb(195,84,59)"/>
<circle cx="92.01" cy="390.09" r="2.2" fill="rgb(195,83,59)"/>
<circle cx="91.76" cy="390.26" r="2.2" fill="rgb(196,83,58)"/>
<circle cx="91.46" cy="389.42" r="2.2" fill="rgb(196,82,58)"/>
<circle cx="91.39" cy="389.31" r="2.2" fill="rgb(196,82,58)"/>
<circle cx="91.22" cy="389.28" r="2.2" fill="rgb(197,81,57)"/>
<circle cx="91.10" cy="387.05" r="2.2" fill="rgb(197,80,57)"/>
<circle cx="91.05" cy="386.36" r="2.2" fill="rgb(198,80,56)"/>
<circle cx="90.72" cy="386.52" r="2.2" fill="rgb(198,79,56)"/>
<circle cx="90.47" cy="386.02" r="2.2" fill="rgb(198,79,56)"/>
<circle cx="90.27" cy="385.62" r="2.2" fill="rgb(199,78,55)"/>
<circle cx="89.72" cy="385.72" r="2.2" fill="rgb(199,78,55)"/>
<circle cx="89.15" cy="385.27" r="2.2" fill="rgb(199,77,55)"/>
<circle cx="88.50" cy="384.99" r="2.2" fill="rgb(200,77,54)"/>
<circle cx="87.93" cy="384.73" r="2.2" fill="rgb(200,76,54)"/>
<circle cx="86.89" cy="384.50" r="2.2" fill="rgb(201,76,53)"/>
<circle cx="86.15" cy="384.51" r="2.2" fill="rgb(201,75,53)"/>
<circle cx="85.38" cy="384.60" r="2.2" fill="rgb(201,74,53)"/>
<circle cx="84.88" cy="384.46" r="2.2" fill="rgb(202,74,52)"/>
<circle cx="84.61" cy="384.16" r="2.2" fill="rgb(202,73,52)"/>
<circle cx="84.33" cy="383.77" r="2.2" fill="rgb(203,73,51)"/>
<circle cx="84.30" cy="383.25" r="2.2" fill="rgb(203,72,51)"/>
<circle cx="84.07" cy="382.33" r="2.2" fill="rgb(203,72,51)"/>
<circle cx="83.81" cy="381.75" r="2.2" fill="rgb(204,71,50)"/>
<circle cx="83.40" cy="381.52" r="2.2" fill="rgb(204,71,50)"/>
<circle cx="83.33" cy="380.79" r="2.2" fill="rgb(205,70,49)"/>
<circle cx="83.10" cy="380.27" r="2.2" fill="rgb(205,70,49)"/>
<circle cx="83.07" cy="379.93" r="2.2" fill="rgb(205,69,49)"/>
<circle cx="82.90" cy="379.78" r="2.2" fill="rgb(206,68,48)"/>
<circle cx="82.66" cy="379.56" r="2.2" fill="rgb(206,68,48)"/>
<circle cx="82.71" cy="379.06" r="2.2" fill="rgb(206,67,48)"/>
<circle cx="82.35" cy="379.21" r="2.2" fill="rgb(207,67,47)"/>
<circle cx="81.97" cy="379.15" r="2.2" fill="rgb(207,66,47)"/>
<circle cx="81.71" cy="379.26" r="2.2" fill="rgb(208,66,46)"/>
<circle cx="81.44" cy="379.35" r="2.2" fill="rgb(208,65,46)"/>
<circle cx="81.13" cy="379.54" r="2.2" fill="rgb(208,65,46)"/>
<circle cx="80.92" cy="379.56" r="2.2" fill="rgb(209,64,45)"/>
<circle cx="80.79" cy="379.68" r="2.2" fill="rgb(209,64,45)"/>
<circle cx="80.49" cy="379.21" r="2.2" fill="rgb(210,63,44)"/>
<circle cx="80.54" cy="378.56" r="2.2" fill="rgb(210,62,44)"/>
<circle cx="80.85" cy="377.87" r="2.2" fill="rgb(210,62,44)"/>
<circle cx="80.98" cy="377.79" r="2.2" fill="rgb(211,61,43)"/>
<circle cx="81.20" cy="376.27" r="2.2" fill="rgb(211,61,43)"/>
<circle cx="81.55" cy="374.83" r="2.2" fill="rgb(211,60,43)"/>
<circle cx="81.22" cy="374.46" r="2.2" fill="rgb(212,60,42)"/>
<circle cx="81.35" cy="373.95" r="2.2" fill="rgb(212,59,42)"/>
<circle cx="81.84" cy="373.41" r="2.2" fill="rgb(213,59,41)"/>
<circle cx="81.92" cy="372.61" r="2.2" fill="rgb(213,58,41)"/>
<circle cx="81.71" cy="372.12" r="2.2" fill="rgb(213,57,41)"/>
<circle cx="81.35" cy="370.86" r="2.2" fill="rgb(214,57,40)"/>
<circle cx="80.92" cy="369.86" r="2.2" fill="rgb(214,56,40)"/>
<circle cx="80.97" cy="368.46" r="2.2" fill="rgb(215,56,39)"/>
<circle cx="80.44" cy="367.33" r="2.2" fill="rgb(215,55,39)"/>
<circle cx="79.86" cy="365.97" r="2.2" fill="rgb(215,55,39)"/>
<circle cx="79.31" cy="364.93" r="2.2" fill="rgb(216,54,38)"/>
<circle cx="78.98" cy="363.77" r="2.2" fill="rgb(216,54,38)"/>
<circle cx="79.03" cy="362.70" r="2.2" fill="rgb(217,53,37)"/>
<circle cx="79.13" cy="362.03" r="2.2" fill="rgb(217,53,37)"/>
<circle cx="79.68" cy="360.97" r="2.2" fill="rgb(217,52,37)"/>
<circle cx="79.91" cy="360.18" r="2.2" fill="rgb(218,51,36)"/>
<circle cx="80.45" cy="359.21" r="2.2" fill="rgb(218,51,36)"/>
<circle cx="80.90" cy="358.35" r="2.2" fill="rgb(218,50,36)"/>
<circle cx="81.20" cy="357.79" r="2.2" fill="rgb(219,50,35)"/>
<circle cx="81.55" cy="356.92" r="2.2" fill="rgb(219,49,35)"/>
<circle cx="81.80" cy="356.35" r="2.2" fill="rgb(220,49,34)"/>
<circle cx="81.97" cy="356.11" r="2.2" fill="rgb(220,48,34)"/>
<circle cx="82.22" cy="355.56" r="2.2" fill="rgb(220,48,34)"/>
<circle cx="82.40" cy="354.77" r="2.2" fill="rgb(221,47,33)"/>
<circle cx="82.52" cy="353.71" r="2.2" fill="rgb(221,47,33)"/>
<circle cx="82.60" cy="352.62" r="2.2" fill="rgb(222,46,32)"/>
<circle cx="82.82" cy="350.65" r="2.2" fill="rgb(222,45,32)"/>
<circle cx="82.97" cy="349.01" r="2.2" fill="rgb(222,45,32)"/>
<circle cx="82.77" cy="347.84" r="2.2" fill="rgb(223,44,31)"/>
<circle cx="82.63" cy="346.49" r="2.2" fill="rgb(223,44,31)"/>
<circle cx="82.88" cy="345.33" r="2.2" fill="rgb(223,43,31)"/>
<circle cx="83.21" cy="344.64" r="2.2" fill="rgb(224,43,30)"/>
<circle cx="83.77" cy="344.47" r="2.2" fill="rgb(224,42,30)"/>
<circle cx="84.36" cy="344.06" r="2.2" fill="rgb(225,42,29)"/>
<circle cx="84.65" cy="343.55" r="2.2" fill="rgb(225,41,29)"/>
<circle cx="85.05" cy="342.84" r="2.2" fill="rgb(225,41,29)"/>
<circle cx="85.40" cy="342.20" r="2.2" fill="rgb(226,40,28)"/>
<circle cx="85.68" cy="341.29" r="2.2" fill="rgb(226,39,28)"/>
<circle cx="86.01" cy="340.64" r="2.2" fill="rgb(227,39,27)"/>
<circle cx="86.31" cy="340.23" r="2.2" fill="rgb(227,38,27)"/>
<circle cx="86.66" cy="339.09" r="2.2" fill="rgb(227,38,27)"/>
<circle cx="86.80" cy="337.88" r="2.2" fill="rgb(228,37,26)"/>
<circle cx="87.15" cy="336.64" r="2.2" fill="rgb(228,37,26)"/>
<circle cx="87.20" cy="334.96" r="2.2" fill="rgb(229,36,25)"/>
<circle cx="86.85" cy="333.28" r="2.2" fill="rgb(229,36,25)"/>
<circle cx="86.71" cy="331.80" r="2.2" fill="rgb(229,35,25)"/>
<circle cx="86.70" cy="330.55" r="2.2" fill="rgb(230,35,24)"/>
<circle cx="86.72" cy="329.56" r="2.2" fill="rgb(230,34,24)"/>
<circle cx="86.89" cy="329.00" r="2.2" fill="rgb(230,33,24)"/>
<circle cx="87.21" cy="328.06" r="2.2" fill="rgb(231,33,23)"/>
<circle cx="87.55" cy="327.75" r="2.2" fill="rgb(231,32,23)"/>
<circle cx="88.16" cy="327.41" r="2.2" fill="rgb(232,32,22)"/>
<circle cx="88.72" cy="326.91" r="2.2" fill="rgb(232,31,22)"/>
<circle cx="89.51" cy="326.68" r="2.2" fill="rgb(232,31,22)"/>
<circle cx="90.07" cy="326.45" r="2.2" fill="rgb(233,30,21)"/>
<circle cx="90.41" cy="326.58" r="2.2" fill="rgb(233,30,21)"/>
<circle cx="90.78" cy="326.41" r="2.2" fill="rgb(234,29,20)"/>
<circle cx="91.06" cy="326.16" r="2.2" fill="rgb(234,28,20)"/>
<circle cx="91.31" cy="325.53" r="2.2" fill="rgb(234,28,20)"/>
<circle cx="91.65" cy="324.74" r="2.2" fill="rgb(235,27,19)"/>
<circle cx="92.16" cy="323.63" r="2.2" fill="rgb(235,27,19)"/>
<circle cx="92.58" cy="321.84" r="2.2" fill="rgb(236,26,18)"/>
<circle cx="93.12" cy="319.99" r="2.2" fill="rgb(236,26,18)"/>
<circle cx="93.53" cy="318.02" r="2.2" fill="rgb(236,25,18)"/>
<circle cx="93.74" cy="316.41" r="2.2" fill="rgb(237,25,17)"/>
<circle cx="93.85" cy="315.30" r="2.2" fill="rgb(237,24,17)"/>
<circle cx="93.81" cy="314.56" r="2.2" fill="rgb(237,24,17)"/>
<circle cx="93.77" cy="314.09" r="2.2" fill="rgb(238,23,16)"/>
<circle cx="93.90" cy="313.96" r="2.2" fill="rgb(238,22,16)"/>
<circle cx="93.91" cy="313.94" r="2.2" fill="rgb(239,22,15)"/>
<circle cx="93.89" cy="314.06" r="2.2" fill="rgb(239,21,15)"/>
<circle cx="93.79" cy="314.00" r="2.2" fill="rgb(239,21,15)"/>
<circle cx="93.76" cy="314.26" r="2.2" fill="rgb(240,20,14)"/>
<circle cx="93.66" cy="314.58" r="2.2" fill="rgb(240,20,14)"/>
<circle cx="93.60" cy="314.96" r="2.2" fill="rgb(241,19,13)"/>
<circle cx="93.45" cy="315.37" r="2.2" fill="rgb(241,19,13)"/>
<circle cx="93.35" cy="315.45" r="2.2" fill="rgb(241,18,13)"/>
<circle cx="93.36" cy="315.56" r="2.2" fill="rgb(242,18,12)"/>
<circle cx="93.38" cy="315.85" r="2.2" fill="rgb(242,17,12)"/>
<circle cx="93.49" cy="316.01" r="2.2" fill="rgb(242,16,12)"/>
<circle cx="93.53" cy="315.57" r="2.2" fill="rgb(243,16,11)"/>
<circle cx="93.65" cy="315.34" r="2.2" fill="rgb(243,15,11)"/>
<circle cx="93.73" cy="315.05" r="2.2" fill="rgb(244,15,10)"/>
<circle cx="93.86" cy="314.42" r="2.2" fill="rgb(244,14,10)"/>
<circle cx="94.06" cy="314.09" r="2.2" fill="rgb(244,14,10)"/>
<circle cx="94.11" cy="313.65" r="2.2" fill="rgb(245,13,9)"/>
<circle cx="94.06" cy="313.52" r="2.2" fill="rgb(245,13,9)"/>
<circle cx="93.84" cy="313.56" r="2.2" fill="rgb(246,12,8)"/>
<circle cx="93.63" cy="313.88" r="2.2" fill="rgb(246,12,8)"/>
<circle cx="93.39" cy="314.38" r="2.2" fill="rgb(246,11,8)"/>
<circle cx="93.36" cy="314.81" r="2.2" fill="rgb(247,10,7)"/>
<circle cx="93.16" cy="315.39" r="2.2" fill="rgb(247,10,7)"/>
<circle cx="93.02" cy="316.04" r="2.2" fill="rgb(248,9,6)"/>
<circle cx="92.96" cy="316.59" r="2.2" fill="rgb(248,9,6)"/>
<circle cx="92.77" cy="316.90" r="2.2" fill="rgb(248,8,6)"/>
<circle cx="92.64" cy="317.19" r="2.2" fill="rgb(249,8,5)"/>
<circle cx="92.81" cy="317.26" r="2.2" fill="rgb(249,7,5)"/>
<circle cx="92.78" cy="317.51" r="2.2" fill="rgb(249,7,5)"/>
<circle cx="92.70" cy="317.30" r="2.2" fill="rgb(250,6,4)"/>
<circle cx="92.74" cy="317.52" r="2.2" fill="rgb(250,6,4)"/>
<circle cx="92.78" cy="317.68" r="2.2" fill="rgb(251,5,3)"/>
<circle cx="92.85" cy="317.75" r="2.2" fill="rgb(251,4,3)"/>
<circle cx="92.89" cy="317.75" r="2.2" fill="rgb(251,4,3)"/>
<circle cx="92.91" cy="317.90" r="2.2" fill="rgb(252,3,2)"/>
<circle cx="92.95" cy="317.93" r="2.2" fill="rgb(252,3,2)"/>
<circle cx="92.93" cy="317.98" r="2.2" fill="rgb(253,2,1)"/>
<circle cx="93.01" cy="318.02" r="2.2" fill="rgb(253,2,1)"/>
<circle cx="92.93" cy="318.00" r="2.2" fill="rgb(253,1,1)"/>
<circle cx="92.88" cy="318.00" r="2.2" fill="rgb(254,1,0)"/>
<circle cx="92.85" cy="317.98" r="2.2" fill="rgb(254,0,0)"/>
<circle cx="92.87" cy="317.99" r="2.2" fill="rgb(255,0,0)"/>
<circle cx="96.35" cy="319.27" r="7" fill="#00aa44"/><text x="105.35" y="310.27" font-family="monospace" font-size="16" fill="#00aa44">start</text>
<circle cx="92.87" cy="317.99" r="7" fill="#dd2222"/><text x="101.87" y="308.99" font-family="monospace" font-size="16" fill="#dd2222">end</text>
<text x="70" y="775" font-family="monospace" font-size="15">PCA ranges: 0.15960, 0.07297, 0.02684; singular ratio: 0.526, 0.133</text>
</svg>
