ply
format ascii 1.0
element vertex 642
property float x
property float y
property float z
property uchar red
property uchar green
property uchar blue
end_header
0.096412405 0.002018575 0.022420920 0 70 255
0.030674281 -0.054268528 0.019757317 0 70 255
0.021142149 0.032130558 0.066315174 0 71 255
0.016559718 -0.026645405 0.066294529 0 72 255
0.040312584 -0.080424845 0.070674464 0 73 255
0.086543992 -0.116094865 0.078793630 0 74 255
0.143913299 -0.124960497 0.089078471 0 75 254
0.198362634 -0.104865938 0.099427059 0 76 255
0.236546397 -0.060720649 0.107721947 0 77 255
0.249087363 -0.003301591 0.112346716 0 78 255
0.232863903 0.053375974 0.112580255 0 79 255
0.191771835 0.095477805 0.108772784 0 80 255
0.135774210 0.112725452 0.102260396 0 81 255
0.078470394 0.100903928 0.095039055 0 82 255
0.033778328 0.062890112 0.089277700 0 83 254
0.012539184 0.007950788 0.086789079 0 84 255
0.019872501 -0.050518114 0.088587500 0 84 255
0.053927265 -0.098259583 0.094641440 0 85 255
0.106333464 -0.123633690 0.103881143 0 86 255
0.164243996 -0.120457247 0.114459679 0 87 255
0.213468879 -0.089512385 0.124203473 0 88 255
0.241937250 -0.038355585 0.131142646 0 89 255
0.242641687 0.020525664 0.133991480 0 90 254
0.215348616 0.072759405 0.132462144 0 91 255
0.166654408 0.105595469 0.127334952 0 92 255
0.108376689 0.111015871 0.120267965 0 93 255
0.054670971 0.087691173 0.113392442 0 94 255
0.018577427 0.041304544 0.108792946 0 95 255
0.008839511 -0.016834613 0.107998788 0 96 255
0.027770929 -0.072549716 0.111610919 0 97 255
0.070691116 -0.112255558 0.119155303 0 98 254
0.127067298 -0.126272619 0.129198611 0 99 255
0.183083788 -0.111188337 0.139697850 0 99 255
0.225012749 -0.070689976 0.148498833 0 100 255
0.242563188 -0.014664680 0.153861672 0 101 255
0.231391445 0.043212354 0.154885203 0 102 255
0.194160908 0.088814199 0.151726931 0 103 255
0.139892519 0.111008570 0.145564571 0 104 255
0.081763789 0.104373783 0.138308704 0 105 254
0.033893842 0.070521280 0.132136703 0 106 255
0.007899108 0.017702639 0.128961504 0 107 255
0.010059326 -0.041203585 0.129964948 0 108 255
0.039785519 -0.091833703 0.135309413 0 109 255
0.089763626 -0.121843047 0.144098267 0 110 255
0.147738963 -0.123917617 0.154594600 0 111 255
0.199505761 -0.097558536 0.164644897 0 112 255
0.232373059 -0.049203537 0.172204509 0 113 254
0.238260359 0.009343520 0.175836384 0 113 255
0.215669543 0.063792124 0.175061718 0 114 255
0.170049816 0.100851849 0.170476690 0 115 255
0.112468727 0.111474447 0.163607091 0 116 255
0.056911871 0.093061201 0.156536072 0 117 255
0.016870970 0.050097089 0.151395917 0 118 255
0.002052452 -0.006943475 0.149847820 0 119 255
0.016009491 -0.064151950 0.152676702 0 120 255
0.055275131 -0.107578844 0.159599647 0 121 255
0.110208049 -0.126636803 0.169334933 0 122 255
0.167344779 -0.116683573 0.179914713 0 123 255
0.212684155 -0.080154538 0.189165205 0 124 255
0.235103101 -0.025968544 0.195236832 0 125 255
0.229070410 0.032647938 0.197055608 0 126 255
0.195995733 0.081387579 0.194584996 0 127 255
0.143886030 0.108352631 0.188834965 0 128 255
0.085392118 0.106957518 0.181615546 0 128 255
0.034722317 0.077535436 0.175095186 0 129 255
0.004176081 0.027257085 0.171271816 0 130 255
0.001143527 -0.031618729 0.171485439 0 131 255
0.026302507 -0.084735736 0.176091120 0 132 255
0.073453233 -0.119142614 0.184372485 0 133 255
0.131030753 -0.126452535 0.194716409 0 134 255
0.184926406 -0.104889341 0.205006599 0 135 255
0.221929759 -0.059720784 0.213139892 0 136 255
0.232951462 -0.001973376 0.217539221 0 137 255
0.215240657 0.054257542 0.217538610 0 138 255
0.173056126 0.095246732 0.213545412 0 139 255
0.116627298 0.110987231 0.206941009 0 140 255
0.059658580 0.097631834 0.199743882 0 141 255
0.015986174 0.058431569 0.194117025 0 142 255
-0.003797506 0.002942611 0.191840425 0 143 255
0.005072012 -0.055305026 0.193876654 0 143 255
0.040368922 -0.102108330 0.200136229 0 144 255
0.093420155 -0.126056224 0.209499240 0 145 255
0.151221305 -0.121313475 0.220088705 0 146 255
0.199609101 -0.089044310 0.229728416 0 147 255
0.226716757 -0.037128322 0.236473873 0 148 255
0.225868866 0.021761775 0.239086628 0 149 255
0.197210401 0.073251829 0.237336457 0 150 255
0.147671163 0.104773059 0.232057646 0 151 255
0.089274749 0.108628348 0.224945202 0 152 255
0.036205690 0.083870023 0.218141466 0 153 255
0.001348796 0.036531020 0.213713542 0 154 255
-0.006854180 -0.021846915 0.213148892 0 155 255
0.013536013 -0.077028923 0.216992468 0 156 255
0.057482969 -0.115559921 0.224713802 0 157 255
0.114203319 -0.128046945 0.234836400 0 157 255
0.169797391 -0.111450754 0.245297968 0 158 255
0.210640460 -0.069827363 0.253953457 0 159 255
0.226706445 -0.013338536 0.259098530 0 160 255
0.214013770 0.044227555 0.259885192 0 161 255
0.175597027 0.088819727 0.256528735 0 162 255
0.120766461 0.109552130 0.250255227 0 163 255
0.062836654 0.101359680 0.243002385 0 164 255
0.015878281 0.066233844 0.236946851 0 165 255
-0.008714609 0.012736832 0.233973175 0 166 255
-0.005004273 -0.046087280 0.235214055 0 167 255
0.026042124 -0.095894814 0.240773961 0 168 255
0.076788500 -0.124541789 0.249703720 0 169 255
0.134792671 -0.125046596 0.260232031 0 170 255
0.185841829 -0.097293161 0.270197600 0 171 255
0.217419744 -0.048059467 0.277576417 0 172 255
0.221760899 0.010636061 0.280975580 0 172 255
0.197744012 0.064466834 0.279973030 0 173 255
0.151166454 0.100293100 0.275220573 0 174 255
0.093329430 0.109367318 0.268284857 0 175 255
0.038280912 0.089468658 0.261265159 0 176 255
-0.000611308 0.045444496 0.256281227 0 177 255
-0.013921001 -0.011972110 0.254956156 0 178 255
0.001536924 -0.068780854 0.258020431 0 179 255
0.041929297 -0.111129731 0.265133709 0 180 255
0.097339988 -0.128694355 0.274967909 0 181 255
0.154188856 -0.117196754 0.285530984 0 182 255
0.198544860 -0.079449065 0.294653177 0 183 255
0.219524890 -0.024667516 0.300516278 0 184 255
0.211948708 0.033776149 0.302097082 0 185 255
0.177602589 0.081616685 0.299417198 0 186 255
0.124803610 0.107175633 0.293537676 0 187 255
0.066370860 0.104210511 0.286300093 0 187 255
0.016497683 0.073437490 0.279877394 0 188 255
-0.012710743 0.022356877 0.276243716 0 189 255
-0.014190657 -0.036576752 0.276692778 0 190 255
0.012357005 -0.088993013 0.281522274 0 191 255
0.060393598 -0.122111492 0.289961249 0 192 255
0.118138075 -0.127859622 0.300358117 0 193 255
0.171441033 -0.104842313 0.310583711 0 194 255
0.207236379 -0.058682054 0.318550617 0 195 255
0.216729566 -0.000647351 0.322722465 0 196 255
0.197542697 0.055096343 0.322488755 0 197 255
0.154294506 0.094942451 0.318313718 0 198 255
0.097473994 0.109163016 0.311623067 0 199 255
0.040881261 0.094281510 0.304456413 0 200 255
-0.001739236 0.053921323 0.298969418 0 201 255
-0.020051703 -0.002078338 0.296907842 0 201 255
-0.009650577 -0.060062863 0.299181849 0 202 255
0.026864685 -0.105893403 0.305643976 0 203 255
0.080523781 -0.128396153 0.315124869 0 204 255
0.138173983 -0.122088522 0.325718820 0 205 255
0.185688823 -0.088516384 0.335248560 0 206 255
0.211414397 -0.035877325 0.341796339 0 207 255
0.209012672 0.022979543 0.344172031 0 208 255
0.179007754 0.073688239 0.342203259 0 209 255
0.128657699 0.103870600 0.336777538 0 210 255
0.070184045 0.106156141 0.329625815 0 211 255
0.017790105 0.079980187 0.322900027 0 212 255
-0.015803969 0.031721491 0.318648219 0 213 255
-0.022464480 -0.026853830 0.318314910 0 214 255
-0.000628508 -0.081462741 0.322388619 0 215 255
0.044314764 -0.118789911 0.330282748 0 216 255
0.101338975 -0.129736155 0.340478688 0 216 255
0.156470358 -0.111638166 0.350896209 0 217 255
0.196197003 -0.068918332 0.359401017 0 218 255
0.210765213 -0.012005761 0.364325553 0 219 255
0.196558908 0.045207947 0.364875615 0 220 253
0.156981975 0.088757589 0.361324191 0 220 252
0.101627558 0.108011723 0.354944974 0 220 251
0.043938085 0.098265886 0.347701401 0 220 249
-0.002074443 0.061890546 0.341767818 0 220 248
-0.025246736 0.007752725 0.338999093 0 220 247
-0.019987626 -0.050947189 0.340477854 0 220 245
0.012357848 -0.099895820 0.346250564 0 220 244
0.063836701 -0.127158731 0.355316132 0 220 243
0.121828035 -0.126092061 0.365870118 0 220 241
0.172122240 -0.096963055 0.375744969 0 220 240
0.202387482 -0.046885312 0.382938832 0 220 239
0.205178142 0.011916980 0.386103928 0 220 237
0.179751545 0.065091044 0.384875357 0 220 236
0.132248729 0.099657446 0.379960060 0 220 235
0.074196607 0.107176065 0.372964472 0 220 233
0.019695703 0.085805513 0.366002470 0 220 232
-0.018019855 0.040752247 0.361179739 0 220 231
-0.029810904 -0.016999647 0.360080123 0 220 229
-0.012862861 -0.073368087 0.363379121 0 220 228
0.028627638 -0.114608467 0.370679200 0 220 227
0.084476471 -0.130666882 0.380606681 0 220 225
0.140996739 -0.117632873 0.391146839 0 220 224
0.184337676 -0.078693345 0.400135547 0 220 223
0.203863621 -0.023355171 0.405787140 0 220 221
0.194749191 0.034874007 0.407130212 0 220 220
0.159155786 0.081781358 0.404244274 0 220 219
0.105704986 0.105916113 0.398240626 0 220 217
0.047374755 0.101383224 0.390991151 0 220 216
-0.001666584 0.069281369 0.384671777 0 220 215
-0.029516831 0.017435024 0.381231397 0 220 213
-0.029443603 -0.041514456 0.381916583 0 220 212
-0.001526780 -0.093192831 0.386967421 0 220 211
0.047361076 -0.124999754 0.395558983 0 220 209
0.105231225 -0.129182756 0.406002462 0 220 208
0.157903522 -0.104728483 0.416157305 0 220 207
0.192466110 -0.057609983 0.423953414 0 220 205
0.200424969 0.000670493 0.427896082 0 220 204
0.179776579 0.055887595 0.427430660 0 220 203
0.135496303 0.094563261 0.423077941 0 220 201
0.078324780 0.107255004 0.416307122 0 220 200
0.022147767 0.090859406 0.409177184 0 220 198
-0.019391743 0.049369182 0.403834909 0 220 197
-0.036221679 -0.007100827 0.401990712 0 220 196
-0.024298199 -0.064781286 0.404501855 0 220 194
0.013407845 -0.109607548 0.411162913 0 220 193
0.067635693 -0.130650908 0.420756131 0 220 192
0.125093803 -0.122784741 0.431348383 0 220 190
0.171702743 -0.087935254 0.440762788 0 220 189
0.196029574 -0.034611501 0.447109818 0 220 188
0.192077637 0.024170384 0.449248284 0 220 186
0.160748988 0.074062735 0.447063804 0 220 185
0.109624624 0.102886632 0.441496491 0 220 184
0.051115043 0.103602886 0.434311807 0 220 182
-0.000567775 0.076029718 0.427669764 0 220 181
-0.032877140 0.026886752 0.423597962 0 220 180
-0.037992831 -0.031844206 0.423496991 0 220 178
-0.014728803 -0.085842215 0.427798748 0 220 177
0.031177402 -0.121941045 0.435860991 0 220 176
0.088464469 -0.131341130 0.446124047 0 220 174
0.143094629 -0.111756302 0.456491262 0 220 173
0.181678146 -0.067971736 0.464840740 0 220 172
0.194740176 -0.010676309 0.469542682 0 220 170
0.179032266 0.046144918 0.469857275 0 220 169
0.138324484 0.088622630 0.466114938 0 220 168
0.082485959 0.106386818 0.459635884 0 220 166
0.025077067 0.095096573 0.452407986 0 220 165
-0.019958572 0.057499062 0.446601748 0 220 164
-0.041695986 0.002759493 0.444040895 0 220 162
-0.034894068 -0.055774957 0.445757359 0 220 161
-0.001274217 -0.103831291 0.451739699 0 220 160
0.050899625 -0.129692763 0.460935682 0 220 158
0.108837143 -0.127057403 0.471508980 0 220 157
0.158341855 -0.096575126 0.481287360 0 220 156
0.187274426 -0.045689691 0.488292515 0 220 154
0.188514486 0.013177633 0.491222680 0 220 153
0.161697507 0.065658346 0.489770174 0 220 152
0.113303915 0.098942071 0.484696686 0 220 150
0.055077828 0.104901679 0.477647096 0 220 149
0.001162263 0.082076080 0.470748454 0 220 148
-0.035351492 0.036026724 0.466091007 0 220 146
-0.045617472 -0.022019261 0.465218216 0 220 145
-0.027193137 -0.077908061 0.468750179 0 220 143
0.015364692 -0.118012086 0.476232529 0 220 142
0.071611568 -0.132554680 0.486247003 0 220 141
0.127763376 -0.117995188 0.496757746 0 220 139
0.170059294 -0.077892691 0.505607724 0 220 138
0.188118726 -0.022037864 0.511045098 0 220 137
0.177473918 0.035935745 0.512150586 0 220 135
0.140659839 0.081877574 0.509061694 0 220 134
0.086595654 0.104572460 0.502939224 0 220 133
0.028409109 0.098476619 0.495684087 0 220 131
-0.019766599 0.065070018 0.489473403 0 220 130
-0.046240453 0.012495452 0.486229599 0 220 129
-0.044615835 -0.046428077 0.487151235 0 220 127
-0.015351087 -0.097332679 0.492420673 0 220 126
0.034352377 -0.127806753 0.501159608 0 220 125
0.092306808 -0.130422980 0.511643231 0 220 123
0.144311696 -0.104550287 0.521721184 0 220 122
0.177617669 -0.056507699 0.529342115 0 220 121
0.184037715 0.001977026 0.533053875 0 220 119
0.161943480 0.056628808 0.532358348 0 220 118
0.116663098 0.094107658 0.527832210 0 220 117
0.059181184 0.105262905 0.520987034 0 220 115
0.003459201 0.087366015 0.513899863 0 220 114
-0.036970872 0.044775967 0.508706927 0 220 113
-0.052307609 -0.012124075 0.507082224 0 220 111
-0.038871422 -0.069459863 0.509829283 0 220 110
-0.000002198 -0.113250829 0.516685247 0 220 109
0.054755516 -0.132820874 0.526384711 0 220 107
0.111980945 -0.123402879 0.536968470 0 220 106
0.157651424 -0.087301515 0.546261668 0 220 105
0.180563092 -0.033331327 0.552404344 0 220 103
0.175064474 0.025333926 0.554305136 0 220 102
0.142435074 0.074375033 0.551907420 0 220 101
0.090573251 0.101820737 0.546203494 0 220 99
0.032069232 0.100968219 0.538991928 0 220 98
-0.018866261 0.072018370 0.532439291 0 220 97
-0.049868938 0.022026645 0.528551340 0 220 95
-0.053437348 -0.036818098 0.528683782 0 220 94
-0.028762918 -0.090167202 0.533211529 0 220 92
0.018072747 -0.125012696 0.541437089 0 220 91
0.075581640 -0.132860869 0.551761091 0 220 90
0.129671872 -0.111804105 0.562071741 0 220 88
0.167085379 -0.066986658 0.570261002 0 220 87
0.178632945 -0.009349436 0.574738324 0 220 86
0.161435425 0.047039255 0.574818373 0 220 84
0.119626269 0.088415578 0.570888817 0 220 83
0.063343316 0.104678147 0.564315498 0 220 82
0.006255428 0.091852397 0.557109177 0 220 80
-0.037772093 0.053060144 0.551435053 0 220 79
-0.058060225 -0.002241963 0.549084604 0 220 78
-0.049721420 -0.060569525 0.551038444 0 220 76
-0.014851987 -0.107700005 0.557226896 0 220 75
0.037979297 -0.132142574 0.566547275 0 220 74
0.095821679 -0.127941310 0.577133179 0 220 72
0.144502044 -0.096128367 0.586808920 0 220 71
0.172082007 -0.044472028 0.593621433 0 220 70
0.171771437 0.014418513 0.596315563 0 220 68
0.143583894 0.066168949 0.594641387 0 220 67
0.094334222 0.098147005 0.589414358 0 220 66
0.035975564 0.102544174 0.582316697 0 220 64
-0.017316874 0.078280568 0.575487256 0 220 63
-0.052603770 0.031268429 0.570999205 0 220 62
-0.061338443 -0.027030271 0.570354521 0 220 60
-0.041451912 -0.082400091 0.574117720 0 220 59
0.002142288 -0.121340044 0.581777751 0 220 58
0.058746859 -0.134357378 0.591873050 0 220 56
0.114490479 -0.118283644 0.602347910 0 220 55
0.155712008 -0.077047326 0.611053884 0 220 54
0.172292888 -0.020715639 0.616274297 0 220 52
0.160126135 0.036961481 0.617142677 0 220 51
0.122118011 0.081905842 0.613854468 0 220 50
0.067479044 0.103145719 0.607618809 0 220 48
0.009477036 0.095492184 0.600364149 0 220 47
-0.037799679 0.060805295 0.594267726 0 220 46
-0.062879406 0.007540143 0.591223776 0 220 44
-0.059705615 -0.051315788 0.592382133 0 220 43
-0.029114567 -0.101411037 0.597867429 0 220 42
0.021368682 -0.130531460 0.606748700 0 220 40
0.079366207 -0.131579846 0.617266476 0 220 39
0.130666852 -0.104307666 0.627261817 2 220 39
0.162693053 -0.055375509 0.634703577 3 220 39
0.167569786 0.003271922 0.638183296 5 220 39
0.144045442 0.057319745 0.637259543 7 220 38
0.097796947 0.093575254 0.632564604 8 220 38
0.040045302 0.103186227 0.625651300 10 220 38
-0.015182302 0.083800860 0.618613243 11 220 38
-0.054474469 0.040141322 0.613574803 13 220 37
-0.068307392 -0.017148271 0.612172306 15 220 37
-0.053368397 -0.074098602 0.615155101 16 220 37
-0.013363965 -0.116823167 0.622202694 18 220 37
0.041884392 -0.134905994 0.632003009 19 220 36
0.098836154 -0.123942688 0.642572403 21 220 36
0.143535286 -0.086614996 0.651739478 23 220 36
0.165014863 -0.032036677 0.657675028 24 220 36
0.157972887 0.026470080 0.659338355 26 220 35
0.124065228 0.074624717 0.656730771 27 220 35
0.071502194 0.100672185 0.650895715 29 220 35
0.013045039 0.098250821 0.643663883 31 220 35
-0.037106872 0.067944139 0.637207031 32 220 34
-0.066780373 0.017138649 0.633507431 34 220 34
-0.068798259 -0.041778199 0.633875012 35 220 34
-0.042730246 -0.094440103 0.638627231 37 220 34
0.005002059 -0.128006727 0.647012115 38 220 33
0.062691838 -0.134296328 0.657391250 40 220 33
0.116203010 -0.111781582 0.667639792 42 220 33
0.152418882 -0.065962352 0.675664783 43 220 33
0.162441999 -0.008024037 0.679915786 45 220 32
0.143765464 0.047891423 0.679762900 46 220 32
0.100883454 0.088135749 0.675650656 48 220 32
0.044195525 0.102883659 0.668989539 50 220 32
-0.012530548 0.088530056 0.661811888 51 220 31
-0.055517811 0.048569527 0.656276107 53 220 31
-0.074340962 -0.007256262 0.654139876 54 220 31
-0.064469911 -0.065335095 0.656331778 56 220 31
-0.028374765 -0.111505121 0.662724137 58 220 30
0.025076643 -0.134509742 0.672164738 59 220 30
0.082782149 -0.128743857 0.682757735 61 220 30
0.130601883 -0.095621310 0.692326069 62 220 30
0.156807691 -0.043229915 0.698942542 64 220 29
0.154944271 0.015641719 0.701400399 66 220 29
0.125404432 0.066624016 0.699507117 67 220 29
0.075332552 0.097272068 0.694131792 69 220 29
0.016882349 0.100101776 0.686993062 70 220 28
-0.035748508 0.074415632 0.680239677 72 220 28
-0.069782116 0.026472924 0.675926507 73 220 28
-0.076977566 -0.032037314 0.675512850 75 220 28
-0.055641402 -0.086847991 0.679506779 77 220 27
-0.011040799 -0.124594584 0.687341154 78 220 27
0.045881301 -0.136075467 0.697512090 80 220 27
0.101176232 -0.118497007 0.707945287 81 220 27
0.141292244 -0.076154783 0.716502607 83 220 26
0.156380504 -0.019385815 0.721503735 85 220 26
0.142697975 0.037953198 0.722135663 86 220 26
0.103520647 0.081866637 0.718651474 88 220 26
0.048344545 0.101633921 0.712308407 89 220 25
-0.009431483 0.092425652 0.705061197 91 220 25
-0.055774253 0.056481112 0.699084938 93 220 25
-0.079439983 0.002562192 0.696244895 94 220 25
-0.074717082 -0.056184109 0.697641015 96 220 24
-0.042819731 -0.105433069 0.703340232 97 220 24
0.008408345 -0.133176997 0.712359011 99 220 24
0.066407457 -0.132654622 0.722904325 101 220 24
0.116966039 -0.104000553 0.732810855 102 220 23
0.147687912 -0.054212429 0.740069032 104 220 23
0.151016027 0.004556254 0.743315220 105 220 23
0.126076475 0.057961032 0.742164671 107 220 23
0.078891546 0.092966005 0.737305284 109 220 22
0.020910557 0.101024218 0.730329812 110 220 22
-0.033783417 0.080162533 0.723347306 112 220 22
-0.071908973 0.035463251 0.718468189 113 220 22
-0.084227026 -0.022175886 0.717290282 115 220 21
-0.067794405 -0.078700259 0.720508039 116 220 21
-0.026681982 -0.120327286 0.727743745 118 220 21
0.029018342 -0.136908650 0.737639308 120 220 21
0.085655868 -0.124406405 0.748187959 121 220 20
0.129351258 -0.085877649 0.757223487 123 220 20
0.149382383 -0.030729137 0.762948751 124 220 20
0.140800506 0.027577862 0.764374197 126 220 20
0.105637394 0.074811414 0.761559248 128 220 19
0.052409392 0.099441275 0.755598009 129 220 19
-0.005959799 0.095451534 0.748352110 131 220 19
-0.055292331 0.063808411 0.741996288 132 220 19
-0.083614983 0.012224451 0.738488436 134 220 18
-0.084080108 -0.046723012 0.739091396 136 220 18
-0.056636177 -0.098660216 0.744065523 137 220 18
-0.008040458 -0.130923629 0.752604365 139 220 18
0.049789608 -0.135649353 0.763031900 140 220 17
0.102683604 -0.111691609 0.773211539 142 220 17
0.137675494 -0.064902350 0.781067014 144 220 17
0.146166652 -0.006703556 0.785089076 145 220 17
0.126023546 0.048699394 0.784703553 147 220 16
0.082098342 0.087783068 0.780411720 148 220 16
0.025045175 0.101005383 0.773667991 150 220 16
-0.031279176 0.085133500 0.766524613 151 220 16
-0.073195681 0.044032447 0.761131585 153 220 15
-0.090540290 -0.012277879 0.759211719 155 220 15
-0.079143658 -0.070067018 0.761640668 156 220 15
-0.041848063 -0.115243845 0.768232942 158 220 15
0.012185872 -0.136794105 0.777787626 159 220 14
0.069713920 -0.129467502 0.788380921 161 220 14
0.116639405 -0.095058575 0.797835529 163 220 14
0.141452312 -0.041968986 0.804252267 164 220 14
0.138037175 0.016842291 0.806472838 166 220 13
0.107165240 0.067020416 0.804362714 167 220 13
0.056306280 0.096316591 0.798843920 169 220 13
-0.002194270 0.097576559 0.791670203 171 220 13
-0.054126430 0.070485793 0.784998715 172 220 12
-0.086882710 0.021646231 0.780864239 174 220 12
-0.092533827 -0.037034236 0.780682683 175 220 12
-0.069763079 -0.091247052 0.784905732 177 220 12
-0.024187684 -0.127773449 0.792910278 179 220 11
0.033011749 -0.137709558 0.803150654 180 220 11
0.087818712 -0.118638471 0.813535869 182 220 11
0.126800388 -0.075220004 0.821939707 183 220 11
0.140384823 -0.018053755 0.826719105 185 220 10
0.125195727 0.038906738 0.827115238 186 220 10
0.084876865 0.081758082 0.823438883 188 220 10
0.029202549 0.100039065 0.816994131 190 220 10
-0.028306833 0.089282677 0.809760451 191 220 9
-0.073683262 0.052105937 0.803910077 193 220 9
-0.095918566 -0.002428596 0.801277280 194 220 9
-0.089650214 -0.061023742 0.802911699 196 220 9
-0.056469418 -0.109391719 0.808822036 198 220 8
-0.004533038 -0.135739774 0.817973554 199 220 8
0.053426474 -0.133647114 0.828540921 201 220 8
0.103207320 -0.103631333 0.838353395 202 220 8
0.132602692 -0.053022310 0.845424473 204 220 7
0.134379297 0.005826026 0.848436296 206 220 7
0.108041704 0.058549792 0.847061336 207 220 7
0.059953112 0.092279270 0.842042506 209 220 7
0.001783656 0.098778494 0.835011303 210 220 6
-0.052337732 0.076454811 0.828090489 212 220 6
-0.089269459 0.030747168 0.823375821 214 220 6
-0.100063577 -0.027200673 0.822424769 215 220 6
-0.082148723 -0.083258785 0.825876772 217 220 5
-0.039957419 -0.123758301 0.833296895 218 220 5
0.016155243 -0.138825998 0.843282223 220 220 5
0.072437793 -0.124793097 0.853804052 221 220 5
0.115097642 -0.085090294 0.862702847 223 220 4
0.133665234 -0.029410638 0.868214905 225 220 4
0.123548806 0.028654933 0.869402647 226 220 4
0.087154448 0.074933454 0.866383970 228 220 4
0.033299021 0.098127633 0.860302329 229 220 3
-0.024940891 0.092571780 0.853048921 231 220 3
-0.073418930 0.059614133 0.846800447 233 220 3
-0.100370280 0.007288001 0.843488574 234 220 3
-0.099281877 -0.051648200 0.844328582 236 220 2
-0.070481241 -0.102823481 0.849522889 237 220 2
-0.021056563 -0.133760169 0.858211517 239 220 2
0.036872312 -0.136918113 0.868682086 241 220 2
0.089111179 -0.111533985 0.878787398 242 220 1
0.122853577 -0.063807607 0.886469483 244 220 1
0.129805773 -0.005389601 0.890261531 245 220 1
0.108209625 0.049461156 0.889645636 247 220 1
0.063271791 0.087355971 0.885179281 249 220 0
0.005893275 0.099042810 0.878359556 250 220 0
-0.049989589 0.081663392 0.871257544 252 220 0
-0.090805590 0.039450482 0.866012931 253 220 0
-0.106659174 -0.017304735 0.864312649 255 219 0
-0.093744665 -0.074763313 0.866978824 255 218 0
-0.055274710 -0.118914694 0.873768270 255 217 0
-0.000696510 -0.138994843 0.883431911 255 216 0
0.056612968 -0.130112052 0.894019544 255 214 0
0.102610320 -0.094440565 0.903355241 255 213 0
0.126012027 -0.040689997 0.909569025 255 212 0
0.121047050 0.018019348 0.911552131 255 211 0
0.088864513 0.067357555 0.909227908 255 210 0
0.037253778 0.095280737 0.903570652 255 209 0
-0.021256141 0.094969541 0.896367967 255 207 0
-0.072452933 0.066492811 0.889784157 255 206 0
-0.103908539 0.016790630 0.885832489 255 205 0
-0.108011007 -0.042018749 0.885884523 255 204 0
-0.083821513 -0.095595248 0.890334785 255 203 0
-0.037303329 -0.130875364 0.898504794 255 201 0
0.020132795 -0.139259338 0.908808649 255 200 0
0.074412853 -0.118708894 0.919139922 255 199 0
0.112232417 -0.074244678 0.927385390 255 198 0
0.124303073 -0.016721517 0.931940794 255 197 0
0.107617959 0.039820001 0.932102025 255 195 0
0.066185579 0.081578881 0.928237081 255 194 0
0.010051986 0.098360159 0.921696186 255 193 0
-0.047150381 0.086062856 0.914482296 255 192 0
-0.091528334 0.047679830 0.908762574 255 191 0
-0.112317376 -0.007432077 0.906339705 255 190 0
-0.104507722 -0.065834805 0.908212125 255 188 0
-0.070066646 -0.113287508 0.914330244 255 187 0
-0.017458454 -0.138220683 0.923608840 255 186 0
0.040420562 -0.134558737 0.934191525 255 185 0
0.089388132 -0.103202172 0.943903804 255 184 0
0.117435902 -0.051807899 0.950783551 255 182 0
0.117659420 0.007078618 0.953559577 255 181 0
0.089942142 0.059084252 0.951961815 255 180 0
0.040984035 0.091514394 0.946787596 255 179 0
-0.017333124 0.096450232 0.939706445 255 178 0
-0.070844002 0.072680391 0.932853043 255 177 0
-0.106556080 0.025996696 0.928306758 255 175 0
-0.115818903 -0.032218974 0.927583992 255 174 0
-0.096434757 -0.087771356 0.931268275 255 173 0
-0.053194627 -0.127114922 0.938868105 255 172 0
0.003290564 -0.140658468 0.948936701 255 171 0
0.059178591 -0.125105083 0.959425032 255 169 0
0.100772887 -0.084256291 0.968181491 255 168 0
0.117863923 -0.028084844 0.973477364 255 167 0
0.106220156 0.029698282 0.974427700 255 166 0
0.068620183 0.074989036 0.971208215 255 165 0
0.014175091 0.096731119 0.965011477 255 163 0
-0.043894541 0.089613050 0.957756639 255 162 0
-0.091483966 0.055364270 0.951620817 255 161 0
-0.117045186 0.002332978 0.948508382 255 160 0
-0.114404216 -0.056550350 0.949585855 255 159 0
-0.084267423 -0.106927551 0.954997718 255 158 0
-0.034048982 -0.136515677 0.963831067 255 156 0
0.023937821 -0.138103545 0.974338233 255 155 0
0.075484127 -0.111310840 0.984363139 255 154 0
0.107952714 -0.062681139 0.991867363 255 153 0
0.113360614 -0.004085481 0.995427549 255 152 0
0.090326265 0.050173923 0.994582474 255 150 0
0.044407368 0.086852580 0.989945590 255 149 0
-0.013255725 0.096995249 0.983055532 255 148 0
-0.068657346 0.078120321 0.976000488 255 147 0
-0.108343676 0.034825370 0.970908880 255 146 0
-0.122694716 -0.022334425 0.969430208 255 145 0
-0.108271368 -0.079421386 0.972332656 255 143 0
-0.068654433 -0.122515656 0.979315400 255 142 0
-0.013570845 -0.141111016 0.989082277 255 141 0
0.043479055 -0.130678087 0.999657750 255 140 0
0.088515252 -0.093769230 1.008869290 255 139 0
0.110488713 -0.039395951 1.014877081 255 137 0
0.103976712 0.019169584 1.016622663 255 136 0
0.070505895 0.067632571 1.014087558 255 135 0
0.018179845 0.094162703 1.008297563 255 134 0
-0.040297884 0.092280455 1.001072526 255 133 0
-0.090722941 0.062437858 0.994582653 255 131 0
-0.120855577 0.011908259 0.990818381 255 130 0
-0.123406559 -0.046988234 0.991105497 255 129 0
-0.097815566 -0.099890232 0.995781302 255 128 0
-0.050387859 -0.133898810 1.004112244 255 127 0
0.007244051 -0.140724391 1.014473557 255 126 0
0.060958147 -0.118708968 1.024744749 255 124 0
0.097588360 -0.073230550 1.032827258 255 123 0
0.108136147 -0.015391260 1.037156820 255 122 0
0.089966372 0.040691093 1.037084460 255 121 0
0.047449641 0.081327483 1.033035040 255 120 0
-0.009103432 0.096596979 1.026404142 255 118 0
-0.065958217 0.082767360 1.019216657 255 117 0
-0.109306283 0.043205284 1.013633490 255 116 0
-0.128634378 -0.012444749 1.011424065 255 115 0
-0.119289212 -0.070613436 1.013535023 255 114 0
-0.083612621 -0.117116995 1.019858479 255 112 0
-0.030370265 -0.140617400 1.029259086 255 111 0
0.027386576 -0.135388672 1.039851069 255 110 0
0.075505584 -0.102713592 1.049457669 255 109 0
0.102185398 -0.050570693 1.056142688 255 108 0
0.100855172 0.008311972 1.058682323 255 107 0
0.071777448 0.059562027 1.056864738 255 105 0
0.021984044 0.090669274 1.051540613 255 104 0
-0.036439382 0.094037563 1.044415951 255 103 0
-0.089301586 0.068837911 1.037636399 255 102 0
-0.123768292 0.021211024 1.033263564 255 101 0
-0.131492913 -0.037231125 1.032771468 255 99 0
-0.110652916 -0.092237972 1.036687493 255 98 0
-0.066394500 -0.130397081 1.044463634 255 97 0
-0.009577110 -0.142406285 1.054610372 255 96 0
0.045876056 -0.125342906 1.065059543 255 95 0
0.086374342 -0.083376907 1.073669553 255 94 0
0.101975888 -0.026753604 1.078747034 255 92 0
0.088812411 0.030706033 1.079461098 255 91 0
0.050033145 0.074976742 1.076044679 255 90 0
-0.004963148 0.095251031 1.069738984 255 89 0
-0.062821455 0.086575612 1.062489510 255 88 0
-0.109488592 0.051059734 1.056472301 255 86 0
-0.133641556 -0.002639194 1.053562999 255 85 0
-0.129449919 -0.061427835 1.054878950 255 84 0
-0.097998321 -0.110971153 1.060505986 255 83 0
-0.047021776 -0.139189541 1.069479227 255 82 0
0.010981381 -0.139206111 1.080016732 255 80 0
0.061798424 -0.111023828 1.089955091 255 79 0
0.092970133 -0.061525322 1.097277403 255 78 0
0.096829742 -0.002793506 1.100604773 255 77 0
0.072373688 0.050836116 1.099532485 255 76 0
0.025506191 0.086272731 1.094729900 255 75 0
-0.032400757 0.094864100 1.087775826 255 73 0
-0.087282047 0.074507087 1.080774307 255 72 0
-0.125810787 0.030160872 1.075841188 255 71 0
-0.138649404 -0.027362920 1.074586987 255 70 0
-0.122727782 -0.084037788 1.077725053 255 69 0
-0.081992239 -0.126044437 1.084897757 255 67 0
-0.026442736 -0.143141896 1.094762325 255 66 0
0.030306935 -0.131166369 1.105319858 255 65 0
0.074349672 -0.093046464 1.114401937 255 64 0
0.094879001 -0.038089156 1.120200634 255 63 0
0.086824208 0.020290837 1.121708393 255 62 0
0.052088574 0.067843929 1.118965387 255 60 0
-0.000915769 0.092961699 1.113047957 255 59 0
-0.059319854 0.089509308 1.105807185 255 58 0
-0.108937308 0.058321822 1.099417210 255 57 0
-0.137725443 0.007000627 1.095844507 255 56 0
-0.138723001 -0.051941004 1.096368074 255 54 0
-0.111748710 -0.104130715 1.101267815 255 53 0
-0.063445240 -0.136843383 1.109755635 255 52 0
-0.005658820 -0.142105490 1.120168686 255 51 0
0.047450781 -0.118640512 1.130374074 255 50 0
0.082864881 -0.072180115 1.138289690 255 48 0
0.091881692 -0.014066041 1.142391920 255 47 0
0.072239444 0.041516900 1.142087817 255 46 0
0.028668158 0.081001535 1.137858629 255 45 0
-0.028264612 0.094747849 1.131144404 255 44 0
-0.084731378 0.079395123 1.123990178 255 43 0
-0.127018422 0.038681682 1.118549347 255 41 0
-0.144871444 -0.017467054 1.116556883 255 40 0
-0.133997008 -0.075360104 1.118906498 255 39 0
-0.097110063 -0.120880947 1.125432730 255 38 0
-0.043271691 -0.142931402 1.134950876 255 37 0
0.014321506 -0.136139095 1.145546675 255 35 0
0.061556906 -0.102168322 1.155043006 255 34 0
0.086848825 -0.049313821 1.161530852 255 33 0
0.083965063 0.009522796 1.163835049 255 32 0
0.053547084 0.059980407 1.161800861 255 31 0
0.002953492 0.089742109 1.156332731 255 30 0
