<svg xmlns="http://www.w3.org/2000/svg" width="900" height="620" viewBox="0 0 900 620"><rect width="100%" height="100%" fill="white"/><text x="45" y="28" font-family="monospace" font-size="16">raspi_vio_noisy_skipviba2_full PCA XY trajectory</text><polyline points="721.73,216.85 761.54,252.26 781.25,292.63 773.75,320.77 774.84,344.46 785.60,385.14 812.31,418.17 814.34,432.50 730.39,237.88 723.30,242.23 855.00,536.29 723.01,277.40 713.12,302.08 716.02,319.76 704.77,329.30 684.06,343.63 725.08,252.18 709.50,262.97 704.63,264.98 699.54,271.06 689.62,278.77 681.31,284.84 671.36,293.46 661.19,304.55 712.55,263.16 703.77,264.65 704.13,270.04 701.20,274.24 695.37,283.33 697.38,289.06 695.49,295.98 692.68,304.35 718.88,229.02 718.05,240.58 719.71,255.38 720.08,258.60 720.17,269.37 719.68,278.63 718.50,290.33 722.68,308.15 710.73,308.16 713.59,309.21 717.03,333.75 713.18,322.84 715.69,328.59 715.99,334.00 715.87,338.31 717.30,342.98 717.16,339.52 717.28,342.81 717.11,346.35 716.80,345.63 716.41,347.36 716.05,349.42 715.72,351.07 715.37,353.41 715.44,356.89 714.96,358.42 714.83,359.39 713.56,359.54 713.64,359.83 712.58,359.01 712.31,359.54 712.36,360.02 714.89,357.53 714.53,357.46 714.85,357.51 715.26,357.48 714.70,356.68 714.22,357.09 714.40,358.36 713.49,358.72 710.75,362.15 711.54,364.26 711.18,365.82 710.64,365.24 710.51,368.76 709.18,370.31 709.25,373.10 709.41,376.31 710.66,380.07 710.44,384.36 711.43,388.03 712.70,394.67 712.38,396.05 712.52,400.80 712.26,405.11 712.80,409.14 711.06,372.93 711.29,376.03 712.43,379.46 711.31,383.65 710.07,385.12 709.09,387.20 707.85,390.37 706.77,392.55 709.86,378.08 709.76,378.59 709.44,378.30 704.73,383.20 704.54,382.27 702.52,382.42 700.82,382.96 698.96,382.54 692.11,439.25 690.99,438.08 689.44,437.62 687.63,436.80 686.17,436.00 684.84,435.74 683.63,434.23 687.24,380.07 703.92,378.24 703.38,377.70 703.20,377.04 702.43,377.46 701.48,377.79 700.14,377.79 698.95,377.85 697.94,378.26 701.89,378.18 701.07,378.35 700.66,378.90 699.94,379.22 699.05,379.66 698.67,381.01 697.57,383.98 696.42,385.30 700.36,381.25 700.21,382.97 699.39,384.32 698.81,385.92 697.90,388.17 691.03,399.63 695.28,395.09 690.48,404.74 663.20,464.06 663.27,466.05 663.38,468.41 663.62,470.67 663.08,473.36 694.61,412.14 663.70,479.01 682.86,425.23 662.50,482.89 662.15,483.90 662.11,486.16 662.47,487.98 663.69,487.79 662.81,487.39 662.10,486.41 662.55,487.48 662.25,486.71 662.58,486.96 662.77,486.64 662.86,486.12 662.91,486.39 663.53,485.33 663.11,484.27 663.57,484.16 662.70,486.09 663.21,485.90 663.27,485.65 663.89,484.42 664.68,483.30 665.93,484.10 665.57,484.25 665.95,484.46 666.30,480.26 666.34,480.83 665.20,482.19 665.66,482.63 664.03,484.21 664.68,482.06 662.62,484.66 661.25,485.75 657.37,489.07 656.23,489.96 655.08,490.85 651.97,495.04 649.48,496.22 649.31,497.45 647.38,499.21 647.77,502.07 660.65,486.72 658.08,487.46 657.18,489.01 655.46,491.94 653.86,493.93 653.50,495.93 636.90,517.66 636.48,519.05 632.39,527.05 632.85,527.91 632.51,529.57 633.25,531.67 632.03,532.50 631.24,533.32 629.77,532.29 630.01,532.35 627.42,531.85 627.75,532.01 628.01,532.04 627.45,532.21 627.24,531.76 627.35,531.42 626.66,530.67 626.30,530.83 622.69,528.99 623.07,528.51 622.82,528.78 623.08,528.55 622.94,528.39 623.66,526.77 622.76,526.37 621.29,527.67 615.85,519.60 616.49,518.52 616.49,518.61 616.36,518.74 616.38,518.70 616.33,518.27 616.47,517.25 616.29,515.11 617.23,507.19 617.18,506.70 617.22,506.71 617.29,506.80 617.16,506.55 617.23,504.92 617.23,504.94 617.28,504.70 617.26,501.37 617.36,501.28 617.31,500.86 617.11,500.76 616.82,500.30 616.77,499.53 616.76,499.48 616.69,499.44 615.99,498.80 615.97,499.21 615.99,499.11 615.57,498.98 615.42,499.45 615.89,498.65 614.43,498.56 613.76,498.91 613.11,499.01 612.58,499.63 610.89,498.41 603.80,499.86 602.98,499.84 598.69,501.29 595.20,502.41 593.06,505.12 591.01,504.93 589.27,505.16 585.21,508.19 581.41,509.92 579.33,512.15 576.82,513.36 573.72,512.92 573.12,515.26 569.80,518.08 565.56,522.08 561.21,524.13 555.29,524.91 552.55,526.21 549.53,527.16 547.49,527.50 544.94,528.50 543.21,529.03 540.85,530.04 535.73,536.85 534.22,538.74 532.43,538.65 529.58,539.21 526.34,538.72 523.50,538.24 521.20,537.93 513.79,537.38 513.08,537.83 513.13,537.28 510.32,536.99 507.27,534.91 505.74,532.94 503.11,530.21 506.16,523.39 503.06,522.23 501.67,520.97 501.45,520.05 504.54,519.94 507.58,519.63 504.99,519.63 499.92,514.76 489.82,516.10 490.00,515.19 489.06,514.80 487.26,513.94 486.01,513.91 483.85,514.25 483.02,514.43 481.78,512.50 481.85,512.42 481.80,512.48 481.73,512.46 481.74,512.47 481.73,512.50 477.33,510.90 461.88,515.83 461.09,515.59 459.83,515.43 459.33,515.03 459.52,514.33 459.52,514.18 457.85,517.98 451.27,524.65 429.92,527.96 427.58,529.58 425.68,530.13 424.19,531.69 422.43,533.13 417.59,533.30 411.20,536.07 405.32,538.81 404.86,539.17 401.98,539.76 400.04,539.09 399.05,539.13 396.51,539.68 393.71,539.68 389.40,540.92 388.71,540.61 387.17,540.55 384.39,540.68 381.99,539.26 379.99,538.30 378.66,536.48 377.21,534.06 375.37,531.93 374.87,529.81 374.78,529.18 371.91,527.42 368.84,525.47 366.67,524.08 364.97,522.43 363.43,518.71 361.68,518.49 361.06,517.62 359.43,515.88 358.21,514.32 356.06,513.46 354.55,512.82 353.55,512.60 351.48,510.47 351.11,509.69 350.33,509.52 348.86,507.40 345.11,506.96 343.82,506.53 340.23,506.25 335.01,509.65 332.01,508.96 328.33,509.80 323.40,511.17 318.18,511.53 314.30,512.93 310.40,514.63 304.15,513.19 302.09,515.51 297.16,515.72 297.24,515.61 292.89,514.82 286.08,514.76 280.68,515.03 275.52,516.97 271.96,516.76 270.40,517.02 270.61,516.19 269.61,515.91 267.65,515.11 266.73,514.03 263.12,511.80 259.57,509.76 257.80,507.54 257.64,507.41 256.20,505.49 255.79,505.35 257.78,505.76 258.83,503.96 255.40,499.66 255.10,499.30 254.23,498.53 253.05,497.02 252.29,496.17 250.54,495.75 248.94,495.30 246.99,491.25 245.22,491.13 244.45,491.38 243.55,490.98 242.43,489.39 241.52,489.06 239.87,488.28 236.82,489.49 236.06,489.75 234.20,489.84 232.29,489.92 229.65,490.32 226.39,491.53 223.51,492.48 217.36,493.37 217.02,493.64 212.26,495.48 205.87,496.28 201.98,496.79 199.36,497.15 190.98,494.45 187.22,494.89 183.99,495.59 182.83,496.78 180.22,497.82 175.88,498.13 168.03,496.61 163.62,496.75 160.19,496.34 160.05,496.31 162.65,496.65 161.59,498.37 156.55,498.51 153.01,497.83 147.23,494.21 146.83,492.02 145.86,491.85 146.95,492.32 145.72,490.50 144.95,489.72 144.12,489.08 143.57,487.79 142.76,484.09 143.63,483.88 143.32,483.14 143.05,483.60 143.00,483.47 143.35,483.34 143.80,483.35 139.84,468.60 140.79,468.69 140.42,467.82 139.63,468.19 139.85,466.49 140.48,464.29 140.06,462.59 140.51,462.42 137.44,457.34 137.95,456.84 135.33,453.99 132.96,451.04 131.03,448.98 128.48,448.56 126.52,447.42 124.77,444.89 122.32,443.74 120.77,441.94 117.11,440.78 112.11,439.84 108.02,439.97 104.63,439.80 99.77,440.72 97.02,439.92 94.11,438.38 90.58,436.97 87.08,435.61 84.83,435.97 82.16,435.18 78.46,434.97 82.11,431.87 81.45,431.92 81.08,431.74 81.16,431.17 80.65,430.67 80.63,430.11 79.30,428.80 75.95,428.92 78.13,429.44 78.30,429.52 79.61,427.90 80.71,426.65 81.34,426.28 82.40,425.91 87.55,422.49 89.01,421.75 87.65,421.62 87.33,421.46 87.15,421.62 88.11,421.94 89.14,421.97 91.61,420.51 90.75,419.98 89.78,419.31 89.86,419.10 90.61,418.57 92.23,418.65 93.63,418.42 95.46,414.75 96.16,414.66 96.12,414.35 96.65,414.57 97.16,414.49 96.22,414.51 96.32,414.31 98.59,414.94 98.18,415.82 98.77,415.38 99.15,415.51 99.40,415.42 99.28,415.25 99.55,414.93 99.89,414.62 100.51,415.11 96.96,415.91 97.45,417.56 97.72,418.10 97.85,417.74 97.48,417.34 97.67,417.32 97.49,416.68 98.84,417.14 97.46,416.03 97.50,415.69 98.42,414.29 99.69,413.44 99.96,412.66 101.11,412.64 101.48,411.57 98.96,413.19 99.28,411.72 99.49,408.31 99.41,405.83 98.99,404.23 98.29,403.80 99.49,403.70 100.53,387.63 98.88,386.71 97.45,385.14 95.77,381.89 91.69,376.59 86.80,372.45 79.66,363.67 74.61,362.14 70.46,360.12 68.97,358.60 67.77,357.20 65.87,354.95 64.48,352.47 63.07,344.70 63.03,344.01 58.88,340.92 59.33,338.39 59.03,339.35 58.33,335.60 59.12,333.57 59.51,333.49 59.93,332.16 61.16,335.75 62.98,334.88 68.04,332.27 69.78,331.80 70.19,332.88 70.94,334.31 71.01,334.56 70.42,333.62 72.86,330.83 73.88,330.30 74.44,330.05 76.40,323.19 77.85,320.68 78.48,318.58 78.66,317.56 78.83,315.80 77.75,314.07 77.26,312.85 76.83,310.75 76.90,308.03 76.80,304.97 75.91,301.61 74.72,298.99 74.10,295.78 71.93,292.19 72.37,290.63 69.34,280.54 68.03,276.97 65.07,273.72 64.08,269.98 61.22,266.46 58.96,262.08 59.05,257.33 58.88,251.60 57.47,248.40 56.73,244.93 55.45,241.43 54.68,238.57 53.01,234.69 53.11,233.05 53.75,232.76 53.84,231.15 54.54,230.08 55.04,229.03 55.50,229.26 55.28,231.12 56.59,230.65 58.00,229.46 60.60,222.86 60.91,222.03 61.29,223.23 61.45,222.30 61.42,220.60 61.81,219.41 64.93,218.26 68.69,222.48 69.00,223.80 70.07,223.10 71.23,222.93 71.81,222.99 72.13,222.92 71.47,223.59 72.31,223.65 71.86,223.59 72.14,222.37 72.46,222.89 72.60,221.21 72.66,221.06 74.04,219.13 74.12,218.67 74.28,218.15 73.11,217.33 73.34,216.37 72.81,215.56 73.23,213.63 73.06,207.31 73.06,206.19 73.17,206.09 73.30,206.45 72.44,203.22 71.12,193.51 69.74,186.36 70.39,181.93 68.95,177.43 68.57,173.72 68.11,169.51 66.67,164.18 64.92,159.52 62.39,155.26 61.08,151.86 58.98,148.48 58.81,144.77 58.51,141.53 58.02,137.37 57.04,132.75 55.88,130.35 55.46,127.35 53.43,124.12 53.60,122.03 52.62,120.50 53.27,120.31 53.68,119.90 54.97,118.12 56.13,116.55 57.67,116.00 61.72,117.53 62.09,116.51 62.82,118.50 63.57,118.74 64.22,117.95 65.40,117.10 66.24,118.40 70.56,121.30 70.00,122.29 70.36,123.10 70.16,122.06 69.63,122.95 69.84,123.25 70.77,122.51 72.98,122.21 73.25,121.97 76.75,123.71 76.86,124.07 76.75,124.09 77.11,126.14 77.62,127.50 77.99,127.28 78.02,127.42 80.44,126.52 80.88,125.94 81.26,124.81 81.19,125.75 81.43,126.65 84.57,128.51 88.26,128.48 89.65,126.95 90.92,126.36 91.37,126.72 91.06,127.66 91.39,127.20 92.51,127.53 93.15,127.60 93.80,127.57 93.17,128.03 93.91,127.98 94.01,127.56 94.19,126.95 94.49,126.94 94.60,126.02 95.83,125.48 96.45,124.19 95.72,123.34 97.17,121.29 97.29,120.92 98.27,118.19 98.97,116.60 101.26,114.07 103.48,111.12 104.07,110.32 104.93,107.24 106.29,104.22 108.13,100.89 109.22,97.24 110.42,93.74 111.72,90.01 112.04,88.14 113.94,83.05 114.95,80.23 116.66,76.27 118.55,71.73 119.47,67.19 121.05,63.17 121.94,60.12 122.66,59.77 125.65,57.54 126.47,55.44 128.42,54.32 129.74,52.45 131.80,51.28 133.07,51.72 133.84,51.21 136.75,51.58 136.84,53.02 141.10,54.21 143.87,54.65 146.50,55.87 150.20,57.52 154.35,58.64 156.13,58.65 158.09,59.53 160.30,60.77 162.58,60.80 166.22,61.13 169.33,63.53 172.64,64.95 175.43,65.91 178.60,67.29 181.60,68.85 182.90,69.38 184.75,69.35 186.99,69.70 189.37,69.57 189.70,70.49 190.21,69.62 192.09,69.50 195.77,68.13 197.55,68.34 201.02,68.18 202.63,68.20 205.01,67.58 207.96,67.48 211.12,67.11 214.26,65.96 217.06,63.98 221.09,62.59 224.11,61.41 227.50,59.93 234.75,60.08 238.87,58.61 243.72,57.95 247.23,56.56 252.00,53.91 255.77,52.65 258.03,51.11 260.92,48.51 267.84,48.12 268.52,47.32 272.43,47.17 277.86,45.85 282.86,45.73 285.28,45.00 285.89,45.37 286.99,45.07 287.91,47.22 291.70,45.68 293.08,46.74 294.54,47.46 296.87,48.61 298.75,50.50 302.13,52.37 304.86,55.53 307.24,58.71 308.02,60.51 310.27,61.81 314.24,64.12 316.47,65.90 319.69,68.50 321.80,70.59 323.48,72.28 324.73,73.33 327.73,75.03 331.44,77.20 335.63,79.38 335.96,81.53 337.95,82.92 339.41,83.51 340.01,84.59 342.54,85.68 344.48,86.74 347.77,88.46 351.15,89.69 354.93,90.94 357.87,92.47 359.77,92.80 362.43,92.97 365.03,93.57 368.15,93.73 371.87,94.56 375.72,95.11 378.62,94.30 388.84,97.31 384.61,94.46 384.89,93.47 385.66,93.35 389.08,94.10 391.95,94.67 396.30,95.07 399.30,94.95 401.08,95.07 403.33,94.75 405.14,96.64 406.34,97.43 407.79,97.31 408.29,97.28 408.88,97.20 411.83,100.12 413.78,102.54 414.17,104.03 415.26,105.75 416.21,108.10 416.52,109.52 417.27,111.09 418.93,113.02 420.66,114.55 421.71,116.03 423.74,118.18 425.93,120.37 428.13,120.70 430.12,121.91 431.85,122.86 433.67,124.81 435.39,125.06 436.85,125.97 441.32,127.05 441.73,127.41 443.70,127.79 446.16,128.77 447.80,128.53 449.94,128.93 452.32,129.22 453.96,127.35 458.51,127.94 459.53,127.95 461.23,127.99 465.91,127.47 470.73,126.96 475.40,125.43 479.84,124.54 483.86,122.69 491.74,122.61 495.40,120.39 500.69,118.39 505.72,117.38 509.99,116.87 514.48,115.96 520.04,115.30 525.00,114.59 528.75,112.99 531.34,113.23 534.28,113.61 537.44,112.24 539.77,111.97 542.48,113.22 543.82,113.95 547.47,114.32 552.12,114.41 555.28,115.07 557.00,115.96 557.90,116.97 559.92,118.55 561.05,119.20 563.07,120.45 563.78,121.56 564.67,124.24 566.11,126.25 567.84,126.61 569.55,127.42 570.87,128.26 571.98,129.95 573.54,131.68 575.73,133.08 577.85,134.38 579.70,135.78 581.68,137.32 584.21,138.48 586.20,139.23 588.18,140.12 590.45,140.59 592.41,141.87 594.41,141.86 596.54,142.46 599.02,143.13 598.70,144.19 604.43,144.66 607.24,144.69 610.43,144.87 613.49,145.07 617.38,145.30 621.58,146.01 626.05,145.97 629.95,145.96 634.27,144.69 639.62,145.32 644.39,144.99 648.83,144.95 652.76,144.14 656.07,144.40 658.93,144.33 661.96,144.11 664.45,144.65 668.16,144.36 671.55,143.82 673.42,144.98 674.30,144.76 674.44,145.58 675.34,145.68 676.07,146.54 677.44,148.00 678.93,149.10 678.67,150.50 678.81,150.60 678.16,150.89 678.08,152.38 677.84,153.68 677.94,154.29 677.71,155.22 677.85,157.27 677.03,158.76 676.01,159.25 675.51,159.80 675.62,160.69 676.11,160.98 676.11,161.10 676.69,161.62 676.97,163.53 677.61,164.78 678.93,166.27 679.93,166.99 681.76,166.86 682.78,168.25 684.07,168.95 685.68,169.69 687.84,169.36 689.60,169.79 691.51,169.58 694.56,169.93 698.32,169.89 701.69,171.31 703.99,171.80 707.80,170.72 710.95,170.66 714.53,170.82 717.27,170.63 720.37,170.64 724.17,171.32 728.26,171.93 731.08,172.30 732.93,171.30 735.78,172.74 737.25,172.47 738.85,172.48 740.28,172.07 741.53,172.26 742.55,171.51 742.01,170.55 741.82,170.61 742.61,169.57 741.71,170.11 742.17,170.00 742.40,169.95 742.62,168.90 742.92,168.30 742.22,167.79 741.18,167.08 741.41,166.75 736.99,165.98 736.11,166.95 735.33,166.45 734.71,165.46 734.26,165.21 734.20,164.79 734.28,165.26 733.93,165.76 733.68,166.16 733.95,166.02 733.54,165.47 732.60,165.71 732.24,166.43 732.15,166.87 731.37,166.94 731.14,166.96 730.54,166.54 730.51,165.02 729.46,164.63 728.90,164.75 727.70,165.66 727.90,164.97 727.40,164.61 727.16,164.56 727.64,164.03 727.28,163.78 727.80,163.74 727.69,163.62 727.57,163.51 727.37,163.31 727.39,163.25 727.39,163.19 725.78,161.80 726.66,162.03 726.73,161.83 726.79,161.44 725.28,160.47 724.83,159.90 724.61,159.73 724.60,159.33 725.12,158.50 724.96,158.52 724.80,158.13 724.47,158.03 724.41,157.55 724.78,156.82 724.92,156.27 725.17,155.49 724.64,155.16 725.05,154.40 725.20,154.45 724.74,154.08 724.80,153.76 724.82,153.09 724.47,154.86 724.83,153.61 724.92,154.78 725.18,155.48 725.12,155.65 725.83,155.70 725.80,155.75 726.30,155.81 726.80,156.66 727.53,157.80 727.20,159.20 726.89,161.25 726.84,163.48 727.19,165.63 727.46,166.69 727.95,169.61 728.15,171.80 728.35,174.72 729.01,178.59 729.85,182.04 731.07,184.89 731.81,188.58 733.58,191.70 735.35,195.37 737.03,199.60 738.81,202.99 740.26,206.88 742.29,209.83 744.03,214.37 746.41,218.81 748.17,222.05 750.05,225.76 752.70,228.87 753.88,231.89 755.03,235.16 756.66,238.45 757.03,241.68 758.94,245.51 757.78,250.40 756.85,253.87 755.80,256.19 754.72,258.77 753.01,261.25 750.78,263.60 747.88,265.57 744.93,267.55 743.75,269.94 742.58,272.81 738.95,275.04 736.27,277.72 735.18,279.85 734.07,282.76 731.58,285.99 728.93,288.46 726.41,290.88 724.76,293.30 723.48,296.20 722.49,300.00 720.55,302.45 718.87,305.25 717.61,308.48 715.90,311.07 714.49,313.84 713.18,317.17 711.59,321.09 710.48,325.65 710.15,330.05 708.66,334.47 706.95,339.89 705.96,345.36 705.62,350.26 705.48,357.42 704.53,362.69 704.80,367.12 704.93,372.19 705.90,376.86 705.83,382.71 705.20,388.24 704.53,392.94 705.35,396.47 705.08,401.43 704.83,404.66 704.49,407.42 703.62,409.47 702.75,411.87 700.59,414.15 698.62,416.55 696.66,417.84 694.68,419.71 693.18,420.54 692.05,419.41 687.90,420.86 685.59,421.33 683.39,421.61 680.42,421.51 678.93,422.77 676.47,422.88 674.98,423.24 672.70,423.54 672.00,424.92 670.70,424.97 669.54,423.87 669.90,422.99 669.63,423.57 669.39,425.11 668.21,425.78 666.96,425.65 665.69,426.50 663.91,427.52 662.89,428.64 662.56,430.22 661.35,430.58 659.36,435.10 657.84,437.41 656.18,439.98 653.76,442.95 651.59,445.71 648.60,447.10 645.37,451.03 643.78,454.98 643.16,458.43 640.75,458.94 638.80,460.32 637.24,461.53 635.96,462.10 634.54,462.81 633.46,462.87 633.22,461.82 632.84,461.35 632.21,461.78 632.31,463.72 632.80,464.88 633.71,464.37 633.91,464.43 634.58,463.99 634.91,463.59 635.10,463.11 635.26,463.37 636.75,462.47 638.26,459.56 639.65,458.08 640.24,456.95 640.53,455.41 649.81,449.15 641.82,457.00 642.11,458.43 642.63,458.25 643.26,458.05 643.81,457.89 645.20,458.48 646.35,457.63 647.53,457.46 648.08,458.25 648.58,458.42 650.64,458.16 651.23,457.48 651.13,457.73 651.40,457.61 651.42,457.46 651.46,457.40 651.44,457.43 651.40,457.46 652.58,457.21 653.78,456.84 652.65,457.39 652.92,457.80 653.47,458.51 653.35,459.28 653.41,460.05 652.57,460.57 652.77,462.97 652.80,462.84 652.67,463.33 652.42,463.52 652.40,463.80 651.89,464.17 651.37,464.28 651.25,463.24 650.79,462.68 650.08,463.00 641.32,490.14 639.60,493.43 638.31,496.73 636.05,499.63 633.39,502.74 631.44,508.35 629.12,513.56 627.46,517.52 624.90,522.24 623.36,526.20 621.15,528.28 618.82,532.70 616.56,536.88 614.59,539.17 612.65,541.28 611.31,542.67 609.76,544.65 608.59,545.14 606.86,546.60 604.73,545.87 603.37,546.04 599.84,546.68 598.53,545.43 597.09,544.25 595.09,542.19 592.75,540.73 590.92,539.18 588.57,538.18 586.02,536.60 584.03,534.68 581.29,529.14 575.83,528.28 572.55,528.55 569.50,527.55 566.48,525.79 563.98,525.12 560.52,524.75 556.82,524.19 553.52,524.29 551.89,523.69 549.39,522.00 546.80,524.32 544.39,525.24 540.98,526.26 537.82,527.29 535.72,527.34 531.61,529.72 528.31,530.34 524.53,532.13 521.10,534.82 517.65,537.69 513.35,538.73 509.66,542.07 505.32,544.72 501.93,547.50 497.16,548.10 492.51,549.97 487.13,553.58 481.11,558.64 475.78,562.65 472.37,565.81 468.92,567.13 465.76,568.74 464.23,567.88 460.13,570.76 455.13,572.32 450.91,574.35 447.88,574.59 444.09,575.00 442.12,573.42 438.14,571.53 437.65,569.25 437.84,569.18 438.06,569.43 437.84,569.57 437.96,568.53 435.66,565.11 428.09,559.44 420.47,556.44 419.28,554.80 415.44,553.69 411.96,552.21 409.25,550.46 406.69,550.00 403.11,549.72 400.45,548.20 398.10,547.11 395.45,545.18 393.81,543.87 391.80,543.04 389.64,542.10 387.57,542.09 385.23,540.54 382.54,539.75 379.31,538.74 376.52,537.30 374.14,537.09 369.54,537.76 365.43,538.01 360.82,539.05 356.10,540.22 351.07,541.00 346.33,542.61 341.67,543.19 336.77,544.16 332.45,546.02 325.57,547.90 320.50,548.59 317.18,549.21 313.79,551.20 307.26,553.20 304.73,554.78 303.00,556.06 299.71,556.78 297.98,557.17 294.08,556.76 291.81,556.80 288.60,556.14 286.59,553.87 285.30,552.74 284.64,550.14 280.54,549.01 279.48,546.77 277.64,545.67 275.72,544.27 274.15,542.86 272.75,540.49 271.18,537.98 268.95,535.69 267.30,533.75 266.11,531.20 267.11,527.72 266.00,526.30 266.67,525.97 266.32,524.49 264.08,523.12 262.21,521.54 261.72,519.86 260.53,518.91 256.05,517.63 254.96,517.10 253.34,516.82 251.71,516.29 250.70,515.96 249.99,515.12 249.78,514.80 249.04,515.42 247.05,514.44 241.74,512.08 232.37,512.36 229.72,511.91 226.32,511.85 222.09,511.00 217.82,510.58 213.32,510.46 209.39,510.93 204.26,512.22 199.79,511.93 195.44,513.55 188.96,513.40 184.54,512.98 179.40,513.06 173.96,513.91 169.68,514.15 165.50,514.21 161.47,514.41 157.88,514.76 154.28,515.09 154.46,517.45 149.59,516.49 148.43,517.10 148.61,516.11 148.74,515.53 147.56,514.51 147.19,513.88 146.91,513.37 146.58,512.41 145.71,510.89 139.27,502.84 137.93,500.01 137.59,498.33 137.18,498.69 137.14,498.20 137.21,494.82 134.31,489.79 133.03,485.87 131.76,482.48 131.77,480.82 131.31,478.30 131.20,476.84 129.94,475.36 129.62,474.97 128.69,473.70 127.85,471.28 126.88,469.58 126.14,467.64 125.29,466.69 126.88,466.47 125.45,466.79 123.38,464.68 122.98,464.76 122.34,463.30 121.73,461.50 120.60,460.26 118.52,459.74 117.06,459.25 114.04,460.89 111.26,463.51 108.82,464.49 108.37,464.70 106.28,463.31 104.69,462.31 101.99,462.72 101.50,462.71 100.91,463.05 98.24,462.94 96.82,463.44 91.06,464.41 89.47,464.29 88.52,463.35 87.39,462.30 85.25,463.21 82.16,463.96 81.51,464.87 81.56,464.94 81.68,463.53 81.22,461.29 81.60,460.40 86.26,458.92 86.37,457.61 85.76,457.11 86.57,457.22 87.95,457.45 90.20,455.99 90.48,450.80 92.25,444.06 94.98,440.13 95.63,439.84 95.86,436.40 95.79,435.57 95.98,435.87 95.66,435.17 95.68,434.07 95.77,433.44 96.53,431.57 97.74,428.40 97.86,421.93 97.58,418.63 94.43,416.75 94.53,416.49 95.47,415.56 95.76,414.45 95.37,412.97 95.61,412.85 96.45,412.55 96.84,413.08 96.64,412.20 79.07,389.61 75.74,387.56 72.55,384.60 68.77,382.17 64.82,379.02 61.46,375.37 59.18,370.21 56.99,366.15 55.77,362.57 51.06,361.07 50.24,355.11 47.92,351.47 46.84,349.38 46.54,347.98 45.16,346.38 45.00,343.79 45.06,342.24 45.43,341.16 48.78,337.71 49.12,335.50 50.14,335.37 51.20,335.22 51.12,334.39 52.13,334.06 53.32,335.16 54.47,335.10 53.78,330.90 53.30,325.58 61.23,321.39 63.71,320.15 65.38,321.44 65.52,320.07 66.42,317.54 68.15,313.74 70.51,309.33 70.57,306.94 71.79,305.15 73.99,306.40 74.91,303.72 75.59,300.83 77.09,297.52 77.12,298.35 76.64,297.14 78.19,295.57 77.82,292.97 77.46,290.13 77.45,285.60 77.77,282.41 77.59,278.74 75.44,275.57 74.19,270.78 73.61,266.55 73.48,262.51 72.38,256.55 70.95,251.14 70.34,246.05 68.60,239.67 67.10,234.68 65.90,230.09 64.29,226.45 63.21,222.64 61.73,218.38 59.47,213.56 59.57,209.86 60.19,208.97 59.03,207.13 58.88,205.21 58.30,202.44 59.08,200.39 59.22,198.82 59.41,197.38 60.38,195.88 61.80,194.06 63.51,193.12 65.10,191.41 66.09,189.73 67.73,189.31 68.88,187.46 69.44,186.17 70.90,183.57 73.40,181.25 75.31,179.71 77.38,177.83 80.51,173.26 81.82,173.78 84.05,172.27 86.38,172.00 88.37,170.96 89.86,169.45 90.82,168.10 91.40,167.08 92.45,166.31 93.83,165.49 96.64,164.50 95.37,162.79 96.52,161.43 96.84,160.11 96.79,158.85 97.16,157.52 97.65,156.32 97.87,154.87 98.12,153.74 97.11,153.46 96.54,151.05 96.61,150.78 96.46,150.24 96.12,149.61 95.67,148.03 94.71,146.53 94.03,146.09 93.37,144.05 92.52,142.97 91.60,143.17 91.16,135.86 89.65,136.28 88.85,134.78 88.30,133.83 86.95,131.94 86.80,129.97 86.80,128.15 85.94,127.13 84.99,125.37 83.95,122.09 84.73,122.06 84.81,123.26 85.28,124.39 86.63,123.68 88.71,121.96 90.16,120.83 93.46,119.46 97.39,119.45 101.08,120.24 102.19,120.78 106.52,121.95 109.32,122.20 112.11,122.30 115.13,120.62 119.86,120.70 124.34,121.39 126.64,121.26 128.89,120.49 131.37,120.85 133.84,119.64 135.32,119.53 135.01,119.66 137.38,120.42 139.52,120.10 141.79,120.42 144.29,121.31 147.15,121.16 148.85,121.87 150.91,121.48 152.36,120.96 153.70,119.63 154.82,118.57 155.86,116.53 157.95,113.85 161.17,111.96 165.09,109.60 167.99,107.92 170.47,103.79 173.56,100.48 177.91,95.70 182.40,94.20 185.29,91.10 188.27,87.11 190.77,84.52 193.42,80.38 195.97,74.95 198.89,70.68 201.62,65.45 206.86,62.84 210.89,58.09 213.84,56.71 216.52,53.48 220.59,51.76 222.79,51.48 226.72,49.43 230.73,47.03 234.52,46.22 237.51,47.54 240.69,47.91 243.18,48.61 245.78,51.21 248.84,50.26 251.69,51.08 254.70,52.01 257.76,54.66 262.00,56.78 265.87,58.71 269.74,60.16 274.23,60.73 277.00,62.26 281.64,64.42 283.49,66.57 286.84,66.91 289.28,66.95 291.16,67.58 293.23,68.02 296.90,69.73 299.70,70.67 301.59,71.11 303.74,72.07 305.63,72.88 307.72,73.36 309.23,73.87 310.33,74.22 311.56,74.29 314.37,75.85 316.32,77.26 318.57,77.57 321.42,77.47 323.53,76.15 327.16,77.77 329.80,77.31 333.01,77.46 335.63,77.56 339.00,77.03 343.34,77.21 348.88,76.16 354.00,76.04 359.30,75.18 364.72,72.67 369.35,72.82 374.30,71.60 378.80,70.51 383.43,69.03 388.66,67.28 393.19,65.96 398.53,64.19 402.32,62.65 405.79,62.25 409.68,62.95 411.63,62.59 414.73,62.86 417.28,63.73 420.15,65.59 422.45,66.81 424.58,68.07 426.43,70.22 428.19,72.97 429.86,75.93 431.23,78.42 433.41,80.45 435.65,82.46 437.78,83.98 440.73,86.29 443.24,88.29 446.24,89.81 448.61,90.80 450.71,93.14 453.32,94.75 456.34,95.72 458.84,97.69 460.52,98.12 462.91,99.87 465.69,100.63 468.10,101.44 470.61,102.86 473.98,103.60 476.75,104.23 480.28,104.79 483.21,105.24 487.04,105.65 490.34,104.79 494.98,103.99 498.52,102.93 504.56,102.23 510.29,102.33 514.72,101.78 520.51,100.51 526.46,99.56 531.57,97.96 535.89,97.85 541.49,95.09 544.91,93.39 549.88,91.94 554.35,90.42 558.05,88.45 561.80,86.36 565.88,84.72 568.97,84.36 572.12,83.54 575.66,83.21 577.64,81.71 581.14,82.55 583.46,83.03 586.20,84.15 588.95,85.04 592.36,86.69 595.20,88.44 597.85,90.34 600.05,92.20 602.19,94.19 604.57,96.06 606.00,97.75 606.36,99.55 607.17,101.92 608.31,105.25 611.37,108.57 613.18,111.68 614.60,115.22 616.95,118.52 618.85,121.98 620.06,124.62 622.14,126.92 623.24,130.50 624.69,132.57 626.43,134.63 627.42,136.83 628.42,139.02 629.52,140.47 630.96,141.79 632.04,143.46 632.61,143.37 634.30,146.21 635.94,147.99 637.06,148.72 639.47,149.54 642.25,150.74 645.60,151.66 649.38,153.03 654.51,153.52 658.93,153.62 665.46,154.22 671.22,155.33 677.40,156.00 683.82,156.14 690.93,157.97 698.34,159.11 704.71,161.36 712.16,162.44 718.66,162.69 725.79,163.02 730.51,163.06 735.00,162.89 739.00,162.52 742.88,162.42 745.81,161.83 748.58,161.52 751.08,161.49 752.84,161.02 754.40,160.40 757.40,159.51 758.41,159.47 758.30,159.80 758.27,160.18 759.03,160.33 759.87,160.02 759.74,160.06 759.85,160.29 760.69,158.57 760.50,158.06 759.66,158.57 759.57,158.34 759.94,158.36 760.62,158.41 760.40,158.37 758.72,158.36 757.09,158.80 755.48,158.44 755.81,158.54 755.55,157.45 754.53,157.16 753.42,156.37 751.61,156.41 750.08,155.62 749.05,155.01 747.40,154.81 745.64,154.87 746.27,154.29 746.46,154.40 745.78,154.24 743.51,154.31 742.17,154.92 741.04,154.09 740.10,154.10 740.10,154.46 739.53,155.09 738.73,155.44 739.58,156.30 739.18,156.32 738.68,156.58 739.25,158.07 739.65,159.12 742.08,159.05 745.33,158.80 746.56,159.76 747.90,160.03 748.85,160.10 750.14,159.61 752.51,160.25 755.38,160.16 756.75,160.74 758.66,161.22 760.42,162.04 762.27,162.14 764.05,162.55 764.81,162.84 765.17,162.62 766.30,161.57 766.35,161.38 765.90,160.73 765.44,160.16 764.94,159.37 763.60,158.50 762.23,157.75 760.36,156.56 758.15,155.89 756.51,154.51 755.84,153.69 754.29,153.45 752.66,152.97 750.49,152.18 749.44,152.12 747.72,151.54 746.48,150.63 744.39,150.05 742.21,150.18 740.00,150.12 738.53,150.06 737.03,150.31 735.08,150.12 732.33,149.76 731.79,150.24 730.81,149.57 730.23,149.29 728.63,148.98 728.04,148.98 727.36,149.27 726.49,148.87 725.99,149.87 725.25,149.87 723.41,149.73 724.06,149.08 722.97,150.34 722.12,150.74 722.58,150.74 721.70,150.32 720.77,150.74 720.59,150.98 720.87,151.37 720.52,151.28 721.05,150.95 720.55,151.04 720.00,151.32 720.40,151.80 720.60,152.11 720.64,152.55 720.62,152.54 720.80,152.77 719.04,153.26 719.38,154.55 719.03,153.79 719.38,153.82 719.21,153.98 719.01,154.10 718.59,154.77 718.82,155.08 718.99,154.92 719.66,155.43 718.86,154.68 718.71,154.68 718.78,153.95 718.22,153.91 718.06,153.94 717.97,153.71 717.76,153.56 717.88,153.46 717.98,153.60 717.77,153.81 717.17,154.14 717.06,154.02 717.18,153.83" fill="none" stroke="#222" stroke-width="1.1" opacity="0.65"/><circle cx="721.73" cy="216.85" r="2.2" fill="rgb(255,0,0)"/><circle cx="814.34" cy="432.50" r="2.2" fill="rgb(255,3,0)"/><circle cx="704.77" cy="329.30" r="2.2" fill="rgb(255,5,0)"/><circle cx="681.31" cy="284.84" r="2.2" fill="rgb(255,8,0)"/><circle cx="695.37" cy="283.33" r="2.2" fill="rgb(255,11,0)"/><circle cx="720.08" cy="258.60" r="2.2" fill="rgb(255,14,0)"/><circle cx="717.03" cy="333.75" r="2.2" fill="rgb(255,16,0)"/><circle cx="717.28" cy="342.81" r="2.2" fill="rgb(255,19,0)"/><circle cx="715.44" cy="356.89" r="2.2" fill="rgb(255,22,0)"/><circle cx="712.36" cy="360.02" r="2.2" fill="rgb(255,24,0)"/><circle cx="714.40" cy="358.36" r="2.2" fill="rgb(255,27,0)"/><circle cx="709.18" cy="370.31" r="2.2" fill="rgb(255,30,0)"/><circle cx="712.38" cy="396.05" r="2.2" fill="rgb(255,33,0)"/><circle cx="711.31" cy="383.65" r="2.2" fill="rgb(255,35,0)"/><circle cx="709.44" cy="378.30" r="2.2" fill="rgb(255,38,0)"/><circle cx="690.99" cy="438.08" r="2.2" fill="rgb(255,41,0)"/><circle cx="703.92" cy="378.24" r="2.2" fill="rgb(255,43,0)"/><circle cx="697.94" cy="378.26" r="2.2" fill="rgb(255,46,0)"/><circle cx="697.57" cy="383.98" r="2.2" fill="rgb(255,49,0)"/><circle cx="691.03" cy="399.63" r="2.2" fill="rgb(255,52,0)"/><circle cx="663.08" cy="473.36" r="2.2" fill="rgb(255,54,0)"/><circle cx="662.47" cy="487.98" r="2.2" fill="rgb(255,57,0)"/><circle cx="662.77" cy="486.64" r="2.2" fill="rgb(255,60,0)"/><circle cx="663.21" cy="485.90" r="2.2" fill="rgb(255,62,0)"/><circle cx="666.30" cy="480.26" r="2.2" fill="rgb(255,65,0)"/><circle cx="661.25" cy="485.75" r="2.2" fill="rgb(255,68,0)"/><circle cx="647.38" cy="499.21" r="2.2" fill="rgb(255,71,0)"/><circle cx="653.50" cy="495.93" r="2.2" fill="rgb(255,73,0)"/><circle cx="632.03" cy="532.50" r="2.2" fill="rgb(255,76,0)"/><circle cx="627.45" cy="532.21" r="2.2" fill="rgb(255,79,0)"/><circle cx="622.82" cy="528.78" r="2.2" fill="rgb(255,81,0)"/><circle cx="616.49" cy="518.52" r="2.2" fill="rgb(255,84,0)"/><circle cx="617.23" cy="507.19" r="2.2" fill="rgb(255,87,0)"/><circle cx="617.28" cy="504.70" r="2.2" fill="rgb(255,90,0)"/><circle cx="616.76" cy="499.48" r="2.2" fill="rgb(255,92,0)"/><circle cx="615.89" cy="498.65" r="2.2" fill="rgb(255,95,0)"/><circle cx="602.98" cy="499.84" r="2.2" fill="rgb(255,98,0)"/><circle cx="581.41" cy="509.92" r="2.2" fill="rgb(255,100,0)"/><circle cx="561.21" cy="524.13" r="2.2" fill="rgb(255,103,0)"/><circle cx="540.85" cy="530.04" r="2.2" fill="rgb(255,106,0)"/><circle cx="521.20" cy="537.93" r="2.2" fill="rgb(255,109,0)"/><circle cx="503.11" cy="530.21" r="2.2" fill="rgb(255,111,0)"/><circle cx="504.99" cy="519.63" r="2.2" fill="rgb(255,114,0)"/><circle cx="483.85" cy="514.25" r="2.2" fill="rgb(255,117,0)"/><circle cx="481.73" cy="512.50" r="2.2" fill="rgb(255,119,0)"/><circle cx="459.52" cy="514.18" r="2.2" fill="rgb(255,122,0)"/><circle cx="422.43" cy="533.13" r="2.2" fill="rgb(255,125,0)"/><circle cx="399.05" cy="539.13" r="2.2" fill="rgb(255,128,0)"/><circle cx="381.99" cy="539.26" r="2.2" fill="rgb(255,130,0)"/><circle cx="371.91" cy="527.42" r="2.2" fill="rgb(255,133,0)"/><circle cx="359.43" cy="515.88" r="2.2" fill="rgb(255,136,0)"/><circle cx="350.33" cy="509.52" r="2.2" fill="rgb(255,138,0)"/><circle cx="328.33" cy="509.80" r="2.2" fill="rgb(255,141,0)"/><circle cx="297.16" cy="515.72" r="2.2" fill="rgb(255,144,0)"/><circle cx="270.40" cy="517.02" r="2.2" fill="rgb(255,146,0)"/><circle cx="257.80" cy="507.54" r="2.2" fill="rgb(255,149,0)"/><circle cx="255.10" cy="499.30" r="2.2" fill="rgb(255,152,0)"/><circle cx="245.22" cy="491.13" r="2.2" fill="rgb(255,155,0)"/><circle cx="236.06" cy="489.75" r="2.2" fill="rgb(255,157,0)"/><circle cx="217.02" cy="493.64" r="2.2" fill="rgb(255,160,0)"/><circle cx="183.99" cy="495.59" r="2.2" fill="rgb(255,163,0)"/><circle cx="160.05" cy="496.31" r="2.2" fill="rgb(255,165,0)"/><circle cx="145.86" cy="491.85" r="2.2" fill="rgb(255,168,0)"/><circle cx="143.63" cy="483.88" r="2.2" fill="rgb(255,171,0)"/><circle cx="140.79" cy="468.69" r="2.2" fill="rgb(255,174,0)"/><circle cx="137.44" cy="457.34" r="2.2" fill="rgb(255,176,0)"/><circle cx="124.77" cy="444.89" r="2.2" fill="rgb(255,179,0)"/><circle cx="99.77" cy="440.72" r="2.2" fill="rgb(255,182,0)"/><circle cx="78.46" cy="434.97" r="2.2" fill="rgb(255,184,0)"/><circle cx="79.30" cy="428.80" r="2.2" fill="rgb(255,187,0)"/><circle cx="82.40" cy="425.91" r="2.2" fill="rgb(255,190,0)"/><circle cx="89.14" cy="421.97" r="2.2" fill="rgb(253,192,0)"/><circle cx="93.63" cy="418.42" r="2.2" fill="rgb(250,192,0)"/><circle cx="96.32" cy="414.31" r="2.2" fill="rgb(246,193,0)"/><circle cx="99.55" cy="414.93" r="2.2" fill="rgb(242,193,0)"/><circle cx="97.48" cy="417.34" r="2.2" fill="rgb(239,194,0)"/><circle cx="99.69" cy="413.44" r="2.2" fill="rgb(235,194,0)"/><circle cx="99.41" cy="405.83" r="2.2" fill="rgb(231,195,0)"/><circle cx="95.77" cy="381.89" r="2.2" fill="rgb(228,195,0)"/><circle cx="67.77" cy="357.20" r="2.2" fill="rgb(224,196,0)"/><circle cx="59.03" cy="339.35" r="2.2" fill="rgb(221,196,0)"/><circle cx="68.04" cy="332.27" r="2.2" fill="rgb(217,197,0)"/><circle cx="73.88" cy="330.30" r="2.2" fill="rgb(213,197,0)"/><circle cx="77.75" cy="314.07" r="2.2" fill="rgb(210,198,0)"/><circle cx="74.10" cy="295.78" r="2.2" fill="rgb(206,199,0)"/><circle cx="61.22" cy="266.46" r="2.2" fill="rgb(203,199,0)"/><circle cx="54.68" cy="238.57" r="2.2" fill="rgb(199,200,0)"/><circle cx="55.50" cy="229.26" r="2.2" fill="rgb(195,200,0)"/><circle cx="61.45" cy="222.30" r="2.2" fill="rgb(192,201,0)"/><circle cx="71.23" cy="222.93" r="2.2" fill="rgb(188,201,0)"/><circle cx="72.46" cy="222.89" r="2.2" fill="rgb(184,202,0)"/><circle cx="73.34" cy="216.37" r="2.2" fill="rgb(181,202,0)"/><circle cx="72.44" cy="203.22" r="2.2" fill="rgb(177,203,0)"/><circle cx="66.67" cy="164.18" r="2.2" fill="rgb(174,203,0)"/><circle cx="58.02" cy="137.37" r="2.2" fill="rgb(170,204,0)"/><circle cx="53.27" cy="120.31" r="2.2" fill="rgb(166,205,0)"/><circle cx="62.82" cy="118.50" r="2.2" fill="rgb(163,205,0)"/><circle cx="70.36" cy="123.10" r="2.2" fill="rgb(159,206,0)"/><circle cx="76.75" cy="123.71" r="2.2" fill="rgb(156,206,0)"/><circle cx="80.44" cy="126.52" r="2.2" fill="rgb(152,207,0)"/><circle cx="89.65" cy="126.95" r="2.2" fill="rgb(148,207,0)"/><circle cx="93.80" cy="127.57" r="2.2" fill="rgb(145,208,0)"/><circle cx="95.83" cy="125.48" r="2.2" fill="rgb(141,208,0)"/><circle cx="101.26" cy="114.07" r="2.2" fill="rgb(137,209,0)"/><circle cx="110.42" cy="93.74" r="2.2" fill="rgb(134,209,0)"/><circle cx="119.47" cy="67.19" r="2.2" fill="rgb(130,210,0)"/><circle cx="129.74" cy="52.45" r="2.2" fill="rgb(127,211,0)"/><circle cx="143.87" cy="54.65" r="2.2" fill="rgb(123,211,0)"/><circle cx="162.58" cy="60.80" r="2.2" fill="rgb(119,212,0)"/><circle cx="182.90" cy="69.38" r="2.2" fill="rgb(116,212,0)"/><circle cx="195.77" cy="68.13" r="2.2" fill="rgb(112,213,0)"/><circle cx="214.26" cy="65.96" r="2.2" fill="rgb(109,213,0)"/><circle cx="243.72" cy="57.95" r="2.2" fill="rgb(105,214,0)"/><circle cx="268.52" cy="47.32" r="2.2" fill="rgb(101,214,0)"/><circle cx="287.91" cy="47.22" r="2.2" fill="rgb(98,215,0)"/><circle cx="304.86" cy="55.53" r="2.2" fill="rgb(94,215,0)"/><circle cx="321.80" cy="70.59" r="2.2" fill="rgb(90,216,0)"/><circle cx="337.95" cy="82.92" r="2.2" fill="rgb(87,216,0)"/><circle cx="354.93" cy="90.94" r="2.2" fill="rgb(83,217,0)"/><circle cx="375.72" cy="95.11" r="2.2" fill="rgb(80,218,0)"/><circle cx="391.95" cy="94.67" r="2.2" fill="rgb(76,218,0)"/><circle cx="407.79" cy="97.31" r="2.2" fill="rgb(72,219,0)"/><circle cx="416.21" cy="108.10" r="2.2" fill="rgb(69,219,0)"/><circle cx="425.93" cy="120.37" r="2.2" fill="rgb(65,220,0)"/><circle cx="441.32" cy="127.05" r="2.2" fill="rgb(61,220,0)"/><circle cx="453.96" cy="127.35" r="2.2" fill="rgb(58,221,0)"/><circle cx="479.84" cy="124.54" r="2.2" fill="rgb(54,221,0)"/><circle cx="514.48" cy="115.96" r="2.2" fill="rgb(51,222,0)"/><circle cx="539.77" cy="111.97" r="2.2" fill="rgb(47,222,0)"/><circle cx="557.90" cy="116.97" r="2.2" fill="rgb(43,223,0)"/><circle cx="567.84" cy="126.61" r="2.2" fill="rgb(40,224,0)"/><circle cx="579.70" cy="135.78" r="2.2" fill="rgb(36,224,0)"/><circle cx="594.41" cy="141.86" r="2.2" fill="rgb(33,225,0)"/><circle cx="613.49" cy="145.07" r="2.2" fill="rgb(29,225,0)"/><circle cx="644.39" cy="144.99" r="2.2" fill="rgb(25,226,0)"/><circle cx="668.16" cy="144.36" r="2.2" fill="rgb(22,226,0)"/><circle cx="677.44" cy="148.00" r="2.2" fill="rgb(18,227,0)"/><circle cx="677.94" cy="154.29" r="2.2" fill="rgb(14,227,0)"/><circle cx="676.11" cy="160.98" r="2.2" fill="rgb(11,228,0)"/><circle cx="681.76" cy="166.86" r="2.2" fill="rgb(7,228,0)"/><circle cx="694.56" cy="169.93" r="2.2" fill="rgb(4,229,0)"/><circle cx="717.27" cy="170.63" r="2.2" fill="rgb(0,230,0)"/><circle cx="737.25" cy="172.47" r="2.2" fill="rgb(0,229,4)"/><circle cx="742.61" cy="169.57" r="2.2" fill="rgb(0,228,7)"/><circle cx="741.18" cy="167.08" r="2.2" fill="rgb(0,228,11)"/><circle cx="734.20" cy="164.79" r="2.2" fill="rgb(0,227,14)"/><circle cx="732.24" cy="166.43" r="2.2" fill="rgb(0,227,18)"/><circle cx="728.90" cy="164.75" r="2.2" fill="rgb(0,226,22)"/><circle cx="727.80" cy="163.74" r="2.2" fill="rgb(0,226,25)"/><circle cx="726.66" cy="162.03" r="2.2" fill="rgb(0,225,29)"/><circle cx="725.12" cy="158.50" r="2.2" fill="rgb(0,225,33)"/><circle cx="725.17" cy="155.49" r="2.2" fill="rgb(0,224,36)"/><circle cx="724.47" cy="154.86" r="2.2" fill="rgb(0,224,40)"/><circle cx="726.30" cy="155.81" r="2.2" fill="rgb(0,223,43)"/><circle cx="727.46" cy="166.69" r="2.2" fill="rgb(0,222,47)"/><circle cx="731.81" cy="188.58" r="2.2" fill="rgb(0,222,51)"/><circle cx="744.03" cy="214.37" r="2.2" fill="rgb(0,221,54)"/><circle cx="756.66" cy="238.45" r="2.2" fill="rgb(0,221,58)"/><circle cx="753.01" cy="261.25" r="2.2" fill="rgb(0,220,61)"/><circle cx="736.27" cy="277.72" r="2.2" fill="rgb(0,220,65)"/><circle cx="723.48" cy="296.20" r="2.2" fill="rgb(0,219,69)"/><circle cx="713.18" cy="317.17" r="2.2" fill="rgb(0,219,72)"/><circle cx="705.62" cy="350.26" r="2.2" fill="rgb(0,218,76)"/><circle cx="705.20" cy="388.24" r="2.2" fill="rgb(0,218,80)"/><circle cx="702.75" cy="411.87" r="2.2" fill="rgb(0,217,83)"/><circle cx="687.90" cy="420.86" r="2.2" fill="rgb(0,216,87)"/><circle cx="672.70" cy="423.54" r="2.2" fill="rgb(0,216,90)"/><circle cx="668.21" cy="425.78" r="2.2" fill="rgb(0,215,94)"/><circle cx="659.36" cy="435.10" r="2.2" fill="rgb(0,215,98)"/><circle cx="643.78" cy="454.98" r="2.2" fill="rgb(0,214,101)"/><circle cx="633.46" cy="462.87" r="2.2" fill="rgb(0,214,105)"/><circle cx="633.91" cy="464.43" r="2.2" fill="rgb(0,213,109)"/><circle cx="639.65" cy="458.08" r="2.2" fill="rgb(0,213,112)"/><circle cx="643.26" cy="458.05" r="2.2" fill="rgb(0,212,116)"/><circle cx="650.64" cy="458.16" r="2.2" fill="rgb(0,212,119)"/><circle cx="651.40" cy="457.46" r="2.2" fill="rgb(0,211,123)"/><circle cx="653.41" cy="460.05" r="2.2" fill="rgb(0,211,127)"/><circle cx="651.89" cy="464.17" r="2.2" fill="rgb(0,210,130)"/><circle cx="638.31" cy="496.73" r="2.2" fill="rgb(0,209,134)"/><circle cx="623.36" cy="526.20" r="2.2" fill="rgb(0,209,137)"/><circle cx="609.76" cy="544.65" r="2.2" fill="rgb(0,208,141)"/><circle cx="597.09" cy="544.25" r="2.2" fill="rgb(0,208,145)"/><circle cx="581.29" cy="529.14" r="2.2" fill="rgb(0,207,148)"/><circle cx="556.82" cy="524.19" r="2.2" fill="rgb(0,207,152)"/><circle cx="537.82" cy="527.29" r="2.2" fill="rgb(0,206,156)"/><circle cx="513.35" cy="538.73" r="2.2" fill="rgb(0,206,159)"/><circle cx="481.11" cy="558.64" r="2.2" fill="rgb(0,205,163)"/><circle cx="455.13" cy="572.32" r="2.2" fill="rgb(0,205,166)"/><circle cx="437.84" cy="569.18" r="2.2" fill="rgb(0,204,170)"/><circle cx="419.28" cy="554.80" r="2.2" fill="rgb(0,203,174)"/><circle cx="398.10" cy="547.11" r="2.2" fill="rgb(0,203,177)"/><circle cx="382.54" cy="539.75" r="2.2" fill="rgb(0,202,181)"/><circle cx="356.10" cy="540.22" r="2.2" fill="rgb(0,202,184)"/><circle cx="320.50" cy="548.59" r="2.2" fill="rgb(0,201,188)"/><circle cx="297.98" cy="557.17" r="2.2" fill="rgb(0,201,192)"/><circle cx="280.54" cy="549.01" r="2.2" fill="rgb(0,200,195)"/><circle cx="268.95" cy="535.69" r="2.2" fill="rgb(0,200,199)"/><circle cx="264.08" cy="523.12" r="2.2" fill="rgb(0,199,203)"/><circle cx="251.71" cy="516.29" r="2.2" fill="rgb(0,199,206)"/><circle cx="232.37" cy="512.36" r="2.2" fill="rgb(0,198,210)"/><circle cx="204.26" cy="512.22" r="2.2" fill="rgb(0,197,213)"/><circle cx="169.68" cy="514.15" r="2.2" fill="rgb(0,197,217)"/><circle cx="148.43" cy="517.10" r="2.2" fill="rgb(0,196,221)"/><circle cx="145.71" cy="510.89" r="2.2" fill="rgb(0,196,224)"/><circle cx="134.31" cy="489.79" r="2.2" fill="rgb(0,195,228)"/><circle cx="129.62" cy="474.97" r="2.2" fill="rgb(0,195,231)"/><circle cx="125.45" cy="466.79" r="2.2" fill="rgb(0,194,235)"/><circle cx="117.06" cy="459.25" r="2.2" fill="rgb(0,194,239)"/><circle cx="101.99" cy="462.72" r="2.2" fill="rgb(0,193,242)"/><circle cx="88.52" cy="463.35" r="2.2" fill="rgb(0,193,246)"/><circle cx="81.22" cy="461.29" r="2.2" fill="rgb(0,192,250)"/><circle cx="90.20" cy="455.99" r="2.2" fill="rgb(0,192,253)"/><circle cx="95.98" cy="435.87" r="2.2" fill="rgb(0,190,255)"/><circle cx="97.58" cy="418.63" r="2.2" fill="rgb(0,188,255)"/><circle cx="96.45" cy="412.55" r="2.2" fill="rgb(0,186,255)"/><circle cx="64.82" cy="379.02" r="2.2" fill="rgb(0,184,255)"/><circle cx="47.92" cy="351.47" r="2.2" fill="rgb(0,181,255)"/><circle cx="48.78" cy="337.71" r="2.2" fill="rgb(0,179,255)"/><circle cx="54.47" cy="335.10" r="2.2" fill="rgb(0,177,255)"/><circle cx="66.42" cy="317.54" r="2.2" fill="rgb(0,175,255)"/><circle cx="75.59" cy="300.83" r="2.2" fill="rgb(0,173,255)"/><circle cx="77.45" cy="285.60" r="2.2" fill="rgb(0,171,255)"/><circle cx="72.38" cy="256.55" r="2.2" fill="rgb(0,168,255)"/><circle cx="63.21" cy="222.64" r="2.2" fill="rgb(0,166,255)"/><circle cx="58.30" cy="202.44" r="2.2" fill="rgb(0,164,255)"/><circle cx="65.10" cy="191.41" r="2.2" fill="rgb(0,162,255)"/><circle cx="75.31" cy="179.71" r="2.2" fill="rgb(0,160,255)"/><circle cx="89.86" cy="169.45" r="2.2" fill="rgb(0,158,255)"/><circle cx="96.52" cy="161.43" r="2.2" fill="rgb(0,155,255)"/><circle cx="97.11" cy="153.46" r="2.2" fill="rgb(0,153,255)"/><circle cx="94.03" cy="146.09" r="2.2" fill="rgb(0,151,255)"/><circle cx="88.30" cy="133.83" r="2.2" fill="rgb(0,149,255)"/><circle cx="84.73" cy="122.06" r="2.2" fill="rgb(0,147,255)"/><circle cx="97.39" cy="119.45" r="2.2" fill="rgb(0,145,255)"/><circle cx="119.86" cy="120.70" r="2.2" fill="rgb(0,142,255)"/><circle cx="135.01" cy="119.66" r="2.2" fill="rgb(0,140,255)"/><circle cx="150.91" cy="121.48" r="2.2" fill="rgb(0,138,255)"/><circle cx="165.09" cy="109.60" r="2.2" fill="rgb(0,136,255)"/><circle cx="188.27" cy="87.11" r="2.2" fill="rgb(0,134,255)"/><circle cx="210.89" cy="58.09" r="2.2" fill="rgb(0,132,255)"/><circle cx="234.52" cy="46.22" r="2.2" fill="rgb(0,129,255)"/><circle cx="254.70" cy="52.01" r="2.2" fill="rgb(0,127,255)"/><circle cx="281.64" cy="64.42" r="2.2" fill="rgb(0,125,255)"/><circle cx="299.70" cy="70.67" r="2.2" fill="rgb(0,123,255)"/><circle cx="311.56" cy="74.29" r="2.2" fill="rgb(0,121,255)"/><circle cx="329.80" cy="77.31" r="2.2" fill="rgb(0,119,255)"/><circle cx="359.30" cy="75.18" r="2.2" fill="rgb(0,116,255)"/><circle cx="393.19" cy="65.96" r="2.2" fill="rgb(0,114,255)"/><circle cx="417.28" cy="63.73" r="2.2" fill="rgb(0,112,255)"/><circle cx="431.23" cy="78.42" r="2.2" fill="rgb(0,110,255)"/><circle cx="448.61" cy="90.80" r="2.2" fill="rgb(0,108,255)"/><circle cx="465.69" cy="100.63" r="2.2" fill="rgb(0,106,255)"/><circle cx="487.04" cy="105.65" r="2.2" fill="rgb(0,103,255)"/><circle cx="520.51" cy="100.51" r="2.2" fill="rgb(0,101,255)"/><circle cx="554.35" cy="90.42" r="2.2" fill="rgb(0,99,255)"/><circle cx="577.64" cy="81.71" r="2.2" fill="rgb(0,97,255)"/><circle cx="597.85" cy="90.34" r="2.2" fill="rgb(0,95,255)"/><circle cx="608.31" cy="105.25" r="2.2" fill="rgb(0,93,255)"/><circle cx="622.14" cy="126.92" r="2.2" fill="rgb(0,90,255)"/><circle cx="630.96" cy="141.79" r="2.2" fill="rgb(0,88,255)"/><circle cx="642.25" cy="150.74" r="2.2" fill="rgb(0,86,255)"/><circle cx="677.40" cy="156.00" r="2.2" fill="rgb(0,84,255)"/><circle cx="725.79" cy="163.02" r="2.2" fill="rgb(0,82,255)"/><circle cx="751.08" cy="161.49" r="2.2" fill="rgb(0,79,255)"/><circle cx="759.03" cy="160.33" r="2.2" fill="rgb(0,77,255)"/><circle cx="759.57" cy="158.34" r="2.2" fill="rgb(0,75,255)"/><circle cx="755.81" cy="158.54" r="2.2" fill="rgb(0,73,255)"/><circle cx="747.40" cy="154.81" r="2.2" fill="rgb(0,71,255)"/><circle cx="741.04" cy="154.09" r="2.2" fill="rgb(0,69,255)"/><circle cx="738.68" cy="156.58" r="2.2" fill="rgb(0,66,255)"/><circle cx="748.85" cy="160.10" r="2.2" fill="rgb(0,64,255)"/><circle cx="762.27" cy="162.14" r="2.2" fill="rgb(0,62,255)"/><circle cx="765.44" cy="160.16" r="2.2" fill="rgb(0,60,255)"/><circle cx="755.84" cy="153.69" r="2.2" fill="rgb(0,58,255)"/><circle cx="744.39" cy="150.05" r="2.2" fill="rgb(0,56,255)"/><circle cx="731.79" cy="150.24" r="2.2" fill="rgb(0,53,255)"/><circle cx="725.99" cy="149.87" r="2.2" fill="rgb(0,51,255)"/><circle cx="721.70" cy="150.32" r="2.2" fill="rgb(0,49,255)"/><circle cx="720.00" cy="151.32" r="2.2" fill="rgb(0,47,255)"/><circle cx="719.38" cy="154.55" r="2.2" fill="rgb(0,45,255)"/><circle cx="718.99" cy="154.92" r="2.2" fill="rgb(0,43,255)"/><circle cx="717.97" cy="153.71" r="2.2" fill="rgb(0,40,255)"/><circle cx="717.18" cy="153.83" r="2.2" fill="rgb(0,38,255)"/><circle cx="721.73" cy="216.85" r="5" fill="red"/><circle cx="717.18" cy="153.83" r="5" fill="blue"/></svg>