<svg xmlns="http://www.w3.org/2000/svg" width="900" height="620" viewBox="0 0 900 620"><rect width="100%" height="100%" fill="white"/><text x="45" y="28" font-family="monospace" font-size="16">raspi_vio_lateinit_skipviba2_full PCA XY trajectory</text><polyline points="153.91,316.14 145.86,296.18 144.39,277.39 150.38,268.36 152.80,259.12 154.15,241.72 149.75,224.70 150.75,218.83 153.75,314.63 152.54,204.27 148.58,166.69 159.48,301.17 164.67,293.10 168.33,287.87 170.71,180.86 179.47,278.12 154.31,313.83 160.83,311.39 161.97,312.65 164.76,310.31 169.03,309.42 172.71,307.58 176.11,306.49 181.07,303.67 155.16,313.48 157.14,314.55 156.45,312.63 155.80,312.86 162.09,308.57 162.93,304.90 164.12,302.41 166.61,299.73 159.71,304.82 161.31,300.20 162.70,293.96 163.29,289.74 165.04,284.43 166.54,280.14 168.23,275.47 170.23,266.42 156.11,310.59 157.14,303.60 156.87,298.41 158.34,299.11 158.19,294.15 159.01,289.66 159.21,286.37 159.83,281.56 156.44,308.44 157.12,306.97 157.80,305.70 156.90,306.64 157.06,306.10 158.01,303.53 158.73,302.24 158.93,301.60 163.75,286.26 164.28,285.04 164.87,285.27 165.56,285.45 165.39,284.71 165.59,285.57 165.78,285.56 166.16,285.85 157.08,307.22 157.19,307.45 157.17,307.47 156.99,307.91 157.42,307.81 157.34,308.28 157.22,307.93 157.85,307.24 157.19,307.15 157.26,305.62 157.83,305.10 158.16,304.43 158.47,303.33 159.37,302.53 159.72,300.79 160.23,298.44 157.54,306.11 158.42,304.24 158.80,300.50 159.21,297.65 159.94,296.65 160.55,293.71 161.42,291.05 162.06,288.37 160.84,293.43 161.48,291.37 161.86,289.25 162.86,288.13 163.72,286.41 164.30,285.58 165.13,284.17 166.32,283.66 163.71,288.40 163.75,288.08 163.94,288.27 166.65,287.23 167.38,287.65 168.45,288.07 169.34,288.39 170.09,288.51 161.66,298.99 162.04,299.86 162.62,300.13 163.29,301.06 163.58,301.83 164.33,302.83 164.52,303.35 174.69,293.65 163.62,301.42 163.88,301.46 164.16,301.71 164.29,302.60 164.90,302.83 165.79,302.96 165.92,303.31 166.24,303.05 165.06,302.32 165.22,302.62 165.45,302.26 166.03,302.38 167.58,300.80 167.96,300.52 168.85,299.09 169.97,298.17 167.14,299.65 167.59,298.97 168.52,298.14 169.26,297.09 169.84,295.43 170.81,295.32 171.33,293.69 171.74,292.23 161.52,302.07 161.94,300.63 162.08,299.91 162.59,298.47 162.94,297.87 163.19,296.85 163.63,294.88 174.38,283.05 161.83,301.00 162.14,299.93 162.37,299.40 162.23,299.17 162.56,298.86 162.90,299.47 162.80,299.30 162.98,297.64 161.98,300.62 161.77,300.70 161.55,301.12 161.45,301.03 161.57,301.07 161.58,301.61 161.15,301.37 161.69,299.86 161.22,301.36 161.08,301.27 160.65,301.73 160.32,302.26 159.71,301.93 159.31,302.40 159.46,301.98 159.42,301.99 161.44,301.14 161.96,300.32 162.14,300.07 162.52,300.15 163.31,300.14 164.05,299.20 164.35,299.33 164.30,299.13 163.52,300.24 164.42,299.67 165.48,299.04 167.09,298.50 168.31,298.39 170.08,296.76 169.66,298.49 173.54,293.48 167.14,297.17 168.22,296.40 169.32,295.83 170.91,294.95 171.63,293.67 172.11,293.05 173.01,292.77 173.37,292.81 164.23,298.91 163.94,298.76 164.10,298.24 164.27,297.35 164.91,295.83 165.52,295.91 166.38,297.02 166.51,295.99 166.88,296.81 167.11,297.14 166.80,298.07 167.42,297.83 167.62,298.45 167.79,298.52 167.97,300.01 168.00,300.44 163.72,299.65 163.53,299.91 163.78,300.00 163.66,299.94 163.75,300.10 163.40,301.22 163.65,302.72 164.35,304.80 164.04,301.56 163.37,302.68 162.44,303.55 162.83,304.44 162.87,304.46 162.85,304.99 162.87,305.58 162.49,305.73 164.65,300.66 164.42,300.97 163.77,301.16 163.85,301.22 164.29,301.32 164.21,301.82 164.24,301.83 163.74,302.15 164.64,300.84 164.57,300.84 164.60,300.93 164.40,301.30 164.75,301.16 164.67,302.24 164.31,302.90 164.45,302.73 164.63,301.10 164.57,301.03 164.64,301.10 164.69,301.10 165.16,300.59 165.10,301.19 165.26,301.23 165.52,301.43 164.94,301.22 165.30,301.56 165.73,301.65 166.15,301.87 166.80,302.07 167.67,301.73 169.28,303.40 170.57,304.04 166.70,301.57 167.01,301.91 168.14,302.17 168.08,302.65 170.19,301.26 171.32,301.32 172.70,301.22 173.63,301.09 168.50,301.04 169.52,301.47 170.56,301.01 171.79,301.09 172.76,301.34 173.98,300.52 175.08,300.38 174.88,299.54 169.09,300.74 169.76,300.40 170.47,301.01 171.02,300.50 171.93,300.59 172.62,300.98 173.23,301.15 173.50,302.25 170.19,301.11 170.55,301.90 170.87,302.07 170.97,302.56 171.32,302.85 171.88,304.06 172.33,304.71 172.39,304.80 170.78,302.26 170.82,303.29 170.40,303.00 170.25,303.22 170.43,302.96 170.14,303.50 169.99,303.81 171.17,304.53 171.55,303.25 171.73,303.65 171.58,303.64 171.75,303.70 171.76,303.88 172.02,304.05 172.19,304.15 172.40,304.75 169.85,302.98 170.03,302.98 170.21,303.24 170.84,303.34 171.13,303.55 171.77,303.65 172.74,303.76 172.91,303.55 173.83,304.41 173.89,304.56 173.97,304.70 174.00,304.78 176.20,304.44 176.58,304.54 177.58,304.57 177.85,304.42 173.67,303.38 173.64,303.27 173.61,303.23 173.62,303.20 173.67,303.17 173.71,303.23 173.80,303.25 175.26,303.07 176.32,304.23 176.56,304.21 176.54,304.32 176.59,304.33 176.64,304.40 176.69,304.37 176.70,304.46 176.94,304.54 176.95,304.75 176.97,304.85 176.83,304.90 177.12,305.14 177.23,305.41 177.38,305.64 177.44,305.72 177.76,306.65 177.39,306.05 177.42,306.13 177.59,306.24 177.65,306.55 177.71,306.75 177.76,307.22 177.85,307.71 177.98,307.85 177.78,307.04 177.74,307.13 177.88,307.19 178.15,307.57 178.19,307.63 178.29,307.81 178.57,308.04 178.91,308.13 178.25,307.41 178.44,307.58 178.86,307.82 179.15,307.93 179.54,308.14 179.94,308.29 180.53,308.36 181.52,308.75 179.34,307.91 179.75,307.72 180.37,308.01 180.68,308.29 181.13,308.48 181.16,308.24 182.31,308.91 182.85,308.94 180.14,307.85 180.42,307.92 180.69,308.02 181.19,308.21 181.18,308.49 181.41,308.74 181.48,309.11 181.52,308.85 180.18,308.07 180.16,308.15 180.21,308.45 180.19,308.68 180.27,308.81 180.21,308.99 180.02,309.25 180.22,309.03 182.65,310.72 182.72,310.83 182.73,310.91 182.78,311.06 182.85,311.21 182.96,311.42 182.96,311.50 183.04,311.45 182.87,311.14 182.97,311.32 183.00,311.45 183.06,311.53 183.12,311.67 183.15,311.76 183.28,311.78 183.51,311.72 183.65,311.85 183.68,311.84 183.94,311.95 184.15,312.02 184.34,312.09 184.57,312.08 184.82,312.19 185.05,312.26 184.52,312.08 184.72,312.16 184.95,312.32 185.24,312.43 185.61,312.60 185.72,312.61 185.81,312.58 186.17,312.82 185.51,312.56 185.77,312.83 185.97,312.88 186.10,312.98 186.26,313.09 186.16,312.94 186.44,313.18 186.65,313.35 187.95,313.56 187.97,313.63 187.98,313.71 187.97,313.81 187.99,313.98 187.92,314.10 188.02,314.22 187.98,314.00 187.95,314.43 187.92,314.48 187.92,314.64 187.96,314.73 187.92,315.06 187.87,315.17 187.79,315.40 187.85,315.44 187.85,314.94 187.83,314.94 187.73,315.10 187.72,315.25 187.67,315.36 187.52,315.38 187.66,315.49 187.69,315.55 187.83,315.43 187.19,315.61 187.29,315.90 187.24,316.02 187.31,316.25 187.54,316.19 187.75,316.55 187.84,316.82 188.23,316.19 188.31,316.28 188.43,316.44 188.65,316.82 188.64,316.69 189.18,317.20 189.00,317.11 189.52,317.77 189.14,317.13 182.14,316.83 182.43,317.01 182.44,317.10 182.53,317.21 182.64,317.28 182.73,317.34 182.73,317.41 188.95,317.20 188.92,317.22 188.91,317.26 188.92,317.27 188.90,317.30 188.88,317.30 188.87,317.30 188.87,317.29 188.82,317.21 188.83,317.57 189.54,317.78 189.35,317.76 189.21,317.74 189.11,317.74 189.00,317.62 189.01,317.69 189.07,319.75 188.95,319.72 188.86,319.91 189.16,319.74 188.63,319.99 188.68,320.01 188.58,320.01 188.58,319.99 189.00,319.86 188.47,319.72 188.46,319.73 188.45,319.82 188.58,319.85 188.41,319.85 188.56,319.89 188.33,319.81 188.96,319.84 188.97,319.84 188.98,319.84 189.00,319.76 189.02,319.74 188.98,319.83 188.96,319.84 188.90,319.84 188.90,319.82 188.89,319.66 188.92,319.58 188.93,319.77 188.93,319.80 188.90,319.60 188.92,319.72 188.84,319.51 188.89,319.79 188.89,319.82 188.85,319.86 188.80,319.91 188.84,319.98 188.81,319.99 188.83,320.10 188.85,320.37 188.70,319.88 188.58,320.08 188.48,320.19 188.45,320.44 188.50,320.72 188.76,320.85 188.61,320.53 188.18,320.37 188.70,320.03 188.60,320.05 188.52,320.06 188.61,320.33 189.46,322.17 189.50,322.20 189.54,323.55 189.54,323.77 189.04,322.29 189.11,322.50 189.20,322.65 189.27,322.86 189.16,323.04 189.14,323.16 189.37,323.33 189.42,323.40 189.36,325.59 189.41,325.69 189.39,325.70 189.39,325.70 189.32,325.69 189.26,325.67 189.11,325.87 188.99,325.75 189.10,325.75 189.22,326.36 189.17,326.38 189.09,326.40 188.98,326.45 188.93,326.39 188.43,325.99 188.33,326.15 188.80,325.89 188.76,325.83 188.63,326.09 188.63,326.08 188.60,326.18 188.59,326.23 188.57,326.28 188.51,326.42 187.85,327.32 188.20,327.92 188.42,327.18 188.34,327.72 188.19,328.62 188.17,328.94 188.10,329.31 188.08,329.64 187.80,328.40 187.80,328.42 187.83,328.91 187.88,329.38 187.86,329.53 187.77,329.91 187.79,330.05 187.81,330.37 187.22,331.95 187.19,332.15 187.12,332.41 187.18,332.64 187.10,332.64 187.16,332.90 187.13,333.06 187.09,333.06 187.67,330.26 187.62,330.27 187.59,330.31 187.56,330.32 187.48,330.31 187.43,330.33 187.40,330.21 187.28,330.16 186.82,332.57 186.82,332.51 186.76,332.49 186.70,332.45 186.63,332.43 186.55,332.47 186.50,332.43 186.48,332.38 186.44,332.32 186.19,331.82 186.19,331.78 186.18,331.79 186.14,331.72 186.14,331.81 186.11,331.78 186.07,331.84 186.37,332.40 186.35,332.48 186.32,332.53 186.28,332.58 186.27,332.74 186.29,332.71 186.27,332.87 186.23,333.04 186.11,333.22 186.07,333.35 186.02,333.56 185.99,333.81 185.91,334.07 185.85,334.48 185.77,334.73 185.69,335.02 185.77,335.36 185.32,335.55 185.25,335.83 185.22,336.16 185.70,336.55 185.31,336.82 185.33,337.15 185.34,337.47 185.80,337.61 185.77,337.85 185.79,338.16 185.78,338.35 185.71,338.54 185.77,338.64 185.69,338.91 185.69,339.00 185.63,339.06 186.08,340.17 186.04,340.22 185.97,340.27 185.95,340.37 185.82,340.35 185.81,340.28 185.02,339.32 185.13,339.06 185.18,338.96 185.08,338.93 184.93,338.86 184.88,338.78 184.85,338.76 184.81,338.69 184.81,338.60 184.71,338.50 184.28,338.20 184.20,338.14 184.15,338.10 184.16,338.04 184.12,338.03 184.11,337.95 184.10,337.88 184.50,338.13 184.51,338.07 184.48,338.02 184.44,337.94 184.40,337.99 184.33,338.04 184.26,337.95 184.33,338.12 184.18,337.89 184.12,337.83 183.92,338.09 183.83,338.07 183.81,337.97 183.76,337.96 183.71,337.86 183.71,337.87 183.70,337.82 183.61,337.81 183.62,337.82 183.60,337.77 183.64,337.86 183.57,337.78 183.61,337.91 183.43,336.71 182.00,335.89 183.58,337.49 184.52,337.85 183.75,337.76 183.47,337.67 183.42,337.80 183.36,337.87 183.28,337.89 183.17,337.98 183.05,338.15 182.97,338.26 179.09,337.73 178.27,338.21 177.04,338.48 177.71,338.78 177.35,339.02 177.81,338.63 178.71,338.03 180.23,337.42 175.52,341.54 174.45,342.86 173.50,344.72 172.36,346.08 171.07,347.29 170.01,347.86 170.59,345.74 172.55,343.32 160.38,353.77 171.72,345.31 172.03,344.99 170.86,346.40 170.16,346.65 169.77,347.74 169.05,348.22 169.18,347.99 169.20,347.51 169.20,347.24 168.33,343.71 168.27,343.85 167.77,343.16 167.89,342.28 167.78,341.78 166.97,341.94 165.17,341.60 164.16,341.93 165.21,339.79 165.25,340.56 164.19,340.18 163.89,339.36 164.21,339.13 163.99,338.64 163.49,338.49 164.25,338.55 165.19,339.04 165.86,339.00 165.86,338.94 165.40,338.84 164.98,338.67 164.26,338.92 163.85,338.64 163.48,338.25 159.75,335.93 159.50,335.75 159.36,335.68 159.11,335.20 158.15,335.51 157.53,335.42 156.80,335.64 156.09,335.85 154.67,334.85 154.03,334.96 153.44,335.08 152.85,335.20 152.78,335.95 152.74,334.90 151.69,335.37 137.80,334.96 147.80,334.13 153.13,334.30 154.59,334.88 153.49,334.67 151.97,334.19 146.93,333.51 148.82,333.98 147.14,333.39 144.20,333.32 144.09,333.09 143.81,332.85 143.58,332.31 143.41,331.98 143.09,331.37 142.96,330.92 143.61,329.70 142.01,329.45 141.75,328.75 141.68,328.37 141.64,328.02 141.58,327.79 141.42,326.74 141.23,326.21 140.70,325.48 140.47,325.21 140.43,325.24 139.52,323.22 138.97,323.10 138.58,322.69 138.15,322.21 137.78,321.66 137.61,321.41 137.47,321.03 130.52,320.37 137.43,319.95 139.70,320.62 138.73,320.16 136.80,318.65 136.00,317.51 135.57,317.19 135.05,317.08 134.63,316.95 134.46,316.96 134.11,316.68 133.62,316.37 133.23,316.20 132.78,315.78 132.39,315.47 132.15,315.37 128.44,312.36 130.62,314.95 130.71,315.11 129.99,314.65 129.63,314.36 129.45,314.11 128.92,313.70 128.68,313.45 128.84,313.54 128.66,313.44 128.58,313.18 128.36,312.91 128.16,312.69 128.17,312.47 127.92,312.02 128.19,311.25 128.06,310.84 127.95,310.78 127.75,310.30 127.72,310.25 127.59,309.75 127.45,309.27 127.17,308.68 130.84,281.74 127.45,306.85 125.94,307.45 125.73,309.22 125.42,311.06 125.50,312.79 125.70,317.80 125.48,327.61 120.32,269.70 123.19,301.93 125.59,308.07 127.67,314.23 129.42,323.34 127.62,329.18 125.06,329.73 122.38,303.72 123.29,303.37 121.65,302.22 119.46,301.50 118.52,300.74 118.78,300.97 118.65,300.71 117.11,299.19 105.14,300.06 116.34,301.71 114.33,302.25 115.30,302.35 115.81,302.36 117.17,301.97 118.14,302.96 118.06,304.69 110.80,301.17 109.90,300.64 109.87,299.75 109.08,299.87 108.82,299.92 109.86,301.72 110.15,302.32 110.22,302.15 106.36,299.48 106.40,299.62 106.34,299.32 106.11,299.25 105.96,298.86 105.95,298.78 105.94,298.51 106.01,298.22 109.18,296.22 104.95,296.39 104.59,296.37 104.68,296.25 104.71,296.01 104.79,295.72 104.58,295.54 104.71,295.18 104.74,294.83 103.17,293.26 102.57,293.05 102.41,292.65 102.22,292.53 101.83,292.06 101.35,291.79 101.23,291.39 101.41,291.52 100.80,290.79 100.56,290.94 100.42,291.12 101.54,292.91 101.81,294.64 97.69,289.65 96.65,287.99 95.72,288.14 96.58,288.24 95.85,287.97 95.03,287.48 93.83,287.21 92.90,287.01 92.29,287.73 90.89,285.75 91.81,287.07 90.99,286.95 90.34,286.54 89.56,286.39 88.99,286.03 88.42,285.90 87.93,285.68 89.22,287.17 88.06,285.66 87.81,285.43 87.81,285.15 87.81,284.79 87.73,284.48 87.73,284.25 87.91,284.07 87.94,283.36 88.05,283.63 87.89,283.56 88.37,283.57 88.37,283.31 88.06,283.04 88.21,282.88 88.71,282.67 88.75,282.54 88.82,282.49 88.83,282.41 88.74,282.32 88.70,282.39 88.71,281.68 88.69,281.49 88.70,280.93 88.74,280.84 88.75,280.76 88.69,280.47 88.25,280.28 87.86,280.14 87.57,280.11 87.35,279.86 86.68,279.49 86.71,279.41 86.32,279.00 85.99,278.63 85.71,278.34 85.31,277.91 84.29,278.16 83.62,277.82 83.01,277.56 82.07,277.54 81.59,277.55 81.17,277.31 80.51,276.97 80.19,276.78 79.84,276.41 79.27,276.15 78.96,276.03 78.41,275.90 78.11,276.15 78.10,276.41 77.69,276.53 77.37,276.52 77.77,276.64 77.81,276.79 77.88,276.87 77.95,276.91 78.60,276.93 75.64,274.58 71.61,270.48 77.77,276.65 78.40,277.30 78.64,277.51 78.59,277.34 101.56,296.33 79.14,277.79 79.02,277.96 79.22,278.23 79.09,278.03 78.95,277.90 78.71,277.67 78.88,277.58 78.98,277.59 80.17,278.38 72.49,271.94 65.79,266.19 60.31,260.40 53.78,252.17 48.53,245.67 47.86,245.11 80.66,278.72 77.76,277.39 74.13,272.61 71.22,267.99 65.58,261.48 60.06,255.38 53.05,249.74 45.00,242.76 139.78,339.03 80.94,280.12 78.08,276.29 75.42,271.84 71.63,265.77 67.23,258.00 61.83,250.77 56.38,245.17 51.89,240.43 49.07,235.17 81.78,281.36 63.64,251.67 98.98,301.99 92.94,294.67 85.94,286.10 78.58,278.31 70.42,270.29 58.64,257.38 64.75,265.31 126.89,334.05 82.11,284.10 79.63,280.74 77.86,277.58 76.23,275.21 74.64,273.23 73.04,271.02 72.02,269.17 72.06,269.53 70.32,268.60 69.23,269.05 93.21,275.96 84.76,284.51 82.06,283.42 75.23,281.95 67.88,283.24 62.91,281.70 59.30,279.20 56.37,274.55 53.81,267.60 51.52,261.23 127.77,250.67 165.43,290.14 168.14,286.91 169.73,284.51 169.71,284.87 168.93,285.01 166.86,284.18 164.37,283.89 161.82,283.03 159.83,282.45 196.55,245.00 200.62,246.61 205.50,248.44 212.38,249.86 219.43,255.27 223.49,257.86 228.66,263.53 232.16,269.60 236.46,275.59 214.91,199.36 216.61,191.63 220.76,187.34 223.84,185.14 225.65,182.42 227.52,179.08 229.58,177.73 232.04,177.35 224.44,173.06 224.21,173.65 224.62,173.27 225.01,173.06 225.08,173.78 225.28,174.28 225.79,174.50 225.61,173.52 226.43,173.68 277.36,150.12 256.57,176.13 257.02,176.54 257.54,174.64 256.05,173.51 256.63,174.26 257.79,173.88 258.41,174.30 258.90,176.33 259.95,177.94 313.86,161.71 287.23,168.05 286.46,164.06 288.44,155.39 286.98,144.44 287.95,136.87 320.04,122.82 298.42,124.34 302.34,121.61 306.71,116.89 310.96,156.20 311.19,158.40 312.35,157.41 312.81,156.19 313.18,156.08 315.48,156.49 317.48,156.23 317.69,154.12 320.20,151.51 321.43,148.14 326.68,167.10 326.55,169.27 326.46,170.24 326.35,170.82 326.44,170.35 326.39,170.55 326.40,169.82 336.79,181.28 335.58,182.89 336.62,184.60 337.15,183.59 337.52,181.33 337.28,179.97 338.36,178.77 340.04,176.49 341.43,179.40 353.12,180.42 353.79,176.91 353.23,178.77 353.36,177.98 353.95,176.69 353.80,176.09 353.97,176.50 353.99,178.85 365.91,180.85 363.85,181.02 364.42,182.02 364.60,182.11 365.56,182.06 366.86,181.09 368.02,181.71 369.01,180.66 368.89,177.69 370.66,174.77 371.63,174.20 372.79,172.72 374.16,171.80 375.68,171.00 377.28,169.49 378.33,168.92 383.67,162.37 384.72,154.26 385.57,152.17 386.89,149.11 389.75,147.71 391.24,147.05 392.86,146.38 393.50,146.69 393.55,147.94 394.64,146.93 394.84,144.61 394.71,144.23 394.55,144.18 394.42,144.01 394.74,143.87 394.74,144.41 394.87,145.95 394.88,147.33 392.32,148.04 392.24,148.32 391.91,148.30 391.08,147.87 390.12,147.62 389.74,147.77 388.97,147.55 388.39,148.07 388.78,151.93 387.30,147.03 387.42,152.05 386.95,152.26 386.90,152.26 386.20,152.71 385.37,152.15 384.90,151.21 381.94,148.50 381.76,148.49 381.66,148.54 381.66,148.79 381.47,149.01 381.39,149.15 381.40,149.18 379.04,147.65 379.17,147.71 379.03,148.19 378.88,148.41 377.43,148.48 377.66,148.46 377.54,148.22 377.66,148.12 377.56,148.08 377.53,148.04 377.55,147.90 378.05,143.09 377.64,145.07 377.07,146.59 377.02,146.88 378.21,141.51 378.36,141.51 378.63,140.73 379.31,140.29 379.20,140.14 379.54,140.22 379.64,139.90 387.48,118.96 387.79,115.38 388.57,114.14 389.49,112.36 389.65,109.33 392.66,104.93 395.03,101.64 396.77,98.87 397.07,93.02 397.65,90.99 398.39,89.50 399.58,86.74 401.96,82.67 403.98,78.85 404.65,78.61 411.44,67.88 411.96,66.51 412.16,66.84 412.31,67.49 412.22,68.17 414.43,69.52 418.11,69.74 420.24,71.45 423.31,70.02 423.64,70.71 423.89,71.32 425.13,72.96 426.71,73.38 429.06,75.21 430.70,77.33 432.08,80.16 437.77,84.70 439.48,85.54 440.97,85.05 442.60,85.47 445.11,86.74 447.14,89.33 449.48,89.22 451.86,88.55 455.67,89.76 457.28,89.38 458.76,89.98 460.72,91.16 462.98,91.25 465.45,91.04 467.63,90.17 470.06,90.11 474.65,86.89 475.34,86.23 476.22,85.49 476.43,84.58 477.35,83.26 478.33,81.71 480.49,79.39 495.94,73.88 497.92,70.55 500.42,68.20 503.15,65.34 504.95,60.75 507.21,58.13 510.78,53.23 513.52,56.67 524.08,49.26 526.75,47.12 528.00,46.18 529.38,45.76 529.28,46.53 531.65,46.13 534.70,45.26 536.69,46.20 543.94,45.00 544.11,45.48 543.89,45.44 543.91,45.53 543.89,45.45 543.93,45.37 553.26,52.74 555.03,55.02 556.28,56.34 560.87,59.32 561.41,60.03 563.28,59.90 566.39,62.35 569.06,64.68 570.29,66.34 571.87,67.70 572.63,69.24 579.08,68.88 579.11,69.23 579.12,69.86 579.57,70.42 579.81,71.75 582.18,72.93 585.65,73.79 589.27,75.77 591.02,77.07 593.31,77.25 595.42,77.74 598.56,77.28 601.97,75.70 605.70,73.96 612.15,73.67 616.02,73.38 619.35,72.74 623.12,72.00 627.66,68.58 632.68,65.47 635.79,62.40 638.94,60.72 643.36,62.95 644.21,62.52 644.69,62.41 646.30,62.38 647.55,62.30 648.78,62.28 650.08,62.59 651.39,62.55 662.24,60.33 662.78,61.00 663.45,60.70 664.66,62.09 666.82,64.98 669.06,67.00 671.02,68.59 673.32,70.94 673.96,76.29 673.88,77.66 675.28,79.05 676.66,82.05 677.95,83.31 678.39,83.91 678.34,85.99 678.31,87.97 681.49,91.31 681.23,93.28 681.87,94.46 683.61,94.77 685.20,95.14 686.92,96.03 688.24,96.34 690.04,96.87 691.75,99.96 693.84,100.51 694.97,101.14 694.96,102.70 695.81,103.05 696.75,102.97 698.46,104.07 699.68,104.69 701.44,105.40 704.03,106.20 710.60,105.23 712.48,105.73 714.82,105.84 717.95,105.70 722.13,105.13 725.70,104.55 730.65,102.78 736.36,103.20 739.06,102.46 742.89,102.28 746.15,102.21 750.42,101.45 755.47,100.02 761.06,99.50 762.21,101.30 762.86,100.82 763.28,100.26 765.46,99.05 766.38,98.15 769.35,98.50 775.10,103.25 777.13,103.80 777.50,102.69 777.87,103.16 778.19,103.65 778.22,104.14 779.68,106.66 782.05,111.32 782.77,116.10 782.32,119.26 781.93,119.72 781.74,121.44 782.29,123.40 783.39,124.49 785.32,126.57 785.75,130.85 786.23,136.12 787.36,137.71 787.51,138.73 788.00,139.53 788.56,141.06 789.28,142.72 789.80,145.17 790.77,146.73 790.58,150.57 790.68,151.04 791.24,152.69 791.59,153.16 791.41,153.05 791.52,154.39 795.09,154.48 796.00,154.78 796.18,155.33 796.35,156.02 797.27,156.10 798.87,156.54 801.41,154.87 803.52,153.31 806.98,153.95 808.56,154.77 809.39,155.20 810.38,155.82 811.42,156.29 812.85,156.66 814.61,154.91 817.32,154.28 817.41,154.46 818.10,154.90 817.80,155.35 819.08,155.67 821.62,156.45 824.68,157.18 823.71,152.48 824.56,152.84 824.73,153.11 824.11,154.56 823.19,156.69 822.21,158.64 821.55,160.84 821.28,163.26 820.44,163.90 820.33,164.62 819.74,164.80 819.44,165.25 819.14,166.75 818.69,168.54 812.52,178.71 811.78,178.87 814.96,183.16 814.57,184.32 815.93,185.37 816.08,186.44 816.23,187.81 815.16,191.09 813.79,196.04 813.44,196.63 813.29,197.41 813.26,199.04 813.01,201.19 813.81,205.06 815.92,208.41 817.23,211.31 819.22,214.24 820.77,217.42 823.50,220.30 826.51,223.98 827.97,228.65 830.70,230.62 833.25,233.99 836.25,237.42 838.93,241.93 842.26,245.88 845.87,248.39 848.14,251.14 850.15,255.02 851.45,259.01 852.59,262.86 854.62,264.52 854.80,268.44 855.00,269.98 854.92,269.62 854.44,269.37 854.46,269.79 854.49,272.14 854.49,273.75 853.05,276.89 852.49,279.02 851.94,282.02 850.57,283.02 849.79,287.47 849.15,287.54 848.09,288.48 847.73,290.70 847.67,294.38 846.94,296.12 845.23,293.63 844.43,290.27 844.20,286.14 844.78,283.26 841.83,301.55 836.57,306.92 836.13,307.85 835.22,309.95 834.03,311.41 833.38,312.38 832.03,312.39 831.24,313.82 830.86,315.75 829.86,317.32 828.57,319.40 831.18,328.11 830.82,330.43 830.64,333.11 829.22,336.29 827.28,337.12 826.52,339.59 827.08,344.37 829.08,350.49 833.09,358.29 833.56,362.74 834.46,365.78 835.78,371.26 836.32,376.13 837.63,382.10 838.73,387.20 840.51,389.81 842.45,393.45 840.88,401.27 842.96,405.62 843.79,408.56 844.58,410.99 844.19,414.06 844.92,417.26 845.34,419.77 845.24,422.22 845.01,424.14 843.80,424.63 843.38,426.13 843.42,427.44 842.50,428.09 840.99,428.75 839.01,429.90 836.19,432.35 834.86,433.38 834.87,435.80 832.94,437.42 831.10,439.43 829.76,442.07 828.17,444.22 827.73,446.85 826.16,448.04 824.07,448.92 822.18,449.05 820.79,450.60 819.94,451.56 818.61,453.23 817.43,454.35 816.49,455.10 815.84,455.92 815.59,457.10 815.14,458.27 814.42,458.71 813.93,459.11 814.01,460.12 813.65,461.68 813.24,462.27 813.03,462.46 812.83,463.47 812.72,464.79 812.40,470.20 813.71,471.01 813.70,471.14 813.28,470.93 813.28,472.12 813.58,474.63 814.50,477.61 815.53,478.95 816.24,480.38 817.23,482.68 818.44,484.40 819.35,483.75 820.05,484.40 819.22,486.32 819.35,489.01 819.28,490.84 820.16,492.26 822.22,495.67 821.95,496.65 822.71,498.01 823.51,499.71 823.67,500.04 823.29,500.06 821.53,500.35 819.36,500.99 817.38,502.29 815.08,502.10 813.40,501.36 811.28,500.44 808.70,500.54 805.34,499.88 802.29,499.15 799.14,499.06 797.18,499.67 794.62,499.95 793.17,498.67 791.08,499.36 788.33,500.14 786.49,500.71 784.87,500.36 783.56,501.22 782.52,501.84 781.17,502.43 778.87,502.44 778.04,501.68 776.68,501.46 774.84,501.36 773.42,501.51 771.60,502.54 770.19,502.68 767.83,502.84 765.65,502.95 764.21,503.97 762.14,504.90 760.18,506.33 757.65,507.59 755.28,509.35 753.44,512.55 751.65,516.95 748.08,525.68 745.05,525.88 742.10,529.53 739.34,533.50 736.64,537.90 734.45,541.84 732.51,545.98 730.68,549.99 728.02,557.33 724.37,557.39 722.14,560.00 720.75,563.24 717.43,568.38 714.46,571.18 711.64,572.35 708.24,573.22 706.48,574.42 704.02,575.00 701.35,574.20 699.47,574.35 697.31,573.93 694.53,572.40 692.05,571.05 689.23,569.38 686.10,568.82 683.34,566.67 680.71,563.15 677.98,562.01 675.14,561.55 673.23,561.12 671.66,560.09 668.30,558.32 663.59,556.28 661.27,554.59 658.12,553.23 655.83,552.59 653.88,552.77 651.74,550.39 648.93,550.66 648.20,550.73 647.57,550.43 647.12,550.52 645.77,550.30 644.37,549.71 641.80,549.03 638.93,548.14 637.43,546.14 636.19,545.33 634.44,544.52 632.59,543.79 629.81,543.04 626.86,543.25 624.30,543.96 621.89,544.07 619.41,544.82 616.10,544.95 613.84,545.57 609.99,546.00 606.49,546.35 601.97,547.47 598.06,548.88 593.14,549.63 589.01,549.97 585.53,552.66 581.19,554.64 577.44,555.73 573.94,557.97 570.76,560.04 567.58,560.68 564.34,561.27 561.68,560.67 558.89,560.84 556.63,559.75 554.59,558.99 552.73,557.42 551.28,556.24 549.63,554.65 548.42,552.50 546.82,549.57 544.70,547.69 542.99,545.33 541.15,542.97 539.60,541.42 537.67,539.43 535.42,537.40 533.50,534.99 530.43,533.18 529.34,533.07 526.89,530.86 524.37,528.98 522.66,527.87 521.57,526.50 520.14,524.84 518.02,523.29 516.06,522.70 513.67,521.97 511.01,520.96 508.89,519.93 506.64,519.19 503.87,518.40 501.08,518.07 498.36,517.92 495.57,518.41 492.23,518.84 489.91,519.85 483.43,519.59 479.20,519.55 474.98,520.78 469.95,522.05 465.60,523.27 461.75,525.64 458.13,527.69 454.85,529.98 453.05,530.98 447.60,535.03 444.43,537.39 441.17,539.13 438.66,540.44 436.63,541.45 435.23,542.34 433.58,542.39 430.14,544.38 426.83,544.63 421.94,544.07 420.59,544.02 418.52,543.68 416.29,542.81 413.68,540.88 411.16,539.29 408.38,537.43 406.26,534.65 403.22,533.31 402.70,532.40 401.79,530.35 400.69,527.24 399.29,525.02 397.81,522.23 396.02,519.39 394.43,516.30 394.46,513.77 391.20,508.63 389.61,505.40 389.56,502.63 388.27,499.82 387.07,497.10 386.16,495.06 384.74,491.48 385.16,490.08 381.88,487.17 380.62,486.14 380.18,484.69 379.01,483.28 378.03,482.00 376.81,480.57 376.03,479.02 375.18,478.59 372.69,476.59 370.80,475.74 368.69,475.34 365.06,474.21 361.75,472.75 357.63,472.11 353.85,471.48 349.44,470.35 342.94,470.19 336.91,467.77 331.50,466.62 326.24,466.35 320.16,464.21 314.51,462.54 310.01,462.53 304.86,462.85 301.52,463.09 296.71,462.57 293.22,461.57 290.74,460.83 289.11,461.30 286.40,462.05 284.00,461.99 282.04,462.21 279.93,463.08 279.39,463.42 278.60,463.52 279.50,465.69 278.09,464.15 277.50,464.23 277.34,464.01 277.70,463.95 277.45,464.01 277.81,464.44 277.84,464.66 278.63,465.16 279.04,465.29 278.89,465.55 278.81,465.29 279.29,465.85 279.91,466.07 280.87,465.71 281.80,465.00 282.34,465.31 282.50,466.77 282.66,466.79 284.08,466.95 286.03,467.54 285.55,467.61 285.94,467.91 286.65,468.21 287.67,468.22 288.57,469.17 289.38,469.74 290.03,469.47 290.93,469.07 292.05,469.49 292.71,469.12 292.97,469.19 292.85,469.25 292.94,469.31 293.63,468.79 293.74,468.09 293.84,466.72 293.16,466.40 291.87,466.72 291.79,465.31 291.55,464.94 290.07,463.64 287.91,462.99 286.63,462.76 285.05,462.70 283.99,462.80 282.80,461.88 281.56,462.58 280.87,463.03 280.17,463.52 279.59,463.80 278.91,464.33 276.63,462.90 275.09,460.97 273.85,460.69 273.19,461.54 273.05,461.70 272.81,461.70 273.54,462.15 275.07,463.25 275.70,464.42 276.47,464.97 277.78,466.37 279.32,466.83 280.52,469.07 281.31,469.30 281.64,468.79 283.49,469.64 285.64,470.47 287.98,470.79 289.08,471.92 290.77,472.27 292.36,472.43 293.57,472.65 295.81,471.57 297.58,471.51 298.68,472.43 298.93,471.96 299.09,472.30 301.52,473.03 303.65,474.98 304.56,475.18 304.91,475.86 305.69,476.42 305.51,474.30 305.77,473.60 306.01,473.58 306.23,473.50 306.28,472.82 306.80,473.17 307.51,472.93 308.21,472.93 308.56,474.01 307.94,473.45 308.05,473.49 308.32,473.26 308.60,472.95 308.66,472.61 308.42,472.81 308.96,471.95 308.99,471.27 309.66,471.93 309.44,471.23 309.54,470.11 309.68,470.03 309.78,469.89 310.11,469.66 309.75,469.52 309.61,469.54 309.78,469.51 309.90,469.41 310.02,468.99 310.07,469.09 310.22,469.03 310.28,469.22 310.14,468.81 310.19,468.77 310.55,469.16 310.61,469.19 310.52,468.21 310.56,468.46 310.64,468.62 310.79,468.73 310.62,468.44 310.63,468.31 310.81,468.41 311.31,469.21 310.94,468.94 310.94,469.20" fill="none" stroke="#222" stroke-width="1.1" opacity="0.65"/><circle cx="153.91" cy="316.14" r="2.2" fill="rgb(255,0,0)"/><circle cx="150.75" cy="218.83" r="2.2" fill="rgb(255,3,0)"/><circle cx="170.71" cy="180.86" r="2.2" fill="rgb(255,5,0)"/><circle cx="172.71" cy="307.58" r="2.2" fill="rgb(255,8,0)"/><circle cx="162.09" cy="308.57" r="2.2" fill="rgb(255,11,0)"/><circle cx="163.29" cy="289.74" r="2.2" fill="rgb(255,14,0)"/><circle cx="156.87" cy="298.41" r="2.2" fill="rgb(255,16,0)"/><circle cx="157.12" cy="306.97" r="2.2" fill="rgb(255,19,0)"/><circle cx="163.75" cy="286.26" r="2.2" fill="rgb(255,22,0)"/><circle cx="166.16" cy="285.85" r="2.2" fill="rgb(255,24,0)"/><circle cx="157.22" cy="307.93" r="2.2" fill="rgb(255,27,0)"/><circle cx="159.37" cy="302.53" r="2.2" fill="rgb(255,30,0)"/><circle cx="159.94" cy="296.65" r="2.2" fill="rgb(255,33,0)"/><circle cx="162.86" cy="288.13" r="2.2" fill="rgb(255,35,0)"/><circle cx="163.94" cy="288.27" r="2.2" fill="rgb(255,38,0)"/><circle cx="162.04" cy="299.86" r="2.2" fill="rgb(255,41,0)"/><circle cx="163.62" cy="301.42" r="2.2" fill="rgb(255,43,0)"/><circle cx="166.24" cy="303.05" r="2.2" fill="rgb(255,46,0)"/><circle cx="168.85" cy="299.09" r="2.2" fill="rgb(255,49,0)"/><circle cx="170.81" cy="295.32" r="2.2" fill="rgb(255,52,0)"/><circle cx="162.94" cy="297.87" r="2.2" fill="rgb(255,54,0)"/><circle cx="162.23" cy="299.17" r="2.2" fill="rgb(255,57,0)"/><circle cx="161.55" cy="301.12" r="2.2" fill="rgb(255,60,0)"/><circle cx="161.08" cy="301.27" r="2.2" fill="rgb(255,62,0)"/><circle cx="161.44" cy="301.14" r="2.2" fill="rgb(255,65,0)"/><circle cx="164.30" cy="299.13" r="2.2" fill="rgb(255,68,0)"/><circle cx="169.66" cy="298.49" r="2.2" fill="rgb(255,71,0)"/><circle cx="172.11" cy="293.05" r="2.2" fill="rgb(255,73,0)"/><circle cx="164.91" cy="295.83" r="2.2" fill="rgb(255,76,0)"/><circle cx="167.42" cy="297.83" r="2.2" fill="rgb(255,79,0)"/><circle cx="163.78" cy="300.00" r="2.2" fill="rgb(255,81,0)"/><circle cx="163.37" cy="302.68" r="2.2" fill="rgb(255,84,0)"/><circle cx="164.65" cy="300.66" r="2.2" fill="rgb(255,87,0)"/><circle cx="163.74" cy="302.15" r="2.2" fill="rgb(255,90,0)"/><circle cx="164.31" cy="302.90" r="2.2" fill="rgb(255,92,0)"/><circle cx="165.10" cy="301.19" r="2.2" fill="rgb(255,95,0)"/><circle cx="166.80" cy="302.07" r="2.2" fill="rgb(255,98,0)"/><circle cx="168.08" cy="302.65" r="2.2" fill="rgb(255,100,0)"/><circle cx="170.56" cy="301.01" r="2.2" fill="rgb(255,103,0)"/><circle cx="169.76" cy="300.40" r="2.2" fill="rgb(255,106,0)"/><circle cx="170.19" cy="301.11" r="2.2" fill="rgb(255,109,0)"/><circle cx="172.39" cy="304.80" r="2.2" fill="rgb(255,111,0)"/><circle cx="169.99" cy="303.81" r="2.2" fill="rgb(255,114,0)"/><circle cx="172.02" cy="304.05" r="2.2" fill="rgb(255,117,0)"/><circle cx="171.13" cy="303.55" r="2.2" fill="rgb(255,119,0)"/><circle cx="174.00" cy="304.78" r="2.2" fill="rgb(255,122,0)"/><circle cx="173.61" cy="303.23" r="2.2" fill="rgb(255,125,0)"/><circle cx="176.56" cy="304.21" r="2.2" fill="rgb(255,128,0)"/><circle cx="176.95" cy="304.75" r="2.2" fill="rgb(255,130,0)"/><circle cx="177.76" cy="306.65" r="2.2" fill="rgb(255,133,0)"/><circle cx="177.85" cy="307.71" r="2.2" fill="rgb(255,136,0)"/><circle cx="178.29" cy="307.81" r="2.2" fill="rgb(255,138,0)"/><circle cx="179.54" cy="308.14" r="2.2" fill="rgb(255,141,0)"/><circle cx="180.68" cy="308.29" r="2.2" fill="rgb(255,144,0)"/><circle cx="180.69" cy="308.02" r="2.2" fill="rgb(255,146,0)"/><circle cx="180.16" cy="308.15" r="2.2" fill="rgb(255,149,0)"/><circle cx="182.65" cy="310.72" r="2.2" fill="rgb(255,152,0)"/><circle cx="183.04" cy="311.45" r="2.2" fill="rgb(255,155,0)"/><circle cx="183.28" cy="311.78" r="2.2" fill="rgb(255,157,0)"/><circle cx="184.57" cy="312.08" r="2.2" fill="rgb(255,160,0)"/><circle cx="185.61" cy="312.60" r="2.2" fill="rgb(255,163,0)"/><circle cx="186.10" cy="312.98" r="2.2" fill="rgb(255,165,0)"/><circle cx="187.98" cy="313.71" r="2.2" fill="rgb(255,168,0)"/><circle cx="187.92" cy="314.48" r="2.2" fill="rgb(255,171,0)"/><circle cx="187.85" cy="314.94" r="2.2" fill="rgb(255,174,0)"/><circle cx="187.69" cy="315.55" r="2.2" fill="rgb(255,176,0)"/><circle cx="187.75" cy="316.55" r="2.2" fill="rgb(255,179,0)"/><circle cx="189.18" cy="317.20" r="2.2" fill="rgb(255,182,0)"/><circle cx="182.53" cy="317.21" r="2.2" fill="rgb(255,184,0)"/><circle cx="188.92" cy="317.27" r="2.2" fill="rgb(255,187,0)"/><circle cx="189.54" cy="317.78" r="2.2" fill="rgb(255,190,0)"/><circle cx="188.95" cy="319.72" r="2.2" fill="rgb(253,192,0)"/><circle cx="189.00" cy="319.86" r="2.2" fill="rgb(250,192,0)"/><circle cx="188.33" cy="319.81" r="2.2" fill="rgb(246,193,0)"/><circle cx="188.96" cy="319.84" r="2.2" fill="rgb(242,193,0)"/><circle cx="188.90" cy="319.60" r="2.2" fill="rgb(239,194,0)"/><circle cx="188.84" cy="319.98" r="2.2" fill="rgb(235,194,0)"/><circle cx="188.45" cy="320.44" r="2.2" fill="rgb(231,195,0)"/><circle cx="188.52" cy="320.06" r="2.2" fill="rgb(228,195,0)"/><circle cx="189.11" cy="322.50" r="2.2" fill="rgb(224,196,0)"/><circle cx="189.36" cy="325.59" r="2.2" fill="rgb(221,196,0)"/><circle cx="188.99" cy="325.75" r="2.2" fill="rgb(217,197,0)"/><circle cx="188.43" cy="325.99" r="2.2" fill="rgb(213,197,0)"/><circle cx="188.59" cy="326.23" r="2.2" fill="rgb(210,198,0)"/><circle cx="188.19" cy="328.62" r="2.2" fill="rgb(206,199,0)"/><circle cx="187.88" cy="329.38" r="2.2" fill="rgb(203,199,0)"/><circle cx="187.12" cy="332.41" r="2.2" fill="rgb(199,200,0)"/><circle cx="187.62" cy="330.27" r="2.2" fill="rgb(195,200,0)"/><circle cx="186.82" cy="332.57" r="2.2" fill="rgb(192,201,0)"/><circle cx="186.48" cy="332.38" r="2.2" fill="rgb(188,201,0)"/><circle cx="186.11" cy="331.78" r="2.2" fill="rgb(184,202,0)"/><circle cx="186.29" cy="332.71" r="2.2" fill="rgb(181,202,0)"/><circle cx="185.91" cy="334.07" r="2.2" fill="rgb(177,203,0)"/><circle cx="185.22" cy="336.16" r="2.2" fill="rgb(174,203,0)"/><circle cx="185.79" cy="338.16" r="2.2" fill="rgb(170,204,0)"/><circle cx="186.08" cy="340.17" r="2.2" fill="rgb(166,205,0)"/><circle cx="185.13" cy="339.06" r="2.2" fill="rgb(163,205,0)"/><circle cx="184.81" cy="338.60" r="2.2" fill="rgb(159,206,0)"/><circle cx="184.11" cy="337.95" r="2.2" fill="rgb(156,206,0)"/><circle cx="184.33" cy="338.04" r="2.2" fill="rgb(152,207,0)"/><circle cx="183.81" cy="337.97" r="2.2" fill="rgb(148,207,0)"/><circle cx="183.60" cy="337.77" r="2.2" fill="rgb(145,208,0)"/><circle cx="184.52" cy="337.85" r="2.2" fill="rgb(141,208,0)"/><circle cx="183.05" cy="338.15" r="2.2" fill="rgb(137,209,0)"/><circle cx="177.81" cy="338.63" r="2.2" fill="rgb(134,209,0)"/><circle cx="171.07" cy="347.29" r="2.2" fill="rgb(130,210,0)"/><circle cx="170.86" cy="346.40" r="2.2" fill="rgb(127,211,0)"/><circle cx="168.33" cy="343.71" r="2.2" fill="rgb(123,211,0)"/><circle cx="164.16" cy="341.93" r="2.2" fill="rgb(119,212,0)"/><circle cx="163.49" cy="338.49" r="2.2" fill="rgb(116,212,0)"/><circle cx="164.26" cy="338.92" r="2.2" fill="rgb(112,213,0)"/><circle cx="158.15" cy="335.51" r="2.2" fill="rgb(109,213,0)"/><circle cx="152.85" cy="335.20" r="2.2" fill="rgb(105,214,0)"/><circle cx="154.59" cy="334.88" r="2.2" fill="rgb(101,214,0)"/><circle cx="144.09" cy="333.09" r="2.2" fill="rgb(98,215,0)"/><circle cx="142.01" cy="329.45" r="2.2" fill="rgb(94,215,0)"/><circle cx="140.70" cy="325.48" r="2.2" fill="rgb(90,216,0)"/><circle cx="137.78" cy="321.66" r="2.2" fill="rgb(87,216,0)"/><circle cx="136.80" cy="318.65" r="2.2" fill="rgb(83,217,0)"/><circle cx="133.62" cy="316.37" r="2.2" fill="rgb(80,218,0)"/><circle cx="130.71" cy="315.11" r="2.2" fill="rgb(76,218,0)"/><circle cx="128.66" cy="313.44" r="2.2" fill="rgb(72,219,0)"/><circle cx="128.06" cy="310.84" r="2.2" fill="rgb(69,219,0)"/><circle cx="130.84" cy="281.74" r="2.2" fill="rgb(65,220,0)"/><circle cx="125.48" cy="327.61" r="2.2" fill="rgb(61,220,0)"/><circle cx="125.06" cy="329.73" r="2.2" fill="rgb(58,221,0)"/><circle cx="118.65" cy="300.71" r="2.2" fill="rgb(54,221,0)"/><circle cx="117.17" cy="301.97" r="2.2" fill="rgb(51,222,0)"/><circle cx="108.82" cy="299.92" r="2.2" fill="rgb(47,222,0)"/><circle cx="106.11" cy="299.25" r="2.2" fill="rgb(43,223,0)"/><circle cx="104.59" cy="296.37" r="2.2" fill="rgb(40,224,0)"/><circle cx="103.17" cy="293.26" r="2.2" fill="rgb(36,224,0)"/><circle cx="101.41" cy="291.52" r="2.2" fill="rgb(33,225,0)"/><circle cx="96.65" cy="287.99" r="2.2" fill="rgb(29,225,0)"/><circle cx="92.29" cy="287.73" r="2.2" fill="rgb(25,226,0)"/><circle cx="88.42" cy="285.90" r="2.2" fill="rgb(22,226,0)"/><circle cx="87.73" cy="284.48" r="2.2" fill="rgb(18,227,0)"/><circle cx="88.37" cy="283.31" r="2.2" fill="rgb(14,227,0)"/><circle cx="88.74" cy="282.32" r="2.2" fill="rgb(11,228,0)"/><circle cx="88.69" cy="280.47" r="2.2" fill="rgb(7,228,0)"/><circle cx="86.32" cy="279.00" r="2.2" fill="rgb(4,229,0)"/><circle cx="82.07" cy="277.54" r="2.2" fill="rgb(0,230,0)"/><circle cx="78.96" cy="276.03" r="2.2" fill="rgb(0,229,4)"/><circle cx="77.81" cy="276.79" r="2.2" fill="rgb(0,228,7)"/><circle cx="78.40" cy="277.30" r="2.2" fill="rgb(0,228,11)"/><circle cx="79.09" cy="278.03" r="2.2" fill="rgb(0,227,14)"/><circle cx="65.79" cy="266.19" r="2.2" fill="rgb(0,227,18)"/><circle cx="74.13" cy="272.61" r="2.2" fill="rgb(0,226,22)"/><circle cx="80.94" cy="280.12" r="2.2" fill="rgb(0,226,25)"/><circle cx="51.89" cy="240.43" r="2.2" fill="rgb(0,225,29)"/><circle cx="78.58" cy="278.31" r="2.2" fill="rgb(0,225,33)"/><circle cx="77.86" cy="277.58" r="2.2" fill="rgb(0,224,36)"/><circle cx="69.23" cy="269.05" r="2.2" fill="rgb(0,224,40)"/><circle cx="59.30" cy="279.20" r="2.2" fill="rgb(0,223,43)"/><circle cx="169.73" cy="284.51" r="2.2" fill="rgb(0,222,47)"/><circle cx="196.55" cy="245.00" r="2.2" fill="rgb(0,222,51)"/><circle cx="232.16" cy="269.60" r="2.2" fill="rgb(0,221,54)"/><circle cx="227.52" cy="179.08" r="2.2" fill="rgb(0,221,58)"/><circle cx="225.08" cy="173.78" r="2.2" fill="rgb(0,220,61)"/><circle cx="257.02" cy="176.54" r="2.2" fill="rgb(0,220,65)"/><circle cx="259.95" cy="177.94" r="2.2" fill="rgb(0,219,69)"/><circle cx="320.04" cy="122.82" r="2.2" fill="rgb(0,219,72)"/><circle cx="312.81" cy="156.19" r="2.2" fill="rgb(0,218,76)"/><circle cx="326.68" cy="167.10" r="2.2" fill="rgb(0,218,80)"/><circle cx="336.79" cy="181.28" r="2.2" fill="rgb(0,217,83)"/><circle cx="340.04" cy="176.49" r="2.2" fill="rgb(0,216,87)"/><circle cx="353.80" cy="176.09" r="2.2" fill="rgb(0,216,90)"/><circle cx="365.56" cy="182.06" r="2.2" fill="rgb(0,215,94)"/><circle cx="372.79" cy="172.72" r="2.2" fill="rgb(0,215,98)"/><circle cx="385.57" cy="152.17" r="2.2" fill="rgb(0,214,101)"/><circle cx="394.64" cy="146.93" r="2.2" fill="rgb(0,214,105)"/><circle cx="394.87" cy="145.95" r="2.2" fill="rgb(0,213,109)"/><circle cx="389.74" cy="147.77" r="2.2" fill="rgb(0,213,112)"/><circle cx="386.90" cy="152.26" r="2.2" fill="rgb(0,212,116)"/><circle cx="381.66" cy="148.79" r="2.2" fill="rgb(0,212,119)"/><circle cx="378.88" cy="148.41" r="2.2" fill="rgb(0,211,123)"/><circle cx="377.55" cy="147.90" r="2.2" fill="rgb(0,211,127)"/><circle cx="378.63" cy="140.73" r="2.2" fill="rgb(0,210,130)"/><circle cx="388.57" cy="114.14" r="2.2" fill="rgb(0,209,134)"/><circle cx="397.65" cy="90.99" r="2.2" fill="rgb(0,209,137)"/><circle cx="411.96" cy="66.51" r="2.2" fill="rgb(0,208,141)"/><circle cx="423.31" cy="70.02" r="2.2" fill="rgb(0,208,145)"/><circle cx="432.08" cy="80.16" r="2.2" fill="rgb(0,207,148)"/><circle cx="449.48" cy="89.22" r="2.2" fill="rgb(0,207,152)"/><circle cx="465.45" cy="91.04" r="2.2" fill="rgb(0,206,156)"/><circle cx="477.35" cy="83.26" r="2.2" fill="rgb(0,206,159)"/><circle cx="504.95" cy="60.75" r="2.2" fill="rgb(0,205,163)"/><circle cx="529.38" cy="45.76" r="2.2" fill="rgb(0,205,166)"/><circle cx="543.89" cy="45.44" r="2.2" fill="rgb(0,204,170)"/><circle cx="560.87" cy="59.32" r="2.2" fill="rgb(0,203,174)"/><circle cx="572.63" cy="69.24" r="2.2" fill="rgb(0,203,177)"/><circle cx="585.65" cy="73.79" r="2.2" fill="rgb(0,202,181)"/><circle cx="605.70" cy="73.96" r="2.2" fill="rgb(0,202,184)"/><circle cx="635.79" cy="62.40" r="2.2" fill="rgb(0,201,188)"/><circle cx="648.78" cy="62.28" r="2.2" fill="rgb(0,201,192)"/><circle cx="666.82" cy="64.98" r="2.2" fill="rgb(0,200,195)"/><circle cx="676.66" cy="82.05" r="2.2" fill="rgb(0,200,199)"/><circle cx="681.87" cy="94.46" r="2.2" fill="rgb(0,199,203)"/><circle cx="693.84" cy="100.51" r="2.2" fill="rgb(0,199,206)"/><circle cx="701.44" cy="105.40" r="2.2" fill="rgb(0,198,210)"/><circle cx="725.70" cy="104.55" r="2.2" fill="rgb(0,197,213)"/><circle cx="755.47" cy="100.02" r="2.2" fill="rgb(0,197,217)"/><circle cx="769.35" cy="98.50" r="2.2" fill="rgb(0,196,221)"/><circle cx="779.68" cy="106.66" r="2.2" fill="rgb(0,196,224)"/><circle cx="783.39" cy="124.49" r="2.2" fill="rgb(0,195,228)"/><circle cx="788.56" cy="141.06" r="2.2" fill="rgb(0,195,231)"/><circle cx="791.59" cy="153.16" r="2.2" fill="rgb(0,194,235)"/><circle cx="797.27" cy="156.10" r="2.2" fill="rgb(0,194,239)"/><circle cx="810.38" cy="155.82" r="2.2" fill="rgb(0,193,242)"/><circle cx="817.80" cy="155.35" r="2.2" fill="rgb(0,193,246)"/><circle cx="824.11" cy="154.56" r="2.2" fill="rgb(0,192,250)"/><circle cx="819.74" cy="164.80" r="2.2" fill="rgb(0,192,253)"/><circle cx="814.57" cy="184.32" r="2.2" fill="rgb(0,190,255)"/><circle cx="813.29" cy="197.41" r="2.2" fill="rgb(0,188,255)"/><circle cx="820.77" cy="217.42" r="2.2" fill="rgb(0,186,255)"/><circle cx="838.93" cy="241.93" r="2.2" fill="rgb(0,184,255)"/><circle cx="854.62" cy="264.52" r="2.2" fill="rgb(0,181,255)"/><circle cx="854.49" cy="273.75" r="2.2" fill="rgb(0,179,255)"/><circle cx="848.09" cy="288.48" r="2.2" fill="rgb(0,177,255)"/><circle cx="844.78" cy="283.26" r="2.2" fill="rgb(0,175,255)"/><circle cx="832.03" cy="312.39" r="2.2" fill="rgb(0,173,255)"/><circle cx="830.64" cy="333.11" r="2.2" fill="rgb(0,171,255)"/><circle cx="833.56" cy="362.74" r="2.2" fill="rgb(0,168,255)"/><circle cx="842.45" cy="393.45" r="2.2" fill="rgb(0,166,255)"/><circle cx="845.34" cy="419.77" r="2.2" fill="rgb(0,164,255)"/><circle cx="840.99" cy="428.75" r="2.2" fill="rgb(0,162,255)"/><circle cx="829.76" cy="442.07" r="2.2" fill="rgb(0,160,255)"/><circle cx="819.94" cy="451.56" r="2.2" fill="rgb(0,158,255)"/><circle cx="814.42" cy="458.71" r="2.2" fill="rgb(0,155,255)"/><circle cx="812.72" cy="464.79" r="2.2" fill="rgb(0,153,255)"/><circle cx="814.50" cy="477.61" r="2.2" fill="rgb(0,151,255)"/><circle cx="819.22" cy="486.32" r="2.2" fill="rgb(0,149,255)"/><circle cx="823.51" cy="499.71" r="2.2" fill="rgb(0,147,255)"/><circle cx="813.40" cy="501.36" r="2.2" fill="rgb(0,145,255)"/><circle cx="794.62" cy="499.95" r="2.2" fill="rgb(0,142,255)"/><circle cx="782.52" cy="501.84" r="2.2" fill="rgb(0,140,255)"/><circle cx="771.60" cy="502.54" r="2.2" fill="rgb(0,138,255)"/><circle cx="757.65" cy="507.59" r="2.2" fill="rgb(0,136,255)"/><circle cx="739.34" cy="533.50" r="2.2" fill="rgb(0,134,255)"/><circle cx="722.14" cy="560.00" r="2.2" fill="rgb(0,132,255)"/><circle cx="704.02" cy="575.00" r="2.2" fill="rgb(0,129,255)"/><circle cx="686.10" cy="568.82" r="2.2" fill="rgb(0,127,255)"/><circle cx="668.30" cy="558.32" r="2.2" fill="rgb(0,125,255)"/><circle cx="648.93" cy="550.66" r="2.2" fill="rgb(0,123,255)"/><circle cx="638.93" cy="548.14" r="2.2" fill="rgb(0,121,255)"/><circle cx="624.30" cy="543.96" r="2.2" fill="rgb(0,119,255)"/><circle cx="601.97" cy="547.47" r="2.2" fill="rgb(0,116,255)"/><circle cx="573.94" cy="557.97" r="2.2" fill="rgb(0,114,255)"/><circle cx="554.59" cy="558.99" r="2.2" fill="rgb(0,112,255)"/><circle cx="542.99" cy="545.33" r="2.2" fill="rgb(0,110,255)"/><circle cx="529.34" cy="533.07" r="2.2" fill="rgb(0,108,255)"/><circle cx="516.06" cy="522.70" r="2.2" fill="rgb(0,106,255)"/><circle cx="498.36" cy="517.92" r="2.2" fill="rgb(0,103,255)"/><circle cx="469.95" cy="522.05" r="2.2" fill="rgb(0,101,255)"/><circle cx="444.43" cy="537.39" r="2.2" fill="rgb(0,99,255)"/><circle cx="426.83" cy="544.63" r="2.2" fill="rgb(0,97,255)"/><circle cx="408.38" cy="537.43" r="2.2" fill="rgb(0,95,255)"/><circle cx="397.81" cy="522.23" r="2.2" fill="rgb(0,93,255)"/><circle cx="388.27" cy="499.82" r="2.2" fill="rgb(0,90,255)"/><circle cx="380.18" cy="484.69" r="2.2" fill="rgb(0,88,255)"/><circle cx="370.80" cy="475.74" r="2.2" fill="rgb(0,86,255)"/><circle cx="342.94" cy="470.19" r="2.2" fill="rgb(0,84,255)"/><circle cx="304.86" cy="462.85" r="2.2" fill="rgb(0,82,255)"/><circle cx="284.00" cy="461.99" r="2.2" fill="rgb(0,79,255)"/><circle cx="277.50" cy="464.23" r="2.2" fill="rgb(0,77,255)"/><circle cx="279.04" cy="465.29" r="2.2" fill="rgb(0,75,255)"/><circle cx="282.34" cy="465.31" r="2.2" fill="rgb(0,73,255)"/><circle cx="286.65" cy="468.21" r="2.2" fill="rgb(0,71,255)"/><circle cx="292.71" cy="469.12" r="2.2" fill="rgb(0,69,255)"/><circle cx="293.16" cy="466.40" r="2.2" fill="rgb(0,66,255)"/><circle cx="285.05" cy="462.70" r="2.2" fill="rgb(0,64,255)"/><circle cx="278.91" cy="464.33" r="2.2" fill="rgb(0,62,255)"/><circle cx="273.54" cy="462.15" r="2.2" fill="rgb(0,60,255)"/><circle cx="281.31" cy="469.30" r="2.2" fill="rgb(0,58,255)"/><circle cx="292.36" cy="472.43" r="2.2" fill="rgb(0,56,255)"/><circle cx="301.52" cy="473.03" r="2.2" fill="rgb(0,53,255)"/><circle cx="306.01" cy="473.58" r="2.2" fill="rgb(0,51,255)"/><circle cx="307.94" cy="473.45" r="2.2" fill="rgb(0,49,255)"/><circle cx="308.99" cy="471.27" r="2.2" fill="rgb(0,47,255)"/><circle cx="309.75" cy="469.52" r="2.2" fill="rgb(0,45,255)"/><circle cx="310.28" cy="469.22" r="2.2" fill="rgb(0,43,255)"/><circle cx="310.64" cy="468.62" r="2.2" fill="rgb(0,40,255)"/><circle cx="310.94" cy="469.20" r="2.2" fill="rgb(0,38,255)"/><circle cx="153.91" cy="316.14" r="5" fill="red"/><circle cx="310.94" cy="469.20" r="5" fill="blue"/></svg>