<svg xmlns="http://www.w3.org/2000/svg" width="900" height="620" viewBox="0 0 900 620"><rect width="100%" height="100%" fill="white"/><text x="45" y="28" font-family="monospace" font-size="16">raspi_vio_relaxed_skipviba2_full PCA XY trajectory</text><polyline points="724.49,215.74 797.61,351.22 812.96,379.55 822.84,401.77 810.41,392.75 822.55,447.09 835.46,465.85 839.20,475.77 734.54,235.20 855.00,535.11 818.68,461.83 783.06,420.48 772.02,437.38 770.95,455.55 769.51,461.16 751.35,473.31 728.57,249.55 725.62,247.90 724.04,258.89 722.47,263.96 698.63,271.88 685.84,281.79 684.90,288.40 679.95,297.37 725.07,252.47 725.04,256.24 713.67,258.41 709.71,265.56 704.89,272.70 704.85,278.77 703.46,286.82 699.91,297.38 710.64,275.03 715.43,283.77 713.19,304.06 713.32,303.31 712.50,315.58 713.26,326.06 714.38,338.63 716.69,353.65 711.65,283.25 713.95,297.12 716.98,307.13 715.69,306.58 718.60,317.96 720.36,325.70 722.25,335.39 725.61,344.19 720.66,336.43 720.38,342.40 719.84,349.15 719.91,345.56 720.05,349.15 719.43,352.51 719.08,354.55 718.99,359.13 720.38,341.35 719.96,343.94 720.06,343.74 719.40,345.05 719.09,347.64 716.99,346.19 716.04,346.49 715.46,347.07 716.35,357.98 716.02,356.98 717.31,357.12 716.41,357.50 716.89,357.68 715.86,356.91 716.16,358.34 714.68,358.95 715.84,360.86 716.95,362.02 717.37,363.86 717.91,364.52 718.50,365.25 714.83,370.92 714.76,373.82 714.97,379.16 715.50,376.70 714.42,380.62 715.78,386.91 717.69,394.91 718.99,404.37 718.68,411.05 718.78,415.99 718.93,423.93 716.19,373.88 714.47,381.52 718.20,388.67 716.40,397.46 715.82,390.66 714.27,394.11 713.13,398.68 711.37,401.64 712.71,431.82 712.64,432.29 712.23,432.38 706.41,437.28 703.86,437.59 700.07,438.27 697.40,439.37 693.70,439.75 708.28,433.22 706.77,431.06 703.26,430.74 701.68,430.50 699.52,429.32 697.55,427.43 696.72,424.92 695.19,423.93 705.62,431.72 704.61,430.65 704.42,429.67 702.73,429.27 702.56,430.34 701.01,429.65 700.34,430.19 699.09,430.70 704.33,431.89 703.76,431.83 703.36,431.74 702.46,432.38 700.86,434.30 699.93,438.12 699.41,435.46 697.63,439.52 673.43,443.45 673.33,445.35 672.20,447.25 671.74,448.09 696.48,446.79 669.49,453.50 695.70,450.80 695.57,453.53 672.22,447.69 672.39,449.35 671.85,451.61 672.14,452.84 671.90,454.91 687.94,467.93 687.78,471.21 687.45,472.17 668.86,478.66 668.38,480.76 668.87,479.33 668.83,483.69 668.53,483.55 668.09,482.94 667.60,482.09 668.28,484.06 668.69,484.42 669.24,484.42 669.22,483.26 670.05,482.54 670.00,482.49 669.43,482.25 668.78,483.32 669.82,481.34 700.50,445.13 700.47,445.04 701.01,444.77 701.40,444.16 701.80,443.14 702.83,442.05 703.18,442.51 703.56,442.90 673.20,453.07 673.21,454.01 672.59,455.31 671.25,456.37 670.30,456.88 670.38,457.64 696.69,448.41 666.32,458.58 663.36,484.17 663.13,484.24 662.81,484.34 661.68,485.67 661.34,484.17 691.58,456.44 682.03,459.33 680.90,463.23 648.81,506.63 647.65,508.22 645.61,509.32 643.57,513.70 642.41,514.54 641.13,516.68 639.30,519.03 639.10,519.70 638.42,521.87 639.92,523.73 638.40,522.60 639.76,526.46 636.69,525.32 637.18,527.37 635.96,528.56 635.06,529.27 635.08,528.67 636.14,528.78 635.49,528.37 635.05,528.87 634.45,528.25 633.82,527.32 633.68,527.62 631.30,526.94 627.92,524.00 628.21,523.45 627.99,523.87 628.23,523.50 627.04,521.40 630.83,521.14 625.64,516.28 621.92,515.37 621.78,514.47 622.95,513.20 623.58,510.48 621.49,507.65 622.59,509.62 622.14,508.11 622.21,507.83 622.32,507.16 623.55,503.17 623.68,503.24 623.84,502.41 623.74,503.11 623.68,502.74 624.21,500.48 623.70,500.35 623.84,500.59 623.82,498.90 624.34,498.19 624.48,497.79 624.34,497.31 623.86,497.85 623.06,496.27 623.02,496.31 623.05,496.37 622.52,496.38 622.53,496.60 622.53,496.46 622.31,496.15 622.18,496.23 622.23,496.25 621.23,495.74 620.56,496.44 619.86,496.23 619.08,496.20 614.66,496.78 613.23,498.47 611.92,499.92 609.74,500.44 603.40,499.15 599.39,501.32 596.03,501.85 593.94,501.99 590.79,502.13 587.13,504.33 582.77,506.20 585.07,510.70 582.84,511.61 582.38,511.69 580.39,513.26 576.58,512.22 571.88,513.76 565.75,518.18 560.58,525.27 558.54,527.49 554.63,529.59 551.63,530.31 547.79,530.91 544.91,531.46 542.78,533.65 540.83,538.64 537.90,539.94 535.91,540.23 533.76,539.90 530.29,538.27 527.31,537.73 525.78,536.64 522.46,536.35 520.08,534.27 518.58,534.10 515.80,533.28 514.17,531.02 511.60,529.48 510.58,528.00 509.12,524.83 508.67,523.77 509.21,523.00 508.91,522.06 508.85,520.50 507.93,518.77 505.88,517.41 505.48,516.95 500.30,514.59 498.48,513.87 499.29,513.59 498.92,512.57 497.15,512.01 495.98,512.61 494.03,512.18 489.48,512.25 488.20,512.92 486.15,514.18 482.64,513.70 477.99,512.90 473.34,513.80 469.91,515.11 468.40,517.38 465.16,518.31 461.30,519.66 458.19,520.36 454.72,522.27 450.01,524.62 446.49,527.32 441.88,529.34 433.03,530.97 433.20,531.26 433.25,531.61 431.84,532.84 426.43,534.55 418.87,537.49 413.23,539.84 409.12,540.05 408.87,541.83 407.91,542.75 407.59,541.58 405.41,541.73 401.56,542.62 398.84,543.08 396.00,543.21 393.65,542.97 392.97,543.14 392.29,543.26 390.31,541.59 387.90,538.66 384.61,535.99 381.57,534.36 379.99,532.22 379.25,531.37 377.62,529.00 375.13,526.39 374.19,525.15 373.02,523.81 371.71,522.14 366.90,519.16 367.09,518.88 367.09,518.62 366.28,517.41 363.75,515.48 360.97,514.12 358.01,513.80 356.18,512.77 356.98,511.86 356.29,511.50 355.27,511.33 352.99,511.29 350.21,511.08 346.67,511.53 342.47,511.80 334.83,511.61 331.20,511.21 327.96,511.11 327.85,512.53 325.50,513.04 326.64,513.65 324.61,515.53 308.47,516.57 304.21,517.97 299.72,518.27 295.23,517.80 291.53,517.99 287.90,518.00 286.08,518.12 277.62,518.41 274.81,518.35 273.44,517.91 272.49,517.37 270.82,515.65 270.67,515.26 268.73,513.21 266.05,513.03 266.69,512.82 266.57,513.13 266.37,513.20 267.49,512.51 268.94,511.87 269.21,509.97 259.96,502.44 259.87,501.22 259.38,500.42 257.52,499.12 255.27,498.33 254.11,497.29 252.94,495.71 252.79,495.10 250.37,494.75 250.05,494.66 250.25,494.22 247.77,493.01 246.16,492.58 243.17,491.89 241.03,492.40 240.60,492.02 238.76,491.70 236.97,492.16 233.90,493.09 229.91,493.25 226.11,494.70 221.69,495.19 218.64,496.02 215.06,497.03 211.70,497.82 208.18,498.64 202.77,499.04 197.57,498.83 189.19,500.65 185.00,501.15 181.38,501.74 178.96,501.60 175.71,502.36 172.74,503.05 169.20,502.70 163.38,501.20 162.51,501.22 159.94,500.39 156.73,500.70 153.45,500.20 152.34,501.38 151.51,500.20 150.40,496.63 149.51,495.30 150.12,494.94 150.01,494.20 149.54,493.62 149.15,493.61 149.20,492.26 149.61,490.42 146.53,485.88 145.99,485.75 145.52,483.76 145.58,482.21 144.93,481.97 144.49,481.35 143.94,481.33 142.98,473.38 142.82,473.05 142.62,472.91 142.81,471.81 142.81,470.54 143.06,468.39 142.28,466.21 140.31,463.26 139.38,462.85 138.07,460.54 135.46,457.84 132.51,454.68 129.97,453.47 128.32,453.25 127.72,452.11 125.74,451.34 124.01,450.69 119.86,449.19 114.40,448.03 110.81,447.54 107.63,447.54 102.90,445.78 99.73,445.14 97.26,444.66 93.96,443.44 91.48,442.23 87.68,442.42 84.53,441.66 84.72,440.28 81.40,438.15 81.10,437.85 80.67,437.10 80.66,436.51 80.36,436.56 80.38,436.54 80.75,436.19 79.68,435.74 80.06,435.38 81.19,432.38 81.77,431.60 82.23,429.68 82.78,428.72 84.44,427.74 85.91,427.06 87.29,426.63 88.95,426.98 90.02,426.72 90.45,426.62 90.40,426.30 90.15,426.11 89.92,425.34 90.76,425.97 93.31,425.21 93.43,424.69 93.59,424.09 93.59,423.64 94.09,423.30 94.62,422.50 95.91,422.46 96.91,422.64 97.23,422.89 96.83,423.13 95.07,421.60 95.01,421.05 95.11,421.25 95.08,421.81 94.90,422.15 94.94,422.11 95.44,422.46 95.73,422.85 95.43,421.71 95.61,421.42 96.59,422.06 97.27,424.11 98.02,426.75 98.63,428.11 98.68,427.40 97.94,426.15 97.40,425.28 97.16,425.06 97.29,425.24 97.64,425.57 98.12,424.65 98.30,423.89 98.81,423.64 100.50,423.26 103.11,421.93 98.62,414.67 99.47,414.42 99.95,414.40 100.36,410.83 99.69,403.27 96.03,398.23 93.03,395.07 92.08,393.20 89.48,391.07 87.70,387.71 86.77,384.00 84.95,379.73 83.09,374.83 80.07,371.31 76.75,370.57 74.00,367.27 73.37,366.61 72.43,365.45 72.73,365.62 70.93,364.69 66.12,355.47 63.98,350.25 63.15,347.85 62.13,346.31 61.51,344.48 61.16,343.59 61.51,341.75 61.34,340.50 62.05,339.71 64.79,337.08 65.46,337.42 65.92,337.33 66.74,336.68 68.19,336.87 69.53,338.05 70.18,336.21 70.17,336.58 70.48,335.54 72.41,333.55 74.03,331.63 75.97,328.53 76.86,326.87 77.93,325.47 79.00,324.08 79.37,322.73 79.03,321.19 77.84,319.40 76.89,315.89 77.22,315.20 77.06,313.56 76.62,308.35 76.59,304.66 75.02,300.49 73.54,298.22 72.18,293.31 69.87,291.45 69.33,288.06 67.68,282.58 65.20,277.50 63.64,273.74 62.73,267.99 60.21,266.02 58.36,262.11 57.16,258.30 55.56,254.30 54.71,250.51 54.10,247.42 53.27,245.10 53.27,240.22 52.98,238.33 52.80,236.56 53.38,235.00 54.56,233.52 55.29,232.51 56.30,231.60 57.10,229.78 58.47,230.10 59.42,228.48 60.66,228.18 63.14,228.87 63.97,228.89 63.10,227.47 63.26,226.34 64.11,226.11 66.47,226.29 68.63,226.48 68.96,226.83 69.39,227.27 70.98,226.74 71.87,226.10 72.16,226.18 72.39,226.57 72.73,226.57 72.80,226.71 73.25,226.03 73.44,226.13 73.10,225.10 73.47,224.57 73.68,223.50 75.07,222.45 74.92,222.27 74.71,221.46 74.48,220.46 73.90,218.60 73.37,216.80 73.88,214.28 73.10,208.28 73.17,205.73 73.14,202.03 72.71,198.30 71.82,194.31 71.01,189.29 70.64,184.63 70.54,179.69 69.66,178.30 67.78,173.63 66.45,169.44 64.54,164.24 61.53,159.79 59.30,154.28 58.17,152.43 56.75,147.31 55.97,142.91 55.81,139.25 55.56,135.51 54.88,133.32 54.61,129.61 54.75,127.72 54.30,126.15 54.24,124.25 54.39,123.46 55.43,122.20 54.93,121.44 54.84,120.80 56.55,119.32 57.46,118.45 58.99,118.22 60.46,119.25 63.27,119.29 66.01,120.12 66.44,120.73 67.53,121.90 68.86,123.17 69.80,123.86 69.24,124.77 69.83,124.30 73.10,124.66 74.01,124.85 74.53,124.87 75.43,125.16 75.47,124.99 76.18,125.09 75.68,124.31 77.69,127.24 78.60,129.02 79.32,129.96 79.69,130.16 80.02,130.69 80.14,130.08 81.62,127.80 82.18,126.10 82.84,125.77 85.13,127.77 86.54,127.87 86.68,127.65 86.02,128.47 88.12,128.87 92.10,129.63 93.45,130.17 91.49,130.04 92.49,129.39 92.61,129.77 92.48,129.75 92.51,129.36 92.37,129.37 93.26,129.02 93.86,129.08 94.60,128.95 94.87,128.64 94.72,128.29 95.64,127.94 96.89,126.49 97.40,125.03 97.85,123.07 98.70,121.19 101.24,119.21 102.35,117.39 103.38,115.37 104.31,113.07 105.32,110.29 107.55,105.54 109.52,102.81 110.71,99.25 111.29,94.70 111.71,91.87 112.08,88.40 112.75,84.94 114.42,81.13 116.67,77.10 118.22,73.50 119.20,69.77 121.01,66.17 121.87,63.92 124.31,62.07 125.44,59.61 126.97,57.19 128.15,55.41 130.13,53.75 132.71,53.16 134.23,53.46 135.58,53.44 136.45,54.03 137.50,54.73 139.63,54.87 141.71,55.63 144.52,54.56 147.15,56.38 151.16,58.67 155.61,60.76 156.72,62.25 163.39,64.18 165.46,64.28 167.29,64.09 169.12,64.02 171.59,63.80 174.02,66.65 177.20,68.93 182.62,70.82 184.15,70.20 186.72,71.38 188.80,71.43 191.89,72.16 192.19,73.36 194.17,73.57 195.10,72.53 196.38,71.32 199.90,71.12 202.18,70.85 204.40,70.61 207.38,70.64 210.26,69.74 213.89,69.85 216.95,69.87 221.12,67.78 225.95,65.77 228.80,64.79 232.95,62.83 237.12,61.31 241.91,59.65 247.08,58.71 251.16,57.81 255.36,55.75 260.61,53.48 263.29,52.37 267.26,51.06 270.06,49.08 273.87,48.03 277.69,47.60 280.94,46.62 283.24,45.75 285.29,45.00 288.30,45.25 291.47,45.36 291.61,46.64 295.30,47.11 296.97,47.72 298.48,49.15 301.21,50.97 303.44,52.12 305.61,54.60 307.94,56.28 310.26,58.24 311.27,59.95 315.06,62.56 317.80,66.45 319.52,67.91 321.67,70.63 323.80,73.20 326.19,75.13 328.51,76.15 332.52,78.67 335.49,81.45 338.40,83.15 343.01,85.75 342.85,86.56 343.75,87.35 343.94,87.17 345.31,87.54 347.68,88.43 351.74,90.36 355.02,91.76 358.49,92.27 362.37,95.21 364.70,95.21 366.98,95.06 369.70,95.26 373.38,95.96 376.67,96.48 380.29,96.93 383.69,96.85 386.06,96.72 390.07,97.71 391.23,96.47 392.02,96.88 393.35,95.26 396.85,96.06 400.45,96.65 404.01,96.33 406.55,96.51 408.16,96.44 409.98,98.35 411.82,98.69 413.28,99.43 414.44,100.82 415.26,101.88 416.50,102.76 417.80,104.05 419.73,105.59 420.73,107.40 421.66,110.04 421.99,111.71 422.97,112.91 424.43,114.47 426.00,116.24 427.60,118.40 429.39,120.87 431.66,122.65 433.46,122.94 435.58,123.64 437.74,124.61 439.35,126.28 441.61,127.09 443.74,128.06 445.38,128.59 447.37,129.06 450.10,129.10 451.88,130.39 452.31,130.88 454.97,130.63 458.06,130.33 461.12,130.74 464.17,130.60 467.54,129.67 471.27,130.22 475.24,129.71 479.26,128.51 483.60,126.89 488.41,125.17 492.83,124.48 496.97,124.80 502.39,123.75 507.82,121.60 511.28,120.74 515.64,118.92 519.29,117.77 523.96,117.40 528.58,116.67 533.36,115.18 536.71,114.10 540.29,113.20 543.66,113.20 547.85,112.27 548.54,112.43 549.54,112.69 552.04,113.68 555.14,114.49 558.27,115.59 561.30,116.60 564.02,117.52 565.95,119.14 567.20,119.48 568.24,119.72 568.70,119.80 570.79,122.20 572.26,124.77 573.54,126.72 574.94,127.71 576.56,128.73 577.94,130.34 579.88,132.22 580.61,133.23 582.46,134.56 584.94,136.07 587.50,137.00 590.36,138.34 592.11,139.80 593.89,140.90 596.10,141.76 598.58,141.72 600.66,142.14 601.64,142.73 603.33,143.76 604.87,144.58 607.49,145.93 610.80,145.87 614.41,146.35 618.08,146.35 621.94,146.02 626.32,145.02 631.24,146.41 634.96,146.62 639.77,145.91 643.80,145.41 647.69,144.57 652.78,144.29 656.90,143.47 661.86,142.32 663.76,142.28 667.03,142.51 670.09,142.55 671.39,142.59 674.33,142.84 677.47,143.47 678.97,144.12 679.33,145.01 680.75,145.00 681.87,146.42 682.44,147.47 682.93,148.59 683.11,149.89 683.19,150.72 683.44,151.69 682.78,152.95 682.83,154.56 682.59,154.36 682.56,155.57 681.97,156.61 681.52,158.02 680.77,158.69 680.17,159.18 680.15,159.48 681.14,159.88 682.36,160.48 682.21,162.15 682.35,163.86 682.59,165.38 683.65,166.35 684.84,166.98 686.15,167.04 687.57,167.20 689.19,167.76 690.65,168.29 692.68,168.32 694.59,168.73 696.37,169.26 699.76,169.99 702.77,170.05 706.48,169.37 708.71,170.27 712.19,170.56 715.78,170.12 718.83,170.10 721.74,170.01 725.27,170.36 728.97,170.91 732.01,171.11 734.67,170.93 737.22,171.26 739.58,171.27 741.10,171.38 743.28,170.82 745.61,170.20 746.44,170.86 747.20,169.51 747.72,168.89 747.74,168.90 746.99,169.39 745.87,168.77 745.52,168.49 744.97,168.65 743.74,168.10 743.23,167.33 743.59,166.68 742.33,166.41 740.86,165.79 740.65,165.48 739.83,165.57 739.00,165.13 738.10,164.39 737.65,164.38 737.62,164.64 738.13,164.42 737.62,164.26 737.23,165.38 736.79,165.68 736.99,164.78 737.00,164.68 736.74,164.53 736.87,165.09 736.70,165.45 734.87,165.99 733.70,166.25 733.42,165.41 732.87,165.32 732.02,165.51 730.88,165.72 730.86,165.41 730.90,164.96 730.59,164.56 730.55,162.98 730.96,163.10 730.96,162.92 730.57,162.84 730.30,162.81 730.39,162.63 730.04,161.91 730.21,161.22 730.34,161.23 729.37,161.22 729.72,161.18 729.78,160.95 729.52,160.47 729.31,160.54 728.40,160.18 727.76,159.33 729.04,157.14 728.79,156.99 728.40,156.71 728.45,156.70 728.15,156.55 727.94,156.43 727.93,156.37 728.31,155.50 727.97,154.17 728.06,155.01 728.62,154.31 728.32,153.82 727.77,153.70 727.88,152.83 727.99,152.79 728.17,153.29 729.58,153.51 729.52,154.18 729.98,154.21 730.16,153.84 729.94,154.03 730.52,154.26 730.71,154.87 730.70,156.26 730.74,157.54 731.27,159.19 730.65,160.84 731.29,162.58 731.49,164.53 732.38,167.37 733.09,169.96 733.30,172.68 733.23,177.23 734.28,180.59 734.83,184.27 735.79,187.54 737.38,190.59 738.81,193.90 740.54,197.92 742.26,201.86 744.42,204.08 746.73,208.15 748.62,212.30 751.05,215.89 753.27,219.62 754.75,223.35 757.02,226.73 759.04,229.76 760.23,232.94 761.58,236.11 762.11,240.50 763.93,244.59 763.43,247.89 762.57,250.48 761.52,253.21 761.00,255.62 759.25,258.55 756.74,260.62 754.73,262.90 752.18,265.66 750.11,268.15 748.65,270.90 746.19,273.39 741.48,275.21 739.31,278.24 737.51,281.20 735.38,282.96 733.16,285.06 731.00,288.63 728.75,291.04 727.14,293.90 726.59,296.88 725.47,299.63 723.95,303.38 722.93,306.03 720.48,308.93 718.74,311.84 718.08,315.27 716.85,319.13 715.64,322.73 714.61,327.47 712.21,332.93 711.27,337.88 711.01,341.85 711.47,347.36 711.00,352.94 710.27,357.60 710.26,363.04 710.77,368.33 711.29,373.81 711.07,378.79 710.11,383.39 710.41,387.59 710.20,391.07 710.96,396.30 710.62,400.00 710.92,402.81 710.66,404.76 708.97,407.48 706.78,410.63 704.65,412.20 702.87,413.62 701.03,414.36 699.55,415.68 697.19,414.71 694.16,417.33 691.78,417.55 689.59,418.14 687.36,418.00 685.57,418.34 683.43,419.48 682.06,420.21 680.58,420.95 679.55,421.24 678.97,421.69 677.28,420.33 676.40,419.80 675.68,419.21 675.05,421.25 674.70,422.17 673.40,422.52 672.76,423.14 671.68,423.66 670.14,424.88 668.88,426.86 667.21,427.52 665.68,431.62 664.26,434.73 662.45,437.59 660.33,439.34 657.81,442.67 654.76,444.47 652.40,448.58 650.53,452.84 649.32,456.24 648.13,457.58 644.79,458.00 642.73,458.77 641.50,460.01 640.38,460.92 640.22,460.73 640.18,460.43 639.20,460.54 638.72,461.02 638.16,461.89 638.03,462.17 638.53,462.21 639.73,460.78 640.45,460.37 641.03,459.80 641.21,459.88 641.95,459.78 642.43,459.66 644.09,457.64 644.80,455.03 645.66,454.81 646.62,454.64 647.27,454.93 648.02,452.56 649.26,453.87 649.60,453.85 650.16,453.92 651.67,453.53 652.75,452.83 653.33,452.10 654.16,451.76 654.83,451.94 655.11,451.94 656.34,453.74 657.53,455.54 657.77,455.58 658.12,455.62 658.32,455.56 658.64,455.46 658.82,455.54 659.09,455.58 659.43,455.61 658.72,455.17 659.52,455.50 659.79,455.45 659.17,456.48 659.25,456.75 658.62,456.92 658.20,457.42 658.44,458.73 659.09,463.66 658.47,465.87 658.08,467.17 657.43,468.43 655.16,472.87 653.31,476.62 652.55,478.67 650.87,481.68 648.81,481.10 647.80,487.76 646.43,492.14 645.35,495.28 642.61,497.73 639.54,501.72 638.10,507.46 636.05,511.54 634.09,515.03 632.38,519.47 629.20,524.47 627.58,527.00 626.02,529.91 624.07,533.01 622.01,535.58 620.35,539.89 619.57,539.83 618.08,540.84 616.48,542.00 614.92,542.51 611.18,544.36 608.91,543.70 606.92,542.23 604.54,541.85 602.67,540.78 600.83,538.97 598.69,537.70 596.74,536.63 594.62,535.64 591.60,533.53 589.29,531.07 587.43,528.88 584.01,527.41 580.85,527.02 577.80,525.78 573.34,525.17 570.44,524.18 568.25,523.77 564.13,523.32 561.46,523.22 558.26,523.61 556.23,523.60 553.77,523.38 550.96,523.67 548.31,523.66 545.32,525.37 542.18,526.44 538.11,525.30 534.11,528.88 531.59,530.66 529.05,532.70 524.29,535.75 519.52,538.79 514.72,541.20 510.09,543.31 505.29,546.78 501.88,549.44 496.98,550.51 493.08,552.96 488.54,556.90 485.13,560.23 481.02,563.41 475.77,566.10 472.35,567.61 469.82,568.46 463.24,570.25 460.63,572.24 457.61,573.52 454.08,574.54 451.07,575.00 449.32,574.58 446.04,572.80 445.27,571.24 443.21,570.68 438.45,567.41 436.07,565.45 435.32,564.69 432.31,563.55 428.96,560.86 426.08,559.06 423.58,557.53 421.91,555.62 419.84,554.71 417.06,553.08 413.30,551.20 409.97,550.21 407.33,548.10 404.76,547.26 402.24,546.80 400.97,545.46 399.00,543.78 396.53,543.22 393.89,542.08 391.69,542.04 388.98,540.69 385.98,540.21 384.01,539.13 382.67,538.10 378.10,538.43 373.28,539.48 367.72,540.83 362.46,541.99 356.75,542.88 351.73,543.59 347.51,544.46 342.10,544.43 337.75,546.48 333.87,548.11 328.24,549.10 324.44,550.35 319.67,553.28 315.55,554.89 312.43,555.42 307.68,557.16 304.50,557.61 302.00,558.08 299.52,558.51 297.47,558.12 294.41,557.96 291.94,556.19 290.01,554.74 288.80,552.26 288.58,550.95 286.42,548.38 283.38,546.84 283.08,545.97 281.82,543.19 280.75,540.85 277.99,538.23 274.70,536.89 272.84,536.01 271.60,534.11 272.08,530.97 271.76,529.04 270.65,527.73 268.33,525.67 265.64,524.46 262.33,524.16 260.79,523.59 259.29,522.80 258.33,522.16 257.34,521.60 255.59,520.82 256.11,519.66 254.04,518.88 252.38,518.54 252.22,518.66 249.85,517.79 246.56,516.56 243.93,515.25 240.09,514.92 235.89,514.40 232.66,514.77 226.59,515.49 223.63,516.20 220.15,516.68 214.99,516.53 210.17,515.69 204.48,515.91 198.85,516.80 194.31,517.41 190.18,518.61 184.38,517.40 178.94,520.39 173.74,521.83 170.50,522.50 167.15,522.81 162.94,523.48 159.50,523.63 156.71,522.89 153.59,523.17 152.16,524.20 151.26,520.80 149.39,519.79 147.98,517.41 146.96,515.66 145.46,514.44 143.82,512.37 143.21,510.38 142.60,507.01 141.75,504.10 140.95,505.09 140.18,501.30 140.33,499.39 140.20,496.88 139.03,494.48 137.46,492.02 136.01,489.13 135.75,485.85 135.46,482.96 135.17,481.89 134.02,480.75 133.45,479.09 132.73,480.16 132.14,480.24 130.89,479.95 130.14,479.02 128.62,475.21 127.81,471.43 127.59,470.92 126.60,471.56 126.16,470.93 125.45,468.97 123.97,467.69 122.92,466.52 120.89,467.23 118.10,467.76 115.17,467.78 114.04,467.33 113.24,466.44 108.81,467.44 107.05,469.57 105.48,468.98 104.68,469.22 103.17,469.40 100.82,468.98 99.10,468.87 96.91,469.30 94.55,469.62 93.42,468.37 90.95,468.95 89.21,470.33 87.87,469.39 86.21,470.17 85.34,471.13 85.17,470.66 85.03,470.26 85.16,469.21 88.71,467.45 90.17,465.44 90.09,463.62 90.63,461.29 91.13,459.02 92.31,457.07 93.28,455.07 93.76,452.03 95.15,448.23 96.49,445.17 97.90,445.11 97.34,442.61 97.99,441.45 97.69,441.66 97.58,441.70 97.49,441.11 97.70,438.17 98.45,434.72 99.63,426.92 99.65,425.48 99.79,423.93 98.98,422.73 96.70,421.01 94.03,420.56 93.30,420.13 94.82,417.71 93.96,415.33 91.94,409.98 89.39,404.00 86.11,398.55 82.75,393.23 79.20,391.17 75.24,388.47 72.11,386.13 69.14,382.36 64.50,377.47 60.88,373.64 58.70,370.45 56.68,367.42 53.97,364.23 51.72,360.55 48.17,357.23 45.43,355.01 45.00,352.22 45.99,351.88 47.16,350.97 47.70,349.85 48.09,347.89 49.95,345.63 50.14,343.07 50.46,341.92 52.33,341.46 53.59,339.51 53.36,337.28 54.87,337.63 56.32,336.51 56.65,333.49 57.29,329.98 59.59,327.35 61.97,326.75 62.90,329.17 65.56,325.57 70.09,320.86 69.75,320.88 69.93,318.16 70.63,315.58 70.86,314.31 70.99,312.03 71.82,310.46 72.71,308.36 74.09,307.25 75.35,303.59 75.70,300.71 76.34,297.72 76.27,296.00 76.20,294.41 76.62,290.87 77.14,286.48 77.58,281.97 77.88,279.83 77.66,276.44 77.28,271.93 76.14,267.44 74.73,262.78 72.33,257.60 70.97,252.58 69.70,246.08 68.40,241.18 66.88,235.33 65.49,231.52 63.75,227.77 61.96,224.53 61.29,220.12 61.39,216.34 60.81,213.98 60.08,212.38 59.82,210.02 59.91,206.64 59.87,204.15 60.00,202.09 60.30,200.32 60.79,199.12 61.97,196.89 63.96,196.09 64.05,194.77 65.15,193.99 67.26,193.44 69.32,191.70 70.33,189.23 72.58,186.39 75.18,184.22 77.84,182.67 79.56,181.64 81.34,179.05 82.36,177.57 84.06,176.58 86.47,175.73 88.34,175.31 89.72,174.32 90.97,172.79 92.24,170.77 93.60,169.47 94.61,168.80 94.59,167.30 94.97,167.49 95.68,165.78 97.42,164.01 98.28,161.81 99.00,160.76 99.14,160.03 99.23,158.72 99.04,157.15 98.27,155.34 97.44,155.06 97.17,153.96 97.54,153.53 97.83,152.48 97.80,150.44 95.86,148.32 94.42,145.76 93.21,144.36 92.36,143.52 92.66,142.87 92.05,140.35 91.84,139.54 90.96,138.84 89.82,137.27 88.80,135.26 87.48,133.46 86.85,132.39 86.33,130.91 85.25,128.83 83.97,126.82 83.95,125.76 83.96,125.77 85.61,125.20 87.88,124.78 89.56,123.36 92.31,122.73 94.98,121.44 98.09,121.15 101.04,121.89 103.54,123.75 106.01,124.61 111.13,126.15 114.44,126.33 116.93,126.12 119.87,125.83 123.52,125.41 126.32,124.11 128.67,124.09 130.49,123.72 132.48,124.14 135.84,124.76 137.16,124.01 139.79,123.46 141.54,123.35 143.87,123.91 146.18,124.53 148.02,125.28 149.73,125.21 150.98,125.22 154.13,125.34 156.88,124.29 158.63,121.67 160.46,119.39 162.18,117.42 164.74,115.56 167.51,113.96 169.81,111.78 172.60,108.22 176.09,104.21 180.42,100.52 182.01,95.14 186.76,93.62 190.73,90.39 192.50,86.48 195.16,82.81 198.81,78.76 201.80,74.61 205.42,70.09 208.64,66.67 211.57,62.90 214.52,57.69 218.91,56.65 221.97,54.75 225.59,52.90 228.57,50.45 231.68,49.92 234.84,49.47 239.13,48.99 243.15,49.64 245.68,50.50 249.90,52.95 250.93,52.94 253.42,54.18 256.97,54.64 260.73,56.89 264.63,58.86 268.24,61.11 272.65,62.40 275.19,64.15 279.13,65.88 283.76,67.32 285.46,68.13 287.46,67.94 291.43,69.07 294.52,70.77 297.21,71.67 299.58,71.93 302.56,72.92 304.20,73.45 307.01,72.18 308.48,72.77 310.25,74.06 310.64,73.90 312.29,74.04 313.81,74.68 316.39,75.84 318.66,76.91 321.56,77.19 324.57,77.88 327.44,78.62 330.21,79.08 333.22,77.78 336.50,78.07 339.94,78.34 343.54,78.42 347.79,77.65 352.46,77.08 357.22,76.40 363.60,76.18 367.64,75.04 372.78,73.73 377.43,72.51 382.84,71.03 388.64,70.00 393.90,69.11 398.20,68.02 402.73,65.90 406.24,64.07 410.85,64.56 413.15,63.94 415.89,63.29 418.66,64.91 421.88,65.62 424.12,67.15 426.47,69.01 428.09,70.07 429.72,72.47 432.14,75.15 434.33,78.27 435.61,79.38 438.07,80.94 439.90,83.29 442.24,85.31 445.23,87.50 447.92,89.31 451.06,91.01 453.49,91.95 456.42,93.66 458.09,95.39 460.54,96.81 463.28,98.24 465.62,99.64 468.24,101.24 470.38,102.23 473.02,102.86 475.71,103.74 478.46,104.83 480.92,105.44 484.70,105.28 488.13,105.90 491.27,105.88 494.90,105.92 499.64,105.67 503.89,105.25 509.36,105.07 514.24,105.04 520.44,103.86 526.00,102.85 531.44,101.14 536.16,99.95 540.72,98.74 544.79,97.34 549.59,94.56 554.72,92.51 558.52,91.21 561.98,89.33 566.24,86.71 570.23,85.79 573.04,84.88 575.67,84.26 579.03,83.79 582.18,83.00 585.39,82.78 588.20,82.70 591.05,83.50 593.57,85.03 597.14,86.91 599.02,88.10 602.35,90.35 604.50,91.00 606.84,92.51 608.35,95.63 609.02,98.38 610.44,99.98 611.18,102.33 612.47,105.15 617.33,107.87 616.87,111.37 618.69,113.96 619.80,117.96 621.64,121.06 623.45,123.81 625.10,126.84 626.66,129.27 628.13,131.08 629.37,133.34 630.89,136.06 632.64,138.51 634.04,139.34 634.43,140.72 635.74,142.40 636.46,143.72 638.09,145.37 639.77,147.07 641.46,147.97 643.53,148.60 646.98,150.11 649.88,150.34 653.48,152.43 658.31,153.54 663.70,154.96 668.97,155.84 674.95,156.53 681.80,156.55 688.13,157.17 695.28,156.82 701.86,158.66 709.81,159.61 716.90,160.71 723.03,161.14 729.31,161.34 734.67,160.81 739.43,160.69 743.58,160.25 747.13,159.88 750.72,159.80 753.95,158.90 756.98,158.91 758.31,158.50 759.95,158.37 761.10,157.71 762.36,157.28 762.94,157.26 763.39,157.12 763.79,156.32 764.80,156.70 764.79,156.63 765.05,156.65 765.07,156.87 764.64,157.15 763.72,156.10 763.62,155.99 763.92,155.88 764.87,155.54 764.53,154.86 763.40,154.66 761.95,155.29 760.89,155.83 759.87,155.38 758.91,154.74 758.44,154.37 756.97,153.93 755.99,153.44 754.93,153.59 753.41,153.30 752.29,152.39 750.97,152.08 750.31,151.70 749.77,151.14 747.93,151.71 747.18,152.29 745.83,152.54 745.41,152.55 745.30,152.29 744.45,152.72 743.24,153.65 743.06,153.71 743.59,154.41 743.82,154.58 744.65,155.29 745.61,156.00 746.24,156.70 747.02,157.32 748.46,157.92 750.58,158.11 751.89,158.39 754.69,157.83 756.58,157.75 758.12,158.20 759.69,157.94 761.07,158.35 763.23,158.91 765.08,159.63 765.95,159.96 766.28,160.12 768.46,160.42 769.66,159.73 770.57,159.22 770.44,158.87 769.85,158.06 769.36,156.69 768.42,156.70 766.76,155.97 765.67,155.20 763.99,154.40 762.47,153.72 761.23,151.87 761.98,151.68 760.34,151.54 757.43,150.27 755.60,149.71 754.69,149.47 752.86,149.34 750.88,148.36 749.00,147.98 747.71,148.51 745.25,148.51 742.86,149.27 739.97,148.97 737.66,150.49 735.78,150.00 735.79,149.20 734.48,148.36 733.19,147.90 731.82,147.96 730.80,147.88 730.18,148.08 729.50,148.01 728.83,147.87 727.03,148.18 725.69,148.75 725.45,148.99 725.35,149.30 724.89,149.20 724.46,149.56 726.74,148.70 725.97,148.56 725.70,149.23 725.31,149.56 725.34,149.61 725.61,149.54 724.88,149.58 724.65,150.26 724.99,149.83 724.77,150.48 725.11,150.61 725.13,150.69 724.52,150.61 724.55,150.89 724.97,150.96 724.98,151.76 723.83,152.12 723.24,152.37 723.44,152.56 723.38,152.52 723.18,152.65 723.62,152.49 723.89,152.64 723.30,153.11 722.87,153.21 722.93,152.66 722.26,152.35 722.16,152.36 722.00,151.97 721.62,151.75 722.07,151.79 721.85,151.94 721.92,151.80 722.02,151.78 722.08,152.27 722.25,152.05" fill="none" stroke="#222" stroke-width="1.1" opacity="0.65"/><circle cx="724.49" cy="215.74" r="2.2" fill="rgb(255,0,0)"/><circle cx="839.20" cy="475.77" r="2.2" fill="rgb(255,3,0)"/><circle cx="769.51" cy="461.16" r="2.2" fill="rgb(255,5,0)"/><circle cx="685.84" cy="281.79" r="2.2" fill="rgb(255,8,0)"/><circle cx="704.89" cy="272.70" r="2.2" fill="rgb(255,11,0)"/><circle cx="713.32" cy="303.31" r="2.2" fill="rgb(255,14,0)"/><circle cx="716.98" cy="307.13" r="2.2" fill="rgb(255,16,0)"/><circle cx="720.38" cy="342.40" r="2.2" fill="rgb(255,19,0)"/><circle cx="720.38" cy="341.35" r="2.2" fill="rgb(255,22,0)"/><circle cx="715.46" cy="347.07" r="2.2" fill="rgb(255,24,0)"/><circle cx="716.16" cy="358.34" r="2.2" fill="rgb(255,27,0)"/><circle cx="714.83" cy="370.92" r="2.2" fill="rgb(255,30,0)"/><circle cx="718.99" cy="404.37" r="2.2" fill="rgb(255,33,0)"/><circle cx="716.40" cy="397.46" r="2.2" fill="rgb(255,35,0)"/><circle cx="712.23" cy="432.38" r="2.2" fill="rgb(255,38,0)"/><circle cx="706.77" cy="431.06" r="2.2" fill="rgb(255,41,0)"/><circle cx="705.62" cy="431.72" r="2.2" fill="rgb(255,43,0)"/><circle cx="699.09" cy="430.70" r="2.2" fill="rgb(255,46,0)"/><circle cx="699.41" cy="435.46" r="2.2" fill="rgb(255,49,0)"/><circle cx="669.49" cy="453.50" r="2.2" fill="rgb(255,52,0)"/><circle cx="671.90" cy="454.91" r="2.2" fill="rgb(255,54,0)"/><circle cx="668.83" cy="483.69" r="2.2" fill="rgb(255,57,0)"/><circle cx="669.22" cy="483.26" r="2.2" fill="rgb(255,60,0)"/><circle cx="700.47" cy="445.04" r="2.2" fill="rgb(255,62,0)"/><circle cx="673.20" cy="453.07" r="2.2" fill="rgb(255,65,0)"/><circle cx="666.32" cy="458.58" r="2.2" fill="rgb(255,68,0)"/><circle cx="682.03" cy="459.33" r="2.2" fill="rgb(255,71,0)"/><circle cx="641.13" cy="516.68" r="2.2" fill="rgb(255,73,0)"/><circle cx="636.69" cy="525.32" r="2.2" fill="rgb(255,76,0)"/><circle cx="635.05" cy="528.87" r="2.2" fill="rgb(255,79,0)"/><circle cx="627.99" cy="523.87" r="2.2" fill="rgb(255,81,0)"/><circle cx="622.95" cy="513.20" r="2.2" fill="rgb(255,84,0)"/><circle cx="623.55" cy="503.17" r="2.2" fill="rgb(255,87,0)"/><circle cx="623.84" cy="500.59" r="2.2" fill="rgb(255,90,0)"/><circle cx="623.02" cy="496.31" r="2.2" fill="rgb(255,92,0)"/><circle cx="622.23" cy="496.25" r="2.2" fill="rgb(255,95,0)"/><circle cx="611.92" cy="499.92" r="2.2" fill="rgb(255,98,0)"/><circle cx="587.13" cy="504.33" r="2.2" fill="rgb(255,100,0)"/><circle cx="571.88" cy="513.76" r="2.2" fill="rgb(255,103,0)"/><circle cx="544.91" cy="531.46" r="2.2" fill="rgb(255,106,0)"/><circle cx="527.31" cy="537.73" r="2.2" fill="rgb(255,109,0)"/><circle cx="511.60" cy="529.48" r="2.2" fill="rgb(255,111,0)"/><circle cx="507.93" cy="518.77" r="2.2" fill="rgb(255,114,0)"/><circle cx="497.15" cy="512.01" r="2.2" fill="rgb(255,117,0)"/><circle cx="477.99" cy="512.90" r="2.2" fill="rgb(255,119,0)"/><circle cx="454.72" cy="522.27" r="2.2" fill="rgb(255,122,0)"/><circle cx="431.84" cy="532.84" r="2.2" fill="rgb(255,125,0)"/><circle cx="407.59" cy="541.58" r="2.2" fill="rgb(255,128,0)"/><circle cx="392.29" cy="543.26" r="2.2" fill="rgb(255,130,0)"/><circle cx="377.62" cy="529.00" r="2.2" fill="rgb(255,133,0)"/><circle cx="367.09" cy="518.62" r="2.2" fill="rgb(255,136,0)"/><circle cx="356.29" cy="511.50" r="2.2" fill="rgb(255,138,0)"/><circle cx="331.20" cy="511.21" r="2.2" fill="rgb(255,141,0)"/><circle cx="304.21" cy="517.97" r="2.2" fill="rgb(255,144,0)"/><circle cx="274.81" cy="518.35" r="2.2" fill="rgb(255,146,0)"/><circle cx="266.69" cy="512.82" r="2.2" fill="rgb(255,149,0)"/><circle cx="259.87" cy="501.22" r="2.2" fill="rgb(255,152,0)"/><circle cx="250.37" cy="494.75" r="2.2" fill="rgb(255,155,0)"/><circle cx="240.60" cy="492.02" r="2.2" fill="rgb(255,157,0)"/><circle cx="218.64" cy="496.02" r="2.2" fill="rgb(255,160,0)"/><circle cx="185.00" cy="501.15" r="2.2" fill="rgb(255,163,0)"/><circle cx="162.51" cy="501.22" r="2.2" fill="rgb(255,165,0)"/><circle cx="149.51" cy="495.30" r="2.2" fill="rgb(255,168,0)"/><circle cx="146.53" cy="485.88" r="2.2" fill="rgb(255,171,0)"/><circle cx="142.98" cy="473.38" r="2.2" fill="rgb(255,174,0)"/><circle cx="140.31" cy="463.26" r="2.2" fill="rgb(255,176,0)"/><circle cx="127.72" cy="452.11" r="2.2" fill="rgb(255,179,0)"/><circle cx="102.90" cy="445.78" r="2.2" fill="rgb(255,182,0)"/><circle cx="84.72" cy="440.28" r="2.2" fill="rgb(255,184,0)"/><circle cx="80.75" cy="436.19" r="2.2" fill="rgb(255,187,0)"/><circle cx="84.44" cy="427.74" r="2.2" fill="rgb(255,190,0)"/><circle cx="90.15" cy="426.11" r="2.2" fill="rgb(253,192,0)"/><circle cx="94.09" cy="423.30" r="2.2" fill="rgb(250,192,0)"/><circle cx="95.01" cy="421.05" r="2.2" fill="rgb(246,193,0)"/><circle cx="95.43" cy="421.71" r="2.2" fill="rgb(242,193,0)"/><circle cx="97.94" cy="426.15" r="2.2" fill="rgb(239,194,0)"/><circle cx="98.81" cy="423.64" r="2.2" fill="rgb(235,194,0)"/><circle cx="99.69" cy="403.27" r="2.2" fill="rgb(231,195,0)"/><circle cx="84.95" cy="379.73" r="2.2" fill="rgb(228,195,0)"/><circle cx="72.73" cy="365.62" r="2.2" fill="rgb(224,196,0)"/><circle cx="61.16" cy="343.59" r="2.2" fill="rgb(221,196,0)"/><circle cx="66.74" cy="336.68" r="2.2" fill="rgb(217,197,0)"/><circle cx="74.03" cy="331.63" r="2.2" fill="rgb(213,197,0)"/><circle cx="77.84" cy="319.40" r="2.2" fill="rgb(210,198,0)"/><circle cx="73.54" cy="298.22" r="2.2" fill="rgb(206,199,0)"/><circle cx="62.73" cy="267.99" r="2.2" fill="rgb(203,199,0)"/><circle cx="53.27" cy="245.10" r="2.2" fill="rgb(199,200,0)"/><circle cx="56.30" cy="231.60" r="2.2" fill="rgb(195,200,0)"/><circle cx="63.10" cy="227.47" r="2.2" fill="rgb(192,201,0)"/><circle cx="70.98" cy="226.74" r="2.2" fill="rgb(188,201,0)"/><circle cx="73.44" cy="226.13" r="2.2" fill="rgb(184,202,0)"/><circle cx="74.48" cy="220.46" r="2.2" fill="rgb(181,202,0)"/><circle cx="72.71" cy="198.30" r="2.2" fill="rgb(177,203,0)"/><circle cx="66.45" cy="169.44" r="2.2" fill="rgb(174,203,0)"/><circle cx="55.81" cy="139.25" r="2.2" fill="rgb(170,204,0)"/><circle cx="54.39" cy="123.46" r="2.2" fill="rgb(166,205,0)"/><circle cx="60.46" cy="119.25" r="2.2" fill="rgb(163,205,0)"/><circle cx="69.24" cy="124.77" r="2.2" fill="rgb(159,206,0)"/><circle cx="76.18" cy="125.09" r="2.2" fill="rgb(156,206,0)"/><circle cx="80.14" cy="130.08" r="2.2" fill="rgb(152,207,0)"/><circle cx="86.02" cy="128.47" r="2.2" fill="rgb(148,207,0)"/><circle cx="92.48" cy="129.75" r="2.2" fill="rgb(145,208,0)"/><circle cx="94.72" cy="128.29" r="2.2" fill="rgb(141,208,0)"/><circle cx="102.35" cy="117.39" r="2.2" fill="rgb(137,209,0)"/><circle cx="111.29" cy="94.70" r="2.2" fill="rgb(134,209,0)"/><circle cx="119.20" cy="69.77" r="2.2" fill="rgb(130,210,0)"/><circle cx="130.13" cy="53.75" r="2.2" fill="rgb(127,211,0)"/><circle cx="141.71" cy="55.63" r="2.2" fill="rgb(123,211,0)"/><circle cx="165.46" cy="64.28" r="2.2" fill="rgb(119,212,0)"/><circle cx="184.15" cy="70.20" r="2.2" fill="rgb(116,212,0)"/><circle cx="196.38" cy="71.32" r="2.2" fill="rgb(112,213,0)"/><circle cx="216.95" cy="69.87" r="2.2" fill="rgb(109,213,0)"/><circle cx="247.08" cy="58.71" r="2.2" fill="rgb(105,214,0)"/><circle cx="273.87" cy="48.03" r="2.2" fill="rgb(101,214,0)"/><circle cx="291.61" cy="46.64" r="2.2" fill="rgb(98,215,0)"/><circle cx="307.94" cy="56.28" r="2.2" fill="rgb(94,215,0)"/><circle cx="323.80" cy="73.20" r="2.2" fill="rgb(90,216,0)"/><circle cx="342.85" cy="86.56" r="2.2" fill="rgb(87,216,0)"/><circle cx="358.49" cy="92.27" r="2.2" fill="rgb(83,217,0)"/><circle cx="380.29" cy="96.93" r="2.2" fill="rgb(80,218,0)"/><circle cx="396.85" cy="96.06" r="2.2" fill="rgb(76,218,0)"/><circle cx="413.28" cy="99.43" r="2.2" fill="rgb(72,219,0)"/><circle cx="421.66" cy="110.04" r="2.2" fill="rgb(69,219,0)"/><circle cx="431.66" cy="122.65" r="2.2" fill="rgb(65,220,0)"/><circle cx="445.38" cy="128.59" r="2.2" fill="rgb(61,220,0)"/><circle cx="461.12" cy="130.74" r="2.2" fill="rgb(58,221,0)"/><circle cx="488.41" cy="125.17" r="2.2" fill="rgb(54,221,0)"/><circle cx="519.29" cy="117.77" r="2.2" fill="rgb(51,222,0)"/><circle cx="547.85" cy="112.27" r="2.2" fill="rgb(47,222,0)"/><circle cx="564.02" cy="117.52" r="2.2" fill="rgb(43,223,0)"/><circle cx="573.54" cy="126.72" r="2.2" fill="rgb(40,224,0)"/><circle cx="584.94" cy="136.07" r="2.2" fill="rgb(36,224,0)"/><circle cx="600.66" cy="142.14" r="2.2" fill="rgb(33,225,0)"/><circle cx="618.08" cy="146.35" r="2.2" fill="rgb(29,225,0)"/><circle cx="647.69" cy="144.57" r="2.2" fill="rgb(25,226,0)"/><circle cx="671.39" cy="142.59" r="2.2" fill="rgb(22,226,0)"/><circle cx="682.44" cy="147.47" r="2.2" fill="rgb(18,227,0)"/><circle cx="682.59" cy="154.36" r="2.2" fill="rgb(14,227,0)"/><circle cx="681.14" cy="159.88" r="2.2" fill="rgb(11,228,0)"/><circle cx="686.15" cy="167.04" r="2.2" fill="rgb(7,228,0)"/><circle cx="699.76" cy="169.99" r="2.2" fill="rgb(4,229,0)"/><circle cx="721.74" cy="170.01" r="2.2" fill="rgb(0,230,0)"/><circle cx="741.10" cy="171.38" r="2.2" fill="rgb(0,229,4)"/><circle cx="746.99" cy="169.39" r="2.2" fill="rgb(0,228,7)"/><circle cx="742.33" cy="166.41" r="2.2" fill="rgb(0,228,11)"/><circle cx="737.62" cy="164.64" r="2.2" fill="rgb(0,227,14)"/><circle cx="736.74" cy="164.53" r="2.2" fill="rgb(0,227,18)"/><circle cx="732.02" cy="165.51" r="2.2" fill="rgb(0,226,22)"/><circle cx="730.96" cy="162.92" r="2.2" fill="rgb(0,226,25)"/><circle cx="729.37" cy="161.22" r="2.2" fill="rgb(0,225,29)"/><circle cx="729.04" cy="157.14" r="2.2" fill="rgb(0,225,33)"/><circle cx="728.31" cy="155.50" r="2.2" fill="rgb(0,224,36)"/><circle cx="727.99" cy="152.79" r="2.2" fill="rgb(0,224,40)"/><circle cx="730.52" cy="154.26" r="2.2" fill="rgb(0,223,43)"/><circle cx="731.49" cy="164.53" r="2.2" fill="rgb(0,222,47)"/><circle cx="735.79" cy="187.54" r="2.2" fill="rgb(0,222,51)"/><circle cx="748.62" cy="212.30" r="2.2" fill="rgb(0,221,54)"/><circle cx="761.58" cy="236.11" r="2.2" fill="rgb(0,221,58)"/><circle cx="759.25" cy="258.55" r="2.2" fill="rgb(0,220,61)"/><circle cx="741.48" cy="275.21" r="2.2" fill="rgb(0,220,65)"/><circle cx="727.14" cy="293.90" r="2.2" fill="rgb(0,219,69)"/><circle cx="718.08" cy="315.27" r="2.2" fill="rgb(0,219,72)"/><circle cx="711.47" cy="347.36" r="2.2" fill="rgb(0,218,76)"/><circle cx="710.11" cy="383.39" r="2.2" fill="rgb(0,218,80)"/><circle cx="708.97" cy="407.48" r="2.2" fill="rgb(0,217,83)"/><circle cx="694.16" cy="417.33" r="2.2" fill="rgb(0,216,87)"/><circle cx="680.58" cy="420.95" r="2.2" fill="rgb(0,216,90)"/><circle cx="674.70" cy="422.17" r="2.2" fill="rgb(0,215,94)"/><circle cx="665.68" cy="431.62" r="2.2" fill="rgb(0,215,98)"/><circle cx="650.53" cy="452.84" r="2.2" fill="rgb(0,214,101)"/><circle cx="640.22" cy="460.73" r="2.2" fill="rgb(0,214,105)"/><circle cx="639.73" cy="460.78" r="2.2" fill="rgb(0,213,109)"/><circle cx="644.80" cy="455.03" r="2.2" fill="rgb(0,213,112)"/><circle cx="650.16" cy="453.92" r="2.2" fill="rgb(0,212,116)"/><circle cx="656.34" cy="453.74" r="2.2" fill="rgb(0,212,119)"/><circle cx="659.09" cy="455.58" r="2.2" fill="rgb(0,211,123)"/><circle cx="658.62" cy="456.92" r="2.2" fill="rgb(0,211,127)"/><circle cx="655.16" cy="472.87" r="2.2" fill="rgb(0,210,130)"/><circle cx="645.35" cy="495.28" r="2.2" fill="rgb(0,209,134)"/><circle cx="629.20" cy="524.47" r="2.2" fill="rgb(0,209,137)"/><circle cx="618.08" cy="540.84" r="2.2" fill="rgb(0,208,141)"/><circle cx="602.67" cy="540.78" r="2.2" fill="rgb(0,208,145)"/><circle cx="587.43" cy="528.88" r="2.2" fill="rgb(0,207,148)"/><circle cx="564.13" cy="523.32" r="2.2" fill="rgb(0,207,152)"/><circle cx="545.32" cy="525.37" r="2.2" fill="rgb(0,206,156)"/><circle cx="519.52" cy="538.79" r="2.2" fill="rgb(0,206,159)"/><circle cx="488.54" cy="556.90" r="2.2" fill="rgb(0,205,163)"/><circle cx="460.63" cy="572.24" r="2.2" fill="rgb(0,205,166)"/><circle cx="443.21" cy="570.68" r="2.2" fill="rgb(0,204,170)"/><circle cx="423.58" cy="557.53" r="2.2" fill="rgb(0,203,174)"/><circle cx="404.76" cy="547.26" r="2.2" fill="rgb(0,203,177)"/><circle cx="388.98" cy="540.69" r="2.2" fill="rgb(0,202,181)"/><circle cx="362.46" cy="541.99" r="2.2" fill="rgb(0,202,184)"/><circle cx="328.24" cy="549.10" r="2.2" fill="rgb(0,201,188)"/><circle cx="302.00" cy="558.08" r="2.2" fill="rgb(0,201,192)"/><circle cx="288.58" cy="550.95" r="2.2" fill="rgb(0,200,195)"/><circle cx="274.70" cy="536.89" r="2.2" fill="rgb(0,200,199)"/><circle cx="265.64" cy="524.46" r="2.2" fill="rgb(0,199,203)"/><circle cx="256.11" cy="519.66" r="2.2" fill="rgb(0,199,206)"/><circle cx="240.09" cy="514.92" r="2.2" fill="rgb(0,198,210)"/><circle cx="210.17" cy="515.69" r="2.2" fill="rgb(0,197,213)"/><circle cx="173.74" cy="521.83" r="2.2" fill="rgb(0,197,217)"/><circle cx="152.16" cy="524.20" r="2.2" fill="rgb(0,196,221)"/><circle cx="143.21" cy="510.38" r="2.2" fill="rgb(0,196,224)"/><circle cx="139.03" cy="494.48" r="2.2" fill="rgb(0,195,228)"/><circle cx="133.45" cy="479.09" r="2.2" fill="rgb(0,195,231)"/><circle cx="127.59" cy="470.92" r="2.2" fill="rgb(0,194,235)"/><circle cx="118.10" cy="467.76" r="2.2" fill="rgb(0,194,239)"/><circle cx="104.68" cy="469.22" r="2.2" fill="rgb(0,193,242)"/><circle cx="90.95" cy="468.95" r="2.2" fill="rgb(0,193,246)"/><circle cx="85.16" cy="469.21" r="2.2" fill="rgb(0,192,250)"/><circle cx="93.28" cy="455.07" r="2.2" fill="rgb(0,192,253)"/><circle cx="97.69" cy="441.66" r="2.2" fill="rgb(0,190,255)"/><circle cx="99.79" cy="423.93" r="2.2" fill="rgb(0,188,255)"/><circle cx="91.94" cy="409.98" r="2.2" fill="rgb(0,186,255)"/><circle cx="69.14" cy="382.36" r="2.2" fill="rgb(0,184,255)"/><circle cx="48.17" cy="357.23" r="2.2" fill="rgb(0,181,255)"/><circle cx="49.95" cy="345.63" r="2.2" fill="rgb(0,179,255)"/><circle cx="56.32" cy="336.51" r="2.2" fill="rgb(0,177,255)"/><circle cx="70.09" cy="320.86" r="2.2" fill="rgb(0,175,255)"/><circle cx="72.71" cy="308.36" r="2.2" fill="rgb(0,173,255)"/><circle cx="76.62" cy="290.87" r="2.2" fill="rgb(0,171,255)"/><circle cx="74.73" cy="262.78" r="2.2" fill="rgb(0,168,255)"/><circle cx="63.75" cy="227.77" r="2.2" fill="rgb(0,166,255)"/><circle cx="59.91" cy="206.64" r="2.2" fill="rgb(0,164,255)"/><circle cx="64.05" cy="194.77" r="2.2" fill="rgb(0,162,255)"/><circle cx="77.84" cy="182.67" r="2.2" fill="rgb(0,160,255)"/><circle cx="89.72" cy="174.32" r="2.2" fill="rgb(0,158,255)"/><circle cx="95.68" cy="165.78" r="2.2" fill="rgb(0,155,255)"/><circle cx="98.27" cy="155.34" r="2.2" fill="rgb(0,153,255)"/><circle cx="94.42" cy="145.76" r="2.2" fill="rgb(0,151,255)"/><circle cx="89.82" cy="137.27" r="2.2" fill="rgb(0,149,255)"/><circle cx="83.95" cy="125.76" r="2.2" fill="rgb(0,147,255)"/><circle cx="98.09" cy="121.15" r="2.2" fill="rgb(0,145,255)"/><circle cx="119.87" cy="125.83" r="2.2" fill="rgb(0,142,255)"/><circle cx="137.16" cy="124.01" r="2.2" fill="rgb(0,140,255)"/><circle cx="150.98" cy="125.22" r="2.2" fill="rgb(0,138,255)"/><circle cx="167.51" cy="113.96" r="2.2" fill="rgb(0,136,255)"/><circle cx="190.73" cy="90.39" r="2.2" fill="rgb(0,134,255)"/><circle cx="211.57" cy="62.90" r="2.2" fill="rgb(0,132,255)"/><circle cx="234.84" cy="49.47" r="2.2" fill="rgb(0,129,255)"/><circle cx="256.97" cy="54.64" r="2.2" fill="rgb(0,127,255)"/><circle cx="283.76" cy="67.32" r="2.2" fill="rgb(0,125,255)"/><circle cx="302.56" cy="72.92" r="2.2" fill="rgb(0,123,255)"/><circle cx="313.81" cy="74.68" r="2.2" fill="rgb(0,121,255)"/><circle cx="333.22" cy="77.78" r="2.2" fill="rgb(0,119,255)"/><circle cx="363.60" cy="76.18" r="2.2" fill="rgb(0,116,255)"/><circle cx="398.20" cy="68.02" r="2.2" fill="rgb(0,114,255)"/><circle cx="421.88" cy="65.62" r="2.2" fill="rgb(0,112,255)"/><circle cx="435.61" cy="79.38" r="2.2" fill="rgb(0,110,255)"/><circle cx="453.49" cy="91.95" r="2.2" fill="rgb(0,108,255)"/><circle cx="470.38" cy="102.23" r="2.2" fill="rgb(0,106,255)"/><circle cx="491.27" cy="105.88" r="2.2" fill="rgb(0,103,255)"/><circle cx="526.00" cy="102.85" r="2.2" fill="rgb(0,101,255)"/><circle cx="558.52" cy="91.21" r="2.2" fill="rgb(0,99,255)"/><circle cx="582.18" cy="83.00" r="2.2" fill="rgb(0,97,255)"/><circle cx="602.35" cy="90.35" r="2.2" fill="rgb(0,95,255)"/><circle cx="612.47" cy="105.15" r="2.2" fill="rgb(0,93,255)"/><circle cx="625.10" cy="126.84" r="2.2" fill="rgb(0,90,255)"/><circle cx="634.43" cy="140.72" r="2.2" fill="rgb(0,88,255)"/><circle cx="646.98" cy="150.11" r="2.2" fill="rgb(0,86,255)"/><circle cx="681.80" cy="156.55" r="2.2" fill="rgb(0,84,255)"/><circle cx="729.31" cy="161.34" r="2.2" fill="rgb(0,82,255)"/><circle cx="756.98" cy="158.91" r="2.2" fill="rgb(0,79,255)"/><circle cx="763.79" cy="156.32" r="2.2" fill="rgb(0,77,255)"/><circle cx="763.62" cy="155.99" r="2.2" fill="rgb(0,75,255)"/><circle cx="759.87" cy="155.38" r="2.2" fill="rgb(0,73,255)"/><circle cx="752.29" cy="152.39" r="2.2" fill="rgb(0,71,255)"/><circle cx="745.41" cy="152.55" r="2.2" fill="rgb(0,69,255)"/><circle cx="744.65" cy="155.29" r="2.2" fill="rgb(0,66,255)"/><circle cx="754.69" cy="157.83" r="2.2" fill="rgb(0,64,255)"/><circle cx="765.95" cy="159.96" r="2.2" fill="rgb(0,62,255)"/><circle cx="769.36" cy="156.69" r="2.2" fill="rgb(0,60,255)"/><circle cx="761.98" cy="151.68" r="2.2" fill="rgb(0,58,255)"/><circle cx="749.00" cy="147.98" r="2.2" fill="rgb(0,56,255)"/><circle cx="735.79" cy="149.20" r="2.2" fill="rgb(0,53,255)"/><circle cx="728.83" cy="147.87" r="2.2" fill="rgb(0,51,255)"/><circle cx="726.74" cy="148.70" r="2.2" fill="rgb(0,49,255)"/><circle cx="724.65" cy="150.26" r="2.2" fill="rgb(0,47,255)"/><circle cx="724.97" cy="150.96" r="2.2" fill="rgb(0,45,255)"/><circle cx="723.62" cy="152.49" r="2.2" fill="rgb(0,43,255)"/><circle cx="722.00" cy="151.97" r="2.2" fill="rgb(0,40,255)"/><circle cx="722.25" cy="152.05" r="2.2" fill="rgb(0,38,255)"/><circle cx="724.49" cy="215.74" r="5" fill="red"/><circle cx="722.25" cy="152.05" r="5" fill="blue"/></svg>