<svg xmlns="http://www.w3.org/2000/svg" width="1000" height="800" viewBox="0 0 1000 800">
<rect width="100%" height="100%" fill="white"/>
<text x="70" y="35" font-family="monospace" font-size="20">mono full keyframe PCA trajectory, KFs=72</text>
<polyline points="877.29,212.10 870.98,197.28 871.64,197.52 877.15,447.33 877.50,487.20 879.78,523.83 872.32,544.61 839.72,542.24 832.07,543.16 821.44,580.92 822.85,605.75 783.41,665.69 764.16,652.60 752.42,629.40 621.54,665.09 512.41,688.53 485.16,689.95 457.22,666.35 204.76,645.84 186.31,623.20 110.28,572.13 117.99,557.97 120.63,549.95 126.63,548.89 86.85,442.07 101.81,428.53 102.42,406.14 70.00,177.18 84.22,170.63 97.95,177.92 190.52,91.46 353.93,70.00 895.47,196.17 890.43,195.81 818.45,537.56 802.38,569.72 783.22,640.81 748.54,687.14 701.15,661.90 640.97,681.61 565.33,730.00 509.07,702.99 342.11,689.78 311.72,666.24 246.74,669.43 191.44,667.11 176.10,622.56 124.57,591.17 90.90,423.36 100.34,362.13 81.25,289.38 85.87,261.09 111.93,235.49 125.36,217.74 114.51,192.04 115.59,172.12 256.39,90.77 313.51,81.85 374.60,103.80 449.77,99.26 522.90,100.84 570.75,130.22 645.94,124.14 715.00,102.59 754.46,149.79 783.15,182.13 924.72,186.11 912.42,183.29 930.00,191.05 889.48,176.68 877.62,178.13 875.85,183.05" fill="none" stroke="#222" stroke-width="2" opacity="0.45"/>
<circle cx="877.29" cy="212.10" r="4" fill="rgb(0,0,255)"/>
<circle cx="870.98" cy="197.28" r="4" fill="rgb(3,5,251)"/>
<circle cx="871.64" cy="197.52" r="4" fill="rgb(7,10,247)"/>
<circle cx="877.15" cy="447.33" r="4" fill="rgb(10,15,244)"/>
<circle cx="877.50" cy="487.20" r="4" fill="rgb(14,20,240)"/>
<circle cx="879.78" cy="523.83" r="4" fill="rgb(17,25,237)"/>
<circle cx="872.32" cy="544.61" r="4" fill="rgb(21,30,233)"/>
<circle cx="839.72" cy="542.24" r="4" fill="rgb(25,35,229)"/>
<circle cx="832.07" cy="543.16" r="4" fill="rgb(28,40,226)"/>
<circle cx="821.44" cy="580.92" r="4" fill="rgb(32,45,222)"/>
<circle cx="822.85" cy="605.75" r="4" fill="rgb(35,50,219)"/>
<circle cx="783.41" cy="665.69" r="4" fill="rgb(39,55,215)"/>
<circle cx="764.16" cy="652.60" r="4" fill="rgb(43,60,211)"/>
<circle cx="752.42" cy="629.40" r="4" fill="rgb(46,65,208)"/>
<circle cx="621.54" cy="665.09" r="4" fill="rgb(50,70,204)"/>
<circle cx="512.41" cy="688.53" r="4" fill="rgb(53,76,201)"/>
<circle cx="485.16" cy="689.95" r="4" fill="rgb(57,81,197)"/>
<circle cx="457.22" cy="666.35" r="4" fill="rgb(61,86,193)"/>
<circle cx="204.76" cy="645.84" r="4" fill="rgb(64,91,190)"/>
<circle cx="186.31" cy="623.20" r="4" fill="rgb(68,96,186)"/>
<circle cx="110.28" cy="572.13" r="4" fill="rgb(71,101,183)"/>
<circle cx="117.99" cy="557.97" r="4" fill="rgb(75,106,179)"/>
<circle cx="120.63" cy="549.95" r="4" fill="rgb(79,111,175)"/>
<circle cx="126.63" cy="548.89" r="4" fill="rgb(82,116,172)"/>
<circle cx="86.85" cy="442.07" r="4" fill="rgb(86,121,168)"/>
<circle cx="101.81" cy="428.53" r="4" fill="rgb(89,126,165)"/>
<circle cx="102.42" cy="406.14" r="4" fill="rgb(93,131,161)"/>
<circle cx="70.00" cy="177.18" r="4" fill="rgb(96,136,158)"/>
<circle cx="84.22" cy="170.63" r="4" fill="rgb(100,141,154)"/>
<circle cx="97.95" cy="177.92" r="4" fill="rgb(104,147,150)"/>
<circle cx="190.52" cy="91.46" r="4" fill="rgb(107,152,147)"/>
<circle cx="353.93" cy="70.00" r="4" fill="rgb(111,157,143)"/>
<circle cx="895.47" cy="196.17" r="4" fill="rgb(114,162,140)"/>
<circle cx="890.43" cy="195.81" r="4" fill="rgb(118,167,136)"/>
<circle cx="818.45" cy="537.56" r="4" fill="rgb(122,172,132)"/>
<circle cx="802.38" cy="569.72" r="4" fill="rgb(125,177,129)"/>
<circle cx="783.22" cy="640.81" r="4" fill="rgb(129,177,125)"/>
<circle cx="748.54" cy="687.14" r="4" fill="rgb(132,172,122)"/>
<circle cx="701.15" cy="661.90" r="4" fill="rgb(136,167,118)"/>
<circle cx="640.97" cy="681.61" r="4" fill="rgb(140,162,114)"/>
<circle cx="565.33" cy="730.00" r="4" fill="rgb(143,157,111)"/>
<circle cx="509.07" cy="702.99" r="4" fill="rgb(147,152,107)"/>
<circle cx="342.11" cy="689.78" r="4" fill="rgb(150,147,104)"/>
<circle cx="311.72" cy="666.24" r="4" fill="rgb(154,141,100)"/>
<circle cx="246.74" cy="669.43" r="4" fill="rgb(158,136,96)"/>
<circle cx="191.44" cy="667.11" r="4" fill="rgb(161,131,93)"/>
<circle cx="176.10" cy="622.56" r="4" fill="rgb(165,126,89)"/>
<circle cx="124.57" cy="591.17" r="4" fill="rgb(168,121,86)"/>
<circle cx="90.90" cy="423.36" r="4" fill="rgb(172,116,82)"/>
<circle cx="100.34" cy="362.13" r="4" fill="rgb(175,111,79)"/>
<circle cx="81.25" cy="289.38" r="4" fill="rgb(179,106,75)"/>
<circle cx="85.87" cy="261.09" r="4" fill="rgb(183,101,71)"/>
<circle cx="111.93" cy="235.49" r="4" fill="rgb(186,96,68)"/>
<circle cx="125.36" cy="217.74" r="4" fill="rgb(190,91,64)"/>
<circle cx="114.51" cy="192.04" r="4" fill="rgb(193,86,61)"/>
<circle cx="115.59" cy="172.12" r="4" fill="rgb(197,81,57)"/>
<circle cx="256.39" cy="90.77" r="4" fill="rgb(201,76,53)"/>
<circle cx="313.51" cy="81.85" r="4" fill="rgb(204,70,50)"/>
<circle cx="374.60" cy="103.80" r="4" fill="rgb(208,65,46)"/>
<circle cx="449.77" cy="99.26" r="4" fill="rgb(211,60,43)"/>
<circle cx="522.90" cy="100.84" r="4" fill="rgb(215,55,39)"/>
<circle cx="570.75" cy="130.22" r="4" fill="rgb(219,50,35)"/>
<circle cx="645.94" cy="124.14" r="4" fill="rgb(222,45,32)"/>
<circle cx="715.00" cy="102.59" r="4" fill="rgb(226,40,28)"/>
<circle cx="754.46" cy="149.79" r="4" fill="rgb(229,35,25)"/>
<circle cx="783.15" cy="182.13" r="4" fill="rgb(233,30,21)"/>
<circle cx="924.72" cy="186.11" r="4" fill="rgb(237,25,17)"/>
<circle cx="912.42" cy="183.29" r="4" fill="rgb(240,20,14)"/>
<circle cx="930.00" cy="191.05" r="4" fill="rgb(244,15,10)"/>
<circle cx="889.48" cy="176.68" r="4" fill="rgb(247,10,7)"/>
<circle cx="877.62" cy="178.13" r="4" fill="rgb(251,5,3)"/>
<circle cx="875.85" cy="183.05" r="4" fill="rgb(255,0,0)"/>
<circle cx="877.29" cy="212.10" r="8" fill="#00aa44"/>
<text x="887.29" y="202.10" font-family="monospace" font-size="16" fill="#00aa44">start</text>
<circle cx="875.85" cy="183.05" r="8" fill="#dd2222"/>
<text x="885.85" y="173.05" font-family="monospace" font-size="16" fill="#dd2222">end</text>
<text x="70" y="775" font-family="monospace" font-size="15">PCA ranges: 0.22891, 0.15749, 0.00742; singular ratio: 0.633, 0.018</text>
</svg>
