ply
format ascii 1.0
element vertex 642
property float x
property float y
property float z
property uchar red
property uchar green
property uchar blue
end_header
-0.592425616 -0.034364237 0.000000000 0 80 255
-0.584643574 -0.117370056 0.000000000 0 81 255
-0.538509142 -0.083071223 0.000000000 0 82 255
-0.536972092 -0.111946922 0.000000000 0 83 255
-0.535279884 -0.112712126 0.000000000 0 83 255
-0.533433419 -0.085182436 0.000000000 0 84 255
-0.531471213 -0.036076276 0.000000000 0 85 255
-0.529460048 0.022624123 0.000000000 0 86 255
-0.527478604 0.076595786 0.000000000 0 87 255
-0.525598334 0.112669532 0.000000000 0 88 255
-0.523866029 0.122042335 0.000000000 0 89 255
-0.522292351 0.102425262 0.000000000 0 90 255
-0.520849275 0.058601967 0.000000000 0 90 255
-0.519476928 0.001261424 0.000000000 0 91 255
-0.518098155 -0.055609731 0.000000000 0 92 255
-0.516637380 -0.098139368 0.000000000 0 93 255
-0.515039047 -0.115954170 0.000000000 0 94 255
-0.513281122 -0.104710257 0.000000000 0 95 255
-0.511380555 -0.067152960 0.000000000 0 96 255
-0.509389061 -0.012447085 0.000000000 0 97 255
-0.507380550 0.046058900 0.000000000 0 97 255
-0.505433060 0.094089625 0.000000000 0 98 255
-0.503609745 0.119924926 0.000000000 0 99 255
-0.501943541 0.117259935 0.000000000 0 100 255
-0.500428961 0.086742451 0.000000000 0 101 255
-0.499023547 0.035815351 0.000000000 0 102 255
-0.497658232 -0.023099368 0.000000000 0 103 255
-0.496254156 -0.075631025 0.000000000 0 104 255
-0.494741905 -0.108966177 0.000000000 0 104 255
-0.493078457 -0.114974577 0.000000000 0 105 255
-0.491257692 -0.092192705 0.000000000 0 106 255
-0.489311862 -0.046180660 0.000000000 0 107 255
-0.487303730 0.011834083 0.000000000 0 108 255
-0.485311233 0.067695859 0.000000000 0 109 255
-0.483408511 0.107774339 0.000000000 0 110 255
-0.481647840 0.122289594 0.000000000 0 111 255
-0.480046786 0.107698101 0.000000000 0 111 255
-0.478583996 0.067557440 0.000000000 0 112 255
-0.477204401 0.011658226 0.000000000 0 113 255
-0.475832591 -0.046364622 0.000000000 0 114 255
-0.474391282 -0.092358027 0.000000000 0 115 255
-0.472820139 -0.115103627 0.000000000 0 116 255
-0.471090535 -0.109054631 0.000000000 0 117 255
-0.469212466 -0.075689041 0.000000000 0 118 255
-0.467232136 -0.023148998 0.000000000 0 118 255
-0.465220728 0.035745417 0.000000000 0 119 255
-0.463256987 0.086624096 0.000000000 0 120 255
-0.461408018 0.117072215 0.000000000 0 121 255
-0.459712937 0.119659414 0.000000000 0 122 255
-0.458173328 0.093752197 0.000000000 0 123 255
-0.456752842 0.045668754 0.000000000 0 124 255
-0.455386044 -0.012862683 0.000000000 0 125 255
-0.453994402 -0.067564982 0.000000000 0 125 255
-0.452505479 -0.105095186 0.000000000 0 126 255
-0.450870524 -0.116299626 0.000000000 0 127 255
-0.449076436 -0.098447113 0.000000000 0 128 255
-0.447148943 -0.055895261 0.000000000 0 129 255
-0.445146349 0.000972678 0.000000000 0 130 255
-0.443145184 0.058280833 0.000000000 0 131 255
-0.441221717 0.102045920 0.000000000 0 132 255
-0.439433217 0.121588798 0.000000000 0 132 255
-0.437804071 0.112139385 0.000000000 0 133 255
-0.436319747 0.076000709 0.000000000 0 134 255
-0.434930379 0.021986997 0.000000000 0 135 255
-0.433562990 -0.036726719 0.000000000 0 136 255
-0.432139205 -0.085818854 0.000000000 0 137 255
-0.430594378 -0.113315091 0.000000000 0 138 255
-0.428893460 -0.112509672 0.000000000 0 139 255
-0.427039432 -0.083601343 0.000000000 0 139 255
-0.425072648 -0.033644884 0.000000000 0 140 255
-0.423060959 0.025169998 0.000000000 0 141 255
-0.421083148 0.078492485 0.000000000 0 142 255
-0.419209840 0.113311708 0.000000000 0 143 255
-0.417486010 0.121130842 0.000000000 0 144 255
-0.415920262 0.100040104 0.000000000 0 145 255
-0.414482635 0.055182555 0.000000000 0 146 255
-0.413111839 -0.002500602 0.000000000 0 146 255
-0.411730379 -0.058939164 0.000000000 0 147 255
-0.410263281 -0.100366556 0.000000000 0 148 255
-0.408656546 -0.116678360 0.000000000 0 149 255
-0.406890130 -0.103897386 0.000000000 0 150 255
-0.404983040 -0.065143956 0.000000000 0 151 255
-0.402988559 -0.009874634 0.000000000 0 152 255
-0.400981299 0.048424689 0.000000000 0 153 255
-0.399038984 0.095528919 0.000000000 0 153 255
-0.397223502 0.119943966 0.000000000 0 154 255
-0.395565842 0.115711290 0.000000000 0 155 255
-0.394058384 0.083861434 0.000000000 0 156 255
-0.392656949 0.032162192 0.000000000 0 157 255
-0.391291515 -0.026776036 0.000000000 0 158 255
-0.389883194 -0.078576859 0.000000000 0 159 255
-0.388363595 -0.110605133 0.000000000 0 160 255
-0.386691501 -0.115049419 0.000000000 0 160 255
-0.384862874 -0.090827766 0.000000000 0 161 255
-0.382911868 -0.043851592 0.000000000 0 162 255
-0.380902460 0.014416386 0.000000000 0 163 255
-0.378912961 0.069758806 0.000000000 0 164 255
-0.377016723 0.108671983 0.000000000 0 165 255
-0.375264387 0.121660269 0.000000000 0 166 255
-0.373671509 0.105552753 0.000000000 0 166 255
-0.372214726 0.064276838 0.000000000 0 167 255
-0.370837471 0.007900004 0.000000000 0 168 255
-0.369463768 -0.049826231 0.000000000 0 169 255
-0.368016770 -0.094821145 0.000000000 0 170 255
-0.366437509 -0.116109958 0.000000000 0 171 255
-0.364699318 -0.108501283 0.000000000 0 172 255
-0.362814279 -0.073853573 0.000000000 0 173 255
-0.360830300 -0.020621834 0.000000000 0 173 255
-0.358819437 0.038205170 0.000000000 0 174 255
-0.356860277 0.088273431 0.000000000 0 175 255
-0.355018826 0.117366134 0.000000000 0 176 255
-0.353332342 0.118383320 0.000000000 0 177 255
-0.351800317 0.091074730 0.000000000 0 178 255
-0.350384536 0.042100332 0.000000000 0 179 255
-0.349018412 -0.016594279 0.000000000 0 180 255
-0.347623277 -0.070692082 0.000000000 0 180 255
-0.346127538 -0.106997548 0.000000000 0 181 255
-0.344484137 -0.116655778 0.000000000 0 182 255
-0.342682025 -0.097312836 0.000000000 0 183 255
-0.340748824 -0.053689856 0.000000000 0 184 255
-0.338744281 0.003568496 0.000000000 0 185 255
-0.336745439 0.060491010 0.000000000 0 186 255
-0.334827940 0.103188516 0.000000000 0 187 255
-0.333047678 0.121242253 0.000000000 0 187 255
-0.331426951 0.110245476 0.000000000 0 188 255
-0.329949136 0.072878631 0.000000000 0 189 255
-0.328562839 0.018255693 0.000000000 0 190 255
-0.327194262 -0.040299738 0.000000000 0 191 255
-0.325765298 -0.088504614 0.000000000 0 192 255
-0.324212574 -0.114601039 0.000000000 0 193 255
-0.322502901 -0.112224744 0.000000000 0 194 255
-0.320641365 -0.081957751 0.000000000 0 194 255
-0.318670167 -0.031186258 0.000000000 0 195 255
-0.316658189 0.027701165 0.000000000 0 196 255
-0.314684259 0.080335780 0.000000000 0 197 255
-0.312817962 0.113874605 0.000000000 0 198 255
-0.311102596 0.120133229 0.000000000 0 199 255
-0.309544659 0.097582352 0.000000000 0 200 255
-0.308112333 0.051721379 0.000000000 0 201 255
-0.306742962 -0.006263608 0.000000000 0 201 255
-0.305358602 -0.062228754 0.000000000 0 202 255
-0.303885092 -0.102522966 0.000000000 0 203 255
-0.302269950 -0.117318259 0.000000000 0 204 255
-0.300495156 -0.103007399 0.000000000 0 205 255
-0.298581789 -0.063083925 0.000000000 0 206 255
-0.296584627 -0.007289903 0.000000000 0 207 255
-0.294578901 0.050760807 0.000000000 0 208 255
-0.292642024 0.096903626 0.000000000 0 208 255
-0.290834492 0.119879204 0.000000000 0 209 255
-0.289185351 0.114080256 0.000000000 0 210 255
-0.287684969 0.080919216 0.000000000 0 211 255
-0.286287363 0.028483889 0.000000000 0 212 255
-0.284921554 -0.030435785 0.000000000 0 213 255
-0.283508793 -0.081467919 0.000000000 0 214 255
-0.281981756 -0.112164876 0.000000000 0 215 255
-0.280301029 -0.115040023 0.000000000 0 215 255
-0.278464660 -0.089394246 0.000000000 0 216 255
-0.276508659 -0.041486365 0.000000000 0 217 255
-0.274498271 0.016993611 0.000000000 0 218 255
-0.272512028 0.071776548 0.000000000 0 219 255
-0.270622472 0.109495334 0.000000000 0 220 255
-0.268878641 0.120945771 0.000000000 0 220 254
-0.267294042 0.103332151 0.000000000 0 220 253
-0.265843214 0.060949218 0.000000000 0 220 252
-0.264468211 0.004134545 0.000000000 0 220 250
-0.263092539 -0.053253561 0.000000000 0 220 249
-0.261639758 -0.097216876 0.000000000 0 220 248
-0.260052380 -0.117032311 0.000000000 0 220 247
-0.258305688 -0.107867954 0.000000000 0 220 246
-0.256413842 -0.071961768 0.000000000 0 220 244
-0.254426413 -0.018075833 0.000000000 0 220 243
-0.252416305 0.040641576 0.000000000 0 220 242
-0.250461928 0.089863370 0.000000000 0 220 241
-0.248628071 0.117578998 0.000000000 0 220 239
-0.246950132 0.117024711 0.000000000 0 220 238
-0.245425490 0.088333451 0.000000000 0 220 237
-0.244014067 0.038502522 0.000000000 0 220 236
-0.242648229 -0.020313481 0.000000000 0 220 235
-0.241249217 -0.073767981 0.000000000 0 220 233
-0.239746307 -0.108822401 0.000000000 0 220 232
-0.238094171 -0.116927069 0.000000000 0 220 231
-0.236283828 -0.096106983 0.000000000 0 220 230
-0.234344920 -0.051443752 0.000000000 0 220 229
-0.232338527 0.006164286 0.000000000 0 220 227
-0.230342120 0.062660737 0.000000000 0 220 226
-0.228430743 0.104260250 0.000000000 0 220 225
-0.226658613 0.120812020 0.000000000 0 220 224
-0.225046119 0.108275615 0.000000000 0 220 222
-0.223574679 0.069707292 0.000000000 0 220 221
-0.222191301 0.014514007 0.000000000 0 220 220
-0.220821391 -0.043841480 0.000000000 0 220 219
-0.219387198 -0.091124950 0.000000000 0 220 218
-0.217826608 -0.115803336 0.000000000 0 220 216
-0.216108350 -0.111858354 0.000000000 0 220 215
-0.214239592 -0.080254650 0.000000000 0 220 214
-0.212264288 -0.028704596 0.000000000 0 220 213
-0.210252327 0.030213263 0.000000000 0 220 211
-0.208282532 0.082123111 0.000000000 0 220 210
-0.206423453 0.114358600 0.000000000 0 220 209
-0.204716695 0.119053351 0.000000000 0 220 208
-0.203166638 0.095059683 0.000000000 0 220 207
-0.201739380 0.048228837 0.000000000 0 220 205
-0.200371222 -0.010016439 0.000000000 0 220 204
-0.198983839 -0.065468844 0.000000000 0 220 203
-0.197503846 -0.104602401 0.000000000 0 220 202
-0.195880207 -0.117872312 0.000000000 0 220 201
-0.194097083 -0.102043497 0.000000000 0 220 199
-0.192177463 -0.060979800 0.000000000 0 220 198
-0.190177656 -0.004701484 0.000000000 0 220 197
-0.188173588 0.053059547 0.000000000 0 220 196
-0.186242181 0.098209426 0.000000000 0 220 194
-0.184442655 0.119731165 0.000000000 0 220 193
-0.182801946 0.112371969 0.000000000 0 220 192
-0.181308394 0.077924946 0.000000000 0 220 191
-0.179914384 0.024791631 0.000000000 0 220 190
-0.178548013 -0.034067816 0.000000000 0 220 188
-0.177130686 -0.084296179 0.000000000 0 220 187
-0.175596199 -0.113641979 0.000000000 0 220 186
-0.173906897 -0.114948230 0.000000000 0 220 185
-0.172062931 -0.087898570 0.000000000 0 220 184
-0.170102211 -0.039094328 0.000000000 0 220 182
-0.168091202 0.019555940 0.000000000 0 220 181
-0.166108446 0.073741454 0.000000000 0 220 180
-0.164225766 0.110240804 0.000000000 0 220 179
-0.162490462 0.120147431 0.000000000 0 220 177
-0.160913955 0.101042177 0.000000000 0 220 176
-0.159468878 0.057583738 0.000000000 0 220 175
-0.158095783 0.000371968 0.000000000 0 220 174
-0.156717735 -0.056637921 0.000000000 0 220 173
-0.155258951 -0.099539973 0.000000000 0 220 171
-0.153663390 -0.117870015 0.000000000 0 220 170
-0.151908249 -0.107158483 0.000000000 0 220 169
-0.150009742 -0.070020845 0.000000000 0 220 168
-0.148019154 -0.015519496 0.000000000 0 220 166
-0.146010130 0.043047167 0.000000000 0 220 165
-0.144060788 0.091388732 0.000000000 0 220 164
-0.142234731 0.117709487 0.000000000 0 220 163
-0.140565531 0.115585899 0.000000000 0 220 162
-0.139048344 0.085533906 0.000000000 0 220 160
-0.137641405 0.034882687 0.000000000 0 220 159
-0.136275994 -0.024013014 0.000000000 0 220 158
-0.134873224 -0.076787203 0.000000000 0 220 157
-0.133363346 -0.110567269 0.000000000 0 220 156
-0.131702798 -0.117114437 0.000000000 0 220 154
-0.129884648 -0.094833698 0.000000000 0 220 153
-0.127940565 -0.049162973 0.000000000 0 220 152
-0.125932786 0.008753522 0.000000000 0 220 151
-0.123939208 0.064784172 0.000000000 0 220 149
-0.122034220 0.105257336 0.000000000 0 220 148
-0.120270598 0.120296904 0.000000000 0 220 147
-0.118666652 0.106231527 0.000000000 0 220 146
-0.117201695 0.066490303 0.000000000 0 220 145
-0.115821134 0.010766460 0.000000000 0 220 143
-0.114449866 -0.047347904 0.000000000 0 220 142
-0.113010418 -0.093677384 0.000000000 0 220 141
-0.111442019 -0.116921642 0.000000000 0 220 140
-0.109715342 -0.111412265 0.000000000 0 220 138
-0.107839656 -0.078495555 0.000000000 0 220 137
-0.105860647 -0.026204238 0.000000000 0 220 136
-0.103849148 0.032702456 0.000000000 0 220 135
-0.101883833 0.083851159 0.000000000 0 220 134
-0.100032400 0.114761555 0.000000000 0 220 132
-0.098334356 0.117890389 0.000000000 0 220 131
-0.096792213 0.092472068 0.000000000 0 220 130
-0.095370068 0.044705328 0.000000000 0 220 129
-0.094003050 -0.013758775 0.000000000 0 220 128
-0.092612672 -0.068659569 0.000000000 0 220 126
-0.091126267 -0.106605632 0.000000000 0 220 125
-0.089494550 -0.118341865 0.000000000 0 220 124
-0.087703532 -0.101007322 0.000000000 0 220 123
-0.085778225 -0.058833229 0.000000000 0 220 121
-0.083776487 -0.002110764 0.000000000 0 220 120
-0.081774764 0.055319859 0.000000000 0 220 119
-0.079849426 0.099445462 0.000000000 0 220 118
-0.078058230 0.119498916 0.000000000 0 220 117
-0.076426323 0.110585705 0.000000000 0 220 115
-0.074939737 0.074878103 0.000000000 0 220 114
-0.073549353 0.021085044 0.000000000 0 220 113
-0.072182397 -0.037672294 0.000000000 0 220 112
-0.070760438 -0.087061691 0.000000000 0 220 110
-0.069218430 -0.115036345 0.000000000 0 220 109
-0.067520595 -0.114773796 0.000000000 0 220 108
-0.065669287 -0.086340384 0.000000000 0 220 107
-0.063704070 -0.036674986 0.000000000 0 220 106
-0.061692774 0.022103737 0.000000000 0 220 104
-0.059713947 0.075653639 0.000000000 0 220 103
-0.057838320 0.110908546 0.000000000 0 220 102
-0.056111764 0.119265365 0.000000000 0 220 101
-0.054543537 0.098682993 0.000000000 0 220 100
-0.053104296 0.054180466 0.000000000 0 220 98
-0.051733285 -0.003387603 0.000000000 0 220 97
-0.050353103 -0.059979069 0.000000000 0 220 96
-0.048888501 -0.101790078 0.000000000 0 220 95
-0.047284847 -0.118622624 0.000000000 0 220 93
-0.045521639 -0.106372487 0.000000000 0 220 92
-0.043617226 -0.068030525 0.000000000 0 220 91
-0.041624060 -0.012952898 0.000000000 0 220 90
-0.039616807 0.045421402 0.000000000 0 220 89
-0.037672935 0.092848825 0.000000000 0 220 87
-0.035855133 0.117756907 0.000000000 0 220 86
-0.034194754 0.114066537 0.000000000 0 220 85
-0.032685121 0.082675863 0.000000000 0 220 84
-0.031282768 0.031240830 0.000000000 0 220 83
-0.029917763 -0.027692712 0.000000000 0 220 81
-0.028511316 -0.079749530 0.000000000 0 220 80
-0.026994737 -0.112232040 0.000000000 0 220 79
-0.025326034 -0.117218004 0.000000000 0 220 78
-0.023500533 -0.093493316 0.000000000 0 220 76
-0.021551650 -0.046848138 0.000000000 0 220 75
-0.019542932 0.011335576 0.000000000 0 220 74
-0.017552685 0.066861092 0.000000000 0 220 73
-0.015654445 0.106179970 0.000000000 0 220 72
-0.013899467 0.119697718 0.000000000 0 220 70
-0.012303861 0.104114278 0.000000000 0 220 69
-0.010845202 0.063229153 0.000000000 0 220 68
-0.009467408 0.007014429 0.000000000 0 220 67
-0.008094494 -0.050817833 0.000000000 0 220 65
-0.006649700 -0.096161117 0.000000000 0 220 64
-0.005073532 -0.117955649 0.000000000 0 220 63
-0.003338543 -0.110886646 0.000000000 0 220 62
-0.001456014 -0.076680970 0.000000000 0 220 61
0.000526749 -0.023685685 0.000000000 1 220 60
0.002537771 0.035168062 0.000000000 2 220 59
0.004498548 0.085519766 0.000000000 4 220 59
0.006342499 0.115083376 0.000000000 6 220 59
0.008031985 0.116644375 0.000000000 7 220 58
0.009566529 0.089819539 0.000000000 9 220 58
0.010983926 0.041150930 0.000000000 10 220 58
0.012350163 -0.017490453 0.000000000 12 220 57
0.013744036 -0.071800625 0.000000000 14 220 57
0.015237379 -0.108532247 0.000000000 15 220 56
0.016877819 -0.118726514 0.000000000 17 220 56
0.018677086 -0.099898662 0.000000000 18 220 56
0.020608238 -0.056644215 0.000000000 20 220 55
0.022612159 0.000482105 0.000000000 21 220 55
0.024611846 0.057541401 0.000000000 23 220 55
0.026531418 0.100611032 0.000000000 25 220 54
0.028314640 0.119181568 0.000000000 26 220 54
0.029938340 0.108720125 0.000000000 28 220 53
0.031418413 0.071776745 0.000000000 29 220 53
0.032805708 0.017361844 0.000000000 31 220 53
0.034173983 -0.041251641 0.000000000 33 220 52
0.035601226 -0.089766551 0.000000000 34 220 52
0.037151358 -0.116349352 0.000000000 36 220 52
0.038858090 -0.114517150 0.000000000 37 220 51
0.040717178 -0.084719197 0.000000000 39 220 51
0.042686998 -0.034227333 0.000000000 41 220 50
0.044699002 0.024638125 0.000000000 42 220 50
0.046674380 0.077513990 0.000000000 44 220 50
0.048543345 0.111498119 0.000000000 45 220 49
0.050261817 0.118297702 0.000000000 47 220 49
0.051822562 0.096251504 0.000000000 49 220 49
0.053256823 0.050735649 0.000000000 50 220 48
0.054626713 -0.007147935 0.000000000 52 220 48
0.056010114 -0.063280158 0.000000000 53 220 47
0.057481433 -0.103969152 0.000000000 55 220 47
0.059093901 -0.119290638 0.000000000 56 220 47
0.060865943 -0.105509015 0.000000000 58 220 46
0.062777273 -0.065988729 0.000000000 60 220 46
0.064773656 -0.010373539 0.000000000 61 220 46
0.066780018 0.047766344 0.000000000 63 220 45
0.068718737 0.094244736 0.000000000 64 220 45
0.070529011 0.117720375 0.000000000 66 220 44
0.072181021 0.112463995 0.000000000 68 220 44
0.073683729 0.079755472 0.000000000 69 220 44
0.075082529 0.027572249 0.000000000 71 220 43
0.076448082 -0.031357203 0.000000000 72 220 43
0.077859298 -0.082658629 0.000000000 74 220 43
0.079383691 -0.113818734 0.000000000 76 220 42
0.081061268 -0.117237901 0.000000000 77 220 42
0.082894735 -0.092084245 0.000000000 79 220 41
0.084848960 -0.044496616 0.000000000 80 220 41
0.086858935 0.013913207 0.000000000 82 220 41
0.088846202 0.068893283 0.000000000 84 220 40
0.090738042 0.107028268 0.000000000 85 220 40
0.092484759 0.119012280 0.000000000 87 220 40
0.094072219 0.101919407 0.000000000 88 220 39
0.095525089 0.059917514 0.000000000 90 220 39
0.096900939 0.003251267 0.000000000 91 220 38
0.098275911 -0.054257212 0.000000000 93 220 38
0.099726611 -0.098580417 0.000000000 95 220 38
0.101310950 -0.118907424 0.000000000 96 220 37
0.103054686 -0.110281424 0.000000000 98 220 37
0.104944021 -0.074809157 0.000000000 99 220 37
0.106929988 -0.021146791 0.000000000 101 220 36
0.108940170 0.037611839 0.000000000 103 220 36
0.110896126 0.087129768 0.000000000 104 220 35
0.112732521 0.115324163 0.000000000 106 220 35
0.114413288 0.115314412 0.000000000 107 220 35
0.115940343 0.087100597 0.000000000 109 220 34
0.117353140 0.037563567 0.000000000 111 220 34
0.118719070 -0.021213903 0.000000000 112 220 34
0.120116586 -0.074894525 0.000000000 114 220 33
0.121617010 -0.110384608 0.000000000 115 220 33
0.123266129 -0.119028182 0.000000000 117 220 32
0.125073655 -0.098718780 0.000000000 119 220 32
0.127010520 -0.054413417 0.000000000 120 220 32
0.129016315 0.003076830 0.000000000 122 220 31
0.131013696 0.059724366 0.000000000 123 220 31
0.132927330 0.101706940 0.000000000 125 220 31
0.134702290 0.118780213 0.000000000 127 220 30
0.136317465 0.106776739 0.000000000 128 220 30
0.137790940 0.068622588 0.000000000 130 220 29
0.139175292 0.013623737 0.000000000 131 220 29
0.140544557 -0.044804494 0.000000000 133 220 29
0.141976756 -0.092410148 0.000000000 134 220 28
0.143534296 -0.117581575 0.000000000 136 220 28
0.145249390 -0.114180109 0.000000000 138 220 28
0.147115415 -0.083037879 0.000000000 139 220 27
0.149089003 -0.031754636 0.000000000 141 220 27
0.151100764 0.027156143 0.000000000 142 220 26
0.153071820 0.079320251 0.000000000 144 220 26
0.154933235 0.112009396 0.000000000 146 220 26
0.156642704 0.117246386 0.000000000 147 220 25
0.158195152 0.093751302 0.000000000 149 220 25
0.159623948 0.047253843 0.000000000 150 220 25
0.160992308 -0.010904679 0.000000000 152 220 24
0.162378434 -0.066538019 0.000000000 154 220 24
0.163856028 -0.106076053 0.000000000 155 220 23
0.165476653 -0.119875331 0.000000000 157 220 23
0.167256760 -0.104571622 0.000000000 158 220 23
0.169174155 -0.063900642 0.000000000 160 220 22
0.171172996 -0.007786846 0.000000000 162 220 22
0.173177459 0.050077828 0.000000000 163 220 22
0.175110656 0.095574345 0.000000000 165 220 21
0.176912863 0.117600951 0.000000000 166 220 21
0.178556351 0.110781798 0.000000000 168 220 20
0.180052130 0.076778361 0.000000000 169 220 20
0.181447435 0.023883754 0.000000000 171 220 20
0.182813643 -0.034999984 0.000000000 173 220 19
0.184229390 -0.085509738 0.000000000 174 220 19
0.185761291 -0.115325304 0.000000000 176 220 19
0.187447752 -0.117175071 0.000000000 177 220 18
0.189289249 -0.090610050 0.000000000 179 220 18
0.191248406 -0.042113347 0.000000000 181 220 18
0.193259286 0.016481408 0.000000000 182 220 17
0.195243439 0.070877048 0.000000000 184 220 17
0.197128698 0.107800905 0.000000000 185 220 16
0.198867075 0.118242496 0.000000000 187 220 16
0.200446610 0.099652384 0.000000000 189 220 16
0.201893897 0.056563623 0.000000000 190 220 15
0.203267801 -0.000514071 0.000000000 192 220 15
0.204645391 -0.057658216 0.000000000 193 220 15
0.206102332 -0.100930077 0.000000000 195 220 14
0.207695277 -0.119775269 0.000000000 197 220 14
0.209447788 -0.109598527 0.000000000 198 220 13
0.211344231 -0.072884899 0.000000000 200 220 13
0.213333976 -0.018593327 0.000000000 201 220 13
0.215343624 0.040028986 0.000000000 203 220 12
0.217295038 0.088678003 0.000000000 204 220 12
0.219124103 0.115482949 0.000000000 206 220 12
0.220796589 0.113902166 0.000000000 208 220 11
0.222316717 0.084318921 0.000000000 209 220 11
0.223725428 0.033948372 0.000000000 211 220 10
0.225091242 -0.024923386 0.000000000 212 220 10
0.226493037 -0.077936129 0.000000000 214 220 10
0.228000844 -0.112159029 0.000000000 216 220 9
0.229658980 -0.119245237 0.000000000 217 220 9
0.231474891 -0.097468258 0.000000000 219 220 9
0.233417625 -0.052143115 0.000000000 220 220 8
0.235425332 0.005670214 0.000000000 222 220 8
0.237420313 0.061865389 0.000000000 224 220 7
0.239327906 0.102730530 0.000000000 225 220 7
0.241094632 0.118293803 0.000000000 227 220 7
0.242701872 0.104756195 0.000000000 228 220 6
0.244169280 0.065418105 0.000000000 230 220 6
0.245551132 0.009874196 0.000000000 232 220 6
0.246922197 -0.048327201 0.000000000 233 220 5
0.248360011 -0.094989389 0.000000000 235 220 5
0.249925864 -0.118730879 0.000000000 236 220 4
0.251649841 -0.113761922 0.000000000 238 220 4
0.253523333 -0.081296968 0.000000000 239 220 4
0.255501356 -0.029258617 0.000000000 241 220 3
0.257513283 0.029655713 0.000000000 243 220 3
0.259480394 0.081070799 0.000000000 244 220 3
0.261334842 0.112441146 0.000000000 246 220 2
0.263036182 0.116111262 0.000000000 247 220 2
0.264581326 0.091183500 0.000000000 249 220 1
0.266005548 0.043736943 0.000000000 251 220 1
0.267373447 -0.014655368 0.000000000 252 220 1
0.268763135 -0.069750302 0.000000000 254 220 0
0.270247773 -0.108109038 0.000000000 255 220 0
0.271877234 -0.120375769 0.000000000 255 219 0
0.273665999 -0.103560149 0.000000000 255 217 0
0.275589716 -0.061766842 0.000000000 255 216 0
0.277591169 -0.005194020 0.000000000 255 215 0
0.279593894 0.052354321 0.000000000 255 214 0
0.281521611 0.096836436 0.000000000 255 213 0
0.283315930 0.117398148 0.000000000 255 212 0
0.284951026 0.109020804 0.000000000 255 211 0
0.286440013 0.073745892 0.000000000 255 210 0
0.287831837 0.020176862 0.000000000 255 208 0
0.289198800 -0.038619634 0.000000000 255 207 0
0.290619234 -0.088301797 0.000000000 255 206 0
0.292158860 -0.116751340 0.000000000 255 205 0
0.293854040 -0.117029963 0.000000000 255 204 0
0.295703170 -0.089071920 0.000000000 255 203 0
0.297667165 -0.039700292 0.000000000 255 202 0
0.299678919 0.019038080 0.000000000 255 201 0
0.301659626 0.072810863 0.000000000 255 200 0
0.303538123 0.108497347 0.000000000 255 198 0
0.305268123 0.117389052 0.000000000 255 197 0
0.306839655 0.097314508 0.000000000 255 196 0
0.308281380 0.053168896 0.000000000 255 195 0
0.309653549 -0.004280161 0.000000000 255 194 0
0.311033404 -0.061019591 0.000000000 255 193 0
0.312496357 -0.103209433 0.000000000 255 192 0
0.314097590 -0.120559183 0.000000000 255 191 0
0.315858424 -0.108838474 0.000000000 255 189 0
0.317761396 -0.070908965 0.000000000 255 188 0
0.319754222 -0.016026194 0.000000000 255 187 0
0.321762752 0.042418280 0.000000000 255 186 0
0.323709048 0.090163867 0.000000000 255 185 0
0.325530224 0.115560277 0.000000000 255 184 0
0.327193911 0.112409496 0.000000000 255 183 0
0.328706516 0.081477942 0.000000000 255 182 0
0.330111000 0.030309359 0.000000000 255 180 0
0.331476598 -0.028615232 0.000000000 255 179 0
0.332882317 -0.080922796 0.000000000 255 178 0
0.334397233 -0.113854495 0.000000000 255 177 0
0.336063726 -0.119378578 0.000000000 255 176 0
0.337887303 -0.096149629 0.000000000 255 175 0
0.339835113 -0.049836865 0.000000000 255 174 0
0.341844034 0.008258889 0.000000000 255 173 0
0.343835864 0.063962207 0.000000000 255 171 0
0.345736961 0.103681250 0.000000000 255 170 0
0.347495320 0.117723744 0.000000000 255 169 0
0.349094282 0.102661584 0.000000000 255 168 0
0.350555626 0.062167218 0.000000000 255 167 0
0.351934966 0.006117481 0.000000000 255 166 0
0.353307760 -0.051815909 0.000000000 255 165 0
0.354751311 -0.097501682 0.000000000 255 164 0
0.356325398 -0.119796505 0.000000000 255 162 0
0.358058105 -0.113263603 0.000000000 255 161 0
0.359938841 -0.079498969 0.000000000 255 160 0
0.361920844 -0.026742075 0.000000000 255 159 0
0.363932640 0.032133914 0.000000000 255 158 0
0.365895432 0.082763320 0.000000000 255 157 0
0.367742492 0.112792323 0.000000000 255 156 0
0.369435317 0.114892530 0.000000000 255 155 0
0.370972927 0.088549434 0.000000000 255 153 0
0.372392378 0.040187441 0.000000000 255 152 0
0.373759392 -0.018397184 0.000000000 255 151 0
0.375152488 -0.072914372 0.000000000 255 150 0
0.376643886 -0.110066219 0.000000000 255 149 0
0.378281933 -0.120791337 0.000000000 255 148 0
0.380079027 -0.102475539 0.000000000 255 147 0
0.382008840 -0.059589356 0.000000000 255 146 0
0.384012535 -0.002597713 0.000000000 255 144 0
0.386013519 0.054593360 0.000000000 255 143 0
0.387935810 0.098029250 0.000000000 255 142 0
0.389722408 0.117110939 0.000000000 255 141 0
0.391349580 0.107180980 0.000000000 255 140 0
0.392832436 0.070659612 0.000000000 255 139 0
0.394221276 0.016454370 0.000000000 255 138 0
0.395589590 -0.042212954 0.000000000 255 137 0
0.397015472 -0.091032077 0.000000000 255 135 0
0.398563254 -0.118095236 0.000000000 255 134 0
0.400267432 -0.116802315 0.000000000 255 133 0
0.402124171 -0.087471050 0.000000000 255 132 0
0.404092903 -0.037259357 0.000000000 255 131 0
0.406105358 0.021580720 0.000000000 255 130 0
0.408082521 0.074692305 0.000000000 255 129 0
0.409954368 0.109115829 0.000000000 255 128 0
0.411676245 0.116451073 0.000000000 255 126 0
0.413240054 0.094906158 0.000000000 255 125 0
0.414676684 0.049735124 0.000000000 255 124 0
0.416047630 -0.008044398 0.000000000 255 123 0
0.417430608 -0.064338668 0.000000000 255 122 0
0.418900318 -0.105416304 0.000000000 255 121 0
0.420510582 -0.121258189 0.000000000 255 120 0
0.422280411 -0.108001778 0.000000000 255 119 0
0.424190106 -0.068883295 0.000000000 255 118 0
0.426186158 -0.013448568 0.000000000 255 116 0
0.428193616 0.044776299 0.000000000 255 115 0
0.430134949 0.091584311 0.000000000 255 114 0
0.431948382 0.115553804 0.000000000 255 113 0
0.433603987 0.110834902 0.000000000 255 112 0
0.435109870 0.078576539 0.000000000 255 111 0
0.436510529 0.026646197 0.000000000 255 110 0
0.437876481 -0.032289242 0.000000000 255 109 0
0.439286895 -0.083854026 0.000000000 255 107 0
0.440809648 -0.115470580 0.000000000 255 106 0
0.442485317 -0.119427887 0.000000000 255 105 0
0.444317212 -0.094762799 0.000000000 255 104 0
0.446270739 -0.047494978 0.000000000 255 103 0
0.448281302 0.010841846 0.000000000 255 102 0
0.450270779 0.066013312 0.000000000 255 101 0
0.452165684 0.104557532 0.000000000 255 100 0
0.453916310 0.117068948 0.000000000 255 98 0
0.455507485 0.100492764 0.000000000 255 97 0
0.456963481 0.058870830 0.000000000 255 96 0
0.458340986 0.002355043 0.000000000 255 95 0
0.459716142 -0.055269206 0.000000000 255 94 0
0.461165879 -0.099945996 0.000000000 255 93 0
0.462748845 -0.120778097 0.000000000 255 92 0
0.464490488 -0.112685631 0.000000000 255 91 0
0.466378559 -0.077645023 0.000000000 255 89 0
0.468364381 -0.024207200 0.000000000 255 88 0
0.470375598 0.034588698 0.000000000 255 87 0
0.472333944 0.084396647 0.000000000 255 86 0
0.474173882 0.113063107 0.000000000 255 85 0
0.475858319 0.113592272 0.000000000 255 84 0
0.477388841 0.085852699 0.000000000 255 83 0
0.478803953 0.036609638 0.000000000 255 82 0
0.480170679 -0.022125704 0.000000000 255 80 0
0.481568080 -0.076026396 0.000000000 255 79 0
0.483067016 -0.111945005 0.000000000 255 78 0
0.484713924 -0.121121014 0.000000000 255 77 0
0.486519711 -0.101318074 0.000000000 255 76 0
0.488455678 -0.057369637 0.000000000 255 75 0
0.490461926 0.000000417 0.000000000 255 74 0
0.492461021 0.056793442 0.000000000 255 73 0
0.494377714 0.099152141 0.000000000 255 71 0
0.496156313 0.116739973 0.000000000 255 70 0
0.497775622 0.105264233 0.000000000 255 69 0
0.499252501 0.067522187 0.000000000 255 68 0
0.500638858 0.012719185 0.000000000 255 67 0
0.502008884 -0.045777156 0.000000000 255 66 0
0.503440668 -0.093698268 0.000000000 255 65 0
0.504997041 -0.119355431 0.000000000 255 64 0
0.506710702 -0.116491580 0.000000000 255 62 0
0.508575580 -0.085807643 0.000000000 255 61 0
0.510549319 -0.034791530 0.000000000 255 60 0
0.512562654 0.024108424 0.000000000 255 59 0
0.514536763 0.076520703 0.000000000 255 58 0
0.516402293 0.109656374 0.000000000 255 57 0
0.518116711 0.115429378 0.000000000 255 56 0
0.519673563 0.092429117 0.000000000 255 55 0
0.521106088 0.046264440 0.000000000 255 53 0
0.522476568 -0.011804477 0.000000000 255 52 0
0.523863438 -0.067613216 0.000000000 255 51 0
0.525340733 -0.107548888 0.000000000 255 50 0
0.526960423 -0.121870959 0.000000000 255 49 0
0.528739865 -0.107087605 0.000000000 255 48 0
0.530657148 -0.066807719 0.000000000 255 47 0
0.532657086 -0.010860314 0.000000000 255 46 0
0.534664375 0.047103285 0.000000000 255 44 0
0.536601789 0.092939913 0.000000000 255 43 0
0.538409031 0.115465026 0.000000000 255 42 0
0.540057359 0.109181013 0.000000000 255 41 0
0.541557595 0.075618582 0.000000000 255 40 0
