<svg xmlns="http://www.w3.org/2000/svg" width="900" height="700" viewBox="0 0 900 700">
<rect width="100%" height="100%" fill="white"/>
<text x="30" y="35" font-family="monospace" font-size="20">OpenVINS nozupt top-down trajectory</text>
<text x="30" y="62" font-family="monospace" font-size="14">poses=2128 duration=70.89s path=103.33m closure=11.43m ratio=0.111</text>
<text x="30" y="85" font-family="monospace" font-size="14">x range=10.92m, y range=8.19m, z range=16.23m</text>
<polyline points="685.08,474.94 685.10,474.90 685.10,474.85 685.10,474.79 685.11,474.72 685.12,474.65 685.13,474.57 685.15,474.49 685.16,474.41 685.18,474.32 685.21,474.24 685.24,474.15 685.29,474.05 685.34,473.96 685.41,473.87 685.47,473.77 685.54,473.68 685.62,473.59 685.70,473.52 685.79,473.45 685.88,473.39 685.98,473.35 686.09,473.30 686.20,473.26 686.31,473.22 686.41,473.18 686.51,473.14 686.62,473.10 686.74,473.05 686.86,473.00 687.01,472.95 687.16,472.88 687.32,472.82 687.49,472.77 687.68,472.73 687.87,472.70 688.09,472.67 688.32,472.65 688.55,472.63 688.80,472.61 689.05,472.59 689.32,472.58 689.59,472.57 689.88,472.56 690.17,472.56 690.48,472.55 690.80,472.56 691.13,472.57 691.48,472.60 691.83,472.64 692.20,472.69 692.58,472.75 692.98,472.83 693.39,472.92 693.82,473.02 694.26,473.14 694.72,473.25 695.20,473.37 695.70,473.50 696.21,473.64 696.73,473.80 697.27,473.98 697.82,474.17 698.38,474.38 698.96,474.61 699.56,474.85 700.19,475.09 700.85,475.33 701.52,475.58 702.23,475.85 702.95,476.15 703.70,476.47 704.45,476.79 705.20,477.13 705.96,477.49 706.74,477.87 707.53,478.28 708.33,478.72 709.16,479.18 709.99,479.65 710.85,480.16 711.73,480.68 712.62,481.22 713.55,481.77 714.51,482.33 715.49,482.91 716.50,483.50 717.52,484.12 718.56,484.76 719.63,485.42 720.73,486.10 721.85,486.79 722.99,487.49 724.14,488.21 725.31,488.97 726.49,489.77 727.71,490.60 728.95,491.44 730.24,492.30 731.54,493.15 732.87,494.02 734.22,494.92 735.60,495.83 737.03,496.77 738.49,497.73 739.97,498.70 741.48,499.68 743.00,500.69 744.55,501.72 746.12,502.79 747.71,503.90 749.34,505.04 751.01,506.22 752.70,507.44 754.42,508.69 756.18,509.96 757.97,511.24 759.78,512.54 761.62,513.84 763.50,515.16 765.41,516.51 767.35,517.88 769.32,519.29 771.32,520.72 773.35,522.18 775.42,523.68 777.53,525.21 779.67,526.77 781.84,528.37 784.03,530.01 786.26,531.69 788.53,533.43 790.83,535.23 793.17,537.09 795.55,538.99 797.96,540.95 631.94,375.25 630.49,380.46 640.28,393.82 673.12,437.91 673.57,440.13 674.03,442.46 674.50,444.89 674.95,447.43 735.13,300.55 770.42,325.74 792.99,317.80 789.69,321.82 789.95,323.57 749.44,323.96 741.14,343.96 736.65,362.52 737.14,367.15 737.79,363.21 777.03,310.62 823.50,290.15 820.34,292.54 816.00,297.47 709.39,385.17 705.83,401.87 734.84,383.97 753.76,349.90 753.89,314.76 741.68,262.94 718.48,202.37 758.27,177.54 689.45,104.13 698.75,114.13 672.42,114.34 627.61,154.93 645.12,175.73 691.72,70.00 646.72,93.10 622.51,208.13 627.01,210.63 612.83,217.38 594.53,228.51 583.98,238.32 573.30,250.81 566.19,263.93 560.80,276.12 554.16,257.21 542.97,253.62 536.63,264.00 531.16,274.28 522.94,295.48 515.67,293.20 508.72,290.11 504.70,288.08 502.67,282.96 498.56,284.16 494.53,284.22 521.55,293.95 512.90,300.09 505.23,298.28 492.06,342.92 494.05,332.11 495.51,319.68 492.77,316.09 496.11,275.04 489.98,264.01 481.06,255.77 469.44,237.14 458.95,230.34 447.81,227.88 436.06,227.34 425.83,225.01 415.83,224.46 404.97,227.55 393.16,232.53 381.73,238.61 372.50,246.85 364.29,255.18 347.45,252.80 346.81,250.94 337.89,251.24 339.89,252.86 336.06,267.46 330.46,279.81 325.44,289.07 297.16,284.79 281.06,279.47 277.06,271.62 279.67,260.92 280.67,286.74 265.85,302.93 259.25,307.61 253.47,315.63 253.76,334.46 256.28,344.99 265.74,352.78 277.83,358.64 285.85,363.46 288.11,365.90 298.45,380.83 303.62,399.17 304.20,422.40 309.50,439.20 304.70,454.45 276.47,457.65 245.40,467.62 227.74,489.35 219.84,523.07 224.30,554.97 220.89,556.32 228.23,571.76 225.92,565.24 223.54,559.55 220.69,556.50 217.31,554.79 213.54,553.15 200.93,550.70 196.97,549.10 181.18,606.26 188.77,580.43 150.56,596.20 158.79,568.09 169.84,513.30 177.94,497.28 197.77,487.36 217.83,488.97 227.15,503.92 235.07,487.35 232.60,470.80 231.82,454.57 232.55,438.03 234.79,426.48 240.00,423.69 241.24,418.27 240.29,411.76 240.11,401.81 246.44,404.63 248.30,401.66 247.26,399.44 243.39,397.42 239.03,390.71 246.47,376.41 248.35,371.99 226.28,388.33 223.30,410.91 215.20,416.92 212.62,438.22 215.54,476.90 220.87,530.44 222.13,585.67 237.11,627.15 247.96,628.71 253.69,630.00 254.70,627.88 260.66,624.93 252.50,608.43 238.50,590.11 229.08,571.99 222.04,564.71 225.34,534.07 237.65,498.88 236.37,487.38 227.65,465.33 223.87,453.81 218.67,449.22 213.10,450.78 206.79,456.76 201.22,464.85 195.30,474.93 175.94,483.63 176.67,492.48 178.43,503.15 181.67,514.32 185.34,524.14 189.40,532.59 194.40,538.92 198.73,543.76 201.35,548.31 203.51,551.46 207.74,553.27 213.55,554.59 215.55,554.63 214.29,555.25 212.65,556.93 210.54,558.65 208.15,560.11 205.36,562.20 201.77,565.59 198.24,567.68 194.56,571.00 190.96,573.76 188.08,575.70 184.54,576.52 180.70,578.83 177.30,579.54 173.90,579.24 169.92,578.79 168.60,579.14 158.27,583.61 156.72,577.67 153.56,575.62 149.09,574.15 150.01,573.00 149.83,564.93 151.43,562.01 147.73,556.77 145.97,555.45 146.08,553.39 146.09,549.47 146.75,544.33 146.96,536.78 148.39,528.91 149.80,522.42 148.99,523.26 144.91,523.05 141.90,522.44 140.53,522.13 131.79,535.61 137.50,544.02 146.73,548.06 152.12,549.31 154.92,548.24 156.52,546.72 157.54,546.13 161.02,546.86 162.67,547.54 164.36,547.86 165.46,548.15 167.01,548.27 167.52,548.24 168.93,548.82 170.24,549.77 170.64,550.37 170.23,551.10 169.45,551.43 167.82,551.15 165.45,550.09 163.83,550.44 163.28,551.96 162.98,553.15 162.75,553.70 162.14,554.96 161.47,556.40 160.57,557.62 160.01,558.92 159.67,560.81 159.76,562.13 159.64,563.29 158.51,564.38 157.32,566.24 156.07,568.98 154.55,571.65 152.11,574.24 150.24,576.80 149.30,578.67 148.66,580.39 147.97,582.66 146.88,585.18 145.54,587.63 144.04,590.08 142.47,592.27 141.05,594.82 139.19,597.33 137.03,599.32 134.74,601.58 133.12,602.47 131.83,602.61 131.02,602.83 129.95,602.87 128.49,602.55 126.68,602.43 124.48,602.14 122.16,601.60 120.41,602.08 119.24,602.88 117.81,602.23 116.19,600.24 114.87,597.78 113.65,597.47 112.28,595.26 110.90,593.06 109.48,591.93 107.09,572.39 107.71,570.07 102.49,562.99 101.01,561.75 99.45,559.24 103.26,554.70 105.34,550.52 103.65,548.32 101.93,547.22 99.55,543.40 96.90,542.03 95.42,539.26 94.82,535.66 95.77,535.09 96.70,534.60 97.59,533.89 98.96,533.90 99.87,534.28 100.59,533.99 101.40,532.97 102.40,531.61 103.46,528.41 103.90,524.98 104.02,527.26 103.91,528.84 103.22,529.73 104.67,534.80 106.66,539.86 108.11,542.35 107.98,544.54 108.42,544.22 108.38,543.92 108.30,543.92 108.12,544.32 107.73,545.37 107.64,548.08 107.94,550.14 108.58,551.10 109.07,551.38 109.49,552.26 109.78,553.54 110.19,556.10 110.29,556.74 110.33,558.01 109.93,558.74 110.09,559.02 110.65,559.37 111.11,559.88 110.58,558.76 110.90,559.07 111.15,559.59 111.19,560.20 111.07,560.97 110.49,564.24 111.09,565.27 110.47,562.16 109.69,562.71 110.55,563.69 111.18,564.07 112.16,565.00 113.92,567.78 114.65,568.16 114.71,567.59 115.21,567.97 116.32,568.39 117.38,568.48 119.14,569.47 120.16,569.38 120.65,569.52 121.31,569.58 121.98,567.36 123.04,567.05 122.88,568.71 122.70,569.18 125.42,569.91 125.75,570.83 125.92,571.40 126.50,571.66 127.14,571.58 126.82,571.28 126.87,571.94 127.51,573.04 128.25,573.52 128.38,573.89 128.54,574.21 128.69,574.66 128.75,574.87 128.41,574.90 129.22,575.67 129.90,575.36 130.07,576.14 130.29,576.14 130.13,576.57 130.00,577.79 130.01,577.98 129.63,577.90 128.99,577.61 128.25,577.80 127.98,578.16 127.18,580.89 126.65,581.17 125.52,585.83 124.96,585.07 125.28,585.15 125.25,585.19 125.14,585.23 124.98,585.26 124.78,585.25 124.58,585.20 122.96,580.37 122.18,579.88 121.80,578.42 121.97,572.57 122.64,570.71 122.73,568.52 124.05,567.63 125.08,566.89 125.68,565.95 126.59,565.34 127.28,564.99 127.85,565.00 128.31,565.20 128.59,565.59 128.66,565.96 128.87,566.17 128.85,566.44 128.18,566.91 127.26,567.39 126.92,567.66 126.74,567.79 126.37,568.32 125.99,569.11 125.65,569.97 125.22,570.42 124.76,570.95 124.42,571.55 124.18,571.96 124.01,572.16 123.58,572.49 123.00,572.89 122.51,573.01 121.91,573.06 121.28,572.98 120.78,572.48 120.26,571.63 119.44,570.85 118.43,569.75 117.49,568.51 116.43,567.37 115.10,566.38 113.77,565.16 112.48,563.92 111.00,562.68 109.75,561.28 109.23,559.32 109.32,557.41 109.30,556.22 109.18,555.41 109.03,554.30 108.63,553.11 108.29,551.63 108.20,550.14 108.39,549.37 108.50,548.55 108.54,547.82 108.56,547.25 108.58,546.90 108.73,546.66 109.05,546.35 109.23,545.84 109.26,545.52 109.29,545.46 109.27,545.64 109.32,545.94 109.48,546.29 109.72,546.68 110.12,547.15 110.31,547.95 110.16,548.99 110.10,549.71 110.25,550.02 109.95,549.81 110.36,552.40 110.64,553.74 110.55,554.38 110.23,555.46 110.26,556.40 111.07,557.25 111.55,558.17 111.35,558.28 111.38,558.26 111.46,558.46 111.60,558.50 111.21,557.31 111.00,556.13 110.59,555.83 110.24,556.32 109.95,556.70 109.72,556.27 109.50,555.51 108.99,554.88 108.55,552.66 108.06,551.40 107.93,549.97 107.68,548.68 107.28,547.83 107.54,547.35 107.71,546.67 107.54,546.10 106.95,545.86 106.64,545.68 106.78,545.21 107.74,545.36 107.62,544.08 107.31,543.16 107.01,541.85 107.11,541.07 107.47,540.72 107.56,541.22 107.39,541.95 107.57,541.16 108.13,540.37 108.41,539.57 108.36,538.81 108.22,537.77 108.46,536.34 108.91,535.32 108.42,535.55 108.08,536.83 108.56,538.28 109.68,537.53 109.55,536.48 109.11,535.95 109.23,535.82 109.07,535.71 108.67,536.15 108.62,537.40 108.87,538.52 109.04,539.20 108.88,539.83 108.68,540.99 108.59,542.54 108.38,543.65 108.30,544.01 108.20,544.04 108.04,544.14 107.71,544.52 107.45,545.16 107.31,546.13 107.12,547.05 107.08,547.44 107.39,547.34 107.73,547.33 107.71,547.96 107.69,549.14 107.69,550.23 107.55,550.74 107.48,550.57 107.57,549.66 107.61,548.89 107.41,548.89 107.19,549.44 107.17,550.16 107.27,550.77 107.29,551.24 107.27,551.84 107.35,552.57 107.52,553.72 107.44,554.90 107.38,555.54 107.55,555.65 107.51,555.50 107.36,555.40 107.45,556.08 107.21,556.86 106.65,557.19 106.21,557.00 106.17,556.71 106.30,556.64 106.34,556.73 106.47,556.67 106.34,556.33 105.65,555.68 105.27,555.52 105.68,555.18 106.58,554.29 107.74,552.86 108.71,551.57 109.19,550.38 109.51,548.97 111.14,547.66 113.17,546.65 114.93,545.67 115.54,543.92 117.90,542.72 120.13,541.73 121.66,541.24 122.82,540.80 124.58,540.74 125.30,540.23 124.92,539.36 127.09,538.70 129.22,539.98 123.31,537.99 125.70,536.69 126.33,533.76 126.85,533.27 127.60,532.33 127.74,532.19 128.25,531.81 128.66,531.68 129.05,531.42 129.07,531.38 129.13,531.69 129.24,532.36 129.39,532.83 129.65,532.94 129.27,533.32 130.10,533.22 130.35,533.49 130.50,533.45 130.48,533.57 131.07,533.69 131.85,533.53 132.35,533.80 131.88,533.13 132.34,532.81 133.27,533.57 134.45,533.38 133.70,533.21 133.48,531.82 133.31,529.69 133.23,528.56 133.26,527.57 133.21,526.53 133.16,525.84 133.31,525.10 133.74,524.64 134.48,524.55 135.47,525.37 136.09,525.62 136.72,525.89 137.49,526.28 138.21,526.79 138.77,527.30 139.17,527.89 139.61,528.34 140.01,528.62 140.36,528.94 140.65,528.48 141.14,529.86 140.94,529.36 141.20,529.16 140.86,529.33 140.76,530.03 140.42,531.00 140.49,531.97 140.91,532.53 140.65,531.90 140.77,531.48 140.87,531.96 140.99,532.58 141.29,533.06 141.34,533.30 141.25,533.69 141.27,534.13 141.20,534.23 141.08,534.52 140.88,534.97 140.77,535.55 140.81,536.26 140.87,537.03 140.75,537.66 140.74,538.10 140.63,538.43 140.41,538.78 140.06,539.28 139.67,539.89 139.49,540.58 139.39,541.33 139.20,542.30 138.57,542.24 137.79,541.90 137.44,541.89 137.11,541.80 136.87,541.75 136.90,541.77 136.90,541.82 136.83,541.92 136.67,542.10 136.47,542.32 135.99,542.95 134.59,539.69 133.88,536.04 133.38,535.77 132.24,535.49 131.75,534.88 131.57,532.49 132.39,532.62 133.99,533.75 134.15,533.52 134.16,532.49 134.46,532.09 134.90,532.39 135.39,532.42 135.48,532.85 135.64,533.20 134.76,533.18 134.16,533.39 133.65,533.58 133.03,533.82 131.87,534.05 130.71,534.59 129.48,535.19 127.60,535.58 125.91,535.50 124.48,535.87 122.46,536.01 120.30,536.38 119.64,536.59 120.02,537.21 120.34,537.56 120.41,538.06 119.87,538.27 119.63,536.86 118.50,535.57 117.64,534.79 117.08,534.74 116.38,534.74 115.66,534.26 114.97,534.21 114.33,534.97 113.77,535.75 113.32,535.85 112.86,535.74 112.48,535.58 112.12,535.45 111.71,535.29 111.23,535.06 110.60,535.05 110.00,535.43 109.42,535.85 108.94,536.06 108.53,536.27 108.03,536.77 107.40,537.34 106.70,537.92 106.15,538.00 105.56,537.89 104.92,537.76 104.42,538.20 103.70,538.35 103.03,538.49 102.40,538.87 101.74,539.46 101.24,539.88 100.79,539.83 99.98,539.99 99.34,539.97 98.28,539.73 96.30,539.29 94.83,539.28 94.04,537.85 93.04,536.66 92.45,534.60 92.35,533.43 91.45,532.01 90.51,530.51 89.76,529.02 89.33,527.55 88.81,526.19 88.34,524.79 88.25,523.50 88.11,522.52 87.58,521.56 87.01,520.66 86.67,519.79 86.52,518.93 86.55,518.11 86.77,517.44 86.96,516.95 87.00,516.83 87.04,516.43 87.03,515.89 87.14,515.39 87.14,514.80 87.54,514.31 87.66,513.95 87.63,513.66 87.38,513.54 87.04,513.23 86.71,512.72 86.39,512.20 86.23,512.02 86.39,512.06 86.47,511.85 86.31,511.71 86.12,511.76 85.86,511.84 85.62,512.01 85.59,512.27 85.52,512.55 85.36,512.69 85.15,512.70 84.96,512.62 84.74,512.41 84.58,512.26 84.44,512.28 84.37,512.41 84.23,512.40 84.11,512.35 84.00,512.29 83.88,512.20 83.79,511.97 83.66,511.57 83.53,511.04 83.36,510.44 83.20,509.94 83.08,509.49 83.03,508.67 82.94,507.81 82.81,506.75 82.64,505.68 82.55,504.58 82.28,503.81 81.94,502.91 81.44,502.10 80.93,501.28 80.68,500.52 80.48,499.86 80.34,499.28 80.23,498.57 80.21,499.32 80.54,498.23 81.19,497.67 82.39,497.64 83.19,497.71 83.88,497.42 83.89,496.96 84.30,496.74 84.76,496.73 84.95,496.95 85.18,497.19 85.71,497.77 85.73,498.02 85.74,497.96 85.59,497.71 85.16,497.81 84.48,497.73 84.13,497.31 83.92,497.33 83.63,497.41 82.23,496.57 82.07,497.06 82.01,497.22 81.96,497.51 81.77,497.48 81.58,498.51 81.58,499.26 83.67,498.68 83.05,498.25 83.14,497.63 83.22,497.31 82.92,497.07 82.68,497.07 82.64,496.84 82.80,496.71 83.12,496.64 83.37,496.62 83.72,496.83 83.66,497.14 83.72,496.99 83.32,497.19 83.43,496.92 83.29,496.07 83.18,495.57 84.52,493.40 84.95,492.74 84.55,490.65 84.81,490.97 84.96,490.64 84.98,487.45 84.88,486.97 84.77,486.26 84.65,485.32 84.74,484.62 84.81,483.96 84.84,483.35 84.87,483.05 84.99,483.19 85.70,483.66 85.66,484.54 85.24,484.92 84.99,485.17 84.85,485.03 85.25,484.82 85.10,483.99 84.33,483.56 84.07,483.77 83.98,483.51 83.75,483.19 83.27,483.25 82.94,483.30 82.73,483.29 82.54,483.65 82.61,484.28 81.91,484.51 82.67,486.18 82.68,486.62 82.67,486.85 82.67,487.28 82.69,487.71 82.73,487.92 82.73,488.02 82.72,488.13 82.73,488.29 82.70,488.55 82.68,488.79 82.71,489.00 82.70,489.23 82.59,489.35 82.44,489.43 82.42,489.30 82.71,489.55 82.75,489.54 82.65,489.37 82.68,488.86 82.98,487.05 83.21,485.58 83.57,485.73 83.84,485.55 84.02,485.54 84.09,485.68 84.10,485.73 84.12,485.63 84.15,485.56 84.24,485.63 84.37,485.82 84.50,486.12 84.58,486.44 84.62,486.46 84.43,486.06 84.47,485.71 84.71,485.58 85.02,485.30 84.95,484.82 84.80,484.56 84.95,485.01 84.98,485.77 84.92,485.92 84.74,485.11 84.56,484.90 84.25,484.81 83.79,485.31 83.57,485.83 83.55,486.29 83.54,486.66 83.45,487.01 83.27,487.33 83.07,487.68 82.94,488.15 82.94,488.85 83.15,488.98 83.27,488.81 83.41,488.69 83.74,490.03 83.88,490.05 84.13,490.01 84.17,488.69 84.52,488.50 84.75,488.05 84.85,487.50 84.89,486.99 84.97,486.57 85.09,486.05 85.13,485.36 85.21,484.81 85.27,484.24 85.35,483.81 85.52,483.64 85.21,480.77 85.30,480.72 85.46,481.01 85.52,480.94 85.55,480.68 85.58,480.40 85.60,480.10 85.61,479.88 85.59,479.59 85.59,479.44 85.62,479.38 85.67,479.41 85.73,479.49 85.74,479.47 85.69,479.41 85.67,479.45 85.66,479.57 85.69,479.62 85.67,479.58 85.62,479.55 85.56,479.46 85.52,479.39 85.44,479.32 85.35,479.45 85.35,479.59 85.16,479.63 85.07,479.20 84.98,479.52 84.80,479.46 85.06,480.13 85.15,481.19 85.12,481.13 85.09,481.14 85.04,481.02 84.85,481.54 84.73,481.42 84.60,481.32 84.72,481.35 84.91,479.15 84.31,478.57 84.40,478.35 84.57,478.01 84.61,477.65 84.39,477.17 83.50,475.65 83.29,474.41 83.19,473.97 83.43,473.35 84.04,472.15 84.74,471.38 85.04,471.07 85.35,470.80 85.72,470.69 86.10,470.63 86.42,470.54 86.73,470.52 87.16,470.57 87.82,470.13 88.23,469.93 88.51,469.88 88.74,469.86 88.87,469.99 88.85,470.13 88.82,470.35 88.74,470.31 88.67,469.63 88.92,468.83 89.04,470.46 89.28,470.70 89.38,470.31 89.47,470.18 89.51,469.86 89.46,469.83 89.58,470.80 89.77,471.46 89.92,471.88 90.05,472.08 90.18,472.31 90.24,472.76 90.21,473.23 90.23,473.76 90.34,474.13 90.43,474.35 90.43,474.45 90.43,474.48 90.52,474.69 90.58,475.06 90.55,475.38 90.54,475.63 90.58,475.81 90.61,475.92 90.62,476.01 90.66,476.20 90.69,476.53 90.66,476.88 90.68,477.12 90.63,477.15 90.57,477.39 90.59,477.74 90.65,477.99 90.71,478.23 90.74,478.56 90.76,478.95 90.72,479.43 90.64,479.80 90.66,480.03 90.68,480.23 90.63,480.46 90.60,480.78 90.62,481.11 90.64,481.46 90.62,481.83 90.57,482.11 90.56,482.32 90.50,482.56 90.41,482.88 90.43,483.26 90.52,483.62 90.64,483.93 90.72,484.20 90.74,484.49 90.74,484.76 90.75,485.12 90.73,485.54 90.74,485.96 90.81,486.29 90.84,486.40 90.80,486.51 90.70,486.70 90.60,487.07 90.51,487.43 90.50,487.81 90.45,488.09 90.42,488.34 90.34,488.47 90.71,488.97 90.01,488.56 89.93,488.71 89.83,487.57 89.85,487.72 89.84,487.72 89.67,487.41 89.44,486.95 89.35,486.53 89.30,486.03 89.12,485.27 88.72,485.07 88.28,484.79 87.90,484.40 87.78,483.89 87.69,483.58 87.71,484.24 87.28,483.99 86.62,483.56 86.41,483.08 86.32,482.53 86.48,482.12 86.68,481.79 86.82,481.48 87.04,481.31 87.33,481.37 87.60,481.44 87.82,481.44 88.10,481.04 88.25,480.85 88.36,480.71 88.36,480.63 88.32,480.65 88.22,480.66 88.06,480.45 87.84,480.09 87.78,480.03 87.84,480.20 87.77,480.08 87.65,479.87 87.58,479.80 87.52,479.75 87.44,479.65 87.38,479.58 87.45,479.65 87.63,479.85 87.88,479.96 88.04,479.91 88.04,479.75 87.89,479.61 87.68,479.56 87.48,479.47 87.40,479.30 87.35,479.36 87.24,479.47 87.03,479.37 86.85,479.23 86.97,478.89 86.57,478.58 86.25,477.97 86.18,477.71 86.03,477.07 85.93,476.66 85.78,476.64 85.41,475.91 85.20,475.26 85.27,474.64 85.59,474.23 85.94,473.97 86.23,473.72 86.40,473.48 86.57,473.36 86.69,473.24 86.79,473.08 86.85,473.01 86.94,472.90 86.96,472.77 87.01,472.58 87.00,472.39 86.90,472.10 86.78,471.54 86.71,471.51 86.52,471.54 86.29,471.60 86.00,471.67 86.26,472.50 86.03,471.29 85.79,471.56 85.30,471.61 84.89,471.71 85.70,471.67 85.30,471.67 84.94,471.59 84.65,471.43 84.35,471.46 84.43,472.16 84.10,472.39 83.56,472.48 83.09,472.61 82.76,472.67 83.70,471.51 83.70,470.99 83.42,470.06 82.94,469.78 82.35,469.70 82.15,469.24 82.01,468.71 81.97,468.09 82.03,467.51 82.06,466.98 81.87,466.29 81.68,466.17 81.41,466.11 82.31,464.74 83.27,461.40 83.44,459.47 83.61,458.95 83.73,458.66 83.78,458.31 84.07,457.92 84.53,457.63 84.77,457.62 84.63,457.68 84.60,457.76 84.67,457.87 84.54,457.92 84.45,458.14 84.45,458.37 84.47,458.54 84.39,458.74 84.42,459.20 84.39,459.63 84.37,459.99 84.28,460.37 84.17,460.74 84.14,461.08 84.05,461.44 83.92,461.81 83.85,462.14 83.78,462.48 83.66,462.80 83.54,463.06 83.44,463.27 83.34,463.44 83.24,463.57 83.04,463.67 82.88,463.73 82.77,463.86 82.71,464.00 82.75,464.22 82.74,464.33 82.73,464.50 82.73,464.65 82.74,464.84 82.74,465.07 82.79,465.34 82.88,465.62 82.95,465.88 83.01,466.11 83.02,466.33 83.10,466.66 83.22,467.06 83.34,467.39 83.63,467.05 83.74,467.01 83.74,467.09 83.78,467.14 83.94,467.15 84.03,466.91 84.00,466.65 84.05,466.68 84.18,466.70 84.21,466.24 84.39,465.97 84.51,465.71 84.59,465.50 84.70,465.40 84.66,465.27 84.88,465.19 85.06,465.01 85.23,464.88 85.42,464.83 85.63,464.85 85.65,464.86 85.74,464.86 85.91,464.80 85.97,464.84 86.34,464.53 86.60,464.42 86.85,464.43 87.04,464.43 87.15,464.29 87.21,463.93 87.38,463.69 87.94,463.37 88.41,462.50 88.53,462.28 88.65,462.28 88.86,462.31 88.71,462.69 88.51,462.99 88.48,463.13 88.50,463.37 88.55,463.51 88.64,463.62 88.50,463.80 88.47,463.74 88.52,463.64 88.52,463.61 88.48,463.73 88.45,463.91 88.36,463.96 88.38,463.87 88.15,463.62 88.19,462.98 88.39,462.55 88.71,462.30 89.05,462.20 89.37,462.08 89.63,461.91 89.76,461.73 91.08,461.39 91.08,461.33 91.10,461.08 90.99,460.97 90.80,460.78 90.50,460.59 90.21,460.47 90.00,460.32 89.88,460.21 89.81,460.18 89.13,460.35 89.29,460.41 89.68,460.36 89.78,460.38 89.95,460.58 89.93,460.76 90.03,460.75 90.12,460.53 90.24,460.45 90.41,460.53 90.70,460.61 91.03,460.74 91.37,461.05 91.18,461.17 91.75,461.82 92.03,461.87 92.29,461.94 92.40,462.26 92.46,462.71 92.40,463.16 92.53,463.39 92.67,463.46 92.48,463.66 92.54,463.52 92.48,463.32 92.36,463.03 92.42,462.69 92.58,462.51 93.18,462.29 93.56,461.72 93.87,461.32 94.31,461.07 94.67,460.95 94.63,460.97 94.30,460.58 94.15,460.22 94.50,459.56 94.61,459.10 94.83,458.85 95.01,458.47 94.84,458.55 94.67,458.56 94.69,458.36 94.93,457.69 94.68,457.30 94.34,456.79 95.07,456.01 95.38,455.67 95.96,455.26 96.81,454.90 97.91,454.52 99.57,454.30 100.38,454.32 102.14,454.18 102.59,453.83 102.48,453.86 102.49,453.89 102.67,453.82 102.95,453.80 103.21,453.92 103.24,453.86 103.31,453.76 103.09,454.17 103.07,454.62 103.37,454.97 103.40,455.07 103.50,454.88 103.35,454.65 103.19,454.42 103.02,454.16 102.85,453.89 102.64,453.59 102.42,453.23 102.18,452.84 101.93,452.42 101.69,451.97 102.39,450.37 104.75,450.98 104.80,450.75 104.93,450.76 104.97,451.06 104.85,451.67 104.59,451.22 104.38,450.85 104.35,450.31 104.24,449.64 103.97,448.93 103.84,447.73 103.82,446.14 104.69,443.11 104.97,442.11 105.25,440.70 105.30,439.68 106.01,439.41 106.71,438.61 107.24,437.51 107.65,436.17 107.83,434.97 107.85,434.32 107.42,433.75 105.38,434.70 103.99,436.53 103.81,435.60 103.74,434.29 103.66,433.21 103.61,432.47 102.96,432.07 103.01,431.37 102.73,430.64 101.95,429.55 101.24,428.42 100.72,426.84 100.07,425.05 99.20,424.03 100.03,422.26 99.33,419.66 98.48,417.88 98.03,416.45 98.27,415.35 98.91,414.13 99.90,413.41 100.80,413.14 101.72,412.63 102.64,411.38 103.65,409.72 104.89,408.14 104.81,406.66 105.52,405.09 105.17,404.57 104.63,404.82 105.05,404.80 105.96,403.07 106.71,401.51 106.95,399.89 107.05,398.24 106.89,396.56 106.15,395.01 105.37,393.67 104.43,392.49 103.70,390.79 101.16,387.89 100.86,385.88 100.51,384.21 100.18,383.21 100.01,382.50 99.66,381.56 100.68,381.09 101.13,381.28 101.55,381.60 101.98,381.77 102.29,381.63 101.34,378.80 101.45,378.19 101.65,377.88 101.91,377.67 103.04,376.32 103.26,375.94 103.31,375.34 103.43,374.57 103.56,373.56 103.72,372.62 103.03,372.19 103.11,371.09 103.21,369.88 103.81,367.83 103.95,366.44 104.36,365.10 105.12,363.56 105.66,361.90 104.29,360.67 104.31,358.87 104.52,356.36 105.12,353.67 105.85,351.52 106.10,349.65 105.65,347.51 104.01,347.94 96.11,353.72 96.16,352.03 97.64,350.98 98.11,349.61 97.64,348.67 98.34,347.48 97.78,346.34 96.28,344.58 95.43,342.76 94.84,341.93 95.00,342.48 95.95,344.33 95.95,342.43 95.51,341.33 95.49,340.29 95.16,339.01 95.04,338.13 94.11,336.78 93.27,335.73 92.60,334.63 92.11,333.64 92.57,333.29 92.23,332.59 91.95,331.06 91.86,330.37 91.97,329.80 92.22,329.41 93.98,328.05 95.01,329.51 94.81,329.01 93.28,329.88 93.60,329.28 93.73,330.36 94.44,330.30 96.62,329.45 96.83,329.31 97.21,329.09 98.36,329.73 99.01,330.11 99.46,330.93 98.46,330.89 98.03,331.18 98.13,332.06 98.65,331.87 98.87,331.26 99.52,330.65 100.33,330.19 100.52,330.07 100.75,329.99 101.10,329.95 99.72,329.91 99.87,329.97 99.88,330.03 99.95,330.17 100.44,330.21 100.51,330.43 100.62,330.66 100.74,330.84 100.75,331.00 100.68,331.14 100.73,331.25 100.78,331.39 100.69,331.48 100.61,331.51 100.62,331.52 100.67,331.49 100.69,331.35 100.68,331.17 100.66,331.11 100.73,331.17 100.70,331.12 100.68,331.04 100.67,330.95 100.68,330.78 100.68,330.53 100.70,330.27 100.84,330.06 100.99,329.86 101.08,329.60 101.08,329.40 101.18,329.23 101.24,329.13 104.21,332.56 104.09,332.62 104.06,332.67 104.44,332.38 104.38,332.80 104.38,333.09 104.59,333.16 104.82,333.13 105.42,333.35 106.15,333.50 105.82,334.00 104.95,333.92 104.54,333.37 104.33,332.96 104.45,332.57 104.64,332.06 104.67,331.67 104.66,331.35 104.66,331.04 104.72,330.58 105.21,330.68 105.12,330.61 105.10,330.61 105.03,330.61 105.49,329.90 105.49,329.83 105.48,329.84 105.46,329.86 105.00,330.26 104.94,330.15 104.89,329.66 105.27,329.72 105.21,329.58 105.30,329.40 105.35,329.25 105.29,329.12 105.50,328.94 105.69,328.80 105.60,328.65 105.72,328.20 105.92,327.93 106.19,327.73 106.49,327.53 106.76,327.18 107.09,326.85 107.26,326.52 107.75,325.94 108.34,325.72 109.35,325.62 110.00,325.80 110.14,325.93 109.96,325.99 109.91,326.09 109.78,326.13 110.33,325.59 110.62,325.65 110.89,324.57 111.21,324.05 111.56,323.55 112.12,323.10 112.84,322.77 113.84,322.65 115.09,323.18 115.47,323.51 115.68,324.04 115.69,324.44 115.68,324.35 115.71,323.94 116.29,323.73 116.73,323.72 116.84,323.75 116.55,323.80 116.28,324.02 115.75,324.08 115.45,323.25 115.86,322.21 115.86,322.01 115.92,321.71 116.40,321.07 116.56,320.88 116.56,320.89 116.49,320.54 116.39,320.26 116.45,320.21 116.79,319.90 116.45,319.38 116.43,318.94 116.26,318.73 116.57,318.61 116.64,318.34 116.93,318.60 116.76,317.36 117.52,315.87 117.65,316.27 117.56,315.85 118.24,315.36 118.25,315.21 118.90,314.95 119.64,315.05 120.38,315.17 121.06,315.09 121.65,314.98 122.10,315.08 122.66,315.13 122.97,315.14 123.19,315.19 123.30,315.18 123.35,315.10 123.84,314.96 123.82,314.69 123.42,314.29 122.94,313.96 122.55,313.43 122.29,311.25 120.63,308.23 120.94,305.97 121.16,303.83 121.11,302.23 121.10,300.84 121.35,299.82 121.75,298.81 122.85,297.98 120.96,296.96 119.53,295.36 125.40,300.28 123.93,298.92 123.69,295.58 123.27,294.07 123.03,293.11 122.76,292.10 122.69,290.99 122.44,289.96 122.12,288.94 121.73,287.93 121.29,286.95 120.65,286.43 120.10,285.45 119.54,284.47 118.98,283.51 118.45,282.55 118.52,281.52 117.84,280.03 116.43,276.05 117.28,276.26 116.98,275.36 116.11,273.74 115.18,271.90 113.60,269.92 111.93,267.84 111.10,265.84 107.16,260.49 105.68,256.80 103.99,253.64 101.72,252.10 99.81,249.37 98.48,247.27 97.16,245.26 95.89,243.36 94.66,241.51 93.43,239.65 92.12,237.96 97.01,231.17 94.89,228.58 92.90,226.29 91.41,223.44 89.35,221.05 87.07,218.46 85.01,214.61 83.73,212.29 82.72,209.70 80.99,209.07 79.75,205.59 76.50,199.69 76.54,197.78 77.18,193.27 78.38,190.53 80.45,185.95 82.88,184.44 88.82,190.48 92.08,196.47 96.02,203.36 95.93,203.34 96.28,202.91 96.83,202.52 97.93,203.62 102.22,217.61 103.39,217.78 103.87,218.20 103.49,218.56 103.08,218.95 102.66,219.37 102.23,219.79 101.81,220.23 101.40,220.71 100.99,221.21 100.72,221.72 100.30,222.29 99.91,222.90 101.20,222.89 99.93,223.87 98.19,224.58 97.55,225.20 96.51,225.82 95.96,227.23 95.14,227.95 93.71,226.80 93.27,224.55 92.42,224.20 91.26,224.84 90.22,225.34 88.88,225.76 87.82,224.68 86.78,224.70 85.80,224.74 85.96,224.27 88.22,223.57 89.81,224.02 89.94,224.24 89.50,224.63 88.97,224.93 90.01,224.14 90.89,224.08 90.81,223.69 90.49,223.54 89.93,223.59 89.97,223.64 89.60,223.32 89.09,223.09 88.31,222.81 87.56,221.76 85.99,220.09 86.26,221.14 85.97,219.49 87.80,219.32 87.74,218.95 87.62,218.15 87.39,217.48 87.47,217.02 87.26,216.32 87.48,215.99 87.75,215.68 87.29,214.97 87.21,214.03 86.69,212.88 86.45,212.50 85.55,211.96 85.04,211.05 85.05,209.95 85.04,209.31 85.01,209.28 84.41,210.16 83.50,209.59 84.34,209.96 84.05,210.38 83.33,210.33 83.15,210.01 82.47,209.80 81.74,209.52 80.97,209.11 84.02,209.57 85.34,210.92 87.31,211.52 87.04,211.77 85.97,210.95 85.14,210.57 84.82,210.04 84.68,209.94 85.52,210.51 85.19,210.32 84.91,210.30 86.73,209.44 85.80,208.41 86.74,208.42 87.70,208.15 88.58,207.98 88.66,207.86 88.63,207.81 89.47,208.25 89.96,208.25 90.45,208.30 90.92,208.47 91.15,208.62 91.05,208.41 90.89,208.76 90.61,209.07 90.41,208.85 90.76,208.27 91.40,207.92 90.86,208.33 90.32,208.71 90.18,208.91 90.39,208.62 90.64,208.17 90.69,207.99 90.58,207.72 90.38,208.27 90.61,207.78 90.51,207.57 90.47,207.35 90.20,206.68 90.75,206.48 90.71,206.41 90.79,206.33 90.79,206.29 90.88,206.17 90.72,205.93 90.69,205.88 89.96,206.09 89.67,206.05 89.60,205.93 89.26,205.76 88.89,206.01 89.02,205.93 88.96,205.67 88.73,205.57 88.34,205.29 88.12,205.23 87.68,205.03 87.75,204.15 87.83,204.03 87.45,203.48 87.26,203.68 87.31,202.93 87.56,203.22 87.59,203.30 87.58,203.32 88.26,203.37 88.77,203.34 88.76,203.35 89.05,203.21 89.38,203.26 89.67,203.47 90.15,203.55 90.58,203.54 91.12,203.29 91.44,203.23 92.10,203.13 92.66,203.13 92.80,203.30 92.58,203.53 92.37,203.49 92.73,203.26 92.40,203.04 92.23,203.59 92.04,203.21 93.27,202.52 93.58,202.36 93.32,202.54 92.42,202.91 91.92,202.83 92.22,202.51 93.15,202.18 94.10,202.01 94.07,202.02 93.54,202.26 93.34,202.30 93.78,202.15 94.21,201.95 94.48,201.90 94.56,201.95 94.48,202.00 94.44,202.01 94.51,202.03 94.56,202.04 94.62,202.13 94.70,202.25 94.76,202.37 94.86,202.45 95.08,202.40 95.26,202.38 95.32,202.50 95.35,202.64 95.45,202.70 95.59,202.71 95.74,202.71 95.82,202.80 95.91,202.96 95.97,203.06 96.02,203.12 96.13,203.13 96.18,203.13 96.20,203.17 96.22,203.20 96.22,203.25 96.25,203.31 96.33,203.33 96.39,203.38 96.43,203.42 96.52,203.41 96.60,203.40 96.64,203.43 96.66,203.46 96.67,203.53 96.74,203.59 96.84,203.58 96.92,203.58 96.96,203.64 96.99,203.68 97.07,203.66 97.09,203.63 97.11,203.64 97.12,203.70 97.11,203.76 97.10,203.80 97.13,203.81 97.19,203.85" fill="none" stroke="#2563eb" stroke-width="2"/>
<circle cx="685.08" cy="474.94" r="6" fill="#16a34a"/>
<circle cx="97.19" cy="203.85" r="6" fill="#dc2626"/>
<text x="30" y="655" font-family="monospace" font-size="14" fill="#16a34a">green=start</text>
<text x="30" y="675" font-family="monospace" font-size="14" fill="#dc2626">red=end</text>
</svg>