<svg xmlns="http://www.w3.org/2000/svg" width="900" height="700" viewBox="0 0 900 700">
<rect width="100%" height="100%" fill="white"/>
<text x="30" y="35" font-family="monospace" font-size="20">OpenVINS zupt top-down trajectory</text>
<text x="30" y="62" font-family="monospace" font-size="14">poses=1868 duration=62.22s path=1.84m closure=0.15m ratio=0.083</text>
<text x="30" y="85" font-family="monospace" font-size="14">x range=0.21m, y range=0.14m, z range=0.14m</text>
<polyline points="299.71,496.71 318.04,563.34 323.15,548.52 328.57,531.06 324.49,602.08 321.54,589.25 316.95,573.38 311.17,554.66 255.60,357.54 298.98,384.16 305.18,361.76 319.01,324.96 332.48,306.63 344.20,301.65 363.23,291.96 389.98,281.20 380.38,288.23 404.78,276.10 407.70,268.52 426.42,266.73 405.45,283.94 405.60,284.01 405.75,284.08 405.93,284.17 406.17,284.32 406.49,284.51 406.91,284.75 407.36,284.99 407.80,285.21 408.16,285.40 408.48,285.59 408.80,285.79 409.13,286.00 409.44,286.23 409.71,286.44 409.94,286.63 410.18,286.80 410.45,286.99 410.76,287.20 411.07,287.43 411.35,287.63 411.61,287.84 411.87,288.05 412.14,288.27 412.43,288.50 412.78,288.73 413.14,288.96 413.45,289.17 413.69,289.39 413.91,289.60 414.06,289.78 414.15,289.94 414.33,290.16 411.52,296.63 411.60,296.86 411.95,297.03 412.26,297.24 412.36,297.48 412.33,297.64 412.24,297.71 412.12,297.68 412.00,297.62 411.78,297.60 411.50,297.59 411.24,297.61 411.03,297.66 410.92,297.72 410.90,297.78 410.93,297.81 411.02,297.79 411.15,297.80 411.23,297.87 412.45,293.16 409.85,286.26 404.54,279.82 414.93,275.97 420.21,267.98 419.72,258.02 410.99,259.88 405.04,256.27 402.88,244.52 463.13,231.93 518.08,304.43 462.48,302.77 464.57,298.90 474.62,305.00 485.01,310.26 492.85,310.43 500.07,304.13 505.71,302.29 509.55,302.46 513.23,305.92 515.74,311.03 513.76,310.07 509.65,308.88 508.56,309.80 504.56,309.42 502.43,309.32 499.92,310.76 498.87,311.76 497.97,312.76 497.18,313.68 496.21,314.55 495.00,315.37 493.98,316.09 493.07,316.84 492.24,317.72 491.52,318.69 491.05,319.77 491.16,320.72 491.46,321.84 491.73,323.12 491.52,324.22 491.05,324.98 490.62,325.43 490.11,325.73 489.81,326.10 489.72,326.64 489.49,327.22 488.96,327.68 488.34,328.03 487.81,328.18 487.23,328.16 486.74,328.17 486.39,328.31 486.03,328.60 485.78,328.84 485.41,329.05 484.87,329.17 484.43,329.10 484.09,328.97 483.76,328.92 483.43,329.04 483.22,329.17 482.98,329.26 482.66,329.21 482.39,328.96 481.96,328.69 481.41,328.42 480.88,328.20 480.34,328.02 479.73,327.87 479.12,327.76 478.68,327.61 478.33,327.39 478.04,327.11 477.83,326.85 477.79,326.59 477.58,326.41 477.16,326.42 476.64,326.67 476.18,326.98 475.70,327.27 475.30,327.53 475.05,327.67 474.78,327.75 474.50,327.90 474.23,328.12 473.93,328.38 473.63,328.68 473.32,329.05 473.16,329.53 473.10,330.05 473.11,330.60 473.20,331.21 473.26,331.88 473.21,332.61 472.97,333.29 472.43,333.90 471.86,334.39 471.22,334.78 470.64,335.21 470.18,335.67 469.82,336.17 469.52,336.77 469.11,337.50 468.67,338.27 468.38,338.88 468.14,339.30 467.84,339.66 467.69,339.97 467.55,340.28 467.29,340.73 467.02,341.29 466.97,341.87 467.21,342.42 467.52,342.94 467.89,343.28 468.01,343.46 467.93,343.51 467.86,343.45 467.60,343.51 467.25,343.72 466.91,343.91 466.52,344.10 466.05,344.20 465.62,344.06 465.29,343.79 464.89,343.51 464.48,343.25 464.12,342.99 463.75,342.72 463.36,342.43 462.99,342.17 462.61,341.99 462.25,341.84 461.88,341.75 461.54,341.67 461.15,341.62 460.74,341.61 460.42,341.60 460.31,341.57 460.27,341.57 460.17,341.66 460.01,341.86 459.71,342.16 459.17,342.56 458.60,342.91 458.25,343.09 457.88,343.19 457.56,343.26 457.28,343.33 456.96,343.48 456.60,343.67 456.20,343.82 455.75,343.84 455.23,343.79 454.67,343.68 454.22,343.50 453.83,343.35 453.41,343.22 452.94,343.12 452.54,343.00 452.16,342.88 451.77,342.78 451.40,342.69 451.01,342.62 450.59,342.56 450.12,342.52 449.81,342.44 449.73,342.38 449.58,342.49 449.43,342.68 449.27,342.84 448.98,342.96 448.58,343.06 448.31,343.05 448.15,342.95 448.04,342.83 448.04,342.65 447.96,342.49 447.80,342.34 447.61,342.16 447.43,341.89 447.29,341.52 447.28,341.06 447.25,340.62 447.02,340.32 446.76,340.19 446.45,340.19 446.00,340.31 445.61,340.41 445.36,340.45 445.33,340.45 445.38,340.38 445.38,340.36 445.32,340.36 445.22,340.36 445.06,340.50 444.76,340.76 444.37,341.11 444.05,341.43 443.91,341.58 443.72,341.70 443.52,341.78 443.34,341.85 443.09,341.96 442.84,342.09 442.61,342.19 442.42,342.28 442.30,342.35 442.37,342.34 442.51,342.30 442.56,342.33 442.40,342.28 442.22,342.08 442.00,341.90 441.80,341.77 441.69,341.68 441.60,341.65 441.53,341.61 441.43,341.54 441.28,341.48 441.17,341.42 441.18,341.31 441.24,341.16 441.24,341.05 441.24,340.94 441.17,340.84 441.01,340.79 440.92,340.70 440.91,340.51 440.92,340.27 440.97,340.00 441.03,339.70 441.08,339.41 441.08,339.14 441.07,338.85 441.08,338.66 440.98,338.61 440.66,338.46 440.36,338.20 440.15,337.88 439.90,337.69 439.76,337.65 439.65,337.71 439.46,337.83 439.28,337.86 439.09,337.84 438.85,337.83 438.61,337.84 438.40,337.90 438.19,337.97 438.04,338.00 437.99,337.95 437.98,337.88 437.86,337.86 437.68,337.88 437.44,337.88 437.12,337.86 436.81,337.80 436.53,337.72 436.30,337.63 436.25,337.52 436.05,337.47 435.73,337.42 435.54,337.26 435.46,337.10 435.42,336.99 435.40,336.92 435.38,336.90 435.36,336.90 435.29,336.91 435.20,336.96 435.23,336.95 435.26,336.94 435.17,337.00 435.01,337.08 434.84,337.11 434.66,337.08 434.49,336.92 434.32,336.71 434.23,336.48 434.20,336.27 434.20,336.12 434.14,336.03 434.12,335.93 434.11,335.83 434.02,335.78 433.94,335.70 433.83,335.60 433.68,335.55 433.48,335.53 433.27,335.53 433.03,335.48 432.86,335.42 432.67,335.39 432.54,335.41 432.52,335.51 432.46,335.69 432.32,335.91 432.14,336.08 431.94,336.14 431.77,336.11 431.63,336.04 431.52,336.01 431.36,336.06 431.18,336.15 430.98,336.24 430.81,336.31 430.65,336.33 430.51,336.29 430.28,336.22 430.05,336.15 429.87,336.13 429.64,336.16 429.56,336.14 429.60,336.11 429.63,336.12 429.63,336.13 429.57,336.11 429.50,336.03 429.40,335.90 429.24,335.80 429.11,335.74 429.04,335.70 428.99,335.68 428.95,335.65 428.94,335.63 428.89,335.65 428.82,335.70 428.73,335.73 428.64,335.70 428.55,335.65 428.44,335.59 428.37,335.57 428.30,335.59 428.21,335.65 428.14,335.71 428.13,335.72 428.13,335.68 428.16,335.61 428.17,335.53 428.16,335.44 428.08,335.44 427.94,335.53 427.79,335.58 427.60,335.50 427.42,335.31 427.25,335.09 427.15,334.89 427.11,334.72 427.08,334.56 427.06,334.43 427.04,334.27 427.01,334.09 426.93,333.96 426.88,333.83 426.85,333.64 426.78,333.43 426.73,333.19 426.67,332.92 426.58,332.66 426.41,332.46 426.24,332.37 426.15,332.34 426.17,332.29 426.23,332.20 426.32,332.06 426.31,331.98 426.23,332.02 426.21,332.12 426.26,332.24 420.23,329.29 420.42,329.41 420.57,329.53 420.55,329.63 420.43,329.71 420.26,329.83 420.09,330.01 419.97,330.24 419.89,330.46 419.84,330.65 419.85,330.85 419.90,331.05 420.02,331.25 420.18,331.48 420.34,331.71 420.41,331.89 420.42,332.03 420.40,332.16 420.39,332.28 420.38,332.38 420.27,332.45 419.92,332.43 419.72,332.35 419.73,332.32 419.92,332.32 420.24,332.30 420.56,332.29 420.82,332.29 420.86,332.26 420.80,332.20 420.58,332.12 420.31,332.02 420.17,331.90 420.22,331.84 420.37,331.84 420.44,331.80 420.43,331.74 420.39,331.71 420.28,331.68 420.18,331.65 420.18,331.63 420.00,331.61 419.67,331.53 419.68,331.46 419.91,331.55 420.10,331.69 420.18,331.75 420.27,331.80 420.36,331.87 420.38,331.96 420.39,332.03 420.37,332.13 420.31,332.25 420.29,332.38 420.34,332.55 420.44,332.74 420.46,332.93 420.44,333.09 420.39,333.25 420.31,333.41 420.23,333.54 420.17,333.63 420.13,333.73 420.04,333.80 419.92,333.85 419.89,333.89 419.73,333.91 419.51,333.83 419.52,333.75 419.66,333.75 419.87,333.80 420.13,333.88 420.35,333.96 420.53,334.00 420.66,333.99 420.78,333.99 420.84,333.97 420.86,333.93 420.86,333.88 420.82,333.79 420.78,333.67 420.76,333.54 420.75,333.42 420.77,333.32 420.81,333.23 420.86,333.14 420.88,333.05 420.86,332.97 420.84,332.87 420.85,332.75 420.86,332.63 420.93,332.49 421.01,332.37 421.02,332.23 420.96,332.08 420.91,331.95 420.94,331.87 421.06,331.83 421.17,331.81 421.16,331.78 421.07,331.77 420.80,331.73 412.27,328.34 397.92,325.28 380.43,322.00 360.00,315.62 340.35,313.55 331.03,296.53 310.35,286.19 288.30,274.82 301.44,255.09 278.12,267.43 321.34,296.86 438.38,282.84 439.32,283.17 440.01,283.38 440.41,283.51 440.64,283.62 440.97,283.76 441.42,283.93 441.85,284.06 442.29,284.15 442.77,284.27 443.22,284.40 443.44,284.42 443.58,284.38 443.88,284.45 444.30,284.57 444.58,284.62 444.58,284.57 444.35,284.44 444.14,284.31 444.09,284.28 444.23,284.33 444.39,284.36 444.48,284.33 444.56,284.28 444.58,284.19 444.68,284.12 444.93,284.18 445.05,284.26 444.94,284.29 444.70,284.24 444.46,284.18 444.21,284.11 443.99,284.02 443.93,283.99 444.07,284.04 444.27,284.13 444.38,284.19 444.39,284.21 444.32,284.21 444.21,284.17 444.05,284.12 443.96,284.11 443.93,284.14 443.84,284.14 443.61,284.06 443.31,283.93 443.04,283.82 442.88,283.76 442.83,283.77 442.78,283.78 442.65,283.77 442.45,283.73 442.25,283.70 442.06,283.68 441.83,283.63 441.57,283.55 441.38,283.50 441.25,283.48 441.06,283.41 440.82,283.33 440.59,283.26 440.36,283.18 440.14,283.10 440.00,283.04 439.87,282.98 439.78,282.92 439.84,282.92 439.98,282.97 440.01,282.96 439.95,282.89 439.93,282.86 440.01,282.91 440.12,282.95 440.29,282.96 440.66,283.06 441.12,283.25 441.52,283.42 441.80,283.58 442.05,283.77 442.32,283.97 442.63,284.15 442.99,284.34 443.37,284.54 443.70,284.72 443.96,284.88 444.12,284.99 444.21,285.07 444.33,285.17 444.49,285.28 444.66,285.40 444.81,285.51 444.90,285.58 444.86,285.60 444.67,285.58 444.48,285.55 444.46,285.58 444.56,285.65 444.59,285.69 444.62,285.74 444.63,285.78 444.59,285.79 444.53,285.78 444.58,285.82 444.72,285.89 444.84,285.94 444.90,285.95 444.88,285.95 444.77,285.92 444.60,285.86 444.54,285.89 444.56,285.94 444.54,285.95 444.48,285.94 444.43,285.93 444.38,285.91 444.31,285.90 444.20,285.87 444.07,285.83 443.93,285.79 443.84,285.77 443.82,285.77 443.77,285.76 443.71,285.74 443.69,285.74 443.76,285.77 444.03,285.87 444.40,286.01 444.68,286.12 444.89,286.19 445.10,286.27 445.30,286.35 445.48,286.41 445.70,286.49 445.91,286.59 446.08,286.67 446.25,286.76 446.42,286.85 446.61,286.95 446.82,287.07 447.00,287.18 447.14,287.28 447.25,287.37 447.35,287.44 447.46,287.52 447.59,287.58 447.72,287.66 447.83,287.74 447.85,287.81 447.79,287.83 447.67,287.82 447.55,287.80 447.40,287.78 447.22,287.78 447.13,287.84 447.12,287.91 447.08,287.93 446.98,287.88 446.92,287.85 446.89,287.84 446.91,287.83 446.98,287.85 447.02,287.89 446.93,287.90 446.75,287.85 446.58,287.79 446.41,287.71 446.22,287.61 446.04,287.49 445.90,287.43 445.82,287.40 445.75,287.36 445.73,287.30 445.81,287.26 446.01,287.26 446.18,287.26 446.33,287.27 446.49,287.29 446.58,278.45 447.19,268.73 447.18,268.71 447.10,268.69 447.08,268.70 447.19,268.75 447.25,268.86 447.19,269.01 446.98,269.16 446.72,269.28 446.46,269.38 446.32,269.41 446.33,269.43 446.42,269.48 456.32,257.06 468.73,244.24 482.41,231.84 496.20,221.06 509.79,212.56 523.35,206.54 536.96,203.27 550.29,202.93 596.04,184.35 672.04,236.65 715.64,233.76 688.89,256.62 721.14,253.16 740.29,272.86 767.32,275.34 802.78,244.64 830.00,242.33 696.39,249.77 702.47,252.74 707.64,255.58 713.04,257.07 713.31,256.73 713.52,256.34 713.77,255.92 714.01,255.56 714.32,255.25 714.54,254.98 714.75,254.75 714.97,254.53 714.97,254.38 714.45,254.40 714.25,254.50 714.23,254.59 713.80,254.67 713.15,254.74 712.12,254.93 710.92,255.24 709.49,255.66 708.01,256.11 706.50,256.48 705.05,256.71 703.78,256.80 702.55,256.88 701.15,257.06 699.50,257.38 697.80,257.74 696.10,258.07 694.43,258.35 692.90,258.63 691.34,258.96 689.93,259.34 688.84,259.66 688.02,259.83 687.26,259.93 686.38,260.02 685.44,260.14 692.75,260.32 693.07,260.18 692.41,260.16 691.66,260.18 691.37,260.15 691.65,259.90 692.05,259.51 702.24,262.11 708.55,264.36 713.81,267.93 713.72,267.97 713.53,268.19 713.51,268.36 713.78,268.15 714.11,267.74 714.54,267.30 714.54,266.98 714.67,266.68 715.48,266.26 716.29,265.73 717.13,265.02 718.18,264.19 719.24,263.53 720.04,263.21 720.97,262.66 722.16,262.19 724.07,261.69 725.55,261.41 725.71,261.64 725.69,262.00 725.54,262.38 724.86,262.76 723.83,263.05 722.84,263.16 721.97,263.10 720.82,263.21 719.16,263.64 717.45,264.23 715.87,264.85 714.34,265.43 712.82,265.94 711.80,266.18 711.14,266.21 710.48,266.18 709.90,266.19 709.30,266.35 708.85,266.62 708.38,266.86 707.77,267.04 707.74,266.93 708.02,266.76 707.56,266.90 707.22,267.05 707.22,267.10 707.46,267.02 707.94,266.71 708.80,266.17 709.89,265.61 710.48,265.19 710.94,264.84 711.48,264.58 712.00,264.47 712.76,264.34 713.46,264.17 713.90,264.02 714.30,263.77 714.80,263.48 715.20,263.25 715.56,263.04 716.02,262.80 716.72,262.44 717.42,262.06 717.85,261.83 718.12,261.76 718.47,261.77 722.87,263.99 725.65,265.73 728.43,266.32 731.10,265.94 733.20,265.74 733.18,265.11 732.45,264.80 731.59,264.99 730.54,265.59 729.26,266.41 727.88,267.25 726.33,268.13 724.50,269.02 722.71,269.76 721.23,270.39 719.59,270.92 717.74,271.33 716.17,271.66 714.80,272.01 713.83,272.20 713.11,272.26 712.60,272.36 712.25,272.27 711.41,271.97 710.22,271.39 710.98,270.31 711.03,269.72 709.32,269.98 708.27,270.00 708.19,269.54 708.10,268.69 707.94,267.61 707.91,266.59 707.31,266.12 706.54,266.15 706.07,266.23 705.79,266.20 705.50,265.96 705.00,265.67 704.65,265.47 704.29,265.45 703.96,265.50 703.62,265.50 703.45,265.31 703.27,264.89 702.89,264.48 702.49,264.23 702.46,264.08 702.44,263.92 702.31,263.68 702.29,263.31 702.31,262.88 702.31,262.48 702.22,262.19 702.19,261.95 702.13,261.69 702.04,261.35 701.85,260.95 701.60,260.56 701.55,260.17 701.48,259.83 701.43,259.59 701.39,259.38 701.25,259.12 701.15,258.84 701.12,258.57 701.05,258.23 700.98,257.84 700.99,257.42 701.10,256.99 701.21,256.57 701.26,256.15 701.40,255.72 701.47,255.26 701.49,254.76 701.41,254.34 701.22,254.08 701.06,253.90 701.00,253.68 701.05,253.37 701.03,252.92 700.97,252.43 700.90,252.00 700.87,251.66 700.84,251.37 700.80,251.03 700.79,250.58 700.88,250.00 700.87,249.45 700.78,248.97 700.79,248.56 700.78,248.22 700.78,247.85 700.88,247.35 701.01,246.76 701.10,246.18 701.19,245.64 701.39,245.21 701.66,244.86 701.97,244.62 702.28,244.43 702.71,244.21 703.26,243.88 703.67,243.58 704.05,243.32 704.55,243.04 705.02,242.81 705.35,242.67 705.82,242.58 706.33,242.58 706.66,242.75 706.87,243.02 707.06,243.24 707.10,243.34 707.01,243.36 706.79,243.39 706.28,243.50 705.78,243.69 705.39,243.92 705.05,244.15 704.65,244.43 704.22,244.72 703.89,244.98 703.70,245.16 703.57,245.25 703.63,245.23 703.81,245.14 703.89,245.08 704.01,245.05 704.21,244.99 704.77,244.81 705.14,244.71 705.14,244.77 705.36,244.78 705.75,244.74 705.92,244.72 706.06,244.63 706.33,244.44 706.64,244.25 706.87,244.09 707.12,243.97 707.32,243.90 707.65,243.80 708.07,243.61 708.40,243.32 708.72,242.94 709.04,242.53 709.27,242.19 709.60,241.93 709.90,241.73 710.16,241.61 710.46,241.57 710.87,241.58 711.36,241.58 711.73,241.65 711.93,241.87 712.08,242.20 712.17,242.56 712.25,242.90 712.26,243.18 712.17,243.41 712.06,243.66 711.86,243.95 711.59,244.25 711.33,244.54 711.13,244.75 710.88,244.92 710.67,245.08 710.54,245.23 710.44,245.39 710.40,245.56 710.38,245.72 710.54,245.82 710.62,245.91 710.72,245.95 711.25,245.82 711.64,245.71 711.71,245.75 711.91,245.83 712.22,245.96 712.41,246.12 712.62,246.17 712.98,246.04 713.37,245.77 713.64,245.52 713.83,245.33 714.01,245.20 714.25,245.05 714.49,244.84 714.75,244.55 715.05,244.19 715.37,243.76 715.50,243.39 715.55,243.11 715.71,242.85 715.88,242.66 715.89,242.63 700.87,252.45 701.10,252.43 701.25,252.47 701.15,252.57 701.08,252.69 701.07,252.82 701.05,253.00 701.06,253.23 701.11,253.46 701.21,253.67 701.29,253.85 701.34,253.99 701.38,254.10 701.38,254.21 701.39,254.35 701.38,254.49 701.38,254.63 701.42,254.74 701.38,254.83 701.33,254.89 701.44,254.88 701.48,254.87 701.41,254.86 701.38,254.85 701.36,254.84 701.34,254.80 701.34,254.74 684.37,254.77 684.29,254.75 684.17,254.76 684.07,254.76 683.99,254.75 683.93,254.71 683.85,254.67 683.76,254.62 683.67,254.56 683.56,254.52 683.43,254.47 683.32,254.40 683.22,254.31 683.13,254.20 683.03,254.08 682.92,253.95 682.82,253.81 682.76,253.67 682.70,253.53 682.65,253.38 682.58,253.22 682.51,253.06 682.47,252.90 682.42,252.74 682.37,252.59 682.31,252.46 682.24,252.33 682.18,252.21 682.13,252.08 682.08,251.94 682.02,251.82 681.96,251.70 681.90,251.61 681.85,251.51 681.81,251.39 681.77,251.26 681.72,251.13 681.64,251.03 681.54,250.96 681.45,250.89 681.42,250.83 681.39,250.80 681.27,250.85 681.09,250.95 680.98,251.04 680.92,251.11 680.83,251.16 680.70,251.23 680.51,251.34 680.25,251.51 680.03,251.66 679.84,251.79 679.63,251.88 679.43,251.96 679.18,252.05 678.87,252.19 678.60,252.34 678.35,252.49 678.18,252.62 678.01,252.74 677.86,252.83 677.73,252.87 677.57,252.90 677.39,252.92 677.23,252.94 677.08,252.97 676.97,252.97 676.91,252.92 676.99,252.80 676.99,252.73 676.90,252.73 676.88,252.72 676.89,252.72 676.83,252.77 676.78,252.83 676.76,252.87 676.71,252.90 676.64,252.91 676.61,252.87 676.60,252.81 676.57,252.76 676.50,252.74 676.46,252.73 676.44,252.73 676.43,252.72 676.43,252.68 676.44,252.62 676.46,252.55 676.43,252.51 676.41,252.49 676.43,252.49 676.39,252.51 676.32,252.56 676.32,252.60 676.26,252.66 676.14,252.77 676.04,252.87 675.93,252.97 675.81,253.07 675.68,253.17 675.54,253.28 675.42,253.40 675.26,253.52 675.10,253.62 674.97,253.70 674.81,253.79 674.66,253.90 674.54,253.99 674.46,254.05 674.36,254.08 674.27,254.11 674.18,254.12 674.08,254.13 669.16,252.05 665.30,249.75 665.06,249.99 664.71,250.29 664.48,250.41 664.48,250.31 664.51,250.13 661.47,248.07 660.15,246.00 660.27,242.14 659.42,242.91 658.62,243.57 658.10,243.80 657.74,243.59 657.49,243.15 657.25,242.71 656.77,242.42 656.18,242.28 655.84,242.02 655.90,241.52 656.03,240.88 656.18,240.16 656.34,239.48 656.30,238.95 656.33,238.59 656.42,238.31 655.91,238.28 655.19,238.43 654.84,238.64 654.50,239.03 653.80,239.74 652.92,240.55 652.18,241.25 651.34,241.86 650.33,242.42 649.41,242.88 648.54,243.22 647.59,243.48 646.66,243.67 645.84,243.85 644.96,244.11 644.10,244.41 643.36,244.69 642.76,244.85 642.30,244.89 641.98,244.83 641.76,244.76 641.40,244.75 641.06,244.76 640.77,244.70 636.48,240.26 636.22,240.30 635.28,240.65 634.58,240.93 634.53,240.88 629.39,237.90 629.67,237.43 629.81,236.95 629.82,236.63 629.67,236.55 629.35,236.49 629.30,236.23 629.43,235.76 629.39,235.22 629.09,234.68 628.82,234.20 628.69,233.77 628.63,233.40 628.52,233.02 628.33,232.62 628.27,232.20 628.34,231.76 628.37,231.32 628.31,230.93 622.16,227.81 622.13,227.28 621.91,226.84 622.09,226.47 622.15,226.19 621.93,225.96 622.07,225.64 622.19,225.32 621.88,225.17 621.67,225.12 621.64,225.13 621.25,225.27 620.59,225.51 615.39,221.96 614.59,222.55 613.55,223.28 612.38,224.06 611.20,224.75 610.02,225.26 608.78,225.57 607.63,225.74 606.47,225.90 605.27,226.17 600.72,222.20 599.87,222.31 599.15,222.25 598.30,222.13 597.61,222.05 597.33,222.09 597.11,222.27 596.70,222.51 596.40,222.59 596.94,222.39 597.65,222.14 597.56,222.07 597.31,222.23 597.43,222.44 597.96,222.61 598.64,222.67 599.07,222.72 598.75,222.85 598.30,222.98 598.17,223.07 598.21,223.18 598.24,223.29 598.17,223.42 598.13,223.62 598.20,223.78 598.14,223.77 598.04,223.62 598.04,223.42 598.15,223.30 598.08,223.29 598.12,223.36 598.29,223.40 598.01,223.42 597.45,223.39 597.16,223.28 597.14,223.11 597.02,222.99 596.60,222.98 596.13,223.08 595.66,223.28 595.13,223.54 594.64,223.80 594.36,223.99 593.99,224.17 593.42,224.40 592.88,224.65 592.42,224.92 591.90,225.23 591.23,225.51 590.43,225.70 589.74,225.69 589.18,225.52 588.53,225.37 587.86,225.24 587.40,225.21 587.04,225.23 586.79,225.26 586.52,225.19 586.34,224.95 586.68,224.69 587.00,224.61 586.98,224.81 587.08,225.04 587.47,225.11 587.91,225.04 588.09,224.92 588.32,224.74 588.60,224.58 588.83,224.54 589.03,224.60 589.39,224.73 589.74,224.86 590.13,224.76 590.65,224.41 591.02,223.99 591.24,223.60 591.55,223.25 592.14,222.86 592.79,222.43 593.37,222.02 593.98,221.67 594.76,221.22 595.28,220.74 595.66,220.33 590.01,216.74 581.38,215.45 569.85,215.82 555.36,217.77 534.12,108.25 482.82,142.57 461.57,138.70 439.07,135.20 421.81,97.92 410.86,103.15 444.27,111.98 619.05,222.97 618.48,223.01 618.04,223.06 617.52,223.11 616.89,223.17 616.40,223.20 616.09,223.22 615.73,223.25 615.51,223.29 615.41,223.34 615.30,223.41 615.08,223.50 614.92,223.61 615.11,223.73 615.14,223.88 614.69,223.98 614.23,223.99 614.14,223.97 614.20,223.99 614.12,224.08 614.06,224.22 614.11,224.37 611.94,226.01 611.82,226.07 611.70,226.06 611.70,226.05 611.72,226.10 611.72,226.17 611.74,226.25 611.82,226.32 611.95,226.42 612.07,226.53 612.17,226.64 612.29,226.79 612.38,226.94 612.49,227.07 612.67,227.19 612.84,227.30 612.99,227.40 613.17,227.49 613.41,227.60 613.61,227.73 613.70,227.85 613.67,227.93 613.64,227.94 613.57,227.90 613.44,227.80 613.33,227.68 613.20,227.57 613.02,227.48 612.82,227.38 612.68,227.25 612.65,227.11 612.59,226.97 612.47,226.84 612.32,226.71 612.17,226.62 612.06,226.52 612.00,226.43 611.93,226.36 611.82,226.30 611.71,226.26 611.64,226.23 611.63,226.18 611.76,226.12 612.02,226.08 612.29,226.08 612.47,226.13 612.61,226.20 612.73,226.29 612.66,226.32 612.47,226.27 612.30,226.19 612.20,226.16 612.21,226.18 612.31,226.26 612.36,226.36 612.30,226.41 612.21,226.39 612.18,226.35 612.25,226.32 612.39,226.31 612.49,226.36 612.49,226.44 612.47,226.51 612.50,226.56 612.52,226.58 612.57,226.59 612.78,226.56 613.04,226.55 613.12,226.58 613.08,226.62 613.10,226.66 613.20,226.69 613.30,226.71 613.38,226.72 613.41,226.70 613.37,226.68 613.30,226.69 613.27,226.72 613.32,226.75 613.41,226.76 613.52,226.78 613.59,226.82 613.59,226.88 613.53,226.95 613.43,227.00 613.32,227.01 613.24,227.01 613.21,226.99 613.10,227.01 612.90,227.04 612.80,227.06 612.84,227.12 612.88,227.21 612.88,227.26 612.79,227.31 612.61,227.32 612.45,227.29 612.41,227.26 612.44,227.28 612.54,227.32 612.76,227.37 612.99,227.43 613.07,227.47 613.09,227.47 613.22,227.45 613.31,227.44 613.36,227.44 613.44,227.47 613.52,227.51 613.52,227.56 613.47,227.58 613.41,227.58 613.35,227.60 613.32,227.61 613.32,227.62 613.43,227.62 613.60,227.67 613.77,227.74 613.99,227.79 614.25,227.83 614.45,227.89 614.56,227.96 614.63,228.02 614.72,228.08 614.82,228.15 614.92,228.26 615.14,230.32 615.13,230.38 615.21,230.39 615.40,230.37 615.65,230.31 615.90,230.26 616.07,230.23 616.20,230.20 616.29,230.20 616.32,230.23 616.31,230.25 616.29,230.26 616.30,230.26 616.31,230.26 616.24,230.27 616.07,230.29 615.91,230.30 615.80,230.31 615.67,230.34 615.49,230.35 615.33,230.33 615.27,230.30 615.27,230.29 615.27,230.28 615.28,230.29 615.27,230.32 615.26,230.34 615.27,230.35 615.38,230.35 615.48,230.37 615.55,230.40 615.61,230.42 615.68,230.45 615.79,230.48 612.29,235.69 604.07,243.15 591.85,252.37 574.85,262.53 553.45,272.69 528.83,282.23 500.31,290.86 467.68,298.62 406.30,284.13 364.54,289.41 350.35,274.36 483.53,271.07 485.02,270.41 486.20,269.66 487.41,268.76 489.03,267.75 490.87,266.70 492.61,265.70 494.41,264.74 496.43,263.93 498.06,263.27 499.22,262.62 500.36,261.99 501.68,261.11 503.14,260.11 504.59,259.15 506.14,258.32 507.49,257.70 508.38,257.26 509.41,257.20 510.15,257.29 510.48,257.47 510.70,257.77 510.90,258.22 510.86,258.84 510.54,259.54 509.83,260.23 508.92,260.85 508.08,261.34 507.23,261.66 506.46,261.87 505.79,262.09 504.88,262.35 503.90,262.65 503.00,262.88 502.39,263.01 502.16,263.00 502.30,262.89 502.73,262.78 503.16,262.67 503.64,262.62 504.32,262.45 505.10,262.38 505.55,262.40 505.66,262.61 505.64,263.02 505.69,263.41 505.96,263.67 506.41,263.89 506.71,264.11 506.99,264.35 507.41,264.56 507.87,264.62 508.36,264.50 509.04,264.25 509.84,264.08 510.59,263.87 511.18,263.75 511.74,263.70 512.34,263.52 513.15,263.16 514.15,262.70 515.27,262.22 516.24,261.84 516.95,261.66 517.43,261.77 517.71,262.16 517.60,262.76 517.28,263.33 517.07,263.80 517.01,264.12 517.05,264.30 517.02,264.34 516.96,264.40 516.91,264.61 516.76,264.91 516.37,265.21 515.89,265.53 515.51,265.78 515.32,265.94 515.15,266.09 514.84,266.19 514.52,266.21 514.43,266.15 514.50,266.01 515.52,263.99 517.04,262.06 516.71,262.54 516.14,263.33 515.47,264.17 514.81,264.87 514.34,265.21 514.03,265.29 513.83,265.11 513.90,264.75 514.19,264.37 514.51,264.01 514.88,263.76 515.06,263.77 515.07,264.07 515.12,264.52 515.11,265.01 515.15,265.42 515.54,265.74 515.97,266.02 516.21,266.41 516.42,266.97 516.52,267.51 516.59,267.92 516.73,268.18 517.04,268.23 517.53,268.12 518.01,267.24 513.68,267.66 503.38,270.19 486.89,275.58 464.06,284.18 433.29,415.49 358.66,434.54 308.60,468.14 225.77,503.97 193.35,485.01 252.45,466.78 230.74,395.94 165.11,454.51 110.33,469.32 108.26,499.85 145.01,484.31 144.18,501.69 144.85,493.72 128.16,438.18 154.24,403.98 142.02,372.31 186.41,350.51 231.28,322.51 206.87,317.89 207.52,321.14 200.19,327.01 189.65,326.58 180.60,321.56 186.83,386.14 176.81,390.41 157.14,382.19 141.38,352.87 124.50,338.52 97.88,321.39 87.43,308.57 70.00,297.34 86.87,305.14 88.15,304.46 90.33,303.67 91.57,303.65 91.68,304.25 91.48,305.12 91.57,305.70 92.99,305.79 95.05,305.77 97.09,305.75 98.52,305.97 98.96,306.47 99.34,306.86 100.24,306.96 101.50,306.81 102.87,306.47 104.10,306.02 105.33,305.49 106.58,304.83 107.95,304.04 109.55,303.16 110.73,302.54 111.44,302.20 112.21,301.61 113.22,300.64 114.31,299.51 115.88,298.15 117.69,296.68 119.10,295.40 120.18,294.38 121.68,293.35 123.38,292.27 124.95,291.26 126.64,290.33 128.42,289.55 129.82,289.17 130.87,289.01 131.71,288.81 132.61,288.54 133.72,287.98 134.47,287.28 135.02,286.95 135.30,286.93 135.23,287.23 135.05,287.70 135.15,288.17 135.13,288.89 134.46,289.98 133.44,291.25 132.65,292.38 131.97,293.34 131.34,294.02 130.62,294.56 130.06,294.99 129.49,295.28 129.14,295.36 129.21,295.36 128.70,295.60 127.71,295.84 126.52,295.91 125.64,295.79 125.44,295.63 125.29,295.72 124.92,296.17 124.09,296.67 122.90,297.01 121.74,297.00 121.15,296.68 120.99,296.30 120.76,296.24 120.14,296.85 119.51,297.44 119.19,297.58 118.72,297.51 118.37,297.16 117.96,296.62 117.58,296.00 117.17,295.46 116.49,295.17 115.93,295.10 115.32,295.07 114.68,295.02 114.19,294.93 113.72,294.82 113.47,294.67 113.29,294.54 112.89,294.52 112.48,294.43 112.35,294.19 112.35,293.96 112.53,293.73 112.49,293.61 112.22,293.61 112.02,293.52 111.92,293.37 111.84,293.29 111.85,293.19 111.77,293.15 111.67,293.13 111.72,293.07 111.70,293.02 111.80,292.97 111.86,292.96 111.88,292.98 112.04,292.93 112.18,292.87 112.23,292.84 112.35,292.82 112.36,292.83 112.34,292.83 112.43,292.84 112.53,292.87 112.50,292.88 112.53,292.76 112.71,292.51 112.92,292.20 113.06,291.95 113.11,291.80 113.13,291.70 113.22,291.57 113.35,291.42" fill="none" stroke="#2563eb" stroke-width="2"/>
<circle cx="299.71" cy="496.71" r="6" fill="#16a34a"/>
<circle cx="113.35" cy="291.42" r="6" fill="#dc2626"/>
<text x="30" y="655" font-family="monospace" font-size="14" fill="#16a34a">green=start</text>
<text x="30" y="675" font-family="monospace" font-size="14" fill="#dc2626">red=end</text>
</svg>