ply
format ascii 1.0
element vertex 744
property float x
property float y
property float z
end_header
0.213801816 0.388459265 3.982890606
1.448534608 -3.860595942 4.909586906
-4.135527134 3.600427151 5.727648735
-8.579325676 6.630191803 6.878105164
-2.393893480 1.288252234 4.768833637
1.745049477 -2.817919970 2.662638664
0.909321904 -1.623818398 3.641649961
-1.989762783 -2.109410048 6.743826866
-3.270339489 -2.409537077 5.903529644
-0.075236872 2.921343803 4.112649918
-2.319811821 2.065286636 4.908987999
-2.107999563 1.966755271 4.747327805
-2.555980921 1.805462718 4.021701336
0.393736362 1.263828516 5.128901482
-1.842848063 0.809643865 3.798283100
-1.664046645 0.830036163 3.926940203
-2.339388847 1.247012138 5.347498417
-2.836926937 3.325825453 5.585423946
1.655431390 -0.841839671 4.911566257
0.753753781 -0.830937326 2.762966633
0.768711805 -0.369786978 2.722430468
0.737849176 -1.274154067 3.718276978
0.362186670 2.184562445 3.454120159
0.271282703 -0.690073967 2.863361359
0.338793576 1.910836577 3.306164742
-0.139448479 -0.739260137 2.934351683
-0.628274083 2.136626959 3.131934166
-0.650523782 2.734470844 3.770275116
-0.971829474 1.078675508 4.117714882
-3.635923624 -2.066632032 5.172905445
0.389135063 -1.859003425 5.990769863
-0.920136273 -1.114059925 4.070888519
-0.960140288 1.640861869 4.036046982
-2.887042761 0.367198646 4.496698856
1.386500955 -1.387443662 4.117627144
0.757291257 1.887501001 3.417239666
0.343955576 0.836794138 3.325278759
0.351813853 1.639595509 3.624703169
-0.311405450 -0.906146884 3.012515783
-0.547259092 0.971919715 4.382088661
-0.675895989 1.635401011 4.515518665
-0.999693274 2.580620289 4.105188847
-1.132261753 1.226495266 4.391357422
-1.927889943 2.046782255 4.451434612
-2.175240278 3.004260778 4.963963032
-2.416809320 -0.915834427 5.890071869
-2.826820612 1.254171610 4.406896591
-6.899249077 3.264636278 9.126228333
-8.562254906 -4.445904732 11.899921417
-12.381886482 7.507201672 8.077243805
1.095890284 1.526566505 3.168902874
0.386171877 1.620626092 3.580508947
0.372277319 1.882393003 3.177001238
-0.814986348 -2.087373972 5.762150288
-1.128785372 0.477896482 4.887450218
-1.267459631 -0.351031065 4.203915119
-2.778491259 2.368789434 3.864509583
-5.222205162 -2.408376217 7.742324352
0.717248559 0.728292108 2.379619360
-0.846012235 0.122096926 2.972266674
3.387839317 -1.839326739 1.996946812
0.965782523 0.923472643 4.151046276
0.714038789 -0.919911027 3.058935881
0.567365706 2.148585320 3.087451935
-0.460420758 1.473394871 3.626889706
-0.696798086 0.010925538 3.366166830
-0.832058132 -0.388357610 2.905775070
-1.421001792 0.453585118 4.637341976
-2.000329971 -2.195036888 5.513103962
-2.458386183 -0.464445740 5.554834366
-4.942130089 4.896763802 6.598464489
-7.016939640 1.570698738 9.353810310
0.853551805 1.776405811 2.574296951
0.843849242 -0.941945195 2.625482082
0.897881508 -2.090237141 2.851751804
1.174693704 -2.600344896 3.532494068
0.954445302 0.735218823 3.347138166
0.821535826 -0.488901377 3.584848166
0.857926011 0.173249960 3.774866343
0.487308770 -1.072857141 3.061262846
0.443728298 1.622421384 4.236182690
0.315699607 -0.392217636 2.936202049
0.408586025 1.811942458 4.744489193
0.315357506 2.389034510 4.285063744
0.296640128 1.827789426 3.276265621
0.394942313 1.006110787 5.052733421
0.201272562 1.728981733 3.937235355
0.049825806 -0.769762993 3.416517258
-0.158586547 2.277727127 4.733705997
-0.237916678 0.608749330 2.902354479
-0.324521065 0.304413855 2.930631638
-0.261246920 0.283968359 2.734721899
-0.356816620 0.282465428 3.304612398
-0.758623123 2.692899704 3.693740606
-1.024390936 0.695365250 4.940178394
-0.939176023 0.894857764 3.989306211
-0.833623409 0.159931570 3.584917307
-1.233585835 1.741308212 4.378311157
-0.724130869 -0.420124829 2.667268991
-1.473422885 0.270331711 4.809946060
-2.679797411 -2.985281467 7.972784519
-1.907365322 2.442737103 4.112262726
-2.399524927 0.829696596 4.389395237
-5.797996521 -4.543004990 8.999963760
-4.609387875 -2.392096043 6.800605774
-3.803544998 -0.963803470 5.828357220
-3.510797024 2.348278284 4.556086540
-8.101938248 -2.402430296 11.576489449
-4.456874371 -2.388912916 5.956510544
-4.331157207 1.847105145 5.515030861
-4.839486599 -0.279371232 6.572669029
-4.861989021 -0.138417959 6.337125778
0.838902891 0.136442289 2.942080736
0.975118160 0.316873789 3.418685198
1.258245587 0.123468995 4.504014492
0.151777700 -0.268177152 2.088459253
-0.054266647 0.638399661 3.476960182
-0.395640850 1.464309692 3.150341988
-0.418876261 1.745812535 3.754000664
-0.427931517 0.014769414 2.845506430
-0.896418512 0.083388552 2.921203136
0.067107387 -1.814683318 5.123431206
-0.040666077 -1.911378264 5.075160027
1.729020000 -0.005377660 5.280166149
0.434870124 0.667255521 1.221457839
-8.262594223 -4.493936539 13.435413361
2.834692240 2.264330626 0.191669956
0.281604558 1.005483747 1.721616387
-0.251343668 0.763824046 1.698628902
-2.453923702 0.673268855 3.781319380
-2.426904440 1.804804206 1.295020938
2.940791607 1.491933107 2.138056278
4.126563549 2.298226833 0.002915512
2.637967348 -1.487223268 1.535011053
-0.387245655 1.676183462 1.866745234
5.246893406 0.221554026 3.610065460
0.154551283 -0.024282711 0.590352833
0.664267898 0.320201874 2.524008989
0.080598697 1.009392738 2.255042315
0.652191460 0.840686738 2.366866112
0.397738218 0.551462531 1.449540854
-1.498088121 1.556266069 2.948693514
2.931573153 -0.351405442 0.017097350
0.733319581 1.422186136 2.927621365
0.530875921 1.284468651 2.180883884
-0.656102180 0.939685881 1.572487116
-1.693051696 0.627237380 2.249839306
0.606883764 -1.352699161 1.856133819
0.475799739 0.319668591 1.661260486
-0.112519629 1.065617085 1.843249559
-0.347118735 1.041861773 1.585714579
0.036134880 1.522362947 2.629769325
0.602297127 0.193215221 2.027658701
0.872062147 1.125231981 2.627830029
2.906631470 1.487155437 2.148698330
3.381772280 -1.646170020 1.815156698
2.303691149 1.838957548 1.885439873
-1.130634069 2.160661221 2.932456732
-5.605700016 -2.867317200 7.746955872
-2.686489820 -1.106852293 4.390217781
2.657318115 -0.319888562 0.028449321
-0.790615141 0.207213759 1.563616753
0.589561045 2.174352884 2.646698713
4.916997433 0.304870695 3.510885000
0.388952851 0.011520476 1.130531311
0.394387186 0.239548355 1.401537657
0.387370050 0.281647652 1.308600068
0.097304538 -0.087037064 0.601401448
-0.263060331 1.391727924 2.691873550
0.240162492 -0.002581070 0.973623037
1.781543612 4.266983509 8.417243958
0.332273066 0.407884330 1.163686514
0.701700568 0.813615561 2.087099791
0.121850245 0.026993476 0.765223145
0.371346086 0.857538581 1.409542322
-1.276023626 1.295165539 1.904022932
-0.945374131 1.118960142 1.452251554
-1.538884997 1.944678783 2.573327780
-1.441568613 -0.102345653 2.186906338
-2.517395258 1.885948896 3.663975000
-0.904369593 0.444077611 1.350778580
-2.093278885 0.408299565 3.221623182
3.736639977 0.089830868 2.184993267
2.766023874 1.993661523 1.727435827
4.445899963 3.272624731 2.717481375
0.691898108 0.541747689 2.077658415
0.794315875 0.757716537 2.365392685
0.399363935 0.079661958 1.158652782
-4.284498215 -1.674156785 0.880950153
-0.347593814 -0.095615573 0.566689134
-4.240763187 0.283280432 0.988238394
0.210035339 0.118484966 0.888856471
0.541622341 -0.017659355 2.369718313
0.202260196 -0.007438265 0.721653759
0.684797704 -0.017936634 2.551498890
0.233649969 1.048434377 1.750423670
0.250062495 1.447889805 2.901980639
-1.692342281 1.359146476 2.161146879
-1.702217579 1.394459963 2.297035933
2.884289980 2.208079338 1.717552781
3.432344675 0.164285734 2.346683025
2.412796736 1.876529217 1.857252955
2.193830013 1.642199993 1.253067493
-7.321635723 4.826990604 0.022510827
-6.034424782 0.752171755 0.496003866
2.713159800 0.576481283 0.070605844
0.729185343 1.074876428 2.135214567
0.291928083 1.255358338 2.210256338
0.057138957 0.460913897 1.604625821
-0.935293674 1.368631482 1.919048548
-0.941361785 3.950569391 5.619909286
3.452708244 -6.918311596 15.415192604
4.193301678 -0.450055152 0.007248530
3.062687874 0.683392227 0.047309574
0.935727954 1.598894000 2.816462517
-0.213387281 1.683336020 2.812686205
-1.502894640 1.288980961 2.368279696
5.247383595 -0.691150606 0.159301981
0.712866485 0.826902807 2.160427094
0.337527901 0.704448879 1.517559886
0.481044471 1.282305360 2.207841396
0.078909278 1.713508129 2.716239691
-0.355493963 1.464878678 2.569717884
-0.332601339 1.293163896 2.154429913
-0.516103506 1.678926349 2.322088957
-0.953045428 1.582289457 2.347217560
-4.603286266 3.932925940 6.391836166
0.486849517 0.932668209 1.565493822
0.288304716 1.287494421 2.495154142
2.869804621 1.496081948 2.133007288
3.370018482 -1.842757583 0.497359514
4.614154339 2.616728067 0.025426848
-0.023249147 1.900488019 2.692892313
2.848501682 1.702577472 1.967485428
2.870716333 1.796059012 1.887252927
0.111977078 1.681492805 2.546616077
3.505560398 0.196896493 0.155251637
4.269890308 0.469648063 0.044943027
-0.168297097 2.025324106 2.929234266
3.556193590 -1.981050014 2.121229172
3.144303083 -1.684582949 1.686753631
5.454561710 1.134897113 0.209654868
0.370515764 0.836979985 1.804813743
0.400300145 1.813552737 2.545015335
-0.041158676 0.121984631 0.273729950
8.522597313 0.962899864 0.049315702
5.096365929 -0.531206071 0.045062177
5.877210617 -1.123401165 0.144007504
5.339635849 -0.661299944 0.029764703
3.291918039 -0.598894596 0.165084645
3.041595936 2.329768896 0.041855209
1.519111514 1.165748715 0.825345278
0.230088905 1.750757456 3.029923677
-0.014605729 2.183363676 3.382551670
-1.015867352 1.951964498 2.642765045
-1.321352482 1.311649680 1.695124030
2.623870134 1.349230051 1.923807621
1.394792557 1.486132503 1.519536853
3.908404827 -1.845212102 0.051792488
2.615489006 -0.321702659 0.074696273
-1.908079624 0.151239425 0.420396358
5.157266617 1.246803522 0.100635894
4.160979271 0.839770436 0.125827327
4.899583817 0.753830969 0.019719966
3.716086864 2.155692577 0.009355460
-0.083604321 1.637288809 2.536399603
2.478800297 -0.691701829 0.062237300
2.686261415 -1.184987903 1.565899491
2.779431343 -1.275502682 1.565442681
0.717145205 0.607255042 2.168961287
3.498133421 0.168095112 0.056258947
5.515645981 0.635994136 0.029994771
3.339022875 -0.517850339 0.128435552
0.568682313 0.203099012 1.779374003
0.791996896 0.737581253 2.310773373
-1.947723508 1.817162395 2.940361500
3.695168495 1.244366884 0.042400174
3.229558945 -0.649494767 0.157349855
4.153497696 -0.854433060 0.052740715
3.476492167 2.444368601 0.235479876
2.969463825 2.112180471 0.064573996
3.703472614 3.235513687 0.277906865
2.685594082 2.372495413 0.062514715
0.804462075 1.413655758 2.631479502
2.580389500 -0.358655900 0.062847160
2.729242325 -0.501978338 0.119935095
-0.005484551 1.844364405 2.652694464
-0.479322046 1.785747409 2.491870165
3.005354881 0.171707362 2.129847050
2.631966829 -1.449372411 1.523523331
0.868276656 1.207421541 2.474926710
-2.048952579 1.620410800 0.953751802
-1.818316817 0.149155989 0.393205941
0.749035060 1.244332433 2.290893555
3.329900265 0.217986256 0.095053546
-3.638793707 1.937751174 2.555471659
3.691270828 -1.731758475 2.143579960
3.218878031 -0.889559627 0.130410939
0.270740181 1.602434278 2.692271948
5.585173130 -0.566869199 0.239839360
0.799281657 0.777291238 2.394930363
-0.878163159 1.830354452 2.579964638
4.197083473 -0.708874762 0.178271651
2.127734423 -0.370013267 0.057508528
3.698405743 -0.473538727 0.169551253
4.876599789 0.664441526 0.069648661
2.760384560 -1.462389231 1.495552778
0.375112921 1.461421728 2.114688873
4.000720978 -0.830685973 0.044465538
3.384430170 2.987099648 0.098428398
6.031013966 4.372212887 3.500010014
0.575819492 1.297180295 2.291273594
4.274621964 -0.504859984 0.126220092
3.781194925 -0.412786514 0.190002382
2.687164783 -0.282001823 0.059819382
4.882344723 0.217009991 0.109868832
3.951888084 0.193401620 0.085195728
5.813635826 0.734539866 0.112353407
4.296204090 -2.031032562 0.073297575
2.918054581 -1.344774365 0.062553540
3.977269888 3.197626352 0.099213086
2.616581202 0.145640984 1.832025290
3.234205008 -2.282256126 2.353651524
0.960964978 2.001621246 2.917731047
-1.829840899 0.295100540 2.428661108
4.474627495 -1.075640202 0.264416218
4.010677338 -0.983924091 0.219426155
3.319152832 -0.917828858 0.139620647
3.431778908 -1.570323944 0.229287282
4.131371498 2.716685295 2.557497501
4.165591240 1.833191752 0.001479218
2.765302896 0.155610368 1.945958257
4.122539043 -0.960321367 0.012077001
3.607142210 -0.465002239 0.172403812
5.508356571 0.695942342 0.097754955
4.456342220 -0.779734135 0.009192195
3.981271505 -1.029411197 0.035943631
0.839893520 0.810390234 2.426365137
0.288226426 0.016660782 0.010338753
2.596186161 2.309139729 0.076524876
3.026228905 -1.614542603 1.800935149
1.947390199 -1.490303755 1.449413538
0.454045832 1.804986477 2.777500391
-1.393871069 2.504337788 3.636518717
1.469560623 1.599375844 1.672295809
3.840341330 0.298611492 0.096399136
4.677443981 -0.555014670 0.123484358
4.564241409 0.799700201 0.076604396
5.015205860 0.958419979 0.187666729
5.536544800 -1.277718425 0.211155117
4.375327587 -0.916238368 0.024782779
4.169054985 -0.703228712 0.178216085
3.553611994 -1.693946838 0.036627624
4.236762047 -2.001880646 0.075795457
3.857836723 3.103712320 0.091361649
0.516577721 -0.583915651 1.632222772
-1.433951378 2.580121040 3.544555664
-1.994570255 0.328501761 2.660946846
0.703311980 -0.745726228 2.122992992
3.265043497 2.293655157 0.052606974
3.925986052 0.165492892 0.161507711
3.122203827 0.731332958 0.040549114
3.231451273 2.448806047 0.204559535
1.956743598 -1.492105246 1.455267787
4.054369450 -0.620832086 0.025400171
4.695227146 -0.674015820 0.171012536
3.656078100 2.935058832 0.054620843
0.163948521 -0.175486758 0.891200483
4.081395149 0.988525212 0.061014671
-0.216350600 0.948124707 1.293943763
-1.838413835 0.652156830 2.474542618
-0.455846876 2.389943361 4.681577682
0.347032100 -0.218045205 1.278330207
-7.199295521 0.565014899 10.052273750
3.578438759 -0.418529898 0.142953560
-1.478426933 0.875203609 2.109932423
1.308753133 -0.199792400 5.125353813
-2.479696512 0.073715724 4.053092003
-1.391506433 0.990172923 1.874860168
6.077146053 1.024134398 0.142472371
-0.751798451 2.907957792 4.470946789
-1.766293526 1.737821460 2.357167721
2.765922308 -2.213326216 2.223359346
0.832467020 1.554864407 2.500567436
0.398199916 1.643774867 2.419072866
7.514029026 1.128279328 0.016133396
-2.599365234 2.240277290 3.551920652
3.202875853 -1.512088418 1.805706978
0.489026695 1.964009643 2.849366903
0.492055535 0.777240634 1.707338333
-1.681709290 1.347710133 0.801910996
-2.454163790 2.281498194 3.166617155
-2.541032553 2.036674261 1.211779356
0.821704566 1.166821718 2.500934362
-0.013785508 0.072233483 0.397576302
0.481823772 1.147690535 1.868432045
-1.857175946 2.385382652 3.153172255
-2.478918552 1.990468383 1.182987094
-0.622525156 0.586006045 1.328270078
-0.354372770 0.825679064 1.186141372
-0.729871869 0.145955235 0.949273527
-0.567191362 -0.558617234 0.979124069
-0.589765847 -0.035861552 0.768774986
-0.632353783 -0.386881083 0.875301242
-0.328140169 -0.210424662 0.686822712
-0.604185760 -0.376842886 0.837902784
-0.628607869 0.039810706 1.120850921
-0.607581556 -0.035796646 0.796950579
-0.401994795 -0.204672962 0.671516776
-0.743837595 0.365727395 0.976142108
4.615412235 -4.987560272 4.718955040
-0.632507205 -0.395047098 0.877359688
-0.499787420 -0.062219735 0.707649231
-0.421858102 -0.237878814 0.669279039
-0.402070493 -0.057360075 0.676623106
-0.657388330 0.143182516 0.858869731
-1.420572877 2.054042339 2.750809193
18.890441895 -3.861695528 0.276238859
-0.547716498 0.162055507 0.766954303
3.770172119 -4.048514366 3.842264891
-0.490092903 -0.203894183 0.703154445
-0.169086397 0.006497534 0.424815685
-0.260991454 0.054659121 0.535372615
3.992971420 -4.301342964 4.122997284
-0.513622701 0.018254844 0.761399567
-0.186918259 -0.040231287 0.452386707
-0.118284650 -0.011306762 0.336588234
3.808384895 -4.098679543 3.930508137
0.332564205 0.022203639 0.011568354
-2.008994341 -2.504338741 2.884179831
-0.380032063 -0.319908261 0.721097648
-4.363891602 -1.725178361 0.968227267
-4.747184277 -3.631088972 2.338201046
-4.309744358 2.298660278 3.040964842
-5.064819813 -3.870328426 2.493832827
-0.493607312 -0.003725169 0.647280276
3.826281548 2.677520752 0.298455000
-0.300976336 -0.097116970 0.519831717
-5.502372265 -2.084059000 1.284600616
-1.944349647 -1.655370831 2.844459534
-0.761963725 -0.456737638 1.053305268
-0.634882450 -0.225256279 0.866445959
-0.383476883 -0.268068701 0.945042908
-0.061982322 -0.016504826 0.206733853
-0.670687020 -0.209797576 0.887087464
-0.183483794 -0.029598650 0.397204161
-2.856183767 -1.899686694 1.143903971
-2.052958012 -2.486407995 2.914273739
-1.096044779 -0.899576306 1.493504524
-1.597878098 -1.951550841 2.243057728
-8.536529541 -3.645944357 2.012677670
-3.470194340 0.270405531 0.787225842
-0.964647472 -0.777495265 1.307140470
-0.156249642 -0.028864998 0.366934717
-0.338157415 0.075518698 0.646803558
-0.457959890 0.043750685 0.721076906
-3.402309179 2.315493107 0.082489461
-1.700132966 1.254187346 2.195940971
-0.840605915 0.109033465 1.236235261
-1.275304556 0.957551003 1.624904275
-0.192182675 0.022351138 0.458737493
-0.720531881 0.100866899 1.050557137
-0.960719407 -0.047418676 1.252338767
-0.214803100 0.050913889 0.494484365
-4.732432842 0.576229513 0.358636498
-0.158934787 0.049388766 0.386408925
-0.166220233 0.076125123 0.411404490
-0.349010527 0.097672291 0.678419948
-2.322955132 2.361032486 2.996652842
-0.157321841 0.076528184 0.444883794
-1.102504611 0.373574793 1.617188811
-1.038366795 0.354938120 1.501339674
-0.831807971 0.070060432 1.198888540
1.093877912 2.450730801 3.753008604
-1.866948962 2.001924515 2.052110195
-1.250682592 -0.549394846 0.285809219
-2.132364750 -1.575734735 1.038759232
1.467559814 -2.524542093 2.233211279
0.207220271 0.561629176 1.567473292
-1.592777729 -0.641238809 0.401068747
-1.362623215 -0.515882313 0.345664918
-1.018272400 -1.193339229 0.870246589
-1.352273345 -0.525936723 0.319401771
2.411041737 -5.270872593 4.884608746
-1.586921334 -0.937160373 0.576662302
-0.978458226 -1.148675442 0.837011933
-1.478126645 -1.474130511 1.064764261
-1.450824857 -1.244233966 0.752430737
0.104517601 0.087707631 0.527817130
-1.002862573 -1.650980592 1.264228463
1.731846571 -1.944210887 1.889435649
0.447291702 -1.208351851 1.073446751
0.458034426 -1.662963510 1.419067025
2.020572186 -2.226515532 2.155192852
0.584019244 -1.786882758 1.638419509
-1.070144773 1.559376597 1.655349970
-1.062024832 1.577193975 1.663769841
0.053585403 -0.048309304 0.415071547
0.046580728 -0.038177330 0.393391937
0.061674073 0.205934078 0.538487613
-0.123066105 -0.046230525 0.027737522
-0.617388785 -0.731342912 0.865076363
-0.556475520 -0.674141169 0.787174463
-0.140245289 0.422773927 0.786679208
3.390485287 2.587012529 0.006734972
0.165984392 -0.306705654 0.685735643
-0.044712894 0.284971833 0.558329940
0.027828218 0.187537923 0.420546889
0.160139337 -0.328061789 0.691788971
-0.102843769 0.039487734 0.424798429
3.068381310 2.274224520 0.060981605
0.850650311 0.545218885 4.352489471
-4.566968441 -2.794712067 1.787259459
-0.162023649 -0.319109619 0.850360692
-0.107003413 0.085302107 0.874985278
-0.279900938 -0.212902367 0.529720962
-0.284419000 -0.219515026 0.541615903
-0.094936863 -0.098674417 0.069833197
-0.205657318 0.499742240 0.856211782
-0.159731179 0.260466814 0.575539231
-0.138277143 0.412346840 0.727277219
-0.150997281 0.109834298 0.282417715
-0.016030172 0.225359425 0.477166772
-0.136087075 0.071543954 0.268821925
-0.072827630 3.613169670 4.137117863
-1.518972993 1.170075536 0.947471321
-0.093706638 -0.173408374 0.460451692
-0.185011715 0.223979682 0.795133173
-0.178744823 0.219280988 0.774240851
-0.039116930 -0.117150351 0.136692688
-2.569434166 0.240171626 0.257812291
-5.302490234 4.440363407 15.331256866
-0.093354337 0.016234079 0.393580556
-0.115304932 -0.189226270 0.550307989
-0.121325552 -0.220749140 0.606032252
-3.901600599 3.031562090 1.929108381
-0.144693002 -0.345692068 0.892323256
-0.091303542 -0.183974713 0.525724173
-0.507637441 0.440407038 1.441195250
-0.108507648 -0.264684498 0.674826741
-0.159088075 -0.352690399 0.899897456
-0.147365898 -0.089115120 0.054600049
-0.610216856 -0.676022947 1.754662871
-0.684460819 -0.228761956 1.527598977
-0.298763841 0.055206433 0.657967210
-0.418861836 0.028892551 1.003903508
-0.477635980 2.536315441 2.680105448
-1.726018071 0.135831833 0.375435621
1.283789992 -0.713808298 0.151853427
0.849304497 -0.497515798 0.097996905
2.512849331 3.058950901 0.315312088
1.019992113 1.891576886 2.110356092
0.209808081 2.094815254 2.234192610
0.504221439 -0.152002260 0.018116266
0.083446786 0.272967339 0.713416696
0.337552816 0.017639039 0.007111099
-0.060053755 0.070086755 0.386761576
-0.147481993 -0.107055038 0.323627353
0.384796172 -0.111028299 0.005094479
2.861554146 2.545409918 0.110372923
-0.542816043 0.012867480 1.264401913
-0.203858599 -0.233120248 0.655870438
0.038787242 0.459824592 0.816166401
0.115454257 0.113178462 0.931818068
1.257369637 0.931856334 0.766175807
-0.337597787 0.360164881 0.746267080
-1.647547483 0.734030545 2.644965649
0.266539425 0.075128242 1.177254081
-1.292216063 1.024205804 0.614534855
0.061743721 0.424440265 1.603854537
-3.326831579 2.560649395 2.106867552
0.083070487 0.035519451 0.727628231
-0.278253376 0.027935548 0.028155215
-1.529139519 -0.834115088 0.495044559
-1.494508862 -0.816017330 0.483934134
-0.281894565 0.027221905 0.028509887
-0.129570469 0.925814152 1.993902683
-0.278274536 0.028058704 0.028158875
-0.184162587 0.045863003 0.251667708
2.683778524 2.340703011 0.211726636
-0.115785196 0.279227853 0.987163484
0.135515586 0.304578304 1.214380145
-0.110077456 0.043085806 0.308074832
-0.723794222 0.060448762 0.157146811
0.180261970 0.014875334 0.131788835
-0.097036526 -0.038795266 0.555450022
-1.233714104 0.098459095 0.268378973
-0.087891608 -0.263597667 0.819103897
0.028345628 -0.110590078 0.360347271
-0.271962941 -0.463256240 0.438138276
-0.282104015 -0.243611678 0.698920071
2.512118340 2.206660032 0.175386786
-0.947334886 0.552566290 1.328963041
-0.376381576 0.294041008 0.296867967
-0.105918296 0.209220439 0.446510971
2.479928493 1.266323805 1.832129955
-0.327518165 -0.227288589 0.694259286
-0.418785334 0.738407314 1.786430001
-0.236974627 0.018892594 0.167874932
-0.828310728 -0.306664705 0.200123757
0.344170958 0.025279179 1.231424570
-0.238532379 0.020643229 0.169010550
-0.292033911 -0.274513394 0.229983002
0.179028511 0.367635757 1.272497773
-0.296292245 -0.274940073 0.231906652
-0.304012269 -0.272969514 0.223699510
-0.310462415 -0.276266128 0.227557674
0.218964383 0.321779132 0.869487524
0.052057911 0.096054725 0.447267681
-0.190754175 0.178101301 0.926700175
-1.813413024 1.710501909 2.458781958
2.284962654 1.749447227 1.408703566
0.211304724 -0.079939671 0.013621174
-0.356536567 0.651534200 1.768470764
-1.197525620 0.331049800 0.872992098
0.080209494 -0.022373412 0.406658798
-0.131267741 0.200003177 0.650185525
-1.184089303 1.145977378 1.761120915
1.731832385 -2.429362535 2.238656998
2.392675638 -3.529593945 3.214969873
3.064134836 2.369960070 1.896061778
0.582472742 -0.680587292 0.650299609
0.127456605 0.595026970 1.820792913
2.847449541 -0.032109130 0.085692637
0.021787774 0.010243404 0.206115499
-0.054889128 0.350728631 0.781938374
-0.220099926 -0.128126472 0.301584989
-0.257191330 -0.627630889 0.730693102
0.156435385 -0.117447510 0.115930453
0.060482778 -0.734739423 0.901073575
-0.235321820 -0.184183940 0.353677541
-0.044410072 -0.971786320 1.165962577
3.144703627 0.466026068 0.052953124
-0.286417454 -0.221289530 0.429836601
2.323240757 0.217377111 0.073261268
-0.282533884 0.148627326 0.364913195
-0.210310802 -0.193951413 0.358320564
1.018400311 2.519373417 2.768346310
-0.184318125 0.000492448 0.256448925
3.461545944 1.160962462 0.040838070
-0.202378720 0.138569281 0.253723174
4.513470650 -0.010392291 0.134004280
0.117688581 -0.073440261 0.531698167
-0.146738589 0.002764278 0.214214638
-0.060990937 -0.127327979 0.328686744
5.447352886 -1.102417588 0.112424135
2.533358812 1.879469872 0.084010422
-0.322749496 0.255985141 0.805520117
4.567121506 -1.193964720 0.053015009
3.567665100 0.827059686 0.016742373
-0.200279459 -0.114610858 0.277560562
-0.343334407 0.779872298 1.328504086
-0.161048993 -0.061379496 0.033112761
3.686601877 2.442573547 0.289544731
3.870115280 2.790605068 0.086645909
-0.135127515 -0.079365574 0.195072383
-3.829480886 -1.692444444 0.916621149
-0.641359270 -0.554085970 1.059339166
0.294582754 -0.047438491 0.004910483
3.227555990 0.443525493 0.040253945
-0.191833422 0.425356418 1.119161606
0.325417429 -0.145089373 0.017024038
-0.012934893 0.165873855 0.289734304
0.296061009 -0.051809482 0.006350449
0.452597886 -1.283509374 1.126578808
-0.656986475 -0.566076934 1.071231484
-0.359408468 0.095907472 0.495059878
-0.472039402 0.219436601 0.601847231
-0.330516845 -0.291114032 0.550307751
-0.069840766 0.115437269 0.529277205
0.169267103 0.115966924 0.856976211
0.300511777 -0.036001600 0.006121554
0.305294991 -0.068765208 0.012217871
0.277058363 -0.630288661 0.582822382
-0.349945992 -0.277557641 0.189004049
-0.291208088 0.082334042 0.465560019
0.321418494 -0.176715419 0.042884823
0.324796826 -0.144478738 0.016984990
-0.090338439 -0.219743297 0.640079141
1.120612144 -1.090515375 3.271884918
0.604180396 -1.099887490 2.342940807
3.506646633 -1.717390537 2.010688543
0.338055968 -0.091712862 0.016217621
0.334377795 -0.089944728 0.006628341
-0.126599714 -0.078323662 0.296449006
0.291554093 -0.050524838 0.003689745
-0.561092794 0.375338882 1.319434285
0.372919440 -0.045082424 0.017230570
-0.314216256 0.028055228 1.027509809
-0.587743163 -0.109388165 1.354026794
0.548178792 1.204133391 1.172091603
0.245650962 -0.046004843 0.134941518
0.087958373 1.511056304 2.312283516
-0.795201778 2.950278759 4.036112785
-0.159574717 0.255929351 0.738180101
0.069243543 0.352820337 0.500428379
-0.056308802 0.231808037 0.321123391
3.764467955 2.729334831 2.132599354
0.063583717 0.188833088 0.296363473
0.403428882 0.334726661 0.222478300
0.545198202 0.772933662 0.772328854
0.533927739 1.019705653 1.029798746
-0.365896076 0.266470402 0.492645890
-0.032576300 0.129153714 0.483742267
-0.184809953 -0.208757877 0.905438900
-0.282603502 0.027165420 0.028580047
-0.601375937 0.746017516 1.211296558
-0.369288743 -0.549313307 0.424277514
2.359284401 1.830825210 1.895769835
-3.269994974 -2.715742350 4.881066322
2.922802925 1.509496808 2.134135723
-0.524588704 -0.782564163 0.600858271
-0.153009191 0.069567189 0.350221962
-0.610683978 -0.352118433 0.223379165
-0.302088827 -0.256293237 0.744841337
0.158295691 2.982336283 3.317866802
-0.326052248 -0.365491003 0.271478206
0.975581646 2.991060257 3.370703459
0.137808785 0.322628886 1.135694623
-0.626893759 -0.448063910 0.300488412
-0.271813780 -0.216306284 0.513541579
-0.401253402 -0.541851044 0.396647334
-0.737154841 -0.352260649 1.209620595
-0.961390197 -0.718347132 1.733980060
-0.446766526 0.080929004 0.580364525
0.404857337 2.790758133 3.091792345
-0.252403349 0.241122112 0.934401512
-0.278999448 -0.217716783 0.526761115
-0.583670437 -0.314205498 0.786499202
-0.407114089 0.073003799 0.525559545
1.553692341 4.718969345 5.278794765
1.655461311 3.657543898 4.151031494
-0.437610358 -0.266716897 0.899333358
3.403271198 1.708782792 2.493822336
2.660614014 2.065216780 2.105434656
-0.347507000 0.096097186 0.487301916
-0.471902132 -0.390720993 0.765390754
0.072786860 -0.129922882 0.121245898
-0.217898533 -0.220061064 0.641775131
0.500215530 2.868049145 3.201629639
-0.855271697 -0.408537984 1.404364824
3.873596191 12.737421036 14.429991722
0.307639092 0.014703745 0.006901785
0.053565700 -0.197756663 0.725101054
